G04 EAGLE Gerber RS-274X export*
G75*
%MOMM*%
%FSLAX34Y34*%
%LPD*%
%INSilkscreen Top*%
%IPPOS*%
%AMOC8*
5,1,8,0,0,1.08239X$1,22.5*%
G01*
%ADD10C,0.152400*%
%ADD11R,0.635000X0.042419*%
%ADD12R,0.635000X0.042162*%
%ADD13R,0.718819X0.042162*%
%ADD14R,0.805181X0.042162*%
%ADD15R,0.762000X0.042419*%
%ADD16R,1.143000X0.042419*%
%ADD17R,0.721363X0.042419*%
%ADD18R,1.397000X0.042419*%
%ADD19R,1.567181X0.042162*%
%ADD20R,0.718819X0.042419*%
%ADD21R,1.734819X0.042419*%
%ADD22R,1.905000X0.042419*%
%ADD23R,0.762000X0.042162*%
%ADD24R,2.032000X0.042162*%
%ADD25R,2.159000X0.042419*%
%ADD26R,2.242819X0.042419*%
%ADD27R,2.372362X0.042162*%
%ADD28R,2.453638X0.042419*%
%ADD29R,0.678181X0.042419*%
%ADD30R,1.226819X0.042419*%
%ADD31R,0.721363X0.042162*%
%ADD32R,1.016000X0.042162*%
%ADD33R,0.932181X0.042162*%
%ADD34R,0.889000X0.042419*%
%ADD35R,0.805181X0.042419*%
%ADD36R,0.845819X0.042419*%
%ADD37R,0.845819X0.042162*%
%ADD38R,0.508000X0.042162*%
%ADD39R,0.381000X0.042419*%
%ADD40R,0.297181X0.042419*%
%ADD41R,0.678181X0.042162*%
%ADD42R,0.170181X0.042162*%
%ADD43R,0.083819X0.042419*%
%ADD44R,0.675638X0.042419*%
%ADD45R,0.675638X0.042162*%
%ADD46R,3.134362X0.042162*%
%ADD47R,3.683000X0.042162*%
%ADD48R,7.239000X0.042419*%
%ADD49R,7.239000X0.042162*%
%ADD50R,3.385819X0.042162*%
%ADD51R,0.972819X0.042419*%
%ADD52R,0.551181X0.042419*%
%ADD53R,0.548638X0.042419*%
%ADD54R,0.591819X0.042419*%
%ADD55R,0.591819X0.042162*%
%ADD56R,0.594363X0.042419*%
%ADD57R,0.548638X0.042162*%
%ADD58R,0.040638X0.042419*%
%ADD59R,0.802638X0.042162*%
%ADD60R,0.127000X0.042162*%
%ADD61R,0.213363X0.042419*%
%ADD62R,0.294637X0.042419*%
%ADD63R,0.467363X0.042162*%
%ADD64R,0.929638X0.042419*%
%ADD65R,0.802638X0.042419*%
%ADD66R,0.975363X0.042419*%
%ADD67R,0.043181X0.042162*%
%ADD68R,0.551181X0.042162*%
%ADD69R,0.972819X0.042162*%
%ADD70R,1.099819X0.042162*%
%ADD71R,0.929638X0.042162*%
%ADD72R,0.464819X0.042419*%
%ADD73R,1.099819X0.042419*%
%ADD74R,4.064000X0.042419*%
%ADD75R,2.413000X0.042419*%
%ADD76R,0.424181X0.042162*%
%ADD77R,4.064000X0.042162*%
%ADD78R,2.329181X0.042162*%
%ADD79R,0.340363X0.042419*%
%ADD80R,2.202181X0.042419*%
%ADD81R,2.075181X0.042419*%
%ADD82R,0.086363X0.042162*%
%ADD83R,0.254000X0.042162*%
%ADD84R,1.948181X0.042162*%
%ADD85R,0.043181X0.042419*%
%ADD86R,1.821181X0.042419*%
%ADD87R,0.254000X0.042419*%
%ADD88R,1.651000X0.042419*%
%ADD89R,0.083819X0.042162*%
%ADD90R,0.297181X0.042162*%
%ADD91R,1.440181X0.042162*%
%ADD92R,1.186181X0.042419*%
%ADD93R,1.818638X0.042419*%
%ADD94R,0.932181X0.042419*%
%ADD95R,1.607819X0.042162*%
%ADD96R,2.202181X0.042162*%
%ADD97R,0.337819X0.042162*%
%ADD98R,1.437638X0.042419*%
%ADD99R,0.086363X0.042419*%
%ADD100R,1.437638X0.042162*%
%ADD101R,0.467363X0.042419*%
%ADD102R,0.424181X0.042419*%
%ADD103R,0.040638X0.042162*%
%ADD104R,0.294637X0.042162*%
%ADD105R,0.337819X0.042419*%
%ADD106R,0.381000X0.042162*%
%ADD107R,0.127000X0.042419*%
%ADD108R,2.286000X0.042419*%
%ADD109R,0.170181X0.042419*%
%ADD110R,2.286000X0.042162*%
%ADD111R,0.167637X0.042419*%
%ADD112R,0.421637X0.042419*%
%ADD113R,0.508000X0.042419*%
%ADD114R,0.464819X0.042162*%
%ADD115R,0.210819X0.042419*%
%ADD116R,0.210819X0.042162*%
%ADD117R,0.167637X0.042162*%
%ADD118R,0.213363X0.042162*%
%ADD119C,0.101600*%
%ADD120C,0.203200*%
%ADD121C,0.177800*%
%ADD122C,0.100000*%
%ADD123C,0.200000*%
%ADD124C,0.200000*%
%ADD125C,0.050000*%

G36*
X69637Y47931D02*
X69637Y47931D01*
X69663Y47928D01*
X69746Y47950D01*
X69831Y47965D01*
X69854Y47979D01*
X69880Y47986D01*
X69950Y48036D01*
X70024Y48080D01*
X70041Y48100D01*
X70063Y48116D01*
X70111Y48187D01*
X70165Y48254D01*
X70174Y48279D01*
X70189Y48301D01*
X70210Y48385D01*
X70237Y48466D01*
X70237Y48493D01*
X70243Y48519D01*
X70233Y48605D01*
X70231Y48691D01*
X70221Y48715D01*
X70218Y48742D01*
X70161Y48862D01*
X70146Y48898D01*
X70141Y48904D01*
X70138Y48912D01*
X67598Y52722D01*
X67544Y52778D01*
X67496Y52840D01*
X67471Y52856D01*
X67458Y52870D01*
X67453Y52872D01*
X67442Y52884D01*
X67372Y52917D01*
X67306Y52959D01*
X67272Y52966D01*
X67240Y52981D01*
X67163Y52988D01*
X67086Y53004D01*
X67051Y52999D01*
X67017Y53002D01*
X66941Y52982D01*
X66864Y52970D01*
X66847Y52960D01*
X66846Y52960D01*
X66841Y52957D01*
X66834Y52953D01*
X66800Y52944D01*
X66736Y52899D01*
X66668Y52861D01*
X66657Y52848D01*
X66653Y52846D01*
X66641Y52831D01*
X66617Y52814D01*
X66591Y52775D01*
X66542Y52722D01*
X64002Y48912D01*
X63992Y48887D01*
X63975Y48866D01*
X63947Y48785D01*
X63913Y48706D01*
X63911Y48679D01*
X63903Y48654D01*
X63905Y48568D01*
X63901Y48482D01*
X63909Y48456D01*
X63909Y48429D01*
X63942Y48350D01*
X63967Y48268D01*
X63984Y48246D01*
X63994Y48222D01*
X64052Y48158D01*
X64104Y48090D01*
X64127Y48076D01*
X64145Y48056D01*
X64222Y48017D01*
X64294Y47971D01*
X64321Y47966D01*
X64345Y47953D01*
X64475Y47934D01*
X64514Y47926D01*
X64521Y47927D01*
X64530Y47926D01*
X69610Y47926D01*
X69637Y47931D01*
G37*
G36*
X214417Y47931D02*
X214417Y47931D01*
X214443Y47928D01*
X214526Y47950D01*
X214611Y47965D01*
X214634Y47979D01*
X214660Y47986D01*
X214730Y48036D01*
X214804Y48080D01*
X214821Y48100D01*
X214843Y48116D01*
X214891Y48187D01*
X214945Y48254D01*
X214954Y48279D01*
X214969Y48301D01*
X214990Y48385D01*
X215017Y48466D01*
X215017Y48493D01*
X215023Y48519D01*
X215013Y48605D01*
X215011Y48691D01*
X215001Y48715D01*
X214998Y48742D01*
X214941Y48862D01*
X214926Y48898D01*
X214921Y48904D01*
X214918Y48912D01*
X212378Y52722D01*
X212324Y52778D01*
X212276Y52840D01*
X212251Y52856D01*
X212238Y52870D01*
X212233Y52872D01*
X212222Y52884D01*
X212152Y52917D01*
X212086Y52959D01*
X212052Y52966D01*
X212020Y52981D01*
X211943Y52988D01*
X211866Y53004D01*
X211831Y52999D01*
X211797Y53002D01*
X211721Y52982D01*
X211644Y52970D01*
X211627Y52960D01*
X211626Y52960D01*
X211621Y52957D01*
X211614Y52953D01*
X211580Y52944D01*
X211516Y52899D01*
X211448Y52861D01*
X211437Y52848D01*
X211433Y52846D01*
X211421Y52831D01*
X211397Y52814D01*
X211371Y52775D01*
X211322Y52722D01*
X208782Y48912D01*
X208772Y48887D01*
X208755Y48866D01*
X208727Y48785D01*
X208693Y48706D01*
X208691Y48679D01*
X208683Y48654D01*
X208685Y48568D01*
X208681Y48482D01*
X208689Y48456D01*
X208689Y48429D01*
X208722Y48350D01*
X208747Y48268D01*
X208764Y48246D01*
X208774Y48222D01*
X208832Y48158D01*
X208884Y48090D01*
X208907Y48076D01*
X208925Y48056D01*
X209002Y48017D01*
X209074Y47971D01*
X209101Y47966D01*
X209125Y47953D01*
X209255Y47934D01*
X209294Y47926D01*
X209301Y47927D01*
X209310Y47926D01*
X214390Y47926D01*
X214417Y47931D01*
G37*
D10*
X10922Y66746D02*
X15438Y70358D01*
X15438Y54102D01*
X19953Y54102D02*
X10922Y54102D01*
X617982Y320746D02*
X622498Y324358D01*
X622498Y308102D01*
X627013Y308102D02*
X617982Y308102D01*
D11*
X271390Y152399D03*
D12*
X271390Y152822D03*
D11*
X271390Y153245D03*
X271390Y153669D03*
D12*
X271390Y154092D03*
D11*
X271390Y154515D03*
X271390Y154939D03*
D12*
X271390Y155362D03*
D11*
X271390Y155785D03*
X271390Y156209D03*
D12*
X271390Y156632D03*
D11*
X271390Y157055D03*
X271390Y157479D03*
D12*
X271390Y157902D03*
D11*
X271390Y158325D03*
X271390Y158749D03*
D12*
X271390Y159172D03*
D11*
X271390Y159595D03*
X271390Y160019D03*
D12*
X271390Y160442D03*
D11*
X271390Y160865D03*
X271390Y161289D03*
D12*
X271390Y161712D03*
D11*
X271390Y162135D03*
X271390Y162559D03*
D12*
X271390Y162982D03*
D11*
X271390Y163405D03*
X271390Y163829D03*
D12*
X271390Y164252D03*
D11*
X271390Y164675D03*
X271390Y165099D03*
D12*
X271390Y165522D03*
D11*
X271390Y165945D03*
X271390Y166369D03*
D12*
X271390Y166792D03*
X286223Y166792D03*
D13*
X305261Y166792D03*
D14*
X341252Y166792D03*
D11*
X271390Y167215D03*
X286223Y167215D03*
D15*
X305045Y167215D03*
D16*
X341240Y167215D03*
D11*
X271390Y167639D03*
X286223Y167639D03*
D17*
X304841Y167639D03*
D18*
X341240Y167639D03*
D12*
X271390Y168062D03*
X286223Y168062D03*
D13*
X304422Y168062D03*
D19*
X341252Y168062D03*
D11*
X271390Y168485D03*
X286223Y168485D03*
D20*
X304422Y168485D03*
D21*
X341252Y168485D03*
D11*
X271390Y168909D03*
X286223Y168909D03*
D20*
X303991Y168909D03*
D22*
X341240Y168909D03*
D12*
X271390Y169332D03*
X286223Y169332D03*
D23*
X303775Y169332D03*
D24*
X341036Y169332D03*
D11*
X271390Y169755D03*
X286223Y169755D03*
D17*
X303571Y169755D03*
D25*
X341240Y169755D03*
D11*
X271390Y170179D03*
X286223Y170179D03*
D20*
X303152Y170179D03*
D26*
X341252Y170179D03*
D12*
X271390Y170602D03*
X286223Y170602D03*
D13*
X303152Y170602D03*
D27*
X341036Y170602D03*
D11*
X271390Y171025D03*
X286223Y171025D03*
D20*
X302721Y171025D03*
D28*
X341036Y171025D03*
D11*
X271390Y171449D03*
X286223Y171449D03*
D29*
X302517Y171449D03*
D30*
X334471Y171449D03*
D16*
X348021Y171449D03*
D12*
X271390Y171872D03*
X286223Y171872D03*
D31*
X302301Y171872D03*
D32*
X332985Y171872D03*
D33*
X349076Y171872D03*
D11*
X271390Y172295D03*
X286223Y172295D03*
D29*
X302086Y172295D03*
D34*
X332350Y172295D03*
D35*
X349711Y172295D03*
D11*
X271390Y172719D03*
X286223Y172719D03*
D20*
X301882Y172719D03*
D36*
X331727Y172719D03*
D11*
X349723Y172719D03*
D12*
X271390Y173142D03*
X286223Y173142D03*
D13*
X301451Y173142D03*
D37*
X331296Y173142D03*
D38*
X349926Y173142D03*
D11*
X271390Y173565D03*
X286223Y173565D03*
D29*
X301247Y173565D03*
D35*
X330661Y173565D03*
D39*
X349723Y173565D03*
D11*
X271390Y173989D03*
X286223Y173989D03*
D17*
X301031Y173989D03*
D15*
X330445Y173989D03*
D40*
X349711Y173989D03*
D12*
X271390Y174412D03*
X286223Y174412D03*
D41*
X300816Y174412D03*
D23*
X330038Y174412D03*
D42*
X349507Y174412D03*
D11*
X271390Y174835D03*
X286223Y174835D03*
D20*
X300612Y174835D03*
X329822Y174835D03*
D43*
X349507Y174835D03*
D11*
X271390Y175259D03*
X286223Y175259D03*
D44*
X300396Y175259D03*
D20*
X329391Y175259D03*
D12*
X271390Y175682D03*
X286223Y175682D03*
D41*
X299977Y175682D03*
X329187Y175682D03*
D11*
X271390Y176105D03*
X286223Y176105D03*
D29*
X299977Y176105D03*
D17*
X328971Y176105D03*
D11*
X271390Y176529D03*
X286223Y176529D03*
D29*
X299546Y176529D03*
X328756Y176529D03*
D12*
X271390Y176952D03*
X286223Y176952D03*
D45*
X299126Y176952D03*
X328336Y176952D03*
D11*
X271390Y177375D03*
X286223Y177375D03*
D44*
X299126Y177375D03*
X328336Y177375D03*
D11*
X271390Y177799D03*
X286223Y177799D03*
D29*
X298707Y177799D03*
D11*
X328133Y177799D03*
D12*
X271390Y178222D03*
X286223Y178222D03*
D41*
X298707Y178222D03*
X327917Y178222D03*
D11*
X271390Y178645D03*
X286223Y178645D03*
D29*
X298276Y178645D03*
X327917Y178645D03*
D11*
X271390Y179069D03*
X286223Y179069D03*
X298060Y179069D03*
X327701Y179069D03*
D12*
X271390Y179492D03*
X286223Y179492D03*
D45*
X297856Y179492D03*
D12*
X327701Y179492D03*
D11*
X271390Y179915D03*
X286223Y179915D03*
D29*
X297437Y179915D03*
D11*
X327701Y179915D03*
X271390Y180339D03*
X286223Y180339D03*
D29*
X297437Y180339D03*
D11*
X327270Y180339D03*
D46*
X273726Y180762D03*
D47*
X312030Y180762D03*
D48*
X294250Y181185D03*
X294250Y181609D03*
D49*
X294250Y182032D03*
D48*
X294250Y182455D03*
X294250Y182879D03*
D49*
X294250Y183302D03*
D48*
X294250Y183725D03*
X294250Y184149D03*
D49*
X294250Y184572D03*
D48*
X294250Y184995D03*
X294250Y185419D03*
D12*
X286223Y185842D03*
D50*
X313516Y185842D03*
D11*
X286223Y186265D03*
D51*
X303152Y186265D03*
D29*
X327486Y186265D03*
D43*
X265687Y186689D03*
D11*
X286223Y186689D03*
D36*
X303356Y186689D03*
D11*
X327701Y186689D03*
D42*
X265256Y187112D03*
D12*
X286223Y187112D03*
D23*
X303775Y187112D03*
D12*
X327701Y187112D03*
D40*
X265052Y187535D03*
D11*
X286223Y187535D03*
D20*
X303991Y187535D03*
D29*
X327917Y187535D03*
D39*
X264633Y187959D03*
D11*
X286223Y187959D03*
D44*
X304206Y187959D03*
D29*
X327917Y187959D03*
D38*
X264405Y188382D03*
D12*
X286223Y188382D03*
X304410Y188382D03*
X328133Y188382D03*
D52*
X263782Y188805D03*
D11*
X286223Y188805D03*
X304410Y188805D03*
D44*
X328336Y188805D03*
D53*
X262931Y189229D03*
D11*
X286223Y189229D03*
D54*
X304626Y189229D03*
D44*
X328336Y189229D03*
D55*
X261877Y189652D03*
D12*
X286223Y189652D03*
D55*
X304626Y189652D03*
D41*
X328756Y189652D03*
D56*
X261026Y190075D03*
D11*
X286223Y190075D03*
D54*
X304626Y190075D03*
D29*
X328756Y190075D03*
D52*
X259972Y190499D03*
D11*
X286223Y190499D03*
D54*
X304626Y190499D03*
D17*
X328971Y190499D03*
D57*
X259121Y190922D03*
D12*
X286223Y190922D03*
D55*
X304626Y190922D03*
D13*
X329391Y190922D03*
D52*
X258271Y191345D03*
D11*
X286223Y191345D03*
D54*
X304626Y191345D03*
D15*
X329606Y191345D03*
D52*
X257432Y191769D03*
D11*
X286223Y191769D03*
D54*
X304626Y191769D03*
D15*
X330038Y191769D03*
D58*
X349291Y191769D03*
D12*
X256581Y192192D03*
X286223Y192192D03*
X304410Y192192D03*
D59*
X330241Y192192D03*
D60*
X349291Y192192D03*
D20*
X256162Y192615D03*
D11*
X286223Y192615D03*
X304410Y192615D03*
D35*
X330661Y192615D03*
D61*
X349291Y192615D03*
D15*
X256378Y193039D03*
D11*
X286223Y193039D03*
D44*
X304206Y193039D03*
D35*
X331092Y193039D03*
D62*
X349291Y193039D03*
D31*
X256581Y193462D03*
D12*
X286223Y193462D03*
D13*
X303991Y193462D03*
D37*
X331727Y193462D03*
D63*
X349291Y193462D03*
D17*
X256581Y193885D03*
D11*
X286223Y193885D03*
D15*
X303775Y193885D03*
D64*
X332146Y193885D03*
D53*
X349291Y193885D03*
D29*
X256797Y194309D03*
D11*
X286223Y194309D03*
D65*
X303571Y194309D03*
D66*
X332781Y194309D03*
D20*
X348872Y194309D03*
D67*
X253622Y194732D03*
D68*
X257432Y194732D03*
D12*
X286223Y194732D03*
D69*
X303152Y194732D03*
D70*
X333836Y194732D03*
D71*
X348656Y194732D03*
D72*
X257432Y195155D03*
D11*
X286223Y195155D03*
D73*
X302086Y195155D03*
D28*
X341036Y195155D03*
D72*
X257432Y195579D03*
D74*
X303368Y195579D03*
D75*
X341240Y195579D03*
D76*
X258067Y196002D03*
D77*
X303368Y196002D03*
D78*
X341252Y196002D03*
D79*
X258486Y196425D03*
D74*
X303368Y196425D03*
D80*
X341456Y196425D03*
D39*
X258690Y196849D03*
D74*
X303368Y196849D03*
D81*
X341252Y196849D03*
D82*
X257216Y197272D03*
D83*
X259325Y197272D03*
D77*
X303368Y197272D03*
D84*
X341456Y197272D03*
D85*
X257432Y197695D03*
D40*
X259541Y197695D03*
D74*
X303368Y197695D03*
D86*
X341252Y197695D03*
D43*
X257636Y198119D03*
D87*
X259756Y198119D03*
D74*
X303368Y198119D03*
D88*
X341240Y198119D03*
D89*
X257636Y198542D03*
D90*
X259972Y198542D03*
D77*
X303368Y198542D03*
D91*
X341456Y198542D03*
D43*
X257636Y198965D03*
D87*
X260188Y198965D03*
D74*
X303368Y198965D03*
D92*
X341456Y198965D03*
D43*
X257636Y199389D03*
D87*
X260595Y199389D03*
D93*
X292141Y199389D03*
D80*
X312677Y199389D03*
D94*
X341456Y199389D03*
D89*
X258067Y199812D03*
D90*
X260811Y199812D03*
D95*
X291087Y199812D03*
D96*
X312677Y199812D03*
D97*
X341887Y199812D03*
D43*
X258067Y200235D03*
D87*
X261026Y200235D03*
D80*
X312677Y200235D03*
D43*
X258067Y200659D03*
D40*
X261242Y200659D03*
D11*
X304841Y200659D03*
D89*
X258067Y201082D03*
D83*
X261458Y201082D03*
D55*
X304626Y201082D03*
D43*
X258067Y201505D03*
D62*
X261661Y201505D03*
D98*
X286426Y201505D03*
D54*
X304626Y201505D03*
D99*
X258486Y201929D03*
D87*
X261865Y201929D03*
D98*
X286426Y201929D03*
D54*
X304626Y201929D03*
D82*
X258486Y202352D03*
D90*
X262081Y202352D03*
D100*
X286426Y202352D03*
D55*
X304626Y202352D03*
D99*
X258486Y202775D03*
D87*
X262296Y202775D03*
D98*
X286426Y202775D03*
D54*
X304626Y202775D03*
D99*
X258486Y203199D03*
D40*
X262512Y203199D03*
D98*
X286426Y203199D03*
D54*
X304626Y203199D03*
D82*
X258486Y203622D03*
D83*
X262728Y203622D03*
D57*
X283251Y203622D03*
D55*
X304626Y203622D03*
D85*
X258702Y204045D03*
D62*
X262931Y204045D03*
D53*
X283251Y204045D03*
D54*
X304626Y204045D03*
D43*
X258906Y204469D03*
D87*
X263135Y204469D03*
D53*
X283251Y204469D03*
D54*
X304626Y204469D03*
D89*
X258906Y204892D03*
D83*
X263566Y204892D03*
D57*
X283251Y204892D03*
D55*
X304626Y204892D03*
D43*
X258906Y205315D03*
D40*
X263782Y205315D03*
D101*
X283251Y205315D03*
D54*
X304626Y205315D03*
D43*
X258906Y205739D03*
D87*
X263998Y205739D03*
D102*
X283467Y205739D03*
D54*
X304626Y205739D03*
D103*
X259121Y206162D03*
D104*
X264201Y206162D03*
X283251Y206162D03*
D55*
X304626Y206162D03*
D43*
X259337Y206585D03*
D87*
X264405Y206585D03*
D105*
X283467Y206585D03*
D54*
X304626Y206585D03*
D43*
X259337Y207009D03*
D40*
X264621Y207009D03*
D105*
X283467Y207009D03*
D54*
X304626Y207009D03*
D89*
X259337Y207432D03*
D83*
X264836Y207432D03*
D106*
X283683Y207432D03*
D55*
X304626Y207432D03*
D43*
X259337Y207855D03*
D40*
X265052Y207855D03*
D43*
X282197Y207855D03*
D87*
X284318Y207855D03*
D54*
X304626Y207855D03*
D85*
X259541Y208279D03*
D87*
X265268Y208279D03*
D43*
X282197Y208279D03*
D87*
X284725Y208279D03*
D54*
X304626Y208279D03*
D82*
X259756Y208702D03*
D104*
X265471Y208702D03*
D82*
X282616Y208702D03*
D83*
X284725Y208702D03*
D55*
X304626Y208702D03*
D107*
X259960Y209125D03*
D87*
X265675Y209125D03*
D99*
X282616Y209125D03*
D87*
X285156Y209125D03*
D108*
X313096Y209125D03*
D109*
X260607Y209549D03*
D40*
X265891Y209549D03*
D99*
X282616Y209549D03*
D87*
X285156Y209549D03*
D108*
X313096Y209549D03*
D42*
X261446Y209972D03*
D76*
X266957Y209972D03*
D82*
X282616Y209972D03*
D90*
X285372Y209972D03*
D110*
X313096Y209972D03*
D111*
X262296Y210395D03*
D112*
X267376Y210395D03*
D99*
X282616Y210395D03*
D87*
X285588Y210395D03*
D108*
X313096Y210395D03*
D109*
X263147Y210819D03*
D113*
X267808Y210819D03*
D99*
X282616Y210819D03*
D62*
X285791Y210819D03*
D108*
X313096Y210819D03*
D31*
X266741Y211242D03*
D67*
X282832Y211242D03*
D83*
X285995Y211242D03*
D110*
X313096Y211242D03*
D44*
X267376Y211665D03*
D43*
X283036Y211665D03*
D87*
X286426Y211665D03*
D108*
X313096Y211665D03*
D11*
X267580Y212089D03*
D43*
X283036Y212089D03*
D87*
X286426Y212089D03*
D108*
X313096Y212089D03*
D12*
X267580Y212512D03*
D89*
X283036Y212512D03*
D90*
X286642Y212512D03*
D110*
X313096Y212512D03*
D11*
X267580Y212935D03*
D43*
X283036Y212935D03*
D87*
X286858Y212935D03*
D108*
X313096Y212935D03*
D11*
X267580Y213359D03*
D43*
X283036Y213359D03*
D62*
X287061Y213359D03*
D108*
X313096Y213359D03*
D55*
X267796Y213782D03*
D89*
X283036Y213782D03*
D83*
X287265Y213782D03*
D110*
X313096Y213782D03*
D52*
X267592Y214205D03*
D43*
X283467Y214205D03*
D40*
X287481Y214205D03*
D108*
X313096Y214205D03*
D113*
X267808Y214629D03*
D43*
X283467Y214629D03*
D87*
X287696Y214629D03*
D114*
X267592Y215052D03*
D89*
X283467Y215052D03*
D90*
X287912Y215052D03*
D112*
X267376Y215475D03*
D43*
X283467Y215475D03*
D87*
X288128Y215475D03*
D43*
X265687Y215899D03*
D87*
X268215Y215899D03*
D43*
X283467Y215899D03*
D62*
X288331Y215899D03*
D89*
X265687Y216322D03*
D83*
X268215Y216322D03*
D89*
X283467Y216322D03*
D83*
X288535Y216322D03*
D43*
X265687Y216745D03*
D87*
X268215Y216745D03*
D99*
X283886Y216745D03*
D40*
X288751Y216745D03*
D58*
X265471Y217169D03*
D115*
X268431Y217169D03*
D99*
X283886Y217169D03*
D87*
X288966Y217169D03*
D89*
X265256Y217592D03*
D116*
X268431Y217592D03*
D82*
X283886Y217592D03*
D90*
X289182Y217592D03*
D43*
X265256Y218015D03*
D87*
X268646Y218015D03*
D99*
X283886Y218015D03*
D87*
X289398Y218015D03*
D43*
X265256Y218439D03*
D87*
X268646Y218439D03*
D99*
X283886Y218439D03*
D87*
X289398Y218439D03*
D89*
X265256Y218862D03*
D83*
X268646Y218862D03*
D82*
X283886Y218862D03*
D83*
X289805Y218862D03*
D99*
X264836Y219285D03*
D115*
X268862Y219285D03*
D43*
X284306Y219285D03*
D87*
X289805Y219285D03*
D99*
X264836Y219709D03*
D115*
X268862Y219709D03*
D109*
X284737Y219709D03*
D87*
X290236Y219709D03*
D82*
X264836Y220132D03*
D116*
X268862Y220132D03*
D42*
X285576Y220132D03*
D83*
X290236Y220132D03*
D99*
X264836Y220555D03*
D87*
X269078Y220555D03*
D115*
X286211Y220555D03*
D62*
X290871Y220555D03*
D43*
X264417Y220979D03*
D87*
X269078Y220979D03*
D109*
X286846Y220979D03*
D112*
X291506Y220979D03*
D89*
X264417Y221402D03*
D83*
X269078Y221402D03*
D117*
X287696Y221402D03*
D114*
X291722Y221402D03*
D43*
X264417Y221825D03*
D61*
X269281Y221825D03*
D29*
X291087Y221825D03*
D43*
X264417Y222249D03*
D61*
X269281Y222249D03*
D11*
X291303Y222249D03*
D89*
X264417Y222672D03*
D83*
X269485Y222672D03*
D23*
X290668Y222672D03*
D43*
X263986Y223095D03*
D87*
X269485Y223095D03*
D16*
X289170Y223095D03*
D43*
X263986Y223519D03*
D87*
X269485Y223519D03*
D53*
X283251Y223519D03*
D11*
X291710Y223519D03*
D89*
X263986Y223942D03*
D116*
X269701Y223942D03*
D68*
X280292Y223942D03*
D45*
X291506Y223942D03*
D43*
X263986Y224365D03*
D115*
X269701Y224365D03*
D72*
X277752Y224365D03*
D29*
X291087Y224365D03*
D99*
X263566Y224789D03*
D87*
X269916Y224789D03*
D109*
X275847Y224789D03*
D15*
X290668Y224789D03*
D82*
X263566Y225212D03*
D83*
X269916Y225212D03*
D60*
X275200Y225212D03*
D23*
X290236Y225212D03*
D99*
X263566Y225635D03*
D87*
X269916Y225635D03*
D99*
X274996Y225635D03*
D36*
X289817Y225635D03*
D99*
X263566Y226059D03*
D87*
X269916Y226059D03*
D99*
X274996Y226059D03*
D101*
X287061Y226059D03*
D39*
X291710Y226059D03*
D82*
X263566Y226482D03*
D116*
X270132Y226482D03*
D89*
X274577Y226482D03*
D38*
X286426Y226482D03*
D60*
X291710Y226482D03*
D43*
X263147Y226905D03*
D115*
X270132Y226905D03*
D43*
X274577Y226905D03*
D101*
X285791Y226905D03*
D43*
X263147Y227329D03*
D87*
X270348Y227329D03*
D43*
X274146Y227329D03*
D72*
X284941Y227329D03*
D89*
X263147Y227752D03*
D83*
X270348Y227752D03*
D89*
X274146Y227752D03*
D114*
X284102Y227752D03*
D107*
X263363Y228175D03*
D87*
X270348Y228175D03*
D99*
X273726Y228175D03*
D113*
X283455Y228175D03*
D107*
X263770Y228599D03*
D87*
X270348Y228599D03*
D99*
X273726Y228599D03*
D113*
X282616Y228599D03*
D60*
X264201Y229022D03*
D118*
X270551Y229022D03*
D60*
X273523Y229022D03*
D63*
X281981Y229022D03*
D107*
X264633Y229445D03*
D61*
X270551Y229445D03*
D43*
X273307Y229445D03*
D72*
X281131Y229445D03*
D107*
X265040Y229869D03*
D87*
X270755Y229869D03*
D107*
X273091Y229869D03*
D113*
X280508Y229869D03*
D60*
X265471Y230292D03*
D83*
X270755Y230292D03*
D89*
X272876Y230292D03*
D38*
X279645Y230292D03*
D107*
X265903Y230715D03*
D39*
X271390Y230715D03*
D72*
X279022Y230715D03*
D107*
X266310Y231139D03*
D40*
X271402Y231139D03*
D101*
X278171Y231139D03*
D60*
X266741Y231562D03*
D97*
X271606Y231562D03*
D38*
X277536Y231562D03*
D111*
X267376Y231985D03*
D101*
X271821Y231985D03*
X276901Y231985D03*
D107*
X267580Y232409D03*
D64*
X273726Y232409D03*
D32*
X272456Y232832D03*
D64*
X272456Y233255D03*
D35*
X272241Y233679D03*
D31*
X271821Y234102D03*
D17*
X271821Y234525D03*
X271821Y234949D03*
D31*
X271821Y235372D03*
D17*
X271821Y235795D03*
D29*
X271606Y236219D03*
D12*
X271821Y236642D03*
D54*
X271606Y237065D03*
D113*
X271618Y237489D03*
D106*
X271821Y237912D03*
D109*
X271606Y238335D03*
D119*
X262128Y143002D02*
X262128Y131318D01*
X266023Y136511D02*
X262128Y143002D01*
X266023Y136511D02*
X269917Y143002D01*
X269917Y131318D01*
X277450Y135862D02*
X280371Y135862D01*
X277450Y135862D02*
X277356Y135860D01*
X277262Y135854D01*
X277169Y135845D01*
X277076Y135831D01*
X276984Y135814D01*
X276892Y135792D01*
X276802Y135768D01*
X276712Y135739D01*
X276624Y135707D01*
X276537Y135671D01*
X276452Y135631D01*
X276369Y135588D01*
X276287Y135542D01*
X276207Y135492D01*
X276130Y135439D01*
X276055Y135383D01*
X275982Y135324D01*
X275911Y135262D01*
X275843Y135197D01*
X275778Y135129D01*
X275716Y135058D01*
X275657Y134985D01*
X275601Y134910D01*
X275548Y134833D01*
X275498Y134753D01*
X275452Y134671D01*
X275409Y134588D01*
X275369Y134503D01*
X275333Y134416D01*
X275301Y134328D01*
X275272Y134238D01*
X275248Y134148D01*
X275226Y134056D01*
X275209Y133964D01*
X275195Y133871D01*
X275186Y133778D01*
X275180Y133684D01*
X275178Y133590D01*
X275180Y133496D01*
X275186Y133402D01*
X275195Y133309D01*
X275209Y133216D01*
X275226Y133124D01*
X275248Y133032D01*
X275272Y132942D01*
X275301Y132852D01*
X275333Y132764D01*
X275369Y132677D01*
X275409Y132592D01*
X275452Y132509D01*
X275498Y132427D01*
X275548Y132347D01*
X275601Y132270D01*
X275657Y132195D01*
X275716Y132122D01*
X275778Y132051D01*
X275843Y131983D01*
X275911Y131918D01*
X275982Y131856D01*
X276055Y131797D01*
X276130Y131741D01*
X276207Y131688D01*
X276287Y131638D01*
X276369Y131592D01*
X276452Y131549D01*
X276537Y131509D01*
X276624Y131473D01*
X276712Y131441D01*
X276802Y131412D01*
X276892Y131388D01*
X276984Y131366D01*
X277076Y131349D01*
X277169Y131335D01*
X277262Y131326D01*
X277356Y131320D01*
X277450Y131318D01*
X280371Y131318D01*
X280371Y137160D01*
X280369Y137247D01*
X280363Y137335D01*
X280353Y137421D01*
X280340Y137508D01*
X280322Y137593D01*
X280301Y137678D01*
X280276Y137762D01*
X280247Y137844D01*
X280214Y137925D01*
X280178Y138005D01*
X280139Y138083D01*
X280095Y138159D01*
X280049Y138233D01*
X279999Y138304D01*
X279946Y138374D01*
X279890Y138441D01*
X279831Y138505D01*
X279769Y138567D01*
X279705Y138626D01*
X279638Y138682D01*
X279568Y138735D01*
X279497Y138785D01*
X279423Y138831D01*
X279347Y138875D01*
X279269Y138914D01*
X279189Y138950D01*
X279108Y138983D01*
X279026Y139012D01*
X278942Y139037D01*
X278857Y139058D01*
X278772Y139076D01*
X278685Y139089D01*
X278599Y139099D01*
X278511Y139105D01*
X278424Y139107D01*
X275827Y139107D01*
X290658Y143002D02*
X290658Y131318D01*
X287413Y131318D01*
X287326Y131320D01*
X287238Y131326D01*
X287152Y131336D01*
X287065Y131349D01*
X286980Y131367D01*
X286895Y131388D01*
X286811Y131413D01*
X286729Y131442D01*
X286648Y131475D01*
X286568Y131511D01*
X286490Y131550D01*
X286414Y131594D01*
X286340Y131640D01*
X286269Y131690D01*
X286199Y131743D01*
X286132Y131799D01*
X286068Y131858D01*
X286006Y131920D01*
X285947Y131984D01*
X285891Y132051D01*
X285838Y132121D01*
X285788Y132192D01*
X285742Y132266D01*
X285698Y132342D01*
X285659Y132420D01*
X285623Y132500D01*
X285590Y132581D01*
X285561Y132663D01*
X285536Y132747D01*
X285515Y132832D01*
X285497Y132917D01*
X285484Y133004D01*
X285474Y133090D01*
X285468Y133178D01*
X285466Y133265D01*
X285465Y133265D02*
X285465Y137160D01*
X285466Y137160D02*
X285468Y137247D01*
X285474Y137335D01*
X285484Y137421D01*
X285497Y137508D01*
X285515Y137593D01*
X285536Y137678D01*
X285561Y137762D01*
X285590Y137844D01*
X285623Y137925D01*
X285659Y138005D01*
X285698Y138083D01*
X285742Y138159D01*
X285788Y138233D01*
X285838Y138304D01*
X285891Y138374D01*
X285947Y138441D01*
X286006Y138505D01*
X286068Y138567D01*
X286132Y138626D01*
X286199Y138682D01*
X286269Y138735D01*
X286340Y138785D01*
X286414Y138831D01*
X286490Y138875D01*
X286568Y138914D01*
X286648Y138950D01*
X286729Y138983D01*
X286811Y139012D01*
X286895Y139037D01*
X286980Y139058D01*
X287065Y139076D01*
X287152Y139089D01*
X287238Y139099D01*
X287326Y139105D01*
X287413Y139107D01*
X290658Y139107D01*
X300945Y143002D02*
X300945Y131318D01*
X297700Y131318D01*
X297613Y131320D01*
X297525Y131326D01*
X297439Y131336D01*
X297352Y131349D01*
X297267Y131367D01*
X297182Y131388D01*
X297098Y131413D01*
X297016Y131442D01*
X296935Y131475D01*
X296855Y131511D01*
X296777Y131550D01*
X296701Y131594D01*
X296627Y131640D01*
X296556Y131690D01*
X296486Y131743D01*
X296419Y131799D01*
X296355Y131858D01*
X296293Y131920D01*
X296234Y131984D01*
X296178Y132051D01*
X296125Y132121D01*
X296075Y132192D01*
X296029Y132266D01*
X295985Y132342D01*
X295946Y132420D01*
X295910Y132500D01*
X295877Y132581D01*
X295848Y132663D01*
X295823Y132747D01*
X295802Y132832D01*
X295784Y132917D01*
X295771Y133004D01*
X295761Y133090D01*
X295755Y133178D01*
X295753Y133265D01*
X295752Y133265D02*
X295752Y137160D01*
X295753Y137160D02*
X295755Y137247D01*
X295761Y137335D01*
X295771Y137421D01*
X295784Y137508D01*
X295802Y137593D01*
X295823Y137678D01*
X295848Y137762D01*
X295877Y137844D01*
X295910Y137925D01*
X295946Y138005D01*
X295985Y138083D01*
X296029Y138159D01*
X296075Y138233D01*
X296125Y138304D01*
X296178Y138374D01*
X296234Y138441D01*
X296293Y138505D01*
X296355Y138567D01*
X296419Y138626D01*
X296486Y138682D01*
X296556Y138735D01*
X296627Y138785D01*
X296701Y138831D01*
X296777Y138875D01*
X296855Y138914D01*
X296935Y138950D01*
X297016Y138983D01*
X297098Y139012D01*
X297182Y139037D01*
X297267Y139058D01*
X297352Y139076D01*
X297439Y139089D01*
X297525Y139099D01*
X297613Y139105D01*
X297700Y139107D01*
X300945Y139107D01*
X306028Y139107D02*
X306028Y131318D01*
X305703Y142353D02*
X305703Y143002D01*
X306352Y143002D01*
X306352Y142353D01*
X305703Y142353D01*
X312617Y131318D02*
X315863Y131318D01*
X312617Y131318D02*
X312530Y131320D01*
X312442Y131326D01*
X312356Y131336D01*
X312269Y131349D01*
X312184Y131367D01*
X312099Y131388D01*
X312015Y131413D01*
X311933Y131442D01*
X311852Y131475D01*
X311772Y131511D01*
X311694Y131550D01*
X311618Y131594D01*
X311544Y131640D01*
X311473Y131690D01*
X311403Y131743D01*
X311336Y131799D01*
X311272Y131858D01*
X311210Y131920D01*
X311151Y131984D01*
X311095Y132051D01*
X311042Y132121D01*
X310992Y132192D01*
X310946Y132266D01*
X310902Y132342D01*
X310863Y132420D01*
X310827Y132500D01*
X310794Y132581D01*
X310765Y132663D01*
X310740Y132747D01*
X310719Y132832D01*
X310701Y132917D01*
X310688Y133004D01*
X310678Y133090D01*
X310672Y133178D01*
X310670Y133265D01*
X310670Y136511D01*
X310671Y136511D02*
X310673Y136612D01*
X310679Y136712D01*
X310689Y136812D01*
X310702Y136912D01*
X310720Y137011D01*
X310741Y137110D01*
X310766Y137207D01*
X310795Y137304D01*
X310828Y137399D01*
X310864Y137493D01*
X310904Y137585D01*
X310947Y137676D01*
X310994Y137765D01*
X311044Y137852D01*
X311098Y137938D01*
X311155Y138021D01*
X311215Y138101D01*
X311278Y138180D01*
X311345Y138256D01*
X311414Y138329D01*
X311486Y138399D01*
X311560Y138467D01*
X311637Y138532D01*
X311717Y138593D01*
X311799Y138652D01*
X311883Y138707D01*
X311969Y138759D01*
X312057Y138808D01*
X312147Y138853D01*
X312239Y138895D01*
X312332Y138933D01*
X312427Y138967D01*
X312522Y138998D01*
X312619Y139025D01*
X312717Y139048D01*
X312816Y139068D01*
X312916Y139083D01*
X313016Y139095D01*
X313116Y139103D01*
X313217Y139107D01*
X313317Y139107D01*
X313418Y139103D01*
X313518Y139095D01*
X313618Y139083D01*
X313718Y139068D01*
X313817Y139048D01*
X313915Y139025D01*
X314012Y138998D01*
X314107Y138967D01*
X314202Y138933D01*
X314295Y138895D01*
X314387Y138853D01*
X314477Y138808D01*
X314565Y138759D01*
X314651Y138707D01*
X314735Y138652D01*
X314817Y138593D01*
X314897Y138532D01*
X314974Y138467D01*
X315048Y138399D01*
X315120Y138329D01*
X315189Y138256D01*
X315256Y138180D01*
X315319Y138101D01*
X315379Y138021D01*
X315436Y137938D01*
X315490Y137852D01*
X315540Y137765D01*
X315587Y137676D01*
X315630Y137585D01*
X315670Y137493D01*
X315706Y137399D01*
X315739Y137304D01*
X315768Y137207D01*
X315793Y137110D01*
X315814Y137011D01*
X315832Y136912D01*
X315845Y136812D01*
X315855Y136712D01*
X315861Y136612D01*
X315863Y136511D01*
X315863Y135213D01*
X310670Y135213D01*
X327335Y131318D02*
X327335Y143002D01*
X333826Y143002D02*
X327335Y135862D01*
X329932Y138458D02*
X333826Y131318D01*
X338102Y133914D02*
X338102Y136511D01*
X338103Y136511D02*
X338105Y136612D01*
X338111Y136712D01*
X338121Y136812D01*
X338134Y136912D01*
X338152Y137011D01*
X338173Y137110D01*
X338198Y137207D01*
X338227Y137304D01*
X338260Y137399D01*
X338296Y137493D01*
X338336Y137585D01*
X338379Y137676D01*
X338426Y137765D01*
X338476Y137852D01*
X338530Y137938D01*
X338587Y138021D01*
X338647Y138101D01*
X338710Y138180D01*
X338777Y138256D01*
X338846Y138329D01*
X338918Y138399D01*
X338992Y138467D01*
X339069Y138532D01*
X339149Y138593D01*
X339231Y138652D01*
X339315Y138707D01*
X339401Y138759D01*
X339489Y138808D01*
X339579Y138853D01*
X339671Y138895D01*
X339764Y138933D01*
X339859Y138967D01*
X339954Y138998D01*
X340051Y139025D01*
X340149Y139048D01*
X340248Y139068D01*
X340348Y139083D01*
X340448Y139095D01*
X340548Y139103D01*
X340649Y139107D01*
X340749Y139107D01*
X340850Y139103D01*
X340950Y139095D01*
X341050Y139083D01*
X341150Y139068D01*
X341249Y139048D01*
X341347Y139025D01*
X341444Y138998D01*
X341539Y138967D01*
X341634Y138933D01*
X341727Y138895D01*
X341819Y138853D01*
X341909Y138808D01*
X341997Y138759D01*
X342083Y138707D01*
X342167Y138652D01*
X342249Y138593D01*
X342329Y138532D01*
X342406Y138467D01*
X342480Y138399D01*
X342552Y138329D01*
X342621Y138256D01*
X342688Y138180D01*
X342751Y138101D01*
X342811Y138021D01*
X342868Y137938D01*
X342922Y137852D01*
X342972Y137765D01*
X343019Y137676D01*
X343062Y137585D01*
X343102Y137493D01*
X343138Y137399D01*
X343171Y137304D01*
X343200Y137207D01*
X343225Y137110D01*
X343246Y137011D01*
X343264Y136912D01*
X343277Y136812D01*
X343287Y136712D01*
X343293Y136612D01*
X343295Y136511D01*
X343295Y133914D01*
X343293Y133813D01*
X343287Y133713D01*
X343277Y133613D01*
X343264Y133513D01*
X343246Y133414D01*
X343225Y133315D01*
X343200Y133218D01*
X343171Y133121D01*
X343138Y133026D01*
X343102Y132932D01*
X343062Y132840D01*
X343019Y132749D01*
X342972Y132660D01*
X342922Y132573D01*
X342868Y132487D01*
X342811Y132404D01*
X342751Y132324D01*
X342688Y132245D01*
X342621Y132169D01*
X342552Y132096D01*
X342480Y132026D01*
X342406Y131958D01*
X342329Y131893D01*
X342249Y131832D01*
X342167Y131773D01*
X342083Y131718D01*
X341997Y131666D01*
X341909Y131617D01*
X341819Y131572D01*
X341727Y131530D01*
X341634Y131492D01*
X341539Y131458D01*
X341444Y131427D01*
X341347Y131400D01*
X341249Y131377D01*
X341150Y131357D01*
X341050Y131342D01*
X340950Y131330D01*
X340850Y131322D01*
X340749Y131318D01*
X340649Y131318D01*
X340548Y131322D01*
X340448Y131330D01*
X340348Y131342D01*
X340248Y131357D01*
X340149Y131377D01*
X340051Y131400D01*
X339954Y131427D01*
X339859Y131458D01*
X339764Y131492D01*
X339671Y131530D01*
X339579Y131572D01*
X339489Y131617D01*
X339401Y131666D01*
X339315Y131718D01*
X339231Y131773D01*
X339149Y131832D01*
X339069Y131893D01*
X338992Y131958D01*
X338918Y132026D01*
X338846Y132096D01*
X338777Y132169D01*
X338710Y132245D01*
X338647Y132324D01*
X338587Y132404D01*
X338530Y132487D01*
X338476Y132573D01*
X338426Y132660D01*
X338379Y132749D01*
X338336Y132840D01*
X338296Y132932D01*
X338260Y133026D01*
X338227Y133121D01*
X338198Y133218D01*
X338173Y133315D01*
X338152Y133414D01*
X338134Y133513D01*
X338121Y133613D01*
X338111Y133713D01*
X338105Y133813D01*
X338103Y133914D01*
X349896Y131318D02*
X353142Y131318D01*
X349896Y131318D02*
X349809Y131320D01*
X349721Y131326D01*
X349635Y131336D01*
X349548Y131349D01*
X349463Y131367D01*
X349378Y131388D01*
X349294Y131413D01*
X349212Y131442D01*
X349131Y131475D01*
X349051Y131511D01*
X348973Y131550D01*
X348897Y131594D01*
X348823Y131640D01*
X348752Y131690D01*
X348682Y131743D01*
X348615Y131799D01*
X348551Y131858D01*
X348489Y131920D01*
X348430Y131984D01*
X348374Y132051D01*
X348321Y132121D01*
X348271Y132192D01*
X348225Y132266D01*
X348181Y132342D01*
X348142Y132420D01*
X348106Y132500D01*
X348073Y132581D01*
X348044Y132663D01*
X348019Y132747D01*
X347998Y132832D01*
X347980Y132917D01*
X347967Y133004D01*
X347957Y133090D01*
X347951Y133178D01*
X347949Y133265D01*
X347949Y137160D01*
X347951Y137247D01*
X347957Y137335D01*
X347967Y137421D01*
X347980Y137508D01*
X347998Y137593D01*
X348019Y137678D01*
X348044Y137762D01*
X348073Y137844D01*
X348106Y137925D01*
X348142Y138005D01*
X348181Y138083D01*
X348225Y138159D01*
X348271Y138233D01*
X348321Y138304D01*
X348374Y138374D01*
X348430Y138441D01*
X348489Y138505D01*
X348551Y138567D01*
X348615Y138626D01*
X348682Y138682D01*
X348752Y138735D01*
X348823Y138785D01*
X348897Y138831D01*
X348973Y138875D01*
X349051Y138914D01*
X349131Y138950D01*
X349212Y138983D01*
X349294Y139012D01*
X349378Y139037D01*
X349463Y139058D01*
X349548Y139076D01*
X349635Y139089D01*
X349721Y139099D01*
X349809Y139105D01*
X349896Y139107D01*
X353142Y139107D01*
X353142Y129371D01*
X353140Y129284D01*
X353134Y129196D01*
X353124Y129110D01*
X353111Y129023D01*
X353093Y128938D01*
X353072Y128853D01*
X353047Y128769D01*
X353018Y128687D01*
X352985Y128606D01*
X352949Y128526D01*
X352910Y128448D01*
X352866Y128372D01*
X352820Y128298D01*
X352770Y128227D01*
X352717Y128157D01*
X352661Y128090D01*
X352602Y128026D01*
X352541Y127964D01*
X352476Y127905D01*
X352409Y127849D01*
X352339Y127796D01*
X352268Y127746D01*
X352194Y127700D01*
X352118Y127656D01*
X352040Y127617D01*
X351960Y127581D01*
X351879Y127548D01*
X351797Y127519D01*
X351713Y127494D01*
X351628Y127473D01*
X351543Y127455D01*
X351456Y127442D01*
X351370Y127432D01*
X351282Y127426D01*
X351195Y127424D01*
X351195Y127423D02*
X348598Y127423D01*
X360242Y131318D02*
X363488Y131318D01*
X360242Y131318D02*
X360155Y131320D01*
X360067Y131326D01*
X359981Y131336D01*
X359894Y131349D01*
X359809Y131367D01*
X359724Y131388D01*
X359640Y131413D01*
X359558Y131442D01*
X359477Y131475D01*
X359397Y131511D01*
X359319Y131550D01*
X359243Y131594D01*
X359169Y131640D01*
X359098Y131690D01*
X359028Y131743D01*
X358961Y131799D01*
X358897Y131858D01*
X358835Y131920D01*
X358776Y131984D01*
X358720Y132051D01*
X358667Y132121D01*
X358617Y132192D01*
X358571Y132266D01*
X358527Y132342D01*
X358488Y132420D01*
X358452Y132500D01*
X358419Y132581D01*
X358390Y132663D01*
X358365Y132747D01*
X358344Y132832D01*
X358326Y132917D01*
X358313Y133004D01*
X358303Y133090D01*
X358297Y133178D01*
X358295Y133265D01*
X358295Y136511D01*
X358297Y136612D01*
X358303Y136712D01*
X358313Y136812D01*
X358326Y136912D01*
X358344Y137011D01*
X358365Y137110D01*
X358390Y137207D01*
X358419Y137304D01*
X358452Y137399D01*
X358488Y137493D01*
X358528Y137585D01*
X358571Y137676D01*
X358618Y137765D01*
X358668Y137852D01*
X358722Y137938D01*
X358779Y138021D01*
X358839Y138101D01*
X358902Y138180D01*
X358969Y138256D01*
X359038Y138329D01*
X359110Y138399D01*
X359184Y138467D01*
X359261Y138532D01*
X359341Y138593D01*
X359423Y138652D01*
X359507Y138707D01*
X359593Y138759D01*
X359681Y138808D01*
X359771Y138853D01*
X359863Y138895D01*
X359956Y138933D01*
X360051Y138967D01*
X360146Y138998D01*
X360243Y139025D01*
X360341Y139048D01*
X360440Y139068D01*
X360540Y139083D01*
X360640Y139095D01*
X360740Y139103D01*
X360841Y139107D01*
X360941Y139107D01*
X361042Y139103D01*
X361142Y139095D01*
X361242Y139083D01*
X361342Y139068D01*
X361441Y139048D01*
X361539Y139025D01*
X361636Y138998D01*
X361731Y138967D01*
X361826Y138933D01*
X361919Y138895D01*
X362011Y138853D01*
X362101Y138808D01*
X362189Y138759D01*
X362275Y138707D01*
X362359Y138652D01*
X362441Y138593D01*
X362521Y138532D01*
X362598Y138467D01*
X362672Y138399D01*
X362744Y138329D01*
X362813Y138256D01*
X362880Y138180D01*
X362943Y138101D01*
X363003Y138021D01*
X363060Y137938D01*
X363114Y137852D01*
X363164Y137765D01*
X363211Y137676D01*
X363254Y137585D01*
X363294Y137493D01*
X363330Y137399D01*
X363363Y137304D01*
X363392Y137207D01*
X363417Y137110D01*
X363438Y137011D01*
X363456Y136912D01*
X363469Y136812D01*
X363479Y136712D01*
X363485Y136612D01*
X363487Y136511D01*
X363488Y136511D02*
X363488Y135213D01*
X358295Y135213D01*
X368351Y133265D02*
X368351Y143002D01*
X368351Y133265D02*
X368353Y133178D01*
X368359Y133090D01*
X368369Y133004D01*
X368382Y132917D01*
X368400Y132832D01*
X368421Y132747D01*
X368446Y132663D01*
X368475Y132581D01*
X368508Y132500D01*
X368544Y132420D01*
X368583Y132342D01*
X368627Y132266D01*
X368673Y132192D01*
X368723Y132121D01*
X368776Y132051D01*
X368832Y131984D01*
X368891Y131920D01*
X368953Y131858D01*
X369017Y131799D01*
X369084Y131743D01*
X369154Y131690D01*
X369225Y131640D01*
X369299Y131594D01*
X369375Y131550D01*
X369453Y131511D01*
X369533Y131475D01*
X369614Y131442D01*
X369696Y131413D01*
X369780Y131388D01*
X369865Y131367D01*
X369950Y131349D01*
X370037Y131336D01*
X370123Y131326D01*
X370211Y131320D01*
X370298Y131318D01*
X374226Y131318D02*
X374226Y139107D01*
X373902Y142353D02*
X373902Y143002D01*
X374551Y143002D01*
X374551Y142353D01*
X373902Y142353D01*
X379843Y135862D02*
X383088Y134564D01*
X379843Y135861D02*
X379768Y135894D01*
X379694Y135930D01*
X379622Y135969D01*
X379552Y136012D01*
X379485Y136058D01*
X379419Y136108D01*
X379357Y136160D01*
X379296Y136216D01*
X379239Y136274D01*
X379184Y136335D01*
X379133Y136399D01*
X379085Y136465D01*
X379040Y136534D01*
X378998Y136604D01*
X378960Y136677D01*
X378925Y136751D01*
X378894Y136827D01*
X378867Y136904D01*
X378844Y136983D01*
X378824Y137062D01*
X378809Y137143D01*
X378797Y137224D01*
X378789Y137306D01*
X378785Y137387D01*
X378786Y137469D01*
X378790Y137551D01*
X378798Y137633D01*
X378810Y137714D01*
X378826Y137794D01*
X378846Y137874D01*
X378870Y137952D01*
X378898Y138029D01*
X378929Y138105D01*
X378964Y138179D01*
X379002Y138251D01*
X379044Y138322D01*
X379090Y138390D01*
X379138Y138456D01*
X379190Y138519D01*
X379245Y138580D01*
X379303Y138638D01*
X379363Y138694D01*
X379426Y138746D01*
X379492Y138795D01*
X379560Y138841D01*
X379630Y138883D01*
X379702Y138923D01*
X379776Y138958D01*
X379851Y138990D01*
X379928Y139018D01*
X380006Y139042D01*
X380086Y139063D01*
X380166Y139080D01*
X380247Y139092D01*
X380328Y139101D01*
X380410Y139106D01*
X380492Y139107D01*
X380491Y139107D02*
X380668Y139103D01*
X380845Y139094D01*
X381022Y139080D01*
X381199Y139063D01*
X381374Y139041D01*
X381550Y139016D01*
X381724Y138985D01*
X381898Y138951D01*
X382071Y138913D01*
X382243Y138870D01*
X382414Y138823D01*
X382584Y138773D01*
X382753Y138718D01*
X382920Y138659D01*
X383085Y138596D01*
X383250Y138529D01*
X383412Y138458D01*
X383088Y134564D02*
X383163Y134531D01*
X383237Y134495D01*
X383309Y134456D01*
X383379Y134413D01*
X383446Y134367D01*
X383512Y134317D01*
X383574Y134265D01*
X383635Y134209D01*
X383692Y134151D01*
X383747Y134090D01*
X383798Y134026D01*
X383846Y133960D01*
X383891Y133891D01*
X383933Y133821D01*
X383971Y133748D01*
X384006Y133674D01*
X384037Y133598D01*
X384064Y133521D01*
X384087Y133442D01*
X384107Y133363D01*
X384122Y133282D01*
X384134Y133201D01*
X384142Y133119D01*
X384146Y133038D01*
X384145Y132956D01*
X384141Y132874D01*
X384133Y132792D01*
X384121Y132711D01*
X384105Y132631D01*
X384085Y132551D01*
X384061Y132473D01*
X384033Y132396D01*
X384002Y132320D01*
X383967Y132246D01*
X383929Y132174D01*
X383887Y132103D01*
X383841Y132035D01*
X383793Y131969D01*
X383741Y131906D01*
X383686Y131845D01*
X383628Y131787D01*
X383568Y131731D01*
X383505Y131679D01*
X383439Y131630D01*
X383371Y131584D01*
X383301Y131542D01*
X383229Y131502D01*
X383155Y131467D01*
X383080Y131435D01*
X383003Y131407D01*
X382925Y131383D01*
X382845Y131362D01*
X382765Y131345D01*
X382684Y131333D01*
X382603Y131324D01*
X382521Y131319D01*
X382439Y131318D01*
X382179Y131325D01*
X381919Y131338D01*
X381659Y131357D01*
X381400Y131382D01*
X381141Y131414D01*
X380884Y131451D01*
X380627Y131495D01*
X380371Y131544D01*
X380117Y131600D01*
X379864Y131661D01*
X379613Y131729D01*
X379363Y131803D01*
X379115Y131882D01*
X378869Y131967D01*
X266023Y112268D02*
X262128Y123952D01*
X269917Y123952D02*
X266023Y112268D01*
X274207Y121356D02*
X277453Y123952D01*
X277453Y112268D01*
X280698Y112268D02*
X274207Y112268D01*
X285129Y112268D02*
X285129Y112917D01*
X285778Y112917D01*
X285778Y112268D01*
X285129Y112268D01*
X290209Y121356D02*
X293455Y123952D01*
X293455Y112268D01*
X296700Y112268D02*
X290209Y112268D01*
D10*
X27940Y68580D02*
X25400Y68580D01*
X25400Y66040D01*
X25400Y55880D02*
X25400Y53340D01*
X27940Y53340D01*
X38100Y53340D02*
X40640Y53340D01*
X40640Y55880D01*
X40640Y66040D02*
X40640Y68580D01*
X38100Y68580D01*
X27940Y93980D02*
X25400Y93980D01*
X25400Y91440D01*
X25400Y81280D02*
X25400Y78740D01*
X27940Y78740D01*
X38100Y78740D02*
X40640Y78740D01*
X40640Y81280D01*
X40640Y91440D02*
X40640Y93980D01*
X38100Y93980D01*
X27940Y119380D02*
X25400Y119380D01*
X25400Y116840D01*
X25400Y106680D02*
X25400Y104140D01*
X27940Y104140D01*
X38100Y104140D02*
X40640Y104140D01*
X40640Y106680D01*
X40640Y116840D02*
X40640Y119380D01*
X38100Y119380D01*
X27940Y144780D02*
X25400Y144780D01*
X25400Y142240D01*
X25400Y132080D02*
X25400Y129540D01*
X27940Y129540D01*
X38100Y129540D02*
X40640Y129540D01*
X40640Y132080D01*
X40640Y142240D02*
X40640Y144780D01*
X38100Y144780D01*
X27940Y170180D02*
X25400Y170180D01*
X25400Y167640D01*
X25400Y157480D02*
X25400Y154940D01*
X27940Y154940D01*
X38100Y154940D02*
X40640Y154940D01*
X40640Y157480D01*
X40640Y167640D02*
X40640Y170180D01*
X38100Y170180D01*
X27940Y195580D02*
X25400Y195580D01*
X25400Y193040D01*
X25400Y182880D02*
X25400Y180340D01*
X27940Y180340D01*
X38100Y180340D02*
X40640Y180340D01*
X40640Y182880D01*
X40640Y193040D02*
X40640Y195580D01*
X38100Y195580D01*
X27940Y220980D02*
X25400Y220980D01*
X25400Y218440D01*
X25400Y208280D02*
X25400Y205740D01*
X27940Y205740D01*
X38100Y205740D02*
X40640Y205740D01*
X40640Y208280D01*
X40640Y218440D02*
X40640Y220980D01*
X38100Y220980D01*
X27940Y246380D02*
X25400Y246380D01*
X25400Y243840D01*
X25400Y233680D02*
X25400Y231140D01*
X27940Y231140D01*
X38100Y231140D02*
X40640Y231140D01*
X40640Y233680D01*
X40640Y243840D02*
X40640Y246380D01*
X38100Y246380D01*
X27940Y271780D02*
X25400Y271780D01*
X25400Y269240D01*
X25400Y259080D02*
X25400Y256540D01*
X27940Y256540D01*
X38100Y256540D02*
X40640Y256540D01*
X40640Y259080D01*
X40640Y269240D02*
X40640Y271780D01*
X38100Y271780D01*
X27940Y297180D02*
X25400Y297180D01*
X25400Y294640D01*
X25400Y284480D02*
X25400Y281940D01*
X27940Y281940D01*
X38100Y281940D02*
X40640Y281940D01*
X40640Y284480D01*
X40640Y294640D02*
X40640Y297180D01*
X38100Y297180D01*
X27940Y322580D02*
X25400Y322580D01*
X25400Y320040D01*
X25400Y309880D02*
X25400Y307340D01*
X27940Y307340D01*
X38100Y307340D02*
X40640Y307340D01*
X40640Y309880D01*
X40640Y320040D02*
X40640Y322580D01*
X38100Y322580D01*
X27940Y347980D02*
X25400Y347980D01*
X25400Y345440D01*
X25400Y335280D02*
X25400Y332740D01*
X27940Y332740D01*
X38100Y332740D02*
X40640Y332740D01*
X40640Y335280D01*
X40640Y345440D02*
X40640Y347980D01*
X38100Y347980D01*
X27940Y373380D02*
X25400Y373380D01*
X25400Y370840D01*
X25400Y360680D02*
X25400Y358140D01*
X27940Y358140D01*
X38100Y358140D02*
X40640Y358140D01*
X40640Y360680D01*
X40640Y370840D02*
X40640Y373380D01*
X38100Y373380D01*
X27940Y398780D02*
X25400Y398780D01*
X25400Y396240D01*
X25400Y386080D02*
X25400Y383540D01*
X27940Y383540D01*
X38100Y383540D02*
X40640Y383540D01*
X40640Y386080D01*
X40640Y396240D02*
X40640Y398780D01*
X38100Y398780D01*
X27940Y424180D02*
X25400Y424180D01*
X25400Y421640D01*
X25400Y411480D02*
X25400Y408940D01*
X27940Y408940D01*
X38100Y408940D02*
X40640Y408940D01*
X40640Y411480D01*
X40640Y421640D02*
X40640Y424180D01*
X38100Y424180D01*
X27940Y449580D02*
X25400Y449580D01*
X25400Y447040D01*
X25400Y436880D02*
X25400Y434340D01*
X27940Y434340D01*
X38100Y434340D02*
X40640Y434340D01*
X40640Y436880D01*
X40640Y447040D02*
X40640Y449580D01*
X38100Y449580D01*
X596900Y68580D02*
X599440Y68580D01*
X596900Y68580D02*
X596900Y66040D01*
X596900Y55880D02*
X596900Y53340D01*
X599440Y53340D01*
X609600Y53340D02*
X612140Y53340D01*
X612140Y55880D01*
X612140Y66040D02*
X612140Y68580D01*
X609600Y68580D01*
X599440Y93980D02*
X596900Y93980D01*
X596900Y91440D01*
X596900Y81280D02*
X596900Y78740D01*
X599440Y78740D01*
X609600Y78740D02*
X612140Y78740D01*
X612140Y81280D01*
X612140Y91440D02*
X612140Y93980D01*
X609600Y93980D01*
X599440Y119380D02*
X596900Y119380D01*
X596900Y116840D01*
X596900Y106680D02*
X596900Y104140D01*
X599440Y104140D01*
X609600Y104140D02*
X612140Y104140D01*
X612140Y106680D01*
X612140Y116840D02*
X612140Y119380D01*
X609600Y119380D01*
X599440Y144780D02*
X596900Y144780D01*
X596900Y142240D01*
X596900Y132080D02*
X596900Y129540D01*
X599440Y129540D01*
X609600Y129540D02*
X612140Y129540D01*
X612140Y132080D01*
X612140Y142240D02*
X612140Y144780D01*
X609600Y144780D01*
X599440Y170180D02*
X596900Y170180D01*
X596900Y167640D01*
X596900Y157480D02*
X596900Y154940D01*
X599440Y154940D01*
X609600Y154940D02*
X612140Y154940D01*
X612140Y157480D01*
X612140Y167640D02*
X612140Y170180D01*
X609600Y170180D01*
X599440Y195580D02*
X596900Y195580D01*
X596900Y193040D01*
X596900Y182880D02*
X596900Y180340D01*
X599440Y180340D01*
X609600Y180340D02*
X612140Y180340D01*
X612140Y182880D01*
X612140Y193040D02*
X612140Y195580D01*
X609600Y195580D01*
X599440Y220980D02*
X596900Y220980D01*
X596900Y218440D01*
X596900Y208280D02*
X596900Y205740D01*
X599440Y205740D01*
X609600Y205740D02*
X612140Y205740D01*
X612140Y208280D01*
X612140Y218440D02*
X612140Y220980D01*
X609600Y220980D01*
X599440Y246380D02*
X596900Y246380D01*
X596900Y243840D01*
X596900Y233680D02*
X596900Y231140D01*
X599440Y231140D01*
X609600Y231140D02*
X612140Y231140D01*
X612140Y233680D01*
X612140Y243840D02*
X612140Y246380D01*
X609600Y246380D01*
X599440Y271780D02*
X596900Y271780D01*
X596900Y269240D01*
X596900Y259080D02*
X596900Y256540D01*
X599440Y256540D01*
X609600Y256540D02*
X612140Y256540D01*
X612140Y259080D01*
X612140Y269240D02*
X612140Y271780D01*
X609600Y271780D01*
X599440Y297180D02*
X596900Y297180D01*
X596900Y294640D01*
X596900Y284480D02*
X596900Y281940D01*
X599440Y281940D01*
X609600Y281940D02*
X612140Y281940D01*
X612140Y284480D01*
X612140Y294640D02*
X612140Y297180D01*
X609600Y297180D01*
X599440Y322580D02*
X596900Y322580D01*
X596900Y320040D01*
X596900Y309880D02*
X596900Y307340D01*
X599440Y307340D01*
X609600Y307340D02*
X612140Y307340D01*
X612140Y309880D01*
X612140Y320040D02*
X612140Y322580D01*
X609600Y322580D01*
D120*
X304200Y12715D02*
X229200Y12715D01*
X313575Y43965D02*
X313575Y56466D01*
X297950Y56466D01*
X235450Y56466D02*
X219825Y56466D01*
X219825Y43965D01*
D121*
X296565Y67729D02*
X296565Y76111D01*
X296565Y72386D02*
X301221Y72386D01*
X301221Y76111D02*
X301221Y67729D01*
X305548Y67729D02*
X308342Y76111D01*
X311136Y67729D01*
X310437Y69825D02*
X306246Y69825D01*
X315491Y67729D02*
X315491Y76111D01*
X315491Y67729D02*
X319216Y67729D01*
X323416Y67729D02*
X323416Y76111D01*
X323416Y67729D02*
X327141Y67729D01*
D122*
X466940Y138860D02*
X474940Y138860D01*
X466940Y138860D02*
X466940Y10860D01*
X562940Y10860D01*
X562940Y138860D01*
X554940Y138860D01*
X519940Y138860D02*
X509940Y138860D01*
D123*
X554440Y150860D03*
D124*
X554378Y150858D01*
X554317Y150852D01*
X554256Y150843D01*
X554196Y150830D01*
X554137Y150813D01*
X554079Y150792D01*
X554022Y150768D01*
X553967Y150741D01*
X553914Y150710D01*
X553862Y150676D01*
X553813Y150639D01*
X553766Y150599D01*
X553722Y150556D01*
X553681Y150511D01*
X553642Y150463D01*
X553606Y150412D01*
X553574Y150360D01*
X553545Y150306D01*
X553519Y150250D01*
X553497Y150192D01*
X553478Y150134D01*
X553463Y150074D01*
X553452Y150013D01*
X553444Y149952D01*
X553440Y149891D01*
X553440Y149829D01*
X553444Y149768D01*
X553452Y149707D01*
X553463Y149646D01*
X553478Y149586D01*
X553497Y149528D01*
X553519Y149470D01*
X553545Y149414D01*
X553574Y149360D01*
X553606Y149308D01*
X553642Y149257D01*
X553681Y149209D01*
X553722Y149164D01*
X553766Y149121D01*
X553813Y149081D01*
X553862Y149044D01*
X553914Y149010D01*
X553967Y148979D01*
X554022Y148952D01*
X554079Y148928D01*
X554137Y148907D01*
X554196Y148890D01*
X554256Y148877D01*
X554317Y148868D01*
X554378Y148862D01*
X554440Y148860D01*
D123*
X554440Y148860D03*
D124*
X554502Y148862D01*
X554563Y148868D01*
X554624Y148877D01*
X554684Y148890D01*
X554743Y148907D01*
X554801Y148928D01*
X554858Y148952D01*
X554913Y148979D01*
X554966Y149010D01*
X555018Y149044D01*
X555067Y149081D01*
X555114Y149121D01*
X555158Y149164D01*
X555199Y149209D01*
X555238Y149257D01*
X555274Y149308D01*
X555306Y149360D01*
X555335Y149414D01*
X555361Y149470D01*
X555383Y149528D01*
X555402Y149586D01*
X555417Y149646D01*
X555428Y149707D01*
X555436Y149768D01*
X555440Y149829D01*
X555440Y149891D01*
X555436Y149952D01*
X555428Y150013D01*
X555417Y150074D01*
X555402Y150134D01*
X555383Y150192D01*
X555361Y150250D01*
X555335Y150306D01*
X555306Y150360D01*
X555274Y150412D01*
X555238Y150463D01*
X555199Y150511D01*
X555158Y150556D01*
X555114Y150599D01*
X555067Y150639D01*
X555018Y150676D01*
X554966Y150710D01*
X554913Y150741D01*
X554858Y150768D01*
X554801Y150792D01*
X554743Y150813D01*
X554684Y150830D01*
X554624Y150843D01*
X554563Y150852D01*
X554502Y150858D01*
X554440Y150860D01*
D120*
X159420Y12715D02*
X84420Y12715D01*
X168795Y43965D02*
X168795Y56466D01*
X153170Y56466D01*
X90670Y56466D02*
X75045Y56466D01*
X75045Y43965D01*
D121*
X152702Y70269D02*
X152702Y78651D01*
X151771Y70269D02*
X153634Y70269D01*
X153634Y78651D02*
X151771Y78651D01*
X160966Y79582D02*
X157240Y69338D01*
X165004Y72597D02*
X165004Y76323D01*
X165005Y76323D02*
X165007Y76418D01*
X165013Y76513D01*
X165022Y76607D01*
X165036Y76701D01*
X165053Y76795D01*
X165074Y76887D01*
X165099Y76979D01*
X165128Y77069D01*
X165160Y77159D01*
X165196Y77247D01*
X165236Y77333D01*
X165278Y77418D01*
X165325Y77501D01*
X165375Y77582D01*
X165428Y77660D01*
X165484Y77737D01*
X165543Y77811D01*
X165605Y77883D01*
X165670Y77952D01*
X165738Y78019D01*
X165808Y78082D01*
X165882Y78143D01*
X165957Y78201D01*
X166035Y78255D01*
X166115Y78307D01*
X166197Y78355D01*
X166280Y78399D01*
X166366Y78441D01*
X166453Y78478D01*
X166542Y78512D01*
X166632Y78543D01*
X166723Y78570D01*
X166815Y78593D01*
X166908Y78612D01*
X167002Y78627D01*
X167096Y78639D01*
X167191Y78647D01*
X167286Y78651D01*
X167380Y78651D01*
X167475Y78647D01*
X167570Y78639D01*
X167664Y78627D01*
X167758Y78612D01*
X167851Y78593D01*
X167943Y78570D01*
X168034Y78543D01*
X168124Y78512D01*
X168213Y78478D01*
X168300Y78441D01*
X168386Y78399D01*
X168469Y78355D01*
X168551Y78307D01*
X168631Y78255D01*
X168709Y78201D01*
X168784Y78143D01*
X168858Y78082D01*
X168928Y78019D01*
X168996Y77952D01*
X169061Y77883D01*
X169123Y77811D01*
X169182Y77737D01*
X169238Y77660D01*
X169291Y77582D01*
X169341Y77501D01*
X169388Y77418D01*
X169430Y77333D01*
X169470Y77247D01*
X169506Y77159D01*
X169538Y77069D01*
X169567Y76979D01*
X169592Y76887D01*
X169613Y76795D01*
X169630Y76701D01*
X169644Y76607D01*
X169653Y76513D01*
X169659Y76418D01*
X169661Y76323D01*
X169661Y72597D01*
X169659Y72502D01*
X169653Y72407D01*
X169644Y72313D01*
X169630Y72219D01*
X169613Y72125D01*
X169592Y72033D01*
X169567Y71941D01*
X169538Y71851D01*
X169506Y71761D01*
X169470Y71673D01*
X169430Y71587D01*
X169388Y71502D01*
X169341Y71419D01*
X169291Y71338D01*
X169238Y71260D01*
X169182Y71183D01*
X169123Y71109D01*
X169061Y71037D01*
X168996Y70968D01*
X168928Y70901D01*
X168858Y70838D01*
X168784Y70777D01*
X168709Y70719D01*
X168631Y70665D01*
X168551Y70613D01*
X168469Y70565D01*
X168386Y70521D01*
X168300Y70479D01*
X168213Y70442D01*
X168124Y70408D01*
X168034Y70377D01*
X167943Y70350D01*
X167851Y70327D01*
X167758Y70308D01*
X167664Y70293D01*
X167570Y70281D01*
X167475Y70273D01*
X167380Y70269D01*
X167286Y70269D01*
X167191Y70273D01*
X167096Y70281D01*
X167002Y70293D01*
X166908Y70308D01*
X166815Y70327D01*
X166723Y70350D01*
X166632Y70377D01*
X166542Y70408D01*
X166453Y70442D01*
X166366Y70479D01*
X166280Y70521D01*
X166197Y70565D01*
X166115Y70613D01*
X166035Y70665D01*
X165957Y70719D01*
X165882Y70777D01*
X165808Y70838D01*
X165738Y70901D01*
X165670Y70968D01*
X165605Y71037D01*
X165543Y71109D01*
X165484Y71183D01*
X165428Y71260D01*
X165375Y71338D01*
X165325Y71419D01*
X165278Y71502D01*
X165236Y71587D01*
X165196Y71673D01*
X165160Y71761D01*
X165128Y71851D01*
X165099Y71941D01*
X165074Y72033D01*
X165053Y72125D01*
X165036Y72219D01*
X165022Y72313D01*
X165013Y72407D01*
X165007Y72502D01*
X165005Y72597D01*
D124*
X127240Y276620D02*
X112990Y276620D01*
D119*
X109072Y234442D02*
X109072Y222758D01*
X107774Y222758D02*
X110370Y222758D01*
X110370Y234442D02*
X107774Y234442D01*
X117534Y222758D02*
X120130Y222758D01*
X117534Y222758D02*
X117435Y222760D01*
X117335Y222766D01*
X117236Y222775D01*
X117138Y222788D01*
X117040Y222805D01*
X116942Y222826D01*
X116846Y222851D01*
X116751Y222879D01*
X116657Y222911D01*
X116564Y222946D01*
X116472Y222985D01*
X116382Y223028D01*
X116294Y223073D01*
X116207Y223123D01*
X116123Y223175D01*
X116040Y223231D01*
X115960Y223289D01*
X115882Y223351D01*
X115807Y223416D01*
X115734Y223484D01*
X115664Y223554D01*
X115596Y223627D01*
X115531Y223702D01*
X115469Y223780D01*
X115411Y223860D01*
X115355Y223943D01*
X115303Y224027D01*
X115253Y224114D01*
X115208Y224202D01*
X115165Y224292D01*
X115126Y224384D01*
X115091Y224477D01*
X115059Y224571D01*
X115031Y224666D01*
X115006Y224762D01*
X114985Y224860D01*
X114968Y224958D01*
X114955Y225056D01*
X114946Y225155D01*
X114940Y225255D01*
X114938Y225354D01*
X114937Y225354D02*
X114937Y231846D01*
X114938Y231846D02*
X114940Y231945D01*
X114946Y232045D01*
X114955Y232144D01*
X114968Y232242D01*
X114985Y232340D01*
X115006Y232438D01*
X115031Y232534D01*
X115059Y232629D01*
X115091Y232723D01*
X115126Y232816D01*
X115165Y232908D01*
X115208Y232998D01*
X115253Y233086D01*
X115303Y233173D01*
X115355Y233257D01*
X115411Y233340D01*
X115469Y233420D01*
X115531Y233498D01*
X115596Y233573D01*
X115664Y233646D01*
X115734Y233716D01*
X115807Y233784D01*
X115882Y233849D01*
X115960Y233911D01*
X116040Y233969D01*
X116123Y234025D01*
X116207Y234077D01*
X116294Y234127D01*
X116382Y234172D01*
X116472Y234215D01*
X116564Y234254D01*
X116656Y234289D01*
X116751Y234321D01*
X116846Y234349D01*
X116942Y234374D01*
X117040Y234395D01*
X117138Y234412D01*
X117236Y234425D01*
X117335Y234434D01*
X117435Y234440D01*
X117534Y234442D01*
X120130Y234442D01*
X124495Y231846D02*
X127741Y234442D01*
X127741Y222758D01*
X130986Y222758D02*
X124495Y222758D01*
D124*
X159780Y447280D02*
X174030Y447280D01*
D119*
X137012Y484378D02*
X137012Y496062D01*
X135714Y484378D02*
X138310Y484378D01*
X138310Y496062D02*
X135714Y496062D01*
X145474Y484378D02*
X148070Y484378D01*
X145474Y484378D02*
X145375Y484380D01*
X145275Y484386D01*
X145176Y484395D01*
X145078Y484408D01*
X144980Y484425D01*
X144882Y484446D01*
X144786Y484471D01*
X144691Y484499D01*
X144597Y484531D01*
X144504Y484566D01*
X144412Y484605D01*
X144322Y484648D01*
X144234Y484693D01*
X144147Y484743D01*
X144063Y484795D01*
X143980Y484851D01*
X143900Y484909D01*
X143822Y484971D01*
X143747Y485036D01*
X143674Y485104D01*
X143604Y485174D01*
X143536Y485247D01*
X143471Y485322D01*
X143409Y485400D01*
X143351Y485480D01*
X143295Y485563D01*
X143243Y485647D01*
X143193Y485734D01*
X143148Y485822D01*
X143105Y485912D01*
X143066Y486004D01*
X143031Y486097D01*
X142999Y486191D01*
X142971Y486286D01*
X142946Y486382D01*
X142925Y486480D01*
X142908Y486578D01*
X142895Y486676D01*
X142886Y486775D01*
X142880Y486875D01*
X142878Y486974D01*
X142877Y486974D02*
X142877Y493466D01*
X142878Y493466D02*
X142880Y493565D01*
X142886Y493665D01*
X142895Y493764D01*
X142908Y493862D01*
X142925Y493960D01*
X142946Y494058D01*
X142971Y494154D01*
X142999Y494249D01*
X143031Y494343D01*
X143066Y494436D01*
X143105Y494528D01*
X143148Y494618D01*
X143193Y494706D01*
X143243Y494793D01*
X143295Y494877D01*
X143351Y494960D01*
X143409Y495040D01*
X143471Y495118D01*
X143536Y495193D01*
X143604Y495266D01*
X143674Y495336D01*
X143747Y495404D01*
X143822Y495469D01*
X143900Y495531D01*
X143980Y495589D01*
X144063Y495645D01*
X144147Y495697D01*
X144234Y495747D01*
X144322Y495792D01*
X144412Y495835D01*
X144504Y495874D01*
X144596Y495909D01*
X144691Y495941D01*
X144786Y495969D01*
X144882Y495994D01*
X144980Y496015D01*
X145078Y496032D01*
X145176Y496045D01*
X145275Y496054D01*
X145375Y496060D01*
X145474Y496062D01*
X148070Y496062D01*
X156005Y496062D02*
X156112Y496060D01*
X156218Y496054D01*
X156324Y496044D01*
X156430Y496031D01*
X156536Y496013D01*
X156640Y495992D01*
X156744Y495967D01*
X156847Y495938D01*
X156948Y495906D01*
X157048Y495869D01*
X157147Y495829D01*
X157245Y495786D01*
X157341Y495739D01*
X157435Y495688D01*
X157527Y495634D01*
X157617Y495577D01*
X157705Y495517D01*
X157790Y495453D01*
X157873Y495386D01*
X157954Y495316D01*
X158032Y495244D01*
X158108Y495168D01*
X158180Y495090D01*
X158250Y495009D01*
X158317Y494926D01*
X158381Y494841D01*
X158441Y494753D01*
X158498Y494663D01*
X158552Y494571D01*
X158603Y494477D01*
X158650Y494381D01*
X158693Y494283D01*
X158733Y494184D01*
X158770Y494084D01*
X158802Y493983D01*
X158831Y493880D01*
X158856Y493776D01*
X158877Y493672D01*
X158895Y493566D01*
X158908Y493460D01*
X158918Y493354D01*
X158924Y493248D01*
X158926Y493141D01*
X156005Y496062D02*
X155884Y496060D01*
X155763Y496054D01*
X155643Y496044D01*
X155522Y496031D01*
X155403Y496013D01*
X155283Y495992D01*
X155165Y495967D01*
X155048Y495938D01*
X154931Y495905D01*
X154816Y495869D01*
X154702Y495828D01*
X154589Y495785D01*
X154477Y495737D01*
X154368Y495686D01*
X154260Y495631D01*
X154153Y495573D01*
X154049Y495512D01*
X153947Y495447D01*
X153847Y495379D01*
X153749Y495308D01*
X153653Y495234D01*
X153560Y495157D01*
X153470Y495076D01*
X153382Y494993D01*
X153297Y494907D01*
X153214Y494818D01*
X153135Y494727D01*
X153058Y494633D01*
X152985Y494537D01*
X152915Y494439D01*
X152848Y494338D01*
X152784Y494235D01*
X152724Y494130D01*
X152667Y494023D01*
X152613Y493915D01*
X152563Y493805D01*
X152517Y493693D01*
X152474Y493580D01*
X152435Y493465D01*
X157953Y490869D02*
X158032Y490946D01*
X158108Y491027D01*
X158181Y491110D01*
X158251Y491195D01*
X158318Y491283D01*
X158382Y491373D01*
X158442Y491465D01*
X158499Y491560D01*
X158553Y491656D01*
X158604Y491754D01*
X158651Y491854D01*
X158695Y491956D01*
X158735Y492059D01*
X158771Y492163D01*
X158803Y492269D01*
X158832Y492375D01*
X158857Y492483D01*
X158879Y492591D01*
X158896Y492701D01*
X158910Y492810D01*
X158919Y492920D01*
X158925Y493031D01*
X158927Y493141D01*
X157953Y490869D02*
X152435Y484378D01*
X158926Y484378D01*
X135241Y345948D02*
X132644Y345948D01*
X132545Y345950D01*
X132445Y345956D01*
X132346Y345965D01*
X132248Y345978D01*
X132150Y345995D01*
X132052Y346016D01*
X131956Y346041D01*
X131861Y346069D01*
X131767Y346101D01*
X131674Y346136D01*
X131582Y346175D01*
X131492Y346218D01*
X131404Y346263D01*
X131317Y346313D01*
X131233Y346365D01*
X131150Y346421D01*
X131070Y346479D01*
X130992Y346541D01*
X130917Y346606D01*
X130844Y346674D01*
X130774Y346744D01*
X130706Y346817D01*
X130641Y346892D01*
X130579Y346970D01*
X130521Y347050D01*
X130465Y347133D01*
X130413Y347217D01*
X130363Y347304D01*
X130318Y347392D01*
X130275Y347482D01*
X130236Y347574D01*
X130201Y347667D01*
X130169Y347761D01*
X130141Y347856D01*
X130116Y347952D01*
X130095Y348050D01*
X130078Y348148D01*
X130065Y348246D01*
X130056Y348345D01*
X130050Y348445D01*
X130048Y348544D01*
X130048Y355036D01*
X130050Y355135D01*
X130056Y355235D01*
X130065Y355334D01*
X130078Y355432D01*
X130095Y355530D01*
X130116Y355628D01*
X130141Y355724D01*
X130169Y355819D01*
X130201Y355913D01*
X130236Y356006D01*
X130275Y356098D01*
X130318Y356188D01*
X130363Y356276D01*
X130413Y356363D01*
X130465Y356447D01*
X130521Y356530D01*
X130579Y356610D01*
X130641Y356688D01*
X130706Y356763D01*
X130774Y356836D01*
X130844Y356906D01*
X130917Y356974D01*
X130992Y357039D01*
X131070Y357101D01*
X131150Y357159D01*
X131233Y357215D01*
X131317Y357267D01*
X131404Y357317D01*
X131492Y357362D01*
X131582Y357405D01*
X131674Y357444D01*
X131766Y357479D01*
X131861Y357511D01*
X131956Y357539D01*
X132052Y357564D01*
X132150Y357585D01*
X132248Y357602D01*
X132346Y357615D01*
X132445Y357624D01*
X132545Y357630D01*
X132644Y357632D01*
X135241Y357632D01*
X139606Y345948D02*
X142852Y345948D01*
X142965Y345950D01*
X143078Y345956D01*
X143191Y345966D01*
X143304Y345980D01*
X143416Y345997D01*
X143527Y346019D01*
X143637Y346044D01*
X143747Y346074D01*
X143855Y346107D01*
X143962Y346144D01*
X144068Y346184D01*
X144172Y346229D01*
X144275Y346277D01*
X144376Y346328D01*
X144475Y346383D01*
X144572Y346441D01*
X144667Y346503D01*
X144760Y346568D01*
X144850Y346636D01*
X144938Y346707D01*
X145024Y346782D01*
X145107Y346859D01*
X145187Y346939D01*
X145264Y347022D01*
X145339Y347108D01*
X145410Y347196D01*
X145478Y347286D01*
X145543Y347379D01*
X145605Y347474D01*
X145663Y347571D01*
X145718Y347670D01*
X145769Y347771D01*
X145817Y347874D01*
X145862Y347978D01*
X145902Y348084D01*
X145939Y348191D01*
X145972Y348299D01*
X146002Y348409D01*
X146027Y348519D01*
X146049Y348630D01*
X146066Y348742D01*
X146080Y348855D01*
X146090Y348968D01*
X146096Y349081D01*
X146098Y349194D01*
X146096Y349307D01*
X146090Y349420D01*
X146080Y349533D01*
X146066Y349646D01*
X146049Y349758D01*
X146027Y349869D01*
X146002Y349979D01*
X145972Y350089D01*
X145939Y350197D01*
X145902Y350304D01*
X145862Y350410D01*
X145817Y350514D01*
X145769Y350617D01*
X145718Y350718D01*
X145663Y350817D01*
X145605Y350914D01*
X145543Y351009D01*
X145478Y351102D01*
X145410Y351192D01*
X145339Y351280D01*
X145264Y351366D01*
X145187Y351449D01*
X145107Y351529D01*
X145024Y351606D01*
X144938Y351681D01*
X144850Y351752D01*
X144760Y351820D01*
X144667Y351885D01*
X144572Y351947D01*
X144475Y352005D01*
X144376Y352060D01*
X144275Y352111D01*
X144172Y352159D01*
X144068Y352204D01*
X143962Y352244D01*
X143855Y352281D01*
X143747Y352314D01*
X143637Y352344D01*
X143527Y352369D01*
X143416Y352391D01*
X143304Y352408D01*
X143191Y352422D01*
X143078Y352432D01*
X142965Y352438D01*
X142852Y352440D01*
X143501Y357632D02*
X139606Y357632D01*
X143501Y357632D02*
X143602Y357630D01*
X143702Y357624D01*
X143802Y357614D01*
X143902Y357601D01*
X144001Y357583D01*
X144100Y357562D01*
X144197Y357537D01*
X144294Y357508D01*
X144389Y357475D01*
X144483Y357439D01*
X144575Y357399D01*
X144666Y357356D01*
X144755Y357309D01*
X144842Y357259D01*
X144928Y357205D01*
X145011Y357148D01*
X145091Y357088D01*
X145170Y357025D01*
X145246Y356958D01*
X145319Y356889D01*
X145389Y356817D01*
X145457Y356743D01*
X145522Y356666D01*
X145583Y356586D01*
X145642Y356504D01*
X145697Y356420D01*
X145749Y356334D01*
X145798Y356246D01*
X145843Y356156D01*
X145885Y356064D01*
X145923Y355971D01*
X145957Y355876D01*
X145988Y355781D01*
X146015Y355684D01*
X146038Y355586D01*
X146058Y355487D01*
X146073Y355387D01*
X146085Y355287D01*
X146093Y355187D01*
X146097Y355086D01*
X146097Y354986D01*
X146093Y354885D01*
X146085Y354785D01*
X146073Y354685D01*
X146058Y354585D01*
X146038Y354486D01*
X146015Y354388D01*
X145988Y354291D01*
X145957Y354196D01*
X145923Y354101D01*
X145885Y354008D01*
X145843Y353916D01*
X145798Y353826D01*
X145749Y353738D01*
X145697Y353652D01*
X145642Y353568D01*
X145583Y353486D01*
X145522Y353406D01*
X145457Y353329D01*
X145389Y353255D01*
X145319Y353183D01*
X145246Y353114D01*
X145170Y353047D01*
X145091Y352984D01*
X145011Y352924D01*
X144928Y352867D01*
X144842Y352813D01*
X144755Y352763D01*
X144666Y352716D01*
X144575Y352673D01*
X144483Y352633D01*
X144389Y352597D01*
X144294Y352564D01*
X144197Y352535D01*
X144100Y352510D01*
X144001Y352489D01*
X143902Y352471D01*
X143802Y352458D01*
X143702Y352448D01*
X143602Y352442D01*
X143501Y352440D01*
X143501Y352439D02*
X140904Y352439D01*
X102221Y368808D02*
X99624Y368808D01*
X99525Y368810D01*
X99425Y368816D01*
X99326Y368825D01*
X99228Y368838D01*
X99130Y368855D01*
X99032Y368876D01*
X98936Y368901D01*
X98841Y368929D01*
X98747Y368961D01*
X98654Y368996D01*
X98562Y369035D01*
X98472Y369078D01*
X98384Y369123D01*
X98297Y369173D01*
X98213Y369225D01*
X98130Y369281D01*
X98050Y369339D01*
X97972Y369401D01*
X97897Y369466D01*
X97824Y369534D01*
X97754Y369604D01*
X97686Y369677D01*
X97621Y369752D01*
X97559Y369830D01*
X97501Y369910D01*
X97445Y369993D01*
X97393Y370077D01*
X97343Y370164D01*
X97298Y370252D01*
X97255Y370342D01*
X97216Y370434D01*
X97181Y370527D01*
X97149Y370621D01*
X97121Y370716D01*
X97096Y370812D01*
X97075Y370910D01*
X97058Y371008D01*
X97045Y371106D01*
X97036Y371205D01*
X97030Y371305D01*
X97028Y371404D01*
X97028Y377896D01*
X97030Y377995D01*
X97036Y378095D01*
X97045Y378194D01*
X97058Y378292D01*
X97075Y378390D01*
X97096Y378488D01*
X97121Y378584D01*
X97149Y378679D01*
X97181Y378773D01*
X97216Y378866D01*
X97255Y378958D01*
X97298Y379048D01*
X97343Y379136D01*
X97393Y379223D01*
X97445Y379307D01*
X97501Y379390D01*
X97559Y379470D01*
X97621Y379548D01*
X97686Y379623D01*
X97754Y379696D01*
X97824Y379766D01*
X97897Y379834D01*
X97972Y379899D01*
X98050Y379961D01*
X98130Y380019D01*
X98213Y380075D01*
X98297Y380127D01*
X98384Y380177D01*
X98472Y380222D01*
X98562Y380265D01*
X98654Y380304D01*
X98746Y380339D01*
X98841Y380371D01*
X98936Y380399D01*
X99032Y380424D01*
X99130Y380445D01*
X99228Y380462D01*
X99326Y380475D01*
X99425Y380484D01*
X99525Y380490D01*
X99624Y380492D01*
X102221Y380492D01*
X109183Y380492D02*
X106586Y371404D01*
X113077Y371404D01*
X111130Y374001D02*
X111130Y368808D01*
X203764Y345948D02*
X206361Y345948D01*
X203764Y345948D02*
X203665Y345950D01*
X203565Y345956D01*
X203466Y345965D01*
X203368Y345978D01*
X203270Y345995D01*
X203172Y346016D01*
X203076Y346041D01*
X202981Y346069D01*
X202887Y346101D01*
X202794Y346136D01*
X202702Y346175D01*
X202612Y346218D01*
X202524Y346263D01*
X202437Y346313D01*
X202353Y346365D01*
X202270Y346421D01*
X202190Y346479D01*
X202112Y346541D01*
X202037Y346606D01*
X201964Y346674D01*
X201894Y346744D01*
X201826Y346817D01*
X201761Y346892D01*
X201699Y346970D01*
X201641Y347050D01*
X201585Y347133D01*
X201533Y347217D01*
X201483Y347304D01*
X201438Y347392D01*
X201395Y347482D01*
X201356Y347574D01*
X201321Y347667D01*
X201289Y347761D01*
X201261Y347856D01*
X201236Y347952D01*
X201215Y348050D01*
X201198Y348148D01*
X201185Y348246D01*
X201176Y348345D01*
X201170Y348445D01*
X201168Y348544D01*
X201168Y355036D01*
X201170Y355135D01*
X201176Y355235D01*
X201185Y355334D01*
X201198Y355432D01*
X201215Y355530D01*
X201236Y355628D01*
X201261Y355724D01*
X201289Y355819D01*
X201321Y355913D01*
X201356Y356006D01*
X201395Y356098D01*
X201438Y356188D01*
X201483Y356276D01*
X201533Y356363D01*
X201585Y356447D01*
X201641Y356530D01*
X201699Y356610D01*
X201761Y356688D01*
X201826Y356763D01*
X201894Y356836D01*
X201964Y356906D01*
X202037Y356974D01*
X202112Y357039D01*
X202190Y357101D01*
X202270Y357159D01*
X202353Y357215D01*
X202437Y357267D01*
X202524Y357317D01*
X202612Y357362D01*
X202702Y357405D01*
X202794Y357444D01*
X202886Y357479D01*
X202981Y357511D01*
X203076Y357539D01*
X203172Y357564D01*
X203270Y357585D01*
X203368Y357602D01*
X203466Y357615D01*
X203565Y357624D01*
X203665Y357630D01*
X203764Y357632D01*
X206361Y357632D01*
X210726Y345948D02*
X214621Y345948D01*
X214720Y345950D01*
X214820Y345956D01*
X214919Y345965D01*
X215017Y345978D01*
X215115Y345995D01*
X215213Y346016D01*
X215309Y346041D01*
X215404Y346069D01*
X215498Y346101D01*
X215591Y346136D01*
X215683Y346175D01*
X215773Y346218D01*
X215861Y346263D01*
X215948Y346313D01*
X216032Y346365D01*
X216115Y346421D01*
X216195Y346479D01*
X216273Y346541D01*
X216348Y346606D01*
X216421Y346674D01*
X216491Y346744D01*
X216559Y346817D01*
X216624Y346892D01*
X216686Y346970D01*
X216744Y347050D01*
X216800Y347133D01*
X216852Y347217D01*
X216902Y347304D01*
X216947Y347392D01*
X216990Y347482D01*
X217029Y347574D01*
X217064Y347667D01*
X217096Y347761D01*
X217124Y347856D01*
X217149Y347952D01*
X217170Y348050D01*
X217187Y348148D01*
X217200Y348246D01*
X217209Y348345D01*
X217215Y348445D01*
X217217Y348544D01*
X217217Y349843D01*
X217215Y349942D01*
X217209Y350042D01*
X217200Y350141D01*
X217187Y350239D01*
X217170Y350337D01*
X217149Y350435D01*
X217124Y350531D01*
X217096Y350626D01*
X217064Y350720D01*
X217029Y350813D01*
X216990Y350905D01*
X216947Y350995D01*
X216902Y351083D01*
X216852Y351170D01*
X216800Y351254D01*
X216744Y351337D01*
X216686Y351417D01*
X216624Y351495D01*
X216559Y351570D01*
X216491Y351643D01*
X216421Y351713D01*
X216348Y351781D01*
X216273Y351846D01*
X216195Y351908D01*
X216115Y351966D01*
X216032Y352022D01*
X215948Y352074D01*
X215861Y352124D01*
X215773Y352169D01*
X215683Y352212D01*
X215591Y352251D01*
X215498Y352286D01*
X215404Y352318D01*
X215309Y352346D01*
X215213Y352371D01*
X215115Y352392D01*
X215017Y352409D01*
X214919Y352422D01*
X214820Y352431D01*
X214720Y352437D01*
X214621Y352439D01*
X210726Y352439D01*
X210726Y357632D01*
X217217Y357632D01*
X137781Y368808D02*
X135184Y368808D01*
X135085Y368810D01*
X134985Y368816D01*
X134886Y368825D01*
X134788Y368838D01*
X134690Y368855D01*
X134592Y368876D01*
X134496Y368901D01*
X134401Y368929D01*
X134307Y368961D01*
X134214Y368996D01*
X134122Y369035D01*
X134032Y369078D01*
X133944Y369123D01*
X133857Y369173D01*
X133773Y369225D01*
X133690Y369281D01*
X133610Y369339D01*
X133532Y369401D01*
X133457Y369466D01*
X133384Y369534D01*
X133314Y369604D01*
X133246Y369677D01*
X133181Y369752D01*
X133119Y369830D01*
X133061Y369910D01*
X133005Y369993D01*
X132953Y370077D01*
X132903Y370164D01*
X132858Y370252D01*
X132815Y370342D01*
X132776Y370434D01*
X132741Y370527D01*
X132709Y370621D01*
X132681Y370716D01*
X132656Y370812D01*
X132635Y370910D01*
X132618Y371008D01*
X132605Y371106D01*
X132596Y371205D01*
X132590Y371305D01*
X132588Y371404D01*
X132588Y377896D01*
X132590Y377995D01*
X132596Y378095D01*
X132605Y378194D01*
X132618Y378292D01*
X132635Y378390D01*
X132656Y378488D01*
X132681Y378584D01*
X132709Y378679D01*
X132741Y378773D01*
X132776Y378866D01*
X132815Y378958D01*
X132858Y379048D01*
X132903Y379136D01*
X132953Y379223D01*
X133005Y379307D01*
X133061Y379390D01*
X133119Y379470D01*
X133181Y379548D01*
X133246Y379623D01*
X133314Y379696D01*
X133384Y379766D01*
X133457Y379834D01*
X133532Y379899D01*
X133610Y379961D01*
X133690Y380019D01*
X133773Y380075D01*
X133857Y380127D01*
X133944Y380177D01*
X134032Y380222D01*
X134122Y380265D01*
X134214Y380304D01*
X134306Y380339D01*
X134401Y380371D01*
X134496Y380399D01*
X134592Y380424D01*
X134690Y380445D01*
X134788Y380462D01*
X134886Y380475D01*
X134985Y380484D01*
X135085Y380490D01*
X135184Y380492D01*
X137781Y380492D01*
X142146Y375299D02*
X146041Y375299D01*
X146140Y375297D01*
X146240Y375291D01*
X146339Y375282D01*
X146437Y375269D01*
X146535Y375252D01*
X146633Y375231D01*
X146729Y375206D01*
X146824Y375178D01*
X146918Y375146D01*
X147011Y375111D01*
X147103Y375072D01*
X147193Y375029D01*
X147281Y374984D01*
X147368Y374934D01*
X147452Y374882D01*
X147535Y374826D01*
X147615Y374768D01*
X147693Y374706D01*
X147768Y374641D01*
X147841Y374573D01*
X147911Y374503D01*
X147979Y374430D01*
X148044Y374355D01*
X148106Y374277D01*
X148164Y374197D01*
X148220Y374114D01*
X148272Y374030D01*
X148322Y373943D01*
X148367Y373855D01*
X148410Y373765D01*
X148449Y373673D01*
X148484Y373580D01*
X148516Y373486D01*
X148544Y373391D01*
X148569Y373295D01*
X148590Y373197D01*
X148607Y373099D01*
X148620Y373001D01*
X148629Y372902D01*
X148635Y372802D01*
X148637Y372703D01*
X148637Y372054D01*
X148638Y372054D02*
X148636Y371941D01*
X148630Y371828D01*
X148620Y371715D01*
X148606Y371602D01*
X148589Y371490D01*
X148567Y371379D01*
X148542Y371269D01*
X148512Y371159D01*
X148479Y371051D01*
X148442Y370944D01*
X148402Y370838D01*
X148357Y370734D01*
X148309Y370631D01*
X148258Y370530D01*
X148203Y370431D01*
X148145Y370334D01*
X148083Y370239D01*
X148018Y370146D01*
X147950Y370056D01*
X147879Y369968D01*
X147804Y369882D01*
X147727Y369799D01*
X147647Y369719D01*
X147564Y369642D01*
X147478Y369567D01*
X147390Y369496D01*
X147300Y369428D01*
X147207Y369363D01*
X147112Y369301D01*
X147015Y369243D01*
X146916Y369188D01*
X146815Y369137D01*
X146712Y369089D01*
X146608Y369044D01*
X146502Y369004D01*
X146395Y368967D01*
X146287Y368934D01*
X146177Y368904D01*
X146067Y368879D01*
X145956Y368857D01*
X145844Y368840D01*
X145731Y368826D01*
X145618Y368816D01*
X145505Y368810D01*
X145392Y368808D01*
X145279Y368810D01*
X145166Y368816D01*
X145053Y368826D01*
X144940Y368840D01*
X144828Y368857D01*
X144717Y368879D01*
X144607Y368904D01*
X144497Y368934D01*
X144389Y368967D01*
X144282Y369004D01*
X144176Y369044D01*
X144072Y369089D01*
X143969Y369137D01*
X143868Y369188D01*
X143769Y369243D01*
X143672Y369301D01*
X143577Y369363D01*
X143484Y369428D01*
X143394Y369496D01*
X143306Y369567D01*
X143220Y369642D01*
X143137Y369719D01*
X143057Y369799D01*
X142980Y369882D01*
X142905Y369968D01*
X142834Y370056D01*
X142766Y370146D01*
X142701Y370239D01*
X142639Y370334D01*
X142581Y370431D01*
X142526Y370530D01*
X142475Y370631D01*
X142427Y370734D01*
X142382Y370838D01*
X142342Y370944D01*
X142305Y371051D01*
X142272Y371159D01*
X142242Y371269D01*
X142217Y371379D01*
X142195Y371490D01*
X142178Y371602D01*
X142164Y371715D01*
X142154Y371828D01*
X142148Y371941D01*
X142146Y372054D01*
X142146Y375299D01*
X142148Y375442D01*
X142154Y375585D01*
X142164Y375728D01*
X142178Y375870D01*
X142195Y376012D01*
X142217Y376154D01*
X142242Y376295D01*
X142272Y376435D01*
X142305Y376574D01*
X142342Y376712D01*
X142383Y376849D01*
X142427Y376985D01*
X142476Y377120D01*
X142528Y377253D01*
X142583Y377385D01*
X142643Y377515D01*
X142706Y377644D01*
X142772Y377771D01*
X142842Y377895D01*
X142915Y378018D01*
X142992Y378139D01*
X143072Y378258D01*
X143155Y378374D01*
X143241Y378489D01*
X143330Y378600D01*
X143423Y378710D01*
X143518Y378816D01*
X143617Y378920D01*
X143718Y379021D01*
X143822Y379120D01*
X143928Y379215D01*
X144038Y379308D01*
X144149Y379397D01*
X144264Y379483D01*
X144380Y379566D01*
X144499Y379646D01*
X144620Y379723D01*
X144742Y379796D01*
X144867Y379866D01*
X144994Y379932D01*
X145123Y379995D01*
X145253Y380055D01*
X145385Y380110D01*
X145518Y380162D01*
X145653Y380211D01*
X145789Y380255D01*
X145926Y380296D01*
X146064Y380333D01*
X146203Y380366D01*
X146343Y380396D01*
X146484Y380421D01*
X146626Y380443D01*
X146768Y380460D01*
X146910Y380474D01*
X147053Y380484D01*
X147196Y380490D01*
X147339Y380492D01*
X69201Y368808D02*
X66604Y368808D01*
X66505Y368810D01*
X66405Y368816D01*
X66306Y368825D01*
X66208Y368838D01*
X66110Y368855D01*
X66012Y368876D01*
X65916Y368901D01*
X65821Y368929D01*
X65727Y368961D01*
X65634Y368996D01*
X65542Y369035D01*
X65452Y369078D01*
X65364Y369123D01*
X65277Y369173D01*
X65193Y369225D01*
X65110Y369281D01*
X65030Y369339D01*
X64952Y369401D01*
X64877Y369466D01*
X64804Y369534D01*
X64734Y369604D01*
X64666Y369677D01*
X64601Y369752D01*
X64539Y369830D01*
X64481Y369910D01*
X64425Y369993D01*
X64373Y370077D01*
X64323Y370164D01*
X64278Y370252D01*
X64235Y370342D01*
X64196Y370434D01*
X64161Y370527D01*
X64129Y370621D01*
X64101Y370716D01*
X64076Y370812D01*
X64055Y370910D01*
X64038Y371008D01*
X64025Y371106D01*
X64016Y371205D01*
X64010Y371305D01*
X64008Y371404D01*
X64008Y377896D01*
X64010Y377995D01*
X64016Y378095D01*
X64025Y378194D01*
X64038Y378292D01*
X64055Y378390D01*
X64076Y378488D01*
X64101Y378584D01*
X64129Y378679D01*
X64161Y378773D01*
X64196Y378866D01*
X64235Y378958D01*
X64278Y379048D01*
X64323Y379136D01*
X64373Y379223D01*
X64425Y379307D01*
X64481Y379390D01*
X64539Y379470D01*
X64601Y379548D01*
X64666Y379623D01*
X64734Y379696D01*
X64804Y379766D01*
X64877Y379834D01*
X64952Y379899D01*
X65030Y379961D01*
X65110Y380019D01*
X65193Y380075D01*
X65277Y380127D01*
X65364Y380177D01*
X65452Y380222D01*
X65542Y380265D01*
X65634Y380304D01*
X65726Y380339D01*
X65821Y380371D01*
X65916Y380399D01*
X66012Y380424D01*
X66110Y380445D01*
X66208Y380462D01*
X66306Y380475D01*
X66405Y380484D01*
X66505Y380490D01*
X66604Y380492D01*
X69201Y380492D01*
X73566Y380492D02*
X73566Y379194D01*
X73566Y380492D02*
X80057Y380492D01*
X76812Y368808D01*
X69201Y345948D02*
X66604Y345948D01*
X66505Y345950D01*
X66405Y345956D01*
X66306Y345965D01*
X66208Y345978D01*
X66110Y345995D01*
X66012Y346016D01*
X65916Y346041D01*
X65821Y346069D01*
X65727Y346101D01*
X65634Y346136D01*
X65542Y346175D01*
X65452Y346218D01*
X65364Y346263D01*
X65277Y346313D01*
X65193Y346365D01*
X65110Y346421D01*
X65030Y346479D01*
X64952Y346541D01*
X64877Y346606D01*
X64804Y346674D01*
X64734Y346744D01*
X64666Y346817D01*
X64601Y346892D01*
X64539Y346970D01*
X64481Y347050D01*
X64425Y347133D01*
X64373Y347217D01*
X64323Y347304D01*
X64278Y347392D01*
X64235Y347482D01*
X64196Y347574D01*
X64161Y347667D01*
X64129Y347761D01*
X64101Y347856D01*
X64076Y347952D01*
X64055Y348050D01*
X64038Y348148D01*
X64025Y348246D01*
X64016Y348345D01*
X64010Y348445D01*
X64008Y348544D01*
X64008Y355036D01*
X64010Y355135D01*
X64016Y355235D01*
X64025Y355334D01*
X64038Y355432D01*
X64055Y355530D01*
X64076Y355628D01*
X64101Y355724D01*
X64129Y355819D01*
X64161Y355913D01*
X64196Y356006D01*
X64235Y356098D01*
X64278Y356188D01*
X64323Y356276D01*
X64373Y356363D01*
X64425Y356447D01*
X64481Y356530D01*
X64539Y356610D01*
X64601Y356688D01*
X64666Y356763D01*
X64734Y356836D01*
X64804Y356906D01*
X64877Y356974D01*
X64952Y357039D01*
X65030Y357101D01*
X65110Y357159D01*
X65193Y357215D01*
X65277Y357267D01*
X65364Y357317D01*
X65452Y357362D01*
X65542Y357405D01*
X65634Y357444D01*
X65726Y357479D01*
X65821Y357511D01*
X65916Y357539D01*
X66012Y357564D01*
X66110Y357585D01*
X66208Y357602D01*
X66306Y357615D01*
X66405Y357624D01*
X66505Y357630D01*
X66604Y357632D01*
X69201Y357632D01*
X73566Y349194D02*
X73568Y349307D01*
X73574Y349420D01*
X73584Y349533D01*
X73598Y349646D01*
X73615Y349758D01*
X73637Y349869D01*
X73662Y349979D01*
X73692Y350089D01*
X73725Y350197D01*
X73762Y350304D01*
X73802Y350410D01*
X73847Y350514D01*
X73895Y350617D01*
X73946Y350718D01*
X74001Y350817D01*
X74059Y350914D01*
X74121Y351009D01*
X74186Y351102D01*
X74254Y351192D01*
X74325Y351280D01*
X74400Y351366D01*
X74477Y351449D01*
X74557Y351529D01*
X74640Y351606D01*
X74726Y351681D01*
X74814Y351752D01*
X74904Y351820D01*
X74997Y351885D01*
X75092Y351947D01*
X75189Y352005D01*
X75288Y352060D01*
X75389Y352111D01*
X75492Y352159D01*
X75596Y352204D01*
X75702Y352244D01*
X75809Y352281D01*
X75917Y352314D01*
X76027Y352344D01*
X76137Y352369D01*
X76248Y352391D01*
X76360Y352408D01*
X76473Y352422D01*
X76586Y352432D01*
X76699Y352438D01*
X76812Y352440D01*
X76925Y352438D01*
X77038Y352432D01*
X77151Y352422D01*
X77264Y352408D01*
X77376Y352391D01*
X77487Y352369D01*
X77597Y352344D01*
X77707Y352314D01*
X77815Y352281D01*
X77922Y352244D01*
X78028Y352204D01*
X78132Y352159D01*
X78235Y352111D01*
X78336Y352060D01*
X78435Y352005D01*
X78532Y351947D01*
X78627Y351885D01*
X78720Y351820D01*
X78810Y351752D01*
X78898Y351681D01*
X78984Y351606D01*
X79067Y351529D01*
X79147Y351449D01*
X79224Y351366D01*
X79299Y351280D01*
X79370Y351192D01*
X79438Y351102D01*
X79503Y351009D01*
X79565Y350914D01*
X79623Y350817D01*
X79678Y350718D01*
X79729Y350617D01*
X79777Y350514D01*
X79822Y350410D01*
X79862Y350304D01*
X79899Y350197D01*
X79932Y350089D01*
X79962Y349979D01*
X79987Y349869D01*
X80009Y349758D01*
X80026Y349646D01*
X80040Y349533D01*
X80050Y349420D01*
X80056Y349307D01*
X80058Y349194D01*
X80056Y349081D01*
X80050Y348968D01*
X80040Y348855D01*
X80026Y348742D01*
X80009Y348630D01*
X79987Y348519D01*
X79962Y348409D01*
X79932Y348299D01*
X79899Y348191D01*
X79862Y348084D01*
X79822Y347978D01*
X79777Y347874D01*
X79729Y347771D01*
X79678Y347670D01*
X79623Y347571D01*
X79565Y347474D01*
X79503Y347379D01*
X79438Y347286D01*
X79370Y347196D01*
X79299Y347108D01*
X79224Y347022D01*
X79147Y346939D01*
X79067Y346859D01*
X78984Y346782D01*
X78898Y346707D01*
X78810Y346636D01*
X78720Y346568D01*
X78627Y346503D01*
X78532Y346441D01*
X78435Y346383D01*
X78336Y346328D01*
X78235Y346277D01*
X78132Y346229D01*
X78028Y346184D01*
X77922Y346144D01*
X77815Y346107D01*
X77707Y346074D01*
X77597Y346044D01*
X77487Y346019D01*
X77376Y345997D01*
X77264Y345980D01*
X77151Y345966D01*
X77038Y345956D01*
X76925Y345950D01*
X76812Y345948D01*
X76699Y345950D01*
X76586Y345956D01*
X76473Y345966D01*
X76360Y345980D01*
X76248Y345997D01*
X76137Y346019D01*
X76027Y346044D01*
X75917Y346074D01*
X75809Y346107D01*
X75702Y346144D01*
X75596Y346184D01*
X75492Y346229D01*
X75389Y346277D01*
X75288Y346328D01*
X75189Y346383D01*
X75092Y346441D01*
X74997Y346503D01*
X74904Y346568D01*
X74814Y346636D01*
X74726Y346707D01*
X74640Y346782D01*
X74557Y346859D01*
X74477Y346939D01*
X74400Y347022D01*
X74325Y347108D01*
X74254Y347196D01*
X74186Y347286D01*
X74121Y347379D01*
X74059Y347474D01*
X74001Y347571D01*
X73946Y347670D01*
X73895Y347771D01*
X73847Y347874D01*
X73802Y347978D01*
X73762Y348084D01*
X73725Y348191D01*
X73692Y348299D01*
X73662Y348409D01*
X73637Y348519D01*
X73615Y348630D01*
X73598Y348742D01*
X73584Y348855D01*
X73574Y348968D01*
X73568Y349081D01*
X73566Y349194D01*
X74216Y355036D02*
X74218Y355137D01*
X74224Y355237D01*
X74234Y355337D01*
X74247Y355437D01*
X74265Y355536D01*
X74286Y355635D01*
X74311Y355732D01*
X74340Y355829D01*
X74373Y355924D01*
X74409Y356018D01*
X74449Y356110D01*
X74492Y356201D01*
X74539Y356290D01*
X74589Y356377D01*
X74643Y356463D01*
X74700Y356546D01*
X74760Y356626D01*
X74823Y356705D01*
X74890Y356781D01*
X74959Y356854D01*
X75031Y356924D01*
X75105Y356992D01*
X75182Y357057D01*
X75262Y357118D01*
X75344Y357177D01*
X75428Y357232D01*
X75514Y357284D01*
X75602Y357333D01*
X75692Y357378D01*
X75784Y357420D01*
X75877Y357458D01*
X75972Y357492D01*
X76067Y357523D01*
X76164Y357550D01*
X76262Y357573D01*
X76361Y357593D01*
X76461Y357608D01*
X76561Y357620D01*
X76661Y357628D01*
X76762Y357632D01*
X76862Y357632D01*
X76963Y357628D01*
X77063Y357620D01*
X77163Y357608D01*
X77263Y357593D01*
X77362Y357573D01*
X77460Y357550D01*
X77557Y357523D01*
X77652Y357492D01*
X77747Y357458D01*
X77840Y357420D01*
X77932Y357378D01*
X78022Y357333D01*
X78110Y357284D01*
X78196Y357232D01*
X78280Y357177D01*
X78362Y357118D01*
X78442Y357057D01*
X78519Y356992D01*
X78593Y356924D01*
X78665Y356854D01*
X78734Y356781D01*
X78801Y356705D01*
X78864Y356626D01*
X78924Y356546D01*
X78981Y356463D01*
X79035Y356377D01*
X79085Y356290D01*
X79132Y356201D01*
X79175Y356110D01*
X79215Y356018D01*
X79251Y355924D01*
X79284Y355829D01*
X79313Y355732D01*
X79338Y355635D01*
X79359Y355536D01*
X79377Y355437D01*
X79390Y355337D01*
X79400Y355237D01*
X79406Y355137D01*
X79408Y355036D01*
X79406Y354935D01*
X79400Y354835D01*
X79390Y354735D01*
X79377Y354635D01*
X79359Y354536D01*
X79338Y354437D01*
X79313Y354340D01*
X79284Y354243D01*
X79251Y354148D01*
X79215Y354054D01*
X79175Y353962D01*
X79132Y353871D01*
X79085Y353782D01*
X79035Y353695D01*
X78981Y353609D01*
X78924Y353526D01*
X78864Y353446D01*
X78801Y353367D01*
X78734Y353291D01*
X78665Y353218D01*
X78593Y353148D01*
X78519Y353080D01*
X78442Y353015D01*
X78362Y352954D01*
X78280Y352895D01*
X78196Y352840D01*
X78110Y352788D01*
X78022Y352739D01*
X77932Y352694D01*
X77840Y352652D01*
X77747Y352614D01*
X77652Y352580D01*
X77557Y352549D01*
X77460Y352522D01*
X77362Y352499D01*
X77263Y352479D01*
X77163Y352464D01*
X77063Y352452D01*
X76963Y352444D01*
X76862Y352440D01*
X76762Y352440D01*
X76661Y352444D01*
X76561Y352452D01*
X76461Y352464D01*
X76361Y352479D01*
X76262Y352499D01*
X76164Y352522D01*
X76067Y352549D01*
X75972Y352580D01*
X75877Y352614D01*
X75784Y352652D01*
X75692Y352694D01*
X75602Y352739D01*
X75514Y352788D01*
X75428Y352840D01*
X75344Y352895D01*
X75262Y352954D01*
X75182Y353015D01*
X75105Y353080D01*
X75031Y353148D01*
X74959Y353218D01*
X74890Y353291D01*
X74823Y353367D01*
X74760Y353446D01*
X74700Y353526D01*
X74643Y353609D01*
X74589Y353695D01*
X74539Y353782D01*
X74492Y353871D01*
X74449Y353962D01*
X74409Y354054D01*
X74373Y354148D01*
X74340Y354243D01*
X74311Y354340D01*
X74286Y354437D01*
X74265Y354536D01*
X74247Y354635D01*
X74234Y354735D01*
X74224Y354835D01*
X74218Y354935D01*
X74216Y355036D01*
X170744Y345948D02*
X173341Y345948D01*
X170744Y345948D02*
X170645Y345950D01*
X170545Y345956D01*
X170446Y345965D01*
X170348Y345978D01*
X170250Y345995D01*
X170152Y346016D01*
X170056Y346041D01*
X169961Y346069D01*
X169867Y346101D01*
X169774Y346136D01*
X169682Y346175D01*
X169592Y346218D01*
X169504Y346263D01*
X169417Y346313D01*
X169333Y346365D01*
X169250Y346421D01*
X169170Y346479D01*
X169092Y346541D01*
X169017Y346606D01*
X168944Y346674D01*
X168874Y346744D01*
X168806Y346817D01*
X168741Y346892D01*
X168679Y346970D01*
X168621Y347050D01*
X168565Y347133D01*
X168513Y347217D01*
X168463Y347304D01*
X168418Y347392D01*
X168375Y347482D01*
X168336Y347574D01*
X168301Y347667D01*
X168269Y347761D01*
X168241Y347856D01*
X168216Y347952D01*
X168195Y348050D01*
X168178Y348148D01*
X168165Y348246D01*
X168156Y348345D01*
X168150Y348445D01*
X168148Y348544D01*
X168148Y355036D01*
X168150Y355135D01*
X168156Y355235D01*
X168165Y355334D01*
X168178Y355432D01*
X168195Y355530D01*
X168216Y355628D01*
X168241Y355724D01*
X168269Y355819D01*
X168301Y355913D01*
X168336Y356006D01*
X168375Y356098D01*
X168418Y356188D01*
X168463Y356276D01*
X168513Y356363D01*
X168565Y356447D01*
X168621Y356530D01*
X168679Y356610D01*
X168741Y356688D01*
X168806Y356763D01*
X168874Y356836D01*
X168944Y356906D01*
X169017Y356974D01*
X169092Y357039D01*
X169170Y357101D01*
X169250Y357159D01*
X169333Y357215D01*
X169417Y357267D01*
X169504Y357317D01*
X169592Y357362D01*
X169682Y357405D01*
X169774Y357444D01*
X169866Y357479D01*
X169961Y357511D01*
X170056Y357539D01*
X170152Y357564D01*
X170250Y357585D01*
X170348Y357602D01*
X170446Y357615D01*
X170545Y357624D01*
X170645Y357630D01*
X170744Y357632D01*
X173341Y357632D01*
X180303Y351141D02*
X184197Y351141D01*
X180303Y351141D02*
X180204Y351143D01*
X180104Y351149D01*
X180005Y351158D01*
X179907Y351171D01*
X179809Y351188D01*
X179711Y351209D01*
X179615Y351234D01*
X179520Y351262D01*
X179426Y351294D01*
X179333Y351329D01*
X179241Y351368D01*
X179151Y351411D01*
X179063Y351456D01*
X178976Y351506D01*
X178892Y351558D01*
X178809Y351614D01*
X178729Y351672D01*
X178651Y351734D01*
X178576Y351799D01*
X178503Y351867D01*
X178433Y351937D01*
X178365Y352010D01*
X178300Y352085D01*
X178238Y352163D01*
X178180Y352243D01*
X178124Y352326D01*
X178072Y352410D01*
X178022Y352497D01*
X177977Y352585D01*
X177934Y352675D01*
X177895Y352767D01*
X177860Y352860D01*
X177828Y352954D01*
X177800Y353049D01*
X177775Y353145D01*
X177754Y353243D01*
X177737Y353341D01*
X177724Y353439D01*
X177715Y353538D01*
X177709Y353638D01*
X177707Y353737D01*
X177706Y353737D02*
X177706Y354386D01*
X177708Y354499D01*
X177714Y354612D01*
X177724Y354725D01*
X177738Y354838D01*
X177755Y354950D01*
X177777Y355061D01*
X177802Y355171D01*
X177832Y355281D01*
X177865Y355389D01*
X177902Y355496D01*
X177942Y355602D01*
X177987Y355706D01*
X178035Y355809D01*
X178086Y355910D01*
X178141Y356009D01*
X178199Y356106D01*
X178261Y356201D01*
X178326Y356294D01*
X178394Y356384D01*
X178465Y356472D01*
X178540Y356558D01*
X178617Y356641D01*
X178697Y356721D01*
X178780Y356798D01*
X178866Y356873D01*
X178954Y356944D01*
X179044Y357012D01*
X179137Y357077D01*
X179232Y357139D01*
X179329Y357197D01*
X179428Y357252D01*
X179529Y357303D01*
X179632Y357351D01*
X179736Y357396D01*
X179842Y357436D01*
X179949Y357473D01*
X180057Y357506D01*
X180167Y357536D01*
X180277Y357561D01*
X180388Y357583D01*
X180500Y357600D01*
X180613Y357614D01*
X180726Y357624D01*
X180839Y357630D01*
X180952Y357632D01*
X181065Y357630D01*
X181178Y357624D01*
X181291Y357614D01*
X181404Y357600D01*
X181516Y357583D01*
X181627Y357561D01*
X181737Y357536D01*
X181847Y357506D01*
X181955Y357473D01*
X182062Y357436D01*
X182168Y357396D01*
X182272Y357351D01*
X182375Y357303D01*
X182476Y357252D01*
X182575Y357197D01*
X182672Y357139D01*
X182767Y357077D01*
X182860Y357012D01*
X182950Y356944D01*
X183038Y356873D01*
X183124Y356798D01*
X183207Y356721D01*
X183287Y356641D01*
X183364Y356558D01*
X183439Y356472D01*
X183510Y356384D01*
X183578Y356294D01*
X183643Y356201D01*
X183705Y356106D01*
X183763Y356009D01*
X183818Y355910D01*
X183869Y355809D01*
X183917Y355706D01*
X183962Y355602D01*
X184002Y355496D01*
X184039Y355389D01*
X184072Y355281D01*
X184102Y355171D01*
X184127Y355061D01*
X184149Y354950D01*
X184166Y354838D01*
X184180Y354725D01*
X184190Y354612D01*
X184196Y354499D01*
X184198Y354386D01*
X184197Y354386D02*
X184197Y351141D01*
X184195Y350998D01*
X184189Y350855D01*
X184179Y350712D01*
X184165Y350570D01*
X184148Y350428D01*
X184126Y350286D01*
X184101Y350145D01*
X184071Y350005D01*
X184038Y349866D01*
X184001Y349728D01*
X183960Y349591D01*
X183916Y349455D01*
X183867Y349320D01*
X183815Y349187D01*
X183760Y349055D01*
X183700Y348925D01*
X183637Y348796D01*
X183571Y348669D01*
X183501Y348544D01*
X183428Y348422D01*
X183351Y348301D01*
X183271Y348182D01*
X183188Y348066D01*
X183102Y347951D01*
X183013Y347840D01*
X182920Y347730D01*
X182825Y347624D01*
X182726Y347520D01*
X182625Y347419D01*
X182521Y347320D01*
X182415Y347225D01*
X182305Y347132D01*
X182194Y347043D01*
X182079Y346957D01*
X181963Y346874D01*
X181844Y346794D01*
X181723Y346717D01*
X181600Y346644D01*
X181476Y346574D01*
X181349Y346508D01*
X181220Y346445D01*
X181090Y346385D01*
X180958Y346330D01*
X180825Y346278D01*
X180690Y346229D01*
X180554Y346185D01*
X180417Y346144D01*
X180279Y346107D01*
X180140Y346074D01*
X180000Y346044D01*
X179859Y346019D01*
X179717Y345997D01*
X179575Y345980D01*
X179433Y345966D01*
X179290Y345956D01*
X179147Y345950D01*
X179004Y345948D01*
X168261Y368808D02*
X165664Y368808D01*
X165565Y368810D01*
X165465Y368816D01*
X165366Y368825D01*
X165268Y368838D01*
X165170Y368855D01*
X165072Y368876D01*
X164976Y368901D01*
X164881Y368929D01*
X164787Y368961D01*
X164694Y368996D01*
X164602Y369035D01*
X164512Y369078D01*
X164424Y369123D01*
X164337Y369173D01*
X164253Y369225D01*
X164170Y369281D01*
X164090Y369339D01*
X164012Y369401D01*
X163937Y369466D01*
X163864Y369534D01*
X163794Y369604D01*
X163726Y369677D01*
X163661Y369752D01*
X163599Y369830D01*
X163541Y369910D01*
X163485Y369993D01*
X163433Y370077D01*
X163383Y370164D01*
X163338Y370252D01*
X163295Y370342D01*
X163256Y370434D01*
X163221Y370527D01*
X163189Y370621D01*
X163161Y370716D01*
X163136Y370812D01*
X163115Y370910D01*
X163098Y371008D01*
X163085Y371106D01*
X163076Y371205D01*
X163070Y371305D01*
X163068Y371404D01*
X163068Y377896D01*
X163070Y377995D01*
X163076Y378095D01*
X163085Y378194D01*
X163098Y378292D01*
X163115Y378390D01*
X163136Y378488D01*
X163161Y378584D01*
X163189Y378679D01*
X163221Y378773D01*
X163256Y378866D01*
X163295Y378958D01*
X163338Y379048D01*
X163383Y379136D01*
X163433Y379223D01*
X163485Y379307D01*
X163541Y379390D01*
X163599Y379470D01*
X163661Y379548D01*
X163726Y379623D01*
X163794Y379696D01*
X163864Y379766D01*
X163937Y379834D01*
X164012Y379899D01*
X164090Y379961D01*
X164170Y380019D01*
X164253Y380075D01*
X164337Y380127D01*
X164424Y380177D01*
X164512Y380222D01*
X164602Y380265D01*
X164694Y380304D01*
X164786Y380339D01*
X164881Y380371D01*
X164976Y380399D01*
X165072Y380424D01*
X165170Y380445D01*
X165268Y380462D01*
X165366Y380475D01*
X165465Y380484D01*
X165565Y380490D01*
X165664Y380492D01*
X168261Y380492D01*
X172626Y377896D02*
X175872Y380492D01*
X175872Y368808D01*
X179117Y368808D02*
X172626Y368808D01*
X184057Y374650D02*
X184060Y374880D01*
X184068Y375110D01*
X184082Y375339D01*
X184101Y375568D01*
X184126Y375797D01*
X184156Y376024D01*
X184191Y376252D01*
X184232Y376478D01*
X184278Y376703D01*
X184330Y376927D01*
X184387Y377149D01*
X184449Y377371D01*
X184517Y377590D01*
X184590Y377808D01*
X184668Y378025D01*
X184751Y378239D01*
X184839Y378451D01*
X184932Y378661D01*
X185031Y378869D01*
X185030Y378869D02*
X185063Y378959D01*
X185099Y379048D01*
X185139Y379136D01*
X185183Y379221D01*
X185230Y379305D01*
X185280Y379387D01*
X185334Y379467D01*
X185390Y379544D01*
X185450Y379620D01*
X185513Y379693D01*
X185578Y379763D01*
X185647Y379831D01*
X185718Y379895D01*
X185791Y379957D01*
X185867Y380016D01*
X185945Y380072D01*
X186026Y380125D01*
X186108Y380174D01*
X186192Y380220D01*
X186279Y380263D01*
X186366Y380302D01*
X186456Y380338D01*
X186546Y380370D01*
X186638Y380398D01*
X186731Y380423D01*
X186825Y380444D01*
X186919Y380461D01*
X187014Y380475D01*
X187110Y380484D01*
X187206Y380490D01*
X187302Y380492D01*
X187398Y380490D01*
X187494Y380484D01*
X187590Y380475D01*
X187685Y380461D01*
X187779Y380444D01*
X187873Y380423D01*
X187966Y380398D01*
X188058Y380370D01*
X188148Y380338D01*
X188238Y380302D01*
X188325Y380263D01*
X188412Y380220D01*
X188496Y380174D01*
X188578Y380125D01*
X188659Y380072D01*
X188737Y380016D01*
X188813Y379957D01*
X188886Y379895D01*
X188957Y379831D01*
X189026Y379763D01*
X189091Y379693D01*
X189154Y379620D01*
X189214Y379544D01*
X189270Y379467D01*
X189324Y379387D01*
X189374Y379305D01*
X189421Y379221D01*
X189465Y379136D01*
X189505Y379048D01*
X189541Y378959D01*
X189574Y378869D01*
X189673Y378662D01*
X189766Y378452D01*
X189854Y378239D01*
X189937Y378025D01*
X190015Y377809D01*
X190088Y377591D01*
X190156Y377371D01*
X190218Y377150D01*
X190275Y376927D01*
X190327Y376703D01*
X190373Y376478D01*
X190414Y376252D01*
X190449Y376025D01*
X190479Y375797D01*
X190504Y375568D01*
X190523Y375339D01*
X190537Y375110D01*
X190545Y374880D01*
X190548Y374650D01*
X184056Y374650D02*
X184059Y374420D01*
X184067Y374190D01*
X184081Y373961D01*
X184100Y373732D01*
X184125Y373503D01*
X184155Y373275D01*
X184190Y373048D01*
X184231Y372822D01*
X184277Y372597D01*
X184329Y372373D01*
X184386Y372150D01*
X184448Y371929D01*
X184516Y371709D01*
X184589Y371491D01*
X184667Y371275D01*
X184750Y371061D01*
X184838Y370849D01*
X184931Y370638D01*
X185030Y370431D01*
X185063Y370341D01*
X185099Y370252D01*
X185140Y370164D01*
X185183Y370079D01*
X185230Y369995D01*
X185280Y369913D01*
X185334Y369833D01*
X185390Y369756D01*
X185450Y369680D01*
X185513Y369607D01*
X185578Y369537D01*
X185647Y369469D01*
X185718Y369405D01*
X185791Y369343D01*
X185867Y369284D01*
X185945Y369228D01*
X186026Y369175D01*
X186108Y369126D01*
X186192Y369080D01*
X186279Y369037D01*
X186366Y368998D01*
X186456Y368962D01*
X186546Y368930D01*
X186638Y368902D01*
X186731Y368877D01*
X186825Y368856D01*
X186919Y368839D01*
X187014Y368825D01*
X187110Y368816D01*
X187206Y368810D01*
X187302Y368808D01*
X189574Y370431D02*
X189673Y370638D01*
X189766Y370849D01*
X189854Y371061D01*
X189937Y371275D01*
X190015Y371491D01*
X190088Y371709D01*
X190156Y371929D01*
X190218Y372150D01*
X190275Y372373D01*
X190327Y372597D01*
X190373Y372822D01*
X190414Y373048D01*
X190449Y373275D01*
X190479Y373503D01*
X190504Y373732D01*
X190523Y373961D01*
X190537Y374190D01*
X190545Y374420D01*
X190548Y374650D01*
X189574Y370431D02*
X189541Y370341D01*
X189505Y370252D01*
X189465Y370164D01*
X189421Y370079D01*
X189374Y369995D01*
X189324Y369913D01*
X189270Y369833D01*
X189214Y369756D01*
X189154Y369680D01*
X189091Y369607D01*
X189026Y369537D01*
X188957Y369469D01*
X188886Y369405D01*
X188813Y369343D01*
X188737Y369284D01*
X188659Y369228D01*
X188578Y369175D01*
X188496Y369126D01*
X188412Y369080D01*
X188325Y369037D01*
X188238Y368998D01*
X188148Y368962D01*
X188058Y368930D01*
X187966Y368902D01*
X187873Y368877D01*
X187779Y368856D01*
X187685Y368839D01*
X187590Y368825D01*
X187494Y368816D01*
X187398Y368810D01*
X187302Y368808D01*
X184705Y371404D02*
X189898Y377896D01*
X98298Y357632D02*
X98298Y345948D01*
X103491Y345948D01*
X107800Y355036D02*
X111046Y357632D01*
X111046Y345948D01*
X107800Y345948D02*
X114292Y345948D01*
X204978Y368808D02*
X204978Y380492D01*
X204978Y368808D02*
X210171Y368808D01*
X220972Y377571D02*
X220970Y377678D01*
X220964Y377784D01*
X220954Y377890D01*
X220941Y377996D01*
X220923Y378102D01*
X220902Y378206D01*
X220877Y378310D01*
X220848Y378413D01*
X220816Y378514D01*
X220779Y378614D01*
X220739Y378713D01*
X220696Y378811D01*
X220649Y378907D01*
X220598Y379001D01*
X220544Y379093D01*
X220487Y379183D01*
X220427Y379271D01*
X220363Y379356D01*
X220296Y379439D01*
X220226Y379520D01*
X220154Y379598D01*
X220078Y379674D01*
X220000Y379746D01*
X219919Y379816D01*
X219836Y379883D01*
X219751Y379947D01*
X219663Y380007D01*
X219573Y380064D01*
X219481Y380118D01*
X219387Y380169D01*
X219291Y380216D01*
X219193Y380259D01*
X219094Y380299D01*
X218994Y380336D01*
X218893Y380368D01*
X218790Y380397D01*
X218686Y380422D01*
X218582Y380443D01*
X218476Y380461D01*
X218370Y380474D01*
X218264Y380484D01*
X218158Y380490D01*
X218051Y380492D01*
X217930Y380490D01*
X217809Y380484D01*
X217689Y380474D01*
X217568Y380461D01*
X217449Y380443D01*
X217329Y380422D01*
X217211Y380397D01*
X217094Y380368D01*
X216977Y380335D01*
X216862Y380299D01*
X216748Y380258D01*
X216635Y380215D01*
X216523Y380167D01*
X216414Y380116D01*
X216306Y380061D01*
X216199Y380003D01*
X216095Y379942D01*
X215993Y379877D01*
X215893Y379809D01*
X215795Y379738D01*
X215699Y379664D01*
X215606Y379587D01*
X215516Y379506D01*
X215428Y379423D01*
X215343Y379337D01*
X215260Y379248D01*
X215181Y379157D01*
X215104Y379063D01*
X215031Y378967D01*
X214961Y378869D01*
X214894Y378768D01*
X214830Y378665D01*
X214770Y378560D01*
X214713Y378453D01*
X214659Y378345D01*
X214609Y378235D01*
X214563Y378123D01*
X214520Y378010D01*
X214481Y377895D01*
X219998Y375299D02*
X220077Y375376D01*
X220153Y375457D01*
X220226Y375540D01*
X220296Y375625D01*
X220363Y375713D01*
X220427Y375803D01*
X220487Y375895D01*
X220544Y375990D01*
X220598Y376086D01*
X220649Y376184D01*
X220696Y376284D01*
X220740Y376386D01*
X220780Y376489D01*
X220816Y376593D01*
X220848Y376699D01*
X220877Y376805D01*
X220902Y376913D01*
X220924Y377021D01*
X220941Y377131D01*
X220955Y377240D01*
X220964Y377350D01*
X220970Y377461D01*
X220972Y377571D01*
X219998Y375299D02*
X214480Y368808D01*
X220972Y368808D01*
D10*
X395338Y138608D02*
X395338Y11608D01*
X395338Y138608D02*
X448678Y138608D01*
X448678Y11608D01*
X395338Y11608D01*
D125*
X459370Y282340D02*
X459387Y283720D01*
X459438Y285100D01*
X459522Y286478D01*
X459641Y287853D01*
X459793Y289226D01*
X459979Y290594D01*
X460198Y291957D01*
X460451Y293314D01*
X460737Y294664D01*
X461056Y296008D01*
X461408Y297343D01*
X461792Y298669D01*
X462209Y299985D01*
X462658Y301290D01*
X463139Y302584D01*
X463652Y303866D01*
X464196Y305135D01*
X464771Y306390D01*
X465376Y307631D01*
X466012Y308856D01*
X466678Y310066D01*
X467373Y311258D01*
X468097Y312434D01*
X468850Y313591D01*
X469631Y314729D01*
X470440Y315848D01*
X471276Y316947D01*
X472138Y318025D01*
X473027Y319081D01*
X473941Y320115D01*
X474881Y321127D01*
X475845Y322115D01*
X476833Y323079D01*
X477845Y324019D01*
X478879Y324933D01*
X479935Y325822D01*
X481013Y326684D01*
X482112Y327520D01*
X483231Y328329D01*
X484369Y329110D01*
X485526Y329863D01*
X486702Y330587D01*
X487894Y331282D01*
X489104Y331948D01*
X490329Y332584D01*
X491570Y333189D01*
X492825Y333764D01*
X494094Y334308D01*
X495376Y334821D01*
X496670Y335302D01*
X497975Y335751D01*
X499291Y336168D01*
X500617Y336552D01*
X501952Y336904D01*
X503296Y337223D01*
X504646Y337509D01*
X506003Y337762D01*
X507366Y337981D01*
X508734Y338167D01*
X510107Y338319D01*
X511482Y338438D01*
X512860Y338522D01*
X514240Y338573D01*
X515620Y338590D01*
X517000Y338573D01*
X518380Y338522D01*
X519758Y338438D01*
X521133Y338319D01*
X522506Y338167D01*
X523874Y337981D01*
X525237Y337762D01*
X526594Y337509D01*
X527944Y337223D01*
X529288Y336904D01*
X530623Y336552D01*
X531949Y336168D01*
X533265Y335751D01*
X534570Y335302D01*
X535864Y334821D01*
X537146Y334308D01*
X538415Y333764D01*
X539670Y333189D01*
X540911Y332584D01*
X542136Y331948D01*
X543346Y331282D01*
X544538Y330587D01*
X545714Y329863D01*
X546871Y329110D01*
X548009Y328329D01*
X549128Y327520D01*
X550227Y326684D01*
X551305Y325822D01*
X552361Y324933D01*
X553395Y324019D01*
X554407Y323079D01*
X555395Y322115D01*
X556359Y321127D01*
X557299Y320115D01*
X558213Y319081D01*
X559102Y318025D01*
X559964Y316947D01*
X560800Y315848D01*
X561609Y314729D01*
X562390Y313591D01*
X563143Y312434D01*
X563867Y311258D01*
X564562Y310066D01*
X565228Y308856D01*
X565864Y307631D01*
X566469Y306390D01*
X567044Y305135D01*
X567588Y303866D01*
X568101Y302584D01*
X568582Y301290D01*
X569031Y299985D01*
X569448Y298669D01*
X569832Y297343D01*
X570184Y296008D01*
X570503Y294664D01*
X570789Y293314D01*
X571042Y291957D01*
X571261Y290594D01*
X571447Y289226D01*
X571599Y287853D01*
X571718Y286478D01*
X571802Y285100D01*
X571853Y283720D01*
X571870Y282340D01*
X571853Y280960D01*
X571802Y279580D01*
X571718Y278202D01*
X571599Y276827D01*
X571447Y275454D01*
X571261Y274086D01*
X571042Y272723D01*
X570789Y271366D01*
X570503Y270016D01*
X570184Y268672D01*
X569832Y267337D01*
X569448Y266011D01*
X569031Y264695D01*
X568582Y263390D01*
X568101Y262096D01*
X567588Y260814D01*
X567044Y259545D01*
X566469Y258290D01*
X565864Y257049D01*
X565228Y255824D01*
X564562Y254614D01*
X563867Y253422D01*
X563143Y252246D01*
X562390Y251089D01*
X561609Y249951D01*
X560800Y248832D01*
X559964Y247733D01*
X559102Y246655D01*
X558213Y245599D01*
X557299Y244565D01*
X556359Y243553D01*
X555395Y242565D01*
X554407Y241601D01*
X553395Y240661D01*
X552361Y239747D01*
X551305Y238858D01*
X550227Y237996D01*
X549128Y237160D01*
X548009Y236351D01*
X546871Y235570D01*
X545714Y234817D01*
X544538Y234093D01*
X543346Y233398D01*
X542136Y232732D01*
X540911Y232096D01*
X539670Y231491D01*
X538415Y230916D01*
X537146Y230372D01*
X535864Y229859D01*
X534570Y229378D01*
X533265Y228929D01*
X531949Y228512D01*
X530623Y228128D01*
X529288Y227776D01*
X527944Y227457D01*
X526594Y227171D01*
X525237Y226918D01*
X523874Y226699D01*
X522506Y226513D01*
X521133Y226361D01*
X519758Y226242D01*
X518380Y226158D01*
X517000Y226107D01*
X515620Y226090D01*
X514240Y226107D01*
X512860Y226158D01*
X511482Y226242D01*
X510107Y226361D01*
X508734Y226513D01*
X507366Y226699D01*
X506003Y226918D01*
X504646Y227171D01*
X503296Y227457D01*
X501952Y227776D01*
X500617Y228128D01*
X499291Y228512D01*
X497975Y228929D01*
X496670Y229378D01*
X495376Y229859D01*
X494094Y230372D01*
X492825Y230916D01*
X491570Y231491D01*
X490329Y232096D01*
X489104Y232732D01*
X487894Y233398D01*
X486702Y234093D01*
X485526Y234817D01*
X484369Y235570D01*
X483231Y236351D01*
X482112Y237160D01*
X481013Y237996D01*
X479935Y238858D01*
X478879Y239747D01*
X477845Y240661D01*
X476833Y241601D01*
X475845Y242565D01*
X474881Y243553D01*
X473941Y244565D01*
X473027Y245599D01*
X472138Y246655D01*
X471276Y247733D01*
X470440Y248832D01*
X469631Y249951D01*
X468850Y251089D01*
X468097Y252246D01*
X467373Y253422D01*
X466678Y254614D01*
X466012Y255824D01*
X465376Y257049D01*
X464771Y258290D01*
X464196Y259545D01*
X463652Y260814D01*
X463139Y262096D01*
X462658Y263390D01*
X462209Y264695D01*
X461792Y266011D01*
X461408Y267337D01*
X461056Y268672D01*
X460737Y270016D01*
X460451Y271366D01*
X460198Y272723D01*
X459979Y274086D01*
X459793Y275454D01*
X459641Y276827D01*
X459522Y278202D01*
X459438Y279580D01*
X459387Y280960D01*
X459370Y282340D01*
D124*
X464370Y282340D02*
X464385Y283598D01*
X464432Y284855D01*
X464509Y286110D01*
X464617Y287363D01*
X464755Y288614D01*
X464925Y289860D01*
X465125Y291102D01*
X465355Y292338D01*
X465615Y293569D01*
X465906Y294793D01*
X466226Y296009D01*
X466577Y297217D01*
X466957Y298416D01*
X467366Y299606D01*
X467804Y300785D01*
X468271Y301953D01*
X468767Y303109D01*
X469291Y304252D01*
X469842Y305383D01*
X470422Y306499D01*
X471028Y307601D01*
X471661Y308688D01*
X472321Y309759D01*
X473007Y310813D01*
X473719Y311850D01*
X474456Y312870D01*
X475217Y313871D01*
X476003Y314853D01*
X476813Y315815D01*
X477646Y316757D01*
X478502Y317679D01*
X479381Y318579D01*
X480281Y319458D01*
X481203Y320314D01*
X482145Y321147D01*
X483107Y321957D01*
X484089Y322743D01*
X485090Y323504D01*
X486110Y324241D01*
X487147Y324953D01*
X488201Y325639D01*
X489272Y326299D01*
X490359Y326932D01*
X491461Y327538D01*
X492577Y328118D01*
X493708Y328669D01*
X494851Y329193D01*
X496007Y329689D01*
X497175Y330156D01*
X498354Y330594D01*
X499544Y331003D01*
X500743Y331383D01*
X501951Y331734D01*
X503167Y332054D01*
X504391Y332345D01*
X505622Y332605D01*
X506858Y332835D01*
X508100Y333035D01*
X509346Y333205D01*
X510597Y333343D01*
X511850Y333451D01*
X513105Y333528D01*
X514362Y333575D01*
X515620Y333590D01*
X516878Y333575D01*
X518135Y333528D01*
X519390Y333451D01*
X520643Y333343D01*
X521894Y333205D01*
X523140Y333035D01*
X524382Y332835D01*
X525618Y332605D01*
X526849Y332345D01*
X528073Y332054D01*
X529289Y331734D01*
X530497Y331383D01*
X531696Y331003D01*
X532886Y330594D01*
X534065Y330156D01*
X535233Y329689D01*
X536389Y329193D01*
X537532Y328669D01*
X538663Y328118D01*
X539779Y327538D01*
X540881Y326932D01*
X541968Y326299D01*
X543039Y325639D01*
X544093Y324953D01*
X545130Y324241D01*
X546150Y323504D01*
X547151Y322743D01*
X548133Y321957D01*
X549095Y321147D01*
X550037Y320314D01*
X550959Y319458D01*
X551859Y318579D01*
X552738Y317679D01*
X553594Y316757D01*
X554427Y315815D01*
X555237Y314853D01*
X556023Y313871D01*
X556784Y312870D01*
X557521Y311850D01*
X558233Y310813D01*
X558919Y309759D01*
X559579Y308688D01*
X560212Y307601D01*
X560818Y306499D01*
X561398Y305383D01*
X561949Y304252D01*
X562473Y303109D01*
X562969Y301953D01*
X563436Y300785D01*
X563874Y299606D01*
X564283Y298416D01*
X564663Y297217D01*
X565014Y296009D01*
X565334Y294793D01*
X565625Y293569D01*
X565885Y292338D01*
X566115Y291102D01*
X566315Y289860D01*
X566485Y288614D01*
X566623Y287363D01*
X566731Y286110D01*
X566808Y284855D01*
X566855Y283598D01*
X566870Y282340D01*
X566855Y281082D01*
X566808Y279825D01*
X566731Y278570D01*
X566623Y277317D01*
X566485Y276066D01*
X566315Y274820D01*
X566115Y273578D01*
X565885Y272342D01*
X565625Y271111D01*
X565334Y269887D01*
X565014Y268671D01*
X564663Y267463D01*
X564283Y266264D01*
X563874Y265074D01*
X563436Y263895D01*
X562969Y262727D01*
X562473Y261571D01*
X561949Y260428D01*
X561398Y259297D01*
X560818Y258181D01*
X560212Y257079D01*
X559579Y255992D01*
X558919Y254921D01*
X558233Y253867D01*
X557521Y252830D01*
X556784Y251810D01*
X556023Y250809D01*
X555237Y249827D01*
X554427Y248865D01*
X553594Y247923D01*
X552738Y247001D01*
X551859Y246101D01*
X550959Y245222D01*
X550037Y244366D01*
X549095Y243533D01*
X548133Y242723D01*
X547151Y241937D01*
X546150Y241176D01*
X545130Y240439D01*
X544093Y239727D01*
X543039Y239041D01*
X541968Y238381D01*
X540881Y237748D01*
X539779Y237142D01*
X538663Y236562D01*
X537532Y236011D01*
X536389Y235487D01*
X535233Y234991D01*
X534065Y234524D01*
X532886Y234086D01*
X531696Y233677D01*
X530497Y233297D01*
X529289Y232946D01*
X528073Y232626D01*
X526849Y232335D01*
X525618Y232075D01*
X524382Y231845D01*
X523140Y231645D01*
X521894Y231475D01*
X520643Y231337D01*
X519390Y231229D01*
X518135Y231152D01*
X516878Y231105D01*
X515620Y231090D01*
X514362Y231105D01*
X513105Y231152D01*
X511850Y231229D01*
X510597Y231337D01*
X509346Y231475D01*
X508100Y231645D01*
X506858Y231845D01*
X505622Y232075D01*
X504391Y232335D01*
X503167Y232626D01*
X501951Y232946D01*
X500743Y233297D01*
X499544Y233677D01*
X498354Y234086D01*
X497175Y234524D01*
X496007Y234991D01*
X494851Y235487D01*
X493708Y236011D01*
X492577Y236562D01*
X491461Y237142D01*
X490359Y237748D01*
X489272Y238381D01*
X488201Y239041D01*
X487147Y239727D01*
X486110Y240439D01*
X485090Y241176D01*
X484089Y241937D01*
X483107Y242723D01*
X482145Y243533D01*
X481203Y244366D01*
X480281Y245222D01*
X479381Y246101D01*
X478502Y247001D01*
X477646Y247923D01*
X476813Y248865D01*
X476003Y249827D01*
X475217Y250809D01*
X474456Y251810D01*
X473719Y252830D01*
X473007Y253867D01*
X472321Y254921D01*
X471661Y255992D01*
X471028Y257079D01*
X470422Y258181D01*
X469842Y259297D01*
X469291Y260428D01*
X468767Y261571D01*
X468271Y262727D01*
X467804Y263895D01*
X467366Y265074D01*
X466957Y266264D01*
X466577Y267463D01*
X466226Y268671D01*
X465906Y269887D01*
X465615Y271111D01*
X465355Y272342D01*
X465125Y273578D01*
X464925Y274820D01*
X464755Y276066D01*
X464617Y277317D01*
X464509Y278570D01*
X464432Y279825D01*
X464385Y281082D01*
X464370Y282340D01*
X400120Y482360D02*
X377120Y482360D01*
X400120Y482360D02*
X400120Y452360D01*
X377120Y452360D01*
X377120Y482360D01*
X373620Y482860D02*
X359370Y482860D01*
D119*
X378312Y486918D02*
X378312Y498602D01*
X377014Y486918D02*
X379610Y486918D01*
X379610Y498602D02*
X377014Y498602D01*
X386774Y486918D02*
X389370Y486918D01*
X386774Y486918D02*
X386675Y486920D01*
X386575Y486926D01*
X386476Y486935D01*
X386378Y486948D01*
X386280Y486965D01*
X386182Y486986D01*
X386086Y487011D01*
X385991Y487039D01*
X385897Y487071D01*
X385804Y487106D01*
X385712Y487145D01*
X385622Y487188D01*
X385534Y487233D01*
X385447Y487283D01*
X385363Y487335D01*
X385280Y487391D01*
X385200Y487449D01*
X385122Y487511D01*
X385047Y487576D01*
X384974Y487644D01*
X384904Y487714D01*
X384836Y487787D01*
X384771Y487862D01*
X384709Y487940D01*
X384651Y488020D01*
X384595Y488103D01*
X384543Y488187D01*
X384493Y488274D01*
X384448Y488362D01*
X384405Y488452D01*
X384366Y488544D01*
X384331Y488637D01*
X384299Y488731D01*
X384271Y488826D01*
X384246Y488922D01*
X384225Y489020D01*
X384208Y489118D01*
X384195Y489216D01*
X384186Y489315D01*
X384180Y489415D01*
X384178Y489514D01*
X384177Y489514D02*
X384177Y496006D01*
X384178Y496006D02*
X384180Y496105D01*
X384186Y496205D01*
X384195Y496304D01*
X384208Y496402D01*
X384225Y496500D01*
X384246Y496598D01*
X384271Y496694D01*
X384299Y496789D01*
X384331Y496883D01*
X384366Y496976D01*
X384405Y497068D01*
X384448Y497158D01*
X384493Y497246D01*
X384543Y497333D01*
X384595Y497417D01*
X384651Y497500D01*
X384709Y497580D01*
X384771Y497658D01*
X384836Y497733D01*
X384904Y497806D01*
X384974Y497876D01*
X385047Y497944D01*
X385122Y498009D01*
X385200Y498071D01*
X385280Y498129D01*
X385363Y498185D01*
X385447Y498237D01*
X385534Y498287D01*
X385622Y498332D01*
X385712Y498375D01*
X385804Y498414D01*
X385896Y498449D01*
X385991Y498481D01*
X386086Y498509D01*
X386182Y498534D01*
X386280Y498555D01*
X386378Y498572D01*
X386476Y498585D01*
X386575Y498594D01*
X386675Y498600D01*
X386774Y498602D01*
X389370Y498602D01*
X393735Y486918D02*
X396981Y486918D01*
X397094Y486920D01*
X397207Y486926D01*
X397320Y486936D01*
X397433Y486950D01*
X397545Y486967D01*
X397656Y486989D01*
X397766Y487014D01*
X397876Y487044D01*
X397984Y487077D01*
X398091Y487114D01*
X398197Y487154D01*
X398301Y487199D01*
X398404Y487247D01*
X398505Y487298D01*
X398604Y487353D01*
X398701Y487411D01*
X398796Y487473D01*
X398889Y487538D01*
X398979Y487606D01*
X399067Y487677D01*
X399153Y487752D01*
X399236Y487829D01*
X399316Y487909D01*
X399393Y487992D01*
X399468Y488078D01*
X399539Y488166D01*
X399607Y488256D01*
X399672Y488349D01*
X399734Y488444D01*
X399792Y488541D01*
X399847Y488640D01*
X399898Y488741D01*
X399946Y488844D01*
X399991Y488948D01*
X400031Y489054D01*
X400068Y489161D01*
X400101Y489269D01*
X400131Y489379D01*
X400156Y489489D01*
X400178Y489600D01*
X400195Y489712D01*
X400209Y489825D01*
X400219Y489938D01*
X400225Y490051D01*
X400227Y490164D01*
X400225Y490277D01*
X400219Y490390D01*
X400209Y490503D01*
X400195Y490616D01*
X400178Y490728D01*
X400156Y490839D01*
X400131Y490949D01*
X400101Y491059D01*
X400068Y491167D01*
X400031Y491274D01*
X399991Y491380D01*
X399946Y491484D01*
X399898Y491587D01*
X399847Y491688D01*
X399792Y491787D01*
X399734Y491884D01*
X399672Y491979D01*
X399607Y492072D01*
X399539Y492162D01*
X399468Y492250D01*
X399393Y492336D01*
X399316Y492419D01*
X399236Y492499D01*
X399153Y492576D01*
X399067Y492651D01*
X398979Y492722D01*
X398889Y492790D01*
X398796Y492855D01*
X398701Y492917D01*
X398604Y492975D01*
X398505Y493030D01*
X398404Y493081D01*
X398301Y493129D01*
X398197Y493174D01*
X398091Y493214D01*
X397984Y493251D01*
X397876Y493284D01*
X397766Y493314D01*
X397656Y493339D01*
X397545Y493361D01*
X397433Y493378D01*
X397320Y493392D01*
X397207Y493402D01*
X397094Y493408D01*
X396981Y493410D01*
X397630Y498602D02*
X393735Y498602D01*
X397630Y498602D02*
X397731Y498600D01*
X397831Y498594D01*
X397931Y498584D01*
X398031Y498571D01*
X398130Y498553D01*
X398229Y498532D01*
X398326Y498507D01*
X398423Y498478D01*
X398518Y498445D01*
X398612Y498409D01*
X398704Y498369D01*
X398795Y498326D01*
X398884Y498279D01*
X398971Y498229D01*
X399057Y498175D01*
X399140Y498118D01*
X399220Y498058D01*
X399299Y497995D01*
X399375Y497928D01*
X399448Y497859D01*
X399518Y497787D01*
X399586Y497713D01*
X399651Y497636D01*
X399712Y497556D01*
X399771Y497474D01*
X399826Y497390D01*
X399878Y497304D01*
X399927Y497216D01*
X399972Y497126D01*
X400014Y497034D01*
X400052Y496941D01*
X400086Y496846D01*
X400117Y496751D01*
X400144Y496654D01*
X400167Y496556D01*
X400187Y496457D01*
X400202Y496357D01*
X400214Y496257D01*
X400222Y496157D01*
X400226Y496056D01*
X400226Y495956D01*
X400222Y495855D01*
X400214Y495755D01*
X400202Y495655D01*
X400187Y495555D01*
X400167Y495456D01*
X400144Y495358D01*
X400117Y495261D01*
X400086Y495166D01*
X400052Y495071D01*
X400014Y494978D01*
X399972Y494886D01*
X399927Y494796D01*
X399878Y494708D01*
X399826Y494622D01*
X399771Y494538D01*
X399712Y494456D01*
X399651Y494376D01*
X399586Y494299D01*
X399518Y494225D01*
X399448Y494153D01*
X399375Y494084D01*
X399299Y494017D01*
X399220Y493954D01*
X399140Y493894D01*
X399057Y493837D01*
X398971Y493783D01*
X398884Y493733D01*
X398795Y493686D01*
X398704Y493643D01*
X398612Y493603D01*
X398518Y493567D01*
X398423Y493534D01*
X398326Y493505D01*
X398229Y493480D01*
X398130Y493459D01*
X398031Y493441D01*
X397931Y493428D01*
X397831Y493418D01*
X397731Y493412D01*
X397630Y493410D01*
X397630Y493409D02*
X395034Y493409D01*
D124*
X400120Y426480D02*
X377120Y426480D01*
X400120Y426480D02*
X400120Y396480D01*
X377120Y396480D01*
X377120Y426480D01*
X373620Y426980D02*
X359370Y426980D01*
D119*
X378312Y431038D02*
X378312Y442722D01*
X377014Y431038D02*
X379610Y431038D01*
X379610Y442722D02*
X377014Y442722D01*
X386774Y431038D02*
X389370Y431038D01*
X386774Y431038D02*
X386675Y431040D01*
X386575Y431046D01*
X386476Y431055D01*
X386378Y431068D01*
X386280Y431085D01*
X386182Y431106D01*
X386086Y431131D01*
X385991Y431159D01*
X385897Y431191D01*
X385804Y431226D01*
X385712Y431265D01*
X385622Y431308D01*
X385534Y431353D01*
X385447Y431403D01*
X385363Y431455D01*
X385280Y431511D01*
X385200Y431569D01*
X385122Y431631D01*
X385047Y431696D01*
X384974Y431764D01*
X384904Y431834D01*
X384836Y431907D01*
X384771Y431982D01*
X384709Y432060D01*
X384651Y432140D01*
X384595Y432223D01*
X384543Y432307D01*
X384493Y432394D01*
X384448Y432482D01*
X384405Y432572D01*
X384366Y432664D01*
X384331Y432757D01*
X384299Y432851D01*
X384271Y432946D01*
X384246Y433042D01*
X384225Y433140D01*
X384208Y433238D01*
X384195Y433336D01*
X384186Y433435D01*
X384180Y433535D01*
X384178Y433634D01*
X384177Y433634D02*
X384177Y440126D01*
X384178Y440126D02*
X384180Y440225D01*
X384186Y440325D01*
X384195Y440424D01*
X384208Y440522D01*
X384225Y440620D01*
X384246Y440718D01*
X384271Y440814D01*
X384299Y440909D01*
X384331Y441003D01*
X384366Y441096D01*
X384405Y441188D01*
X384448Y441278D01*
X384493Y441366D01*
X384543Y441453D01*
X384595Y441537D01*
X384651Y441620D01*
X384709Y441700D01*
X384771Y441778D01*
X384836Y441853D01*
X384904Y441926D01*
X384974Y441996D01*
X385047Y442064D01*
X385122Y442129D01*
X385200Y442191D01*
X385280Y442249D01*
X385363Y442305D01*
X385447Y442357D01*
X385534Y442407D01*
X385622Y442452D01*
X385712Y442495D01*
X385804Y442534D01*
X385896Y442569D01*
X385991Y442601D01*
X386086Y442629D01*
X386182Y442654D01*
X386280Y442675D01*
X386378Y442692D01*
X386476Y442705D01*
X386575Y442714D01*
X386675Y442720D01*
X386774Y442722D01*
X389370Y442722D01*
X396332Y442722D02*
X393735Y433634D01*
X400226Y433634D01*
X398279Y436231D02*
X398279Y431038D01*
D124*
X400120Y370600D02*
X377120Y370600D01*
X400120Y370600D02*
X400120Y340600D01*
X377120Y340600D01*
X377120Y370600D01*
X373620Y371100D02*
X359370Y371100D01*
D119*
X380852Y375158D02*
X380852Y386842D01*
X379554Y375158D02*
X382150Y375158D01*
X382150Y386842D02*
X379554Y386842D01*
X389314Y375158D02*
X391910Y375158D01*
X389314Y375158D02*
X389215Y375160D01*
X389115Y375166D01*
X389016Y375175D01*
X388918Y375188D01*
X388820Y375205D01*
X388722Y375226D01*
X388626Y375251D01*
X388531Y375279D01*
X388437Y375311D01*
X388344Y375346D01*
X388252Y375385D01*
X388162Y375428D01*
X388074Y375473D01*
X387987Y375523D01*
X387903Y375575D01*
X387820Y375631D01*
X387740Y375689D01*
X387662Y375751D01*
X387587Y375816D01*
X387514Y375884D01*
X387444Y375954D01*
X387376Y376027D01*
X387311Y376102D01*
X387249Y376180D01*
X387191Y376260D01*
X387135Y376343D01*
X387083Y376427D01*
X387033Y376514D01*
X386988Y376602D01*
X386945Y376692D01*
X386906Y376784D01*
X386871Y376877D01*
X386839Y376971D01*
X386811Y377066D01*
X386786Y377162D01*
X386765Y377260D01*
X386748Y377358D01*
X386735Y377456D01*
X386726Y377555D01*
X386720Y377655D01*
X386718Y377754D01*
X386717Y377754D02*
X386717Y384246D01*
X386718Y384246D02*
X386720Y384345D01*
X386726Y384445D01*
X386735Y384544D01*
X386748Y384642D01*
X386765Y384740D01*
X386786Y384838D01*
X386811Y384934D01*
X386839Y385029D01*
X386871Y385123D01*
X386906Y385216D01*
X386945Y385308D01*
X386988Y385398D01*
X387033Y385486D01*
X387083Y385573D01*
X387135Y385657D01*
X387191Y385740D01*
X387249Y385820D01*
X387311Y385898D01*
X387376Y385973D01*
X387444Y386046D01*
X387514Y386116D01*
X387587Y386184D01*
X387662Y386249D01*
X387740Y386311D01*
X387820Y386369D01*
X387903Y386425D01*
X387987Y386477D01*
X388074Y386527D01*
X388162Y386572D01*
X388252Y386615D01*
X388344Y386654D01*
X388436Y386689D01*
X388531Y386721D01*
X388626Y386749D01*
X388722Y386774D01*
X388820Y386795D01*
X388918Y386812D01*
X389016Y386825D01*
X389115Y386834D01*
X389215Y386840D01*
X389314Y386842D01*
X391910Y386842D01*
X396275Y375158D02*
X400170Y375158D01*
X400269Y375160D01*
X400369Y375166D01*
X400468Y375175D01*
X400566Y375188D01*
X400664Y375205D01*
X400762Y375226D01*
X400858Y375251D01*
X400953Y375279D01*
X401047Y375311D01*
X401140Y375346D01*
X401232Y375385D01*
X401322Y375428D01*
X401410Y375473D01*
X401497Y375523D01*
X401581Y375575D01*
X401664Y375631D01*
X401744Y375689D01*
X401822Y375751D01*
X401897Y375816D01*
X401970Y375884D01*
X402040Y375954D01*
X402108Y376027D01*
X402173Y376102D01*
X402235Y376180D01*
X402293Y376260D01*
X402349Y376343D01*
X402401Y376427D01*
X402451Y376514D01*
X402496Y376602D01*
X402539Y376692D01*
X402578Y376784D01*
X402613Y376877D01*
X402645Y376971D01*
X402673Y377066D01*
X402698Y377162D01*
X402719Y377260D01*
X402736Y377358D01*
X402749Y377456D01*
X402758Y377555D01*
X402764Y377655D01*
X402766Y377754D01*
X402766Y379053D01*
X402764Y379152D01*
X402758Y379252D01*
X402749Y379351D01*
X402736Y379449D01*
X402719Y379547D01*
X402698Y379645D01*
X402673Y379741D01*
X402645Y379836D01*
X402613Y379930D01*
X402578Y380023D01*
X402539Y380115D01*
X402496Y380205D01*
X402451Y380293D01*
X402401Y380380D01*
X402349Y380464D01*
X402293Y380547D01*
X402235Y380627D01*
X402173Y380705D01*
X402108Y380780D01*
X402040Y380853D01*
X401970Y380923D01*
X401897Y380991D01*
X401822Y381056D01*
X401744Y381118D01*
X401664Y381176D01*
X401581Y381232D01*
X401497Y381284D01*
X401410Y381334D01*
X401322Y381379D01*
X401232Y381422D01*
X401140Y381461D01*
X401047Y381496D01*
X400953Y381528D01*
X400858Y381556D01*
X400762Y381581D01*
X400664Y381602D01*
X400566Y381619D01*
X400468Y381632D01*
X400369Y381641D01*
X400269Y381647D01*
X400170Y381649D01*
X396275Y381649D01*
X396275Y386842D01*
X402766Y386842D01*
X255778Y488188D02*
X255778Y499872D01*
X259024Y499872D01*
X259137Y499870D01*
X259250Y499864D01*
X259363Y499854D01*
X259476Y499840D01*
X259588Y499823D01*
X259699Y499801D01*
X259809Y499776D01*
X259919Y499746D01*
X260027Y499713D01*
X260134Y499676D01*
X260240Y499636D01*
X260344Y499591D01*
X260447Y499543D01*
X260548Y499492D01*
X260647Y499437D01*
X260744Y499379D01*
X260839Y499317D01*
X260932Y499252D01*
X261022Y499184D01*
X261110Y499113D01*
X261196Y499038D01*
X261279Y498961D01*
X261359Y498881D01*
X261436Y498798D01*
X261511Y498712D01*
X261582Y498624D01*
X261650Y498534D01*
X261715Y498441D01*
X261777Y498346D01*
X261835Y498249D01*
X261890Y498150D01*
X261941Y498049D01*
X261989Y497946D01*
X262034Y497842D01*
X262074Y497736D01*
X262111Y497629D01*
X262144Y497521D01*
X262174Y497411D01*
X262199Y497301D01*
X262221Y497190D01*
X262238Y497078D01*
X262252Y496965D01*
X262262Y496852D01*
X262268Y496739D01*
X262270Y496626D01*
X262268Y496513D01*
X262262Y496400D01*
X262252Y496287D01*
X262238Y496174D01*
X262221Y496062D01*
X262199Y495951D01*
X262174Y495841D01*
X262144Y495731D01*
X262111Y495623D01*
X262074Y495516D01*
X262034Y495410D01*
X261989Y495306D01*
X261941Y495203D01*
X261890Y495102D01*
X261835Y495003D01*
X261777Y494906D01*
X261715Y494811D01*
X261650Y494718D01*
X261582Y494628D01*
X261511Y494540D01*
X261436Y494454D01*
X261359Y494371D01*
X261279Y494291D01*
X261196Y494214D01*
X261110Y494139D01*
X261022Y494068D01*
X260932Y494000D01*
X260839Y493935D01*
X260744Y493873D01*
X260647Y493815D01*
X260548Y493760D01*
X260447Y493709D01*
X260344Y493661D01*
X260240Y493616D01*
X260134Y493576D01*
X260027Y493539D01*
X259919Y493506D01*
X259809Y493476D01*
X259699Y493451D01*
X259588Y493429D01*
X259476Y493412D01*
X259363Y493398D01*
X259250Y493388D01*
X259137Y493382D01*
X259024Y493380D01*
X259024Y493381D02*
X255778Y493381D01*
X259673Y493381D02*
X262269Y488188D01*
X267134Y497276D02*
X270380Y499872D01*
X270380Y488188D01*
X273625Y488188D02*
X267134Y488188D01*
X311658Y488188D02*
X311658Y499872D01*
X314904Y499872D01*
X315017Y499870D01*
X315130Y499864D01*
X315243Y499854D01*
X315356Y499840D01*
X315468Y499823D01*
X315579Y499801D01*
X315689Y499776D01*
X315799Y499746D01*
X315907Y499713D01*
X316014Y499676D01*
X316120Y499636D01*
X316224Y499591D01*
X316327Y499543D01*
X316428Y499492D01*
X316527Y499437D01*
X316624Y499379D01*
X316719Y499317D01*
X316812Y499252D01*
X316902Y499184D01*
X316990Y499113D01*
X317076Y499038D01*
X317159Y498961D01*
X317239Y498881D01*
X317316Y498798D01*
X317391Y498712D01*
X317462Y498624D01*
X317530Y498534D01*
X317595Y498441D01*
X317657Y498346D01*
X317715Y498249D01*
X317770Y498150D01*
X317821Y498049D01*
X317869Y497946D01*
X317914Y497842D01*
X317954Y497736D01*
X317991Y497629D01*
X318024Y497521D01*
X318054Y497411D01*
X318079Y497301D01*
X318101Y497190D01*
X318118Y497078D01*
X318132Y496965D01*
X318142Y496852D01*
X318148Y496739D01*
X318150Y496626D01*
X318148Y496513D01*
X318142Y496400D01*
X318132Y496287D01*
X318118Y496174D01*
X318101Y496062D01*
X318079Y495951D01*
X318054Y495841D01*
X318024Y495731D01*
X317991Y495623D01*
X317954Y495516D01*
X317914Y495410D01*
X317869Y495306D01*
X317821Y495203D01*
X317770Y495102D01*
X317715Y495003D01*
X317657Y494906D01*
X317595Y494811D01*
X317530Y494718D01*
X317462Y494628D01*
X317391Y494540D01*
X317316Y494454D01*
X317239Y494371D01*
X317159Y494291D01*
X317076Y494214D01*
X316990Y494139D01*
X316902Y494068D01*
X316812Y494000D01*
X316719Y493935D01*
X316624Y493873D01*
X316527Y493815D01*
X316428Y493760D01*
X316327Y493709D01*
X316224Y493661D01*
X316120Y493616D01*
X316014Y493576D01*
X315907Y493539D01*
X315799Y493506D01*
X315689Y493476D01*
X315579Y493451D01*
X315468Y493429D01*
X315356Y493412D01*
X315243Y493398D01*
X315130Y493388D01*
X315017Y493382D01*
X314904Y493380D01*
X314904Y493381D02*
X311658Y493381D01*
X315553Y493381D02*
X318149Y488188D01*
X329505Y496951D02*
X329503Y497058D01*
X329497Y497164D01*
X329487Y497270D01*
X329474Y497376D01*
X329456Y497482D01*
X329435Y497586D01*
X329410Y497690D01*
X329381Y497793D01*
X329349Y497894D01*
X329312Y497994D01*
X329272Y498093D01*
X329229Y498191D01*
X329182Y498287D01*
X329131Y498381D01*
X329077Y498473D01*
X329020Y498563D01*
X328960Y498651D01*
X328896Y498736D01*
X328829Y498819D01*
X328759Y498900D01*
X328687Y498978D01*
X328611Y499054D01*
X328533Y499126D01*
X328452Y499196D01*
X328369Y499263D01*
X328284Y499327D01*
X328196Y499387D01*
X328106Y499444D01*
X328014Y499498D01*
X327920Y499549D01*
X327824Y499596D01*
X327726Y499639D01*
X327627Y499679D01*
X327527Y499716D01*
X327426Y499748D01*
X327323Y499777D01*
X327219Y499802D01*
X327115Y499823D01*
X327009Y499841D01*
X326903Y499854D01*
X326797Y499864D01*
X326691Y499870D01*
X326584Y499872D01*
X326463Y499870D01*
X326342Y499864D01*
X326222Y499854D01*
X326101Y499841D01*
X325982Y499823D01*
X325862Y499802D01*
X325744Y499777D01*
X325627Y499748D01*
X325510Y499715D01*
X325395Y499679D01*
X325281Y499638D01*
X325168Y499595D01*
X325056Y499547D01*
X324947Y499496D01*
X324839Y499441D01*
X324732Y499383D01*
X324628Y499322D01*
X324526Y499257D01*
X324426Y499189D01*
X324328Y499118D01*
X324232Y499044D01*
X324139Y498967D01*
X324049Y498886D01*
X323961Y498803D01*
X323876Y498717D01*
X323793Y498628D01*
X323714Y498537D01*
X323637Y498443D01*
X323564Y498347D01*
X323494Y498249D01*
X323427Y498148D01*
X323363Y498045D01*
X323303Y497940D01*
X323246Y497833D01*
X323192Y497725D01*
X323142Y497615D01*
X323096Y497503D01*
X323053Y497390D01*
X323014Y497275D01*
X328532Y494679D02*
X328611Y494756D01*
X328687Y494837D01*
X328760Y494920D01*
X328830Y495005D01*
X328897Y495093D01*
X328961Y495183D01*
X329021Y495275D01*
X329078Y495370D01*
X329132Y495466D01*
X329183Y495564D01*
X329230Y495664D01*
X329274Y495766D01*
X329314Y495869D01*
X329350Y495973D01*
X329382Y496079D01*
X329411Y496185D01*
X329436Y496293D01*
X329458Y496401D01*
X329475Y496511D01*
X329489Y496620D01*
X329498Y496730D01*
X329504Y496841D01*
X329506Y496951D01*
X328532Y494679D02*
X323014Y488188D01*
X329505Y488188D01*
X311658Y461772D02*
X311658Y450088D01*
X311658Y461772D02*
X314904Y461772D01*
X315017Y461770D01*
X315130Y461764D01*
X315243Y461754D01*
X315356Y461740D01*
X315468Y461723D01*
X315579Y461701D01*
X315689Y461676D01*
X315799Y461646D01*
X315907Y461613D01*
X316014Y461576D01*
X316120Y461536D01*
X316224Y461491D01*
X316327Y461443D01*
X316428Y461392D01*
X316527Y461337D01*
X316624Y461279D01*
X316719Y461217D01*
X316812Y461152D01*
X316902Y461084D01*
X316990Y461013D01*
X317076Y460938D01*
X317159Y460861D01*
X317239Y460781D01*
X317316Y460698D01*
X317391Y460612D01*
X317462Y460524D01*
X317530Y460434D01*
X317595Y460341D01*
X317657Y460246D01*
X317715Y460149D01*
X317770Y460050D01*
X317821Y459949D01*
X317869Y459846D01*
X317914Y459742D01*
X317954Y459636D01*
X317991Y459529D01*
X318024Y459421D01*
X318054Y459311D01*
X318079Y459201D01*
X318101Y459090D01*
X318118Y458978D01*
X318132Y458865D01*
X318142Y458752D01*
X318148Y458639D01*
X318150Y458526D01*
X318148Y458413D01*
X318142Y458300D01*
X318132Y458187D01*
X318118Y458074D01*
X318101Y457962D01*
X318079Y457851D01*
X318054Y457741D01*
X318024Y457631D01*
X317991Y457523D01*
X317954Y457416D01*
X317914Y457310D01*
X317869Y457206D01*
X317821Y457103D01*
X317770Y457002D01*
X317715Y456903D01*
X317657Y456806D01*
X317595Y456711D01*
X317530Y456618D01*
X317462Y456528D01*
X317391Y456440D01*
X317316Y456354D01*
X317239Y456271D01*
X317159Y456191D01*
X317076Y456114D01*
X316990Y456039D01*
X316902Y455968D01*
X316812Y455900D01*
X316719Y455835D01*
X316624Y455773D01*
X316527Y455715D01*
X316428Y455660D01*
X316327Y455609D01*
X316224Y455561D01*
X316120Y455516D01*
X316014Y455476D01*
X315907Y455439D01*
X315799Y455406D01*
X315689Y455376D01*
X315579Y455351D01*
X315468Y455329D01*
X315356Y455312D01*
X315243Y455298D01*
X315130Y455288D01*
X315017Y455282D01*
X314904Y455280D01*
X314904Y455281D02*
X311658Y455281D01*
X315553Y455281D02*
X318149Y450088D01*
X323014Y450088D02*
X326260Y450088D01*
X326373Y450090D01*
X326486Y450096D01*
X326599Y450106D01*
X326712Y450120D01*
X326824Y450137D01*
X326935Y450159D01*
X327045Y450184D01*
X327155Y450214D01*
X327263Y450247D01*
X327370Y450284D01*
X327476Y450324D01*
X327580Y450369D01*
X327683Y450417D01*
X327784Y450468D01*
X327883Y450523D01*
X327980Y450581D01*
X328075Y450643D01*
X328168Y450708D01*
X328258Y450776D01*
X328346Y450847D01*
X328432Y450922D01*
X328515Y450999D01*
X328595Y451079D01*
X328672Y451162D01*
X328747Y451248D01*
X328818Y451336D01*
X328886Y451426D01*
X328951Y451519D01*
X329013Y451614D01*
X329071Y451711D01*
X329126Y451810D01*
X329177Y451911D01*
X329225Y452014D01*
X329270Y452118D01*
X329310Y452224D01*
X329347Y452331D01*
X329380Y452439D01*
X329410Y452549D01*
X329435Y452659D01*
X329457Y452770D01*
X329474Y452882D01*
X329488Y452995D01*
X329498Y453108D01*
X329504Y453221D01*
X329506Y453334D01*
X329504Y453447D01*
X329498Y453560D01*
X329488Y453673D01*
X329474Y453786D01*
X329457Y453898D01*
X329435Y454009D01*
X329410Y454119D01*
X329380Y454229D01*
X329347Y454337D01*
X329310Y454444D01*
X329270Y454550D01*
X329225Y454654D01*
X329177Y454757D01*
X329126Y454858D01*
X329071Y454957D01*
X329013Y455054D01*
X328951Y455149D01*
X328886Y455242D01*
X328818Y455332D01*
X328747Y455420D01*
X328672Y455506D01*
X328595Y455589D01*
X328515Y455669D01*
X328432Y455746D01*
X328346Y455821D01*
X328258Y455892D01*
X328168Y455960D01*
X328075Y456025D01*
X327980Y456087D01*
X327883Y456145D01*
X327784Y456200D01*
X327683Y456251D01*
X327580Y456299D01*
X327476Y456344D01*
X327370Y456384D01*
X327263Y456421D01*
X327155Y456454D01*
X327045Y456484D01*
X326935Y456509D01*
X326824Y456531D01*
X326712Y456548D01*
X326599Y456562D01*
X326486Y456572D01*
X326373Y456578D01*
X326260Y456580D01*
X326909Y461772D02*
X323014Y461772D01*
X326909Y461772D02*
X327010Y461770D01*
X327110Y461764D01*
X327210Y461754D01*
X327310Y461741D01*
X327409Y461723D01*
X327508Y461702D01*
X327605Y461677D01*
X327702Y461648D01*
X327797Y461615D01*
X327891Y461579D01*
X327983Y461539D01*
X328074Y461496D01*
X328163Y461449D01*
X328250Y461399D01*
X328336Y461345D01*
X328419Y461288D01*
X328499Y461228D01*
X328578Y461165D01*
X328654Y461098D01*
X328727Y461029D01*
X328797Y460957D01*
X328865Y460883D01*
X328930Y460806D01*
X328991Y460726D01*
X329050Y460644D01*
X329105Y460560D01*
X329157Y460474D01*
X329206Y460386D01*
X329251Y460296D01*
X329293Y460204D01*
X329331Y460111D01*
X329365Y460016D01*
X329396Y459921D01*
X329423Y459824D01*
X329446Y459726D01*
X329466Y459627D01*
X329481Y459527D01*
X329493Y459427D01*
X329501Y459327D01*
X329505Y459226D01*
X329505Y459126D01*
X329501Y459025D01*
X329493Y458925D01*
X329481Y458825D01*
X329466Y458725D01*
X329446Y458626D01*
X329423Y458528D01*
X329396Y458431D01*
X329365Y458336D01*
X329331Y458241D01*
X329293Y458148D01*
X329251Y458056D01*
X329206Y457966D01*
X329157Y457878D01*
X329105Y457792D01*
X329050Y457708D01*
X328991Y457626D01*
X328930Y457546D01*
X328865Y457469D01*
X328797Y457395D01*
X328727Y457323D01*
X328654Y457254D01*
X328578Y457187D01*
X328499Y457124D01*
X328419Y457064D01*
X328336Y457007D01*
X328250Y456953D01*
X328163Y456903D01*
X328074Y456856D01*
X327983Y456813D01*
X327891Y456773D01*
X327797Y456737D01*
X327702Y456704D01*
X327605Y456675D01*
X327508Y456650D01*
X327409Y456629D01*
X327310Y456611D01*
X327210Y456598D01*
X327110Y456588D01*
X327010Y456582D01*
X326909Y456580D01*
X326909Y456579D02*
X324313Y456579D01*
X453898Y488188D02*
X453898Y499872D01*
X457144Y499872D01*
X457257Y499870D01*
X457370Y499864D01*
X457483Y499854D01*
X457596Y499840D01*
X457708Y499823D01*
X457819Y499801D01*
X457929Y499776D01*
X458039Y499746D01*
X458147Y499713D01*
X458254Y499676D01*
X458360Y499636D01*
X458464Y499591D01*
X458567Y499543D01*
X458668Y499492D01*
X458767Y499437D01*
X458864Y499379D01*
X458959Y499317D01*
X459052Y499252D01*
X459142Y499184D01*
X459230Y499113D01*
X459316Y499038D01*
X459399Y498961D01*
X459479Y498881D01*
X459556Y498798D01*
X459631Y498712D01*
X459702Y498624D01*
X459770Y498534D01*
X459835Y498441D01*
X459897Y498346D01*
X459955Y498249D01*
X460010Y498150D01*
X460061Y498049D01*
X460109Y497946D01*
X460154Y497842D01*
X460194Y497736D01*
X460231Y497629D01*
X460264Y497521D01*
X460294Y497411D01*
X460319Y497301D01*
X460341Y497190D01*
X460358Y497078D01*
X460372Y496965D01*
X460382Y496852D01*
X460388Y496739D01*
X460390Y496626D01*
X460388Y496513D01*
X460382Y496400D01*
X460372Y496287D01*
X460358Y496174D01*
X460341Y496062D01*
X460319Y495951D01*
X460294Y495841D01*
X460264Y495731D01*
X460231Y495623D01*
X460194Y495516D01*
X460154Y495410D01*
X460109Y495306D01*
X460061Y495203D01*
X460010Y495102D01*
X459955Y495003D01*
X459897Y494906D01*
X459835Y494811D01*
X459770Y494718D01*
X459702Y494628D01*
X459631Y494540D01*
X459556Y494454D01*
X459479Y494371D01*
X459399Y494291D01*
X459316Y494214D01*
X459230Y494139D01*
X459142Y494068D01*
X459052Y494000D01*
X458959Y493935D01*
X458864Y493873D01*
X458767Y493815D01*
X458668Y493760D01*
X458567Y493709D01*
X458464Y493661D01*
X458360Y493616D01*
X458254Y493576D01*
X458147Y493539D01*
X458039Y493506D01*
X457929Y493476D01*
X457819Y493451D01*
X457708Y493429D01*
X457596Y493412D01*
X457483Y493398D01*
X457370Y493388D01*
X457257Y493382D01*
X457144Y493380D01*
X457144Y493381D02*
X453898Y493381D01*
X457793Y493381D02*
X460389Y488188D01*
X465254Y490784D02*
X467851Y499872D01*
X465254Y490784D02*
X471745Y490784D01*
X469798Y493381D02*
X469798Y488188D01*
X453898Y461772D02*
X453898Y450088D01*
X453898Y461772D02*
X457144Y461772D01*
X457257Y461770D01*
X457370Y461764D01*
X457483Y461754D01*
X457596Y461740D01*
X457708Y461723D01*
X457819Y461701D01*
X457929Y461676D01*
X458039Y461646D01*
X458147Y461613D01*
X458254Y461576D01*
X458360Y461536D01*
X458464Y461491D01*
X458567Y461443D01*
X458668Y461392D01*
X458767Y461337D01*
X458864Y461279D01*
X458959Y461217D01*
X459052Y461152D01*
X459142Y461084D01*
X459230Y461013D01*
X459316Y460938D01*
X459399Y460861D01*
X459479Y460781D01*
X459556Y460698D01*
X459631Y460612D01*
X459702Y460524D01*
X459770Y460434D01*
X459835Y460341D01*
X459897Y460246D01*
X459955Y460149D01*
X460010Y460050D01*
X460061Y459949D01*
X460109Y459846D01*
X460154Y459742D01*
X460194Y459636D01*
X460231Y459529D01*
X460264Y459421D01*
X460294Y459311D01*
X460319Y459201D01*
X460341Y459090D01*
X460358Y458978D01*
X460372Y458865D01*
X460382Y458752D01*
X460388Y458639D01*
X460390Y458526D01*
X460388Y458413D01*
X460382Y458300D01*
X460372Y458187D01*
X460358Y458074D01*
X460341Y457962D01*
X460319Y457851D01*
X460294Y457741D01*
X460264Y457631D01*
X460231Y457523D01*
X460194Y457416D01*
X460154Y457310D01*
X460109Y457206D01*
X460061Y457103D01*
X460010Y457002D01*
X459955Y456903D01*
X459897Y456806D01*
X459835Y456711D01*
X459770Y456618D01*
X459702Y456528D01*
X459631Y456440D01*
X459556Y456354D01*
X459479Y456271D01*
X459399Y456191D01*
X459316Y456114D01*
X459230Y456039D01*
X459142Y455968D01*
X459052Y455900D01*
X458959Y455835D01*
X458864Y455773D01*
X458767Y455715D01*
X458668Y455660D01*
X458567Y455609D01*
X458464Y455561D01*
X458360Y455516D01*
X458254Y455476D01*
X458147Y455439D01*
X458039Y455406D01*
X457929Y455376D01*
X457819Y455351D01*
X457708Y455329D01*
X457596Y455312D01*
X457483Y455298D01*
X457370Y455288D01*
X457257Y455282D01*
X457144Y455280D01*
X457144Y455281D02*
X453898Y455281D01*
X457793Y455281D02*
X460389Y450088D01*
X465254Y450088D02*
X469149Y450088D01*
X469248Y450090D01*
X469348Y450096D01*
X469447Y450105D01*
X469545Y450118D01*
X469643Y450135D01*
X469741Y450156D01*
X469837Y450181D01*
X469932Y450209D01*
X470026Y450241D01*
X470119Y450276D01*
X470211Y450315D01*
X470301Y450358D01*
X470389Y450403D01*
X470476Y450453D01*
X470560Y450505D01*
X470643Y450561D01*
X470723Y450619D01*
X470801Y450681D01*
X470876Y450746D01*
X470949Y450814D01*
X471019Y450884D01*
X471087Y450957D01*
X471152Y451032D01*
X471214Y451110D01*
X471272Y451190D01*
X471328Y451273D01*
X471380Y451357D01*
X471430Y451444D01*
X471475Y451532D01*
X471518Y451622D01*
X471557Y451714D01*
X471592Y451807D01*
X471624Y451901D01*
X471652Y451996D01*
X471677Y452092D01*
X471698Y452190D01*
X471715Y452288D01*
X471728Y452386D01*
X471737Y452485D01*
X471743Y452585D01*
X471745Y452684D01*
X471745Y453983D01*
X471743Y454082D01*
X471737Y454182D01*
X471728Y454281D01*
X471715Y454379D01*
X471698Y454477D01*
X471677Y454575D01*
X471652Y454671D01*
X471624Y454766D01*
X471592Y454860D01*
X471557Y454953D01*
X471518Y455045D01*
X471475Y455135D01*
X471430Y455223D01*
X471380Y455310D01*
X471328Y455394D01*
X471272Y455477D01*
X471214Y455557D01*
X471152Y455635D01*
X471087Y455710D01*
X471019Y455783D01*
X470949Y455853D01*
X470876Y455921D01*
X470801Y455986D01*
X470723Y456048D01*
X470643Y456106D01*
X470560Y456162D01*
X470476Y456214D01*
X470389Y456264D01*
X470301Y456309D01*
X470211Y456352D01*
X470119Y456391D01*
X470026Y456426D01*
X469932Y456458D01*
X469837Y456486D01*
X469741Y456511D01*
X469643Y456532D01*
X469545Y456549D01*
X469447Y456562D01*
X469348Y456571D01*
X469248Y456577D01*
X469149Y456579D01*
X465254Y456579D01*
X465254Y461772D01*
X471745Y461772D01*
X310501Y411988D02*
X307904Y411988D01*
X307805Y411990D01*
X307705Y411996D01*
X307606Y412005D01*
X307508Y412018D01*
X307410Y412035D01*
X307312Y412056D01*
X307216Y412081D01*
X307121Y412109D01*
X307027Y412141D01*
X306934Y412176D01*
X306842Y412215D01*
X306752Y412258D01*
X306664Y412303D01*
X306577Y412353D01*
X306493Y412405D01*
X306410Y412461D01*
X306330Y412519D01*
X306252Y412581D01*
X306177Y412646D01*
X306104Y412714D01*
X306034Y412784D01*
X305966Y412857D01*
X305901Y412932D01*
X305839Y413010D01*
X305781Y413090D01*
X305725Y413173D01*
X305673Y413257D01*
X305623Y413344D01*
X305578Y413432D01*
X305535Y413522D01*
X305496Y413614D01*
X305461Y413707D01*
X305429Y413801D01*
X305401Y413896D01*
X305376Y413992D01*
X305355Y414090D01*
X305338Y414188D01*
X305325Y414286D01*
X305316Y414385D01*
X305310Y414485D01*
X305308Y414584D01*
X305308Y421076D01*
X305310Y421175D01*
X305316Y421275D01*
X305325Y421374D01*
X305338Y421472D01*
X305355Y421570D01*
X305376Y421668D01*
X305401Y421764D01*
X305429Y421859D01*
X305461Y421953D01*
X305496Y422046D01*
X305535Y422138D01*
X305578Y422228D01*
X305623Y422316D01*
X305673Y422403D01*
X305725Y422487D01*
X305781Y422570D01*
X305839Y422650D01*
X305901Y422728D01*
X305966Y422803D01*
X306034Y422876D01*
X306104Y422946D01*
X306177Y423014D01*
X306252Y423079D01*
X306330Y423141D01*
X306410Y423199D01*
X306493Y423255D01*
X306577Y423307D01*
X306664Y423357D01*
X306752Y423402D01*
X306842Y423445D01*
X306934Y423484D01*
X307026Y423519D01*
X307121Y423551D01*
X307216Y423579D01*
X307312Y423604D01*
X307410Y423625D01*
X307508Y423642D01*
X307606Y423655D01*
X307705Y423664D01*
X307805Y423670D01*
X307904Y423672D01*
X310501Y423672D01*
X314866Y421076D02*
X318112Y423672D01*
X318112Y411988D01*
X321357Y411988D02*
X314866Y411988D01*
X262956Y411988D02*
X260359Y411988D01*
X260260Y411990D01*
X260160Y411996D01*
X260061Y412005D01*
X259963Y412018D01*
X259865Y412035D01*
X259767Y412056D01*
X259671Y412081D01*
X259576Y412109D01*
X259482Y412141D01*
X259389Y412176D01*
X259297Y412215D01*
X259207Y412258D01*
X259119Y412303D01*
X259032Y412353D01*
X258948Y412405D01*
X258865Y412461D01*
X258785Y412519D01*
X258707Y412581D01*
X258632Y412646D01*
X258559Y412714D01*
X258489Y412784D01*
X258421Y412857D01*
X258356Y412932D01*
X258294Y413010D01*
X258236Y413090D01*
X258180Y413173D01*
X258128Y413257D01*
X258078Y413344D01*
X258033Y413432D01*
X257990Y413522D01*
X257951Y413614D01*
X257916Y413707D01*
X257884Y413801D01*
X257856Y413896D01*
X257831Y413992D01*
X257810Y414090D01*
X257793Y414188D01*
X257780Y414286D01*
X257771Y414385D01*
X257765Y414485D01*
X257763Y414584D01*
X257763Y421076D01*
X257765Y421175D01*
X257771Y421275D01*
X257780Y421374D01*
X257793Y421472D01*
X257810Y421570D01*
X257831Y421668D01*
X257856Y421764D01*
X257884Y421859D01*
X257916Y421953D01*
X257951Y422046D01*
X257990Y422138D01*
X258033Y422228D01*
X258078Y422316D01*
X258128Y422403D01*
X258180Y422487D01*
X258236Y422570D01*
X258294Y422650D01*
X258356Y422728D01*
X258421Y422803D01*
X258489Y422876D01*
X258559Y422946D01*
X258632Y423014D01*
X258707Y423079D01*
X258785Y423141D01*
X258865Y423199D01*
X258948Y423255D01*
X259032Y423307D01*
X259119Y423357D01*
X259207Y423402D01*
X259297Y423445D01*
X259389Y423484D01*
X259481Y423519D01*
X259576Y423551D01*
X259671Y423579D01*
X259767Y423604D01*
X259865Y423625D01*
X259963Y423642D01*
X260061Y423655D01*
X260160Y423664D01*
X260260Y423670D01*
X260359Y423672D01*
X262956Y423672D01*
X270891Y423672D02*
X270998Y423670D01*
X271104Y423664D01*
X271210Y423654D01*
X271316Y423641D01*
X271422Y423623D01*
X271526Y423602D01*
X271630Y423577D01*
X271733Y423548D01*
X271834Y423516D01*
X271934Y423479D01*
X272033Y423439D01*
X272131Y423396D01*
X272227Y423349D01*
X272321Y423298D01*
X272413Y423244D01*
X272503Y423187D01*
X272591Y423127D01*
X272676Y423063D01*
X272759Y422996D01*
X272840Y422926D01*
X272918Y422854D01*
X272994Y422778D01*
X273066Y422700D01*
X273136Y422619D01*
X273203Y422536D01*
X273267Y422451D01*
X273327Y422363D01*
X273384Y422273D01*
X273438Y422181D01*
X273489Y422087D01*
X273536Y421991D01*
X273579Y421893D01*
X273619Y421794D01*
X273656Y421694D01*
X273688Y421593D01*
X273717Y421490D01*
X273742Y421386D01*
X273763Y421282D01*
X273781Y421176D01*
X273794Y421070D01*
X273804Y420964D01*
X273810Y420858D01*
X273812Y420751D01*
X270891Y423672D02*
X270770Y423670D01*
X270649Y423664D01*
X270529Y423654D01*
X270408Y423641D01*
X270289Y423623D01*
X270169Y423602D01*
X270051Y423577D01*
X269934Y423548D01*
X269817Y423515D01*
X269702Y423479D01*
X269588Y423438D01*
X269475Y423395D01*
X269363Y423347D01*
X269254Y423296D01*
X269146Y423241D01*
X269039Y423183D01*
X268935Y423122D01*
X268833Y423057D01*
X268733Y422989D01*
X268635Y422918D01*
X268539Y422844D01*
X268446Y422767D01*
X268356Y422686D01*
X268268Y422603D01*
X268183Y422517D01*
X268100Y422428D01*
X268021Y422337D01*
X267944Y422243D01*
X267871Y422147D01*
X267801Y422049D01*
X267734Y421948D01*
X267670Y421845D01*
X267610Y421740D01*
X267553Y421633D01*
X267499Y421525D01*
X267449Y421415D01*
X267403Y421303D01*
X267360Y421190D01*
X267321Y421075D01*
X272839Y418479D02*
X272918Y418556D01*
X272994Y418637D01*
X273067Y418720D01*
X273137Y418805D01*
X273204Y418893D01*
X273268Y418983D01*
X273328Y419075D01*
X273385Y419170D01*
X273439Y419266D01*
X273490Y419364D01*
X273537Y419464D01*
X273581Y419566D01*
X273621Y419669D01*
X273657Y419773D01*
X273689Y419879D01*
X273718Y419985D01*
X273743Y420093D01*
X273765Y420201D01*
X273782Y420311D01*
X273796Y420420D01*
X273805Y420530D01*
X273811Y420641D01*
X273813Y420751D01*
X272838Y418479D02*
X267321Y411988D01*
X273812Y411988D01*
X254621Y450088D02*
X252024Y450088D01*
X251925Y450090D01*
X251825Y450096D01*
X251726Y450105D01*
X251628Y450118D01*
X251530Y450135D01*
X251432Y450156D01*
X251336Y450181D01*
X251241Y450209D01*
X251147Y450241D01*
X251054Y450276D01*
X250962Y450315D01*
X250872Y450358D01*
X250784Y450403D01*
X250697Y450453D01*
X250613Y450505D01*
X250530Y450561D01*
X250450Y450619D01*
X250372Y450681D01*
X250297Y450746D01*
X250224Y450814D01*
X250154Y450884D01*
X250086Y450957D01*
X250021Y451032D01*
X249959Y451110D01*
X249901Y451190D01*
X249845Y451273D01*
X249793Y451357D01*
X249743Y451444D01*
X249698Y451532D01*
X249655Y451622D01*
X249616Y451714D01*
X249581Y451807D01*
X249549Y451901D01*
X249521Y451996D01*
X249496Y452092D01*
X249475Y452190D01*
X249458Y452288D01*
X249445Y452386D01*
X249436Y452485D01*
X249430Y452585D01*
X249428Y452684D01*
X249428Y459176D01*
X249430Y459275D01*
X249436Y459375D01*
X249445Y459474D01*
X249458Y459572D01*
X249475Y459670D01*
X249496Y459768D01*
X249521Y459864D01*
X249549Y459959D01*
X249581Y460053D01*
X249616Y460146D01*
X249655Y460238D01*
X249698Y460328D01*
X249743Y460416D01*
X249793Y460503D01*
X249845Y460587D01*
X249901Y460670D01*
X249959Y460750D01*
X250021Y460828D01*
X250086Y460903D01*
X250154Y460976D01*
X250224Y461046D01*
X250297Y461114D01*
X250372Y461179D01*
X250450Y461241D01*
X250530Y461299D01*
X250613Y461355D01*
X250697Y461407D01*
X250784Y461457D01*
X250872Y461502D01*
X250962Y461545D01*
X251054Y461584D01*
X251146Y461619D01*
X251241Y461651D01*
X251336Y461679D01*
X251432Y461704D01*
X251530Y461725D01*
X251628Y461742D01*
X251726Y461755D01*
X251825Y461764D01*
X251925Y461770D01*
X252024Y461772D01*
X254621Y461772D01*
X258986Y459176D02*
X262232Y461772D01*
X262232Y450088D01*
X265477Y450088D02*
X258986Y450088D01*
X270416Y459176D02*
X273662Y461772D01*
X273662Y450088D01*
X276907Y450088D02*
X270416Y450088D01*
X453898Y423672D02*
X453898Y411988D01*
X453898Y423672D02*
X457144Y423672D01*
X457257Y423670D01*
X457370Y423664D01*
X457483Y423654D01*
X457596Y423640D01*
X457708Y423623D01*
X457819Y423601D01*
X457929Y423576D01*
X458039Y423546D01*
X458147Y423513D01*
X458254Y423476D01*
X458360Y423436D01*
X458464Y423391D01*
X458567Y423343D01*
X458668Y423292D01*
X458767Y423237D01*
X458864Y423179D01*
X458959Y423117D01*
X459052Y423052D01*
X459142Y422984D01*
X459230Y422913D01*
X459316Y422838D01*
X459399Y422761D01*
X459479Y422681D01*
X459556Y422598D01*
X459631Y422512D01*
X459702Y422424D01*
X459770Y422334D01*
X459835Y422241D01*
X459897Y422146D01*
X459955Y422049D01*
X460010Y421950D01*
X460061Y421849D01*
X460109Y421746D01*
X460154Y421642D01*
X460194Y421536D01*
X460231Y421429D01*
X460264Y421321D01*
X460294Y421211D01*
X460319Y421101D01*
X460341Y420990D01*
X460358Y420878D01*
X460372Y420765D01*
X460382Y420652D01*
X460388Y420539D01*
X460390Y420426D01*
X460388Y420313D01*
X460382Y420200D01*
X460372Y420087D01*
X460358Y419974D01*
X460341Y419862D01*
X460319Y419751D01*
X460294Y419641D01*
X460264Y419531D01*
X460231Y419423D01*
X460194Y419316D01*
X460154Y419210D01*
X460109Y419106D01*
X460061Y419003D01*
X460010Y418902D01*
X459955Y418803D01*
X459897Y418706D01*
X459835Y418611D01*
X459770Y418518D01*
X459702Y418428D01*
X459631Y418340D01*
X459556Y418254D01*
X459479Y418171D01*
X459399Y418091D01*
X459316Y418014D01*
X459230Y417939D01*
X459142Y417868D01*
X459052Y417800D01*
X458959Y417735D01*
X458864Y417673D01*
X458767Y417615D01*
X458668Y417560D01*
X458567Y417509D01*
X458464Y417461D01*
X458360Y417416D01*
X458254Y417376D01*
X458147Y417339D01*
X458039Y417306D01*
X457929Y417276D01*
X457819Y417251D01*
X457708Y417229D01*
X457596Y417212D01*
X457483Y417198D01*
X457370Y417188D01*
X457257Y417182D01*
X457144Y417180D01*
X457144Y417181D02*
X453898Y417181D01*
X457793Y417181D02*
X460389Y411988D01*
X465254Y418479D02*
X469149Y418479D01*
X469248Y418477D01*
X469348Y418471D01*
X469447Y418462D01*
X469545Y418449D01*
X469643Y418432D01*
X469741Y418411D01*
X469837Y418386D01*
X469932Y418358D01*
X470026Y418326D01*
X470119Y418291D01*
X470211Y418252D01*
X470301Y418209D01*
X470389Y418164D01*
X470476Y418114D01*
X470560Y418062D01*
X470643Y418006D01*
X470723Y417948D01*
X470801Y417886D01*
X470876Y417821D01*
X470949Y417753D01*
X471019Y417683D01*
X471087Y417610D01*
X471152Y417535D01*
X471214Y417457D01*
X471272Y417377D01*
X471328Y417294D01*
X471380Y417210D01*
X471430Y417123D01*
X471475Y417035D01*
X471518Y416945D01*
X471557Y416853D01*
X471592Y416760D01*
X471624Y416666D01*
X471652Y416571D01*
X471677Y416475D01*
X471698Y416377D01*
X471715Y416279D01*
X471728Y416181D01*
X471737Y416082D01*
X471743Y415982D01*
X471745Y415883D01*
X471745Y415234D01*
X471746Y415234D02*
X471744Y415121D01*
X471738Y415008D01*
X471728Y414895D01*
X471714Y414782D01*
X471697Y414670D01*
X471675Y414559D01*
X471650Y414449D01*
X471620Y414339D01*
X471587Y414231D01*
X471550Y414124D01*
X471510Y414018D01*
X471465Y413914D01*
X471417Y413811D01*
X471366Y413710D01*
X471311Y413611D01*
X471253Y413514D01*
X471191Y413419D01*
X471126Y413326D01*
X471058Y413236D01*
X470987Y413148D01*
X470912Y413062D01*
X470835Y412979D01*
X470755Y412899D01*
X470672Y412822D01*
X470586Y412747D01*
X470498Y412676D01*
X470408Y412608D01*
X470315Y412543D01*
X470220Y412481D01*
X470123Y412423D01*
X470024Y412368D01*
X469923Y412317D01*
X469820Y412269D01*
X469716Y412224D01*
X469610Y412184D01*
X469503Y412147D01*
X469395Y412114D01*
X469285Y412084D01*
X469175Y412059D01*
X469064Y412037D01*
X468952Y412020D01*
X468839Y412006D01*
X468726Y411996D01*
X468613Y411990D01*
X468500Y411988D01*
X468387Y411990D01*
X468274Y411996D01*
X468161Y412006D01*
X468048Y412020D01*
X467936Y412037D01*
X467825Y412059D01*
X467715Y412084D01*
X467605Y412114D01*
X467497Y412147D01*
X467390Y412184D01*
X467284Y412224D01*
X467180Y412269D01*
X467077Y412317D01*
X466976Y412368D01*
X466877Y412423D01*
X466780Y412481D01*
X466685Y412543D01*
X466592Y412608D01*
X466502Y412676D01*
X466414Y412747D01*
X466328Y412822D01*
X466245Y412899D01*
X466165Y412979D01*
X466088Y413062D01*
X466013Y413148D01*
X465942Y413236D01*
X465874Y413326D01*
X465809Y413419D01*
X465747Y413514D01*
X465689Y413611D01*
X465634Y413710D01*
X465583Y413811D01*
X465535Y413914D01*
X465490Y414018D01*
X465450Y414124D01*
X465413Y414231D01*
X465380Y414339D01*
X465350Y414449D01*
X465325Y414559D01*
X465303Y414670D01*
X465286Y414782D01*
X465272Y414895D01*
X465262Y415008D01*
X465256Y415121D01*
X465254Y415234D01*
X465254Y418479D01*
X465256Y418622D01*
X465262Y418765D01*
X465272Y418908D01*
X465286Y419050D01*
X465303Y419192D01*
X465325Y419334D01*
X465350Y419475D01*
X465380Y419615D01*
X465413Y419754D01*
X465450Y419892D01*
X465491Y420029D01*
X465535Y420165D01*
X465584Y420300D01*
X465636Y420433D01*
X465691Y420565D01*
X465751Y420695D01*
X465814Y420824D01*
X465880Y420951D01*
X465950Y421075D01*
X466023Y421198D01*
X466100Y421319D01*
X466180Y421438D01*
X466263Y421554D01*
X466349Y421669D01*
X466438Y421780D01*
X466531Y421890D01*
X466626Y421996D01*
X466725Y422100D01*
X466826Y422201D01*
X466930Y422300D01*
X467036Y422395D01*
X467146Y422488D01*
X467257Y422577D01*
X467372Y422663D01*
X467488Y422746D01*
X467607Y422826D01*
X467728Y422903D01*
X467850Y422976D01*
X467975Y423046D01*
X468102Y423112D01*
X468231Y423175D01*
X468361Y423235D01*
X468493Y423290D01*
X468626Y423342D01*
X468761Y423391D01*
X468897Y423435D01*
X469034Y423476D01*
X469172Y423513D01*
X469311Y423546D01*
X469451Y423576D01*
X469592Y423601D01*
X469734Y423623D01*
X469876Y423640D01*
X470018Y423654D01*
X470161Y423664D01*
X470304Y423670D01*
X470447Y423672D01*
X250698Y347472D02*
X250698Y335788D01*
X250698Y347472D02*
X253944Y347472D01*
X254057Y347470D01*
X254170Y347464D01*
X254283Y347454D01*
X254396Y347440D01*
X254508Y347423D01*
X254619Y347401D01*
X254729Y347376D01*
X254839Y347346D01*
X254947Y347313D01*
X255054Y347276D01*
X255160Y347236D01*
X255264Y347191D01*
X255367Y347143D01*
X255468Y347092D01*
X255567Y347037D01*
X255664Y346979D01*
X255759Y346917D01*
X255852Y346852D01*
X255942Y346784D01*
X256030Y346713D01*
X256116Y346638D01*
X256199Y346561D01*
X256279Y346481D01*
X256356Y346398D01*
X256431Y346312D01*
X256502Y346224D01*
X256570Y346134D01*
X256635Y346041D01*
X256697Y345946D01*
X256755Y345849D01*
X256810Y345750D01*
X256861Y345649D01*
X256909Y345546D01*
X256954Y345442D01*
X256994Y345336D01*
X257031Y345229D01*
X257064Y345121D01*
X257094Y345011D01*
X257119Y344901D01*
X257141Y344790D01*
X257158Y344678D01*
X257172Y344565D01*
X257182Y344452D01*
X257188Y344339D01*
X257190Y344226D01*
X257188Y344113D01*
X257182Y344000D01*
X257172Y343887D01*
X257158Y343774D01*
X257141Y343662D01*
X257119Y343551D01*
X257094Y343441D01*
X257064Y343331D01*
X257031Y343223D01*
X256994Y343116D01*
X256954Y343010D01*
X256909Y342906D01*
X256861Y342803D01*
X256810Y342702D01*
X256755Y342603D01*
X256697Y342506D01*
X256635Y342411D01*
X256570Y342318D01*
X256502Y342228D01*
X256431Y342140D01*
X256356Y342054D01*
X256279Y341971D01*
X256199Y341891D01*
X256116Y341814D01*
X256030Y341739D01*
X255942Y341668D01*
X255852Y341600D01*
X255759Y341535D01*
X255664Y341473D01*
X255567Y341415D01*
X255468Y341360D01*
X255367Y341309D01*
X255264Y341261D01*
X255160Y341216D01*
X255054Y341176D01*
X254947Y341139D01*
X254839Y341106D01*
X254729Y341076D01*
X254619Y341051D01*
X254508Y341029D01*
X254396Y341012D01*
X254283Y340998D01*
X254170Y340988D01*
X254057Y340982D01*
X253944Y340980D01*
X253944Y340981D02*
X250698Y340981D01*
X254593Y340981D02*
X257189Y335788D01*
X262054Y346174D02*
X262054Y347472D01*
X268545Y347472D01*
X265300Y335788D01*
X311658Y373888D02*
X311658Y385572D01*
X314904Y385572D01*
X315017Y385570D01*
X315130Y385564D01*
X315243Y385554D01*
X315356Y385540D01*
X315468Y385523D01*
X315579Y385501D01*
X315689Y385476D01*
X315799Y385446D01*
X315907Y385413D01*
X316014Y385376D01*
X316120Y385336D01*
X316224Y385291D01*
X316327Y385243D01*
X316428Y385192D01*
X316527Y385137D01*
X316624Y385079D01*
X316719Y385017D01*
X316812Y384952D01*
X316902Y384884D01*
X316990Y384813D01*
X317076Y384738D01*
X317159Y384661D01*
X317239Y384581D01*
X317316Y384498D01*
X317391Y384412D01*
X317462Y384324D01*
X317530Y384234D01*
X317595Y384141D01*
X317657Y384046D01*
X317715Y383949D01*
X317770Y383850D01*
X317821Y383749D01*
X317869Y383646D01*
X317914Y383542D01*
X317954Y383436D01*
X317991Y383329D01*
X318024Y383221D01*
X318054Y383111D01*
X318079Y383001D01*
X318101Y382890D01*
X318118Y382778D01*
X318132Y382665D01*
X318142Y382552D01*
X318148Y382439D01*
X318150Y382326D01*
X318148Y382213D01*
X318142Y382100D01*
X318132Y381987D01*
X318118Y381874D01*
X318101Y381762D01*
X318079Y381651D01*
X318054Y381541D01*
X318024Y381431D01*
X317991Y381323D01*
X317954Y381216D01*
X317914Y381110D01*
X317869Y381006D01*
X317821Y380903D01*
X317770Y380802D01*
X317715Y380703D01*
X317657Y380606D01*
X317595Y380511D01*
X317530Y380418D01*
X317462Y380328D01*
X317391Y380240D01*
X317316Y380154D01*
X317239Y380071D01*
X317159Y379991D01*
X317076Y379914D01*
X316990Y379839D01*
X316902Y379768D01*
X316812Y379700D01*
X316719Y379635D01*
X316624Y379573D01*
X316527Y379515D01*
X316428Y379460D01*
X316327Y379409D01*
X316224Y379361D01*
X316120Y379316D01*
X316014Y379276D01*
X315907Y379239D01*
X315799Y379206D01*
X315689Y379176D01*
X315579Y379151D01*
X315468Y379129D01*
X315356Y379112D01*
X315243Y379098D01*
X315130Y379088D01*
X315017Y379082D01*
X314904Y379080D01*
X314904Y379081D02*
X311658Y379081D01*
X315553Y379081D02*
X318149Y373888D01*
X323014Y377134D02*
X323016Y377247D01*
X323022Y377360D01*
X323032Y377473D01*
X323046Y377586D01*
X323063Y377698D01*
X323085Y377809D01*
X323110Y377919D01*
X323140Y378029D01*
X323173Y378137D01*
X323210Y378244D01*
X323250Y378350D01*
X323295Y378454D01*
X323343Y378557D01*
X323394Y378658D01*
X323449Y378757D01*
X323507Y378854D01*
X323569Y378949D01*
X323634Y379042D01*
X323702Y379132D01*
X323773Y379220D01*
X323848Y379306D01*
X323925Y379389D01*
X324005Y379469D01*
X324088Y379546D01*
X324174Y379621D01*
X324262Y379692D01*
X324352Y379760D01*
X324445Y379825D01*
X324540Y379887D01*
X324637Y379945D01*
X324736Y380000D01*
X324837Y380051D01*
X324940Y380099D01*
X325044Y380144D01*
X325150Y380184D01*
X325257Y380221D01*
X325365Y380254D01*
X325475Y380284D01*
X325585Y380309D01*
X325696Y380331D01*
X325808Y380348D01*
X325921Y380362D01*
X326034Y380372D01*
X326147Y380378D01*
X326260Y380380D01*
X326373Y380378D01*
X326486Y380372D01*
X326599Y380362D01*
X326712Y380348D01*
X326824Y380331D01*
X326935Y380309D01*
X327045Y380284D01*
X327155Y380254D01*
X327263Y380221D01*
X327370Y380184D01*
X327476Y380144D01*
X327580Y380099D01*
X327683Y380051D01*
X327784Y380000D01*
X327883Y379945D01*
X327980Y379887D01*
X328075Y379825D01*
X328168Y379760D01*
X328258Y379692D01*
X328346Y379621D01*
X328432Y379546D01*
X328515Y379469D01*
X328595Y379389D01*
X328672Y379306D01*
X328747Y379220D01*
X328818Y379132D01*
X328886Y379042D01*
X328951Y378949D01*
X329013Y378854D01*
X329071Y378757D01*
X329126Y378658D01*
X329177Y378557D01*
X329225Y378454D01*
X329270Y378350D01*
X329310Y378244D01*
X329347Y378137D01*
X329380Y378029D01*
X329410Y377919D01*
X329435Y377809D01*
X329457Y377698D01*
X329474Y377586D01*
X329488Y377473D01*
X329498Y377360D01*
X329504Y377247D01*
X329506Y377134D01*
X329504Y377021D01*
X329498Y376908D01*
X329488Y376795D01*
X329474Y376682D01*
X329457Y376570D01*
X329435Y376459D01*
X329410Y376349D01*
X329380Y376239D01*
X329347Y376131D01*
X329310Y376024D01*
X329270Y375918D01*
X329225Y375814D01*
X329177Y375711D01*
X329126Y375610D01*
X329071Y375511D01*
X329013Y375414D01*
X328951Y375319D01*
X328886Y375226D01*
X328818Y375136D01*
X328747Y375048D01*
X328672Y374962D01*
X328595Y374879D01*
X328515Y374799D01*
X328432Y374722D01*
X328346Y374647D01*
X328258Y374576D01*
X328168Y374508D01*
X328075Y374443D01*
X327980Y374381D01*
X327883Y374323D01*
X327784Y374268D01*
X327683Y374217D01*
X327580Y374169D01*
X327476Y374124D01*
X327370Y374084D01*
X327263Y374047D01*
X327155Y374014D01*
X327045Y373984D01*
X326935Y373959D01*
X326824Y373937D01*
X326712Y373920D01*
X326599Y373906D01*
X326486Y373896D01*
X326373Y373890D01*
X326260Y373888D01*
X326147Y373890D01*
X326034Y373896D01*
X325921Y373906D01*
X325808Y373920D01*
X325696Y373937D01*
X325585Y373959D01*
X325475Y373984D01*
X325365Y374014D01*
X325257Y374047D01*
X325150Y374084D01*
X325044Y374124D01*
X324940Y374169D01*
X324837Y374217D01*
X324736Y374268D01*
X324637Y374323D01*
X324540Y374381D01*
X324445Y374443D01*
X324352Y374508D01*
X324262Y374576D01*
X324174Y374647D01*
X324088Y374722D01*
X324005Y374799D01*
X323925Y374879D01*
X323848Y374962D01*
X323773Y375048D01*
X323702Y375136D01*
X323634Y375226D01*
X323569Y375319D01*
X323507Y375414D01*
X323449Y375511D01*
X323394Y375610D01*
X323343Y375711D01*
X323295Y375814D01*
X323250Y375918D01*
X323210Y376024D01*
X323173Y376131D01*
X323140Y376239D01*
X323110Y376349D01*
X323085Y376459D01*
X323063Y376570D01*
X323046Y376682D01*
X323032Y376795D01*
X323022Y376908D01*
X323016Y377021D01*
X323014Y377134D01*
X323664Y382976D02*
X323666Y383077D01*
X323672Y383177D01*
X323682Y383277D01*
X323695Y383377D01*
X323713Y383476D01*
X323734Y383575D01*
X323759Y383672D01*
X323788Y383769D01*
X323821Y383864D01*
X323857Y383958D01*
X323897Y384050D01*
X323940Y384141D01*
X323987Y384230D01*
X324037Y384317D01*
X324091Y384403D01*
X324148Y384486D01*
X324208Y384566D01*
X324271Y384645D01*
X324338Y384721D01*
X324407Y384794D01*
X324479Y384864D01*
X324553Y384932D01*
X324630Y384997D01*
X324710Y385058D01*
X324792Y385117D01*
X324876Y385172D01*
X324962Y385224D01*
X325050Y385273D01*
X325140Y385318D01*
X325232Y385360D01*
X325325Y385398D01*
X325420Y385432D01*
X325515Y385463D01*
X325612Y385490D01*
X325710Y385513D01*
X325809Y385533D01*
X325909Y385548D01*
X326009Y385560D01*
X326109Y385568D01*
X326210Y385572D01*
X326310Y385572D01*
X326411Y385568D01*
X326511Y385560D01*
X326611Y385548D01*
X326711Y385533D01*
X326810Y385513D01*
X326908Y385490D01*
X327005Y385463D01*
X327100Y385432D01*
X327195Y385398D01*
X327288Y385360D01*
X327380Y385318D01*
X327470Y385273D01*
X327558Y385224D01*
X327644Y385172D01*
X327728Y385117D01*
X327810Y385058D01*
X327890Y384997D01*
X327967Y384932D01*
X328041Y384864D01*
X328113Y384794D01*
X328182Y384721D01*
X328249Y384645D01*
X328312Y384566D01*
X328372Y384486D01*
X328429Y384403D01*
X328483Y384317D01*
X328533Y384230D01*
X328580Y384141D01*
X328623Y384050D01*
X328663Y383958D01*
X328699Y383864D01*
X328732Y383769D01*
X328761Y383672D01*
X328786Y383575D01*
X328807Y383476D01*
X328825Y383377D01*
X328838Y383277D01*
X328848Y383177D01*
X328854Y383077D01*
X328856Y382976D01*
X328854Y382875D01*
X328848Y382775D01*
X328838Y382675D01*
X328825Y382575D01*
X328807Y382476D01*
X328786Y382377D01*
X328761Y382280D01*
X328732Y382183D01*
X328699Y382088D01*
X328663Y381994D01*
X328623Y381902D01*
X328580Y381811D01*
X328533Y381722D01*
X328483Y381635D01*
X328429Y381549D01*
X328372Y381466D01*
X328312Y381386D01*
X328249Y381307D01*
X328182Y381231D01*
X328113Y381158D01*
X328041Y381088D01*
X327967Y381020D01*
X327890Y380955D01*
X327810Y380894D01*
X327728Y380835D01*
X327644Y380780D01*
X327558Y380728D01*
X327470Y380679D01*
X327380Y380634D01*
X327288Y380592D01*
X327195Y380554D01*
X327100Y380520D01*
X327005Y380489D01*
X326908Y380462D01*
X326810Y380439D01*
X326711Y380419D01*
X326611Y380404D01*
X326511Y380392D01*
X326411Y380384D01*
X326310Y380380D01*
X326210Y380380D01*
X326109Y380384D01*
X326009Y380392D01*
X325909Y380404D01*
X325809Y380419D01*
X325710Y380439D01*
X325612Y380462D01*
X325515Y380489D01*
X325420Y380520D01*
X325325Y380554D01*
X325232Y380592D01*
X325140Y380634D01*
X325050Y380679D01*
X324962Y380728D01*
X324876Y380780D01*
X324792Y380835D01*
X324710Y380894D01*
X324630Y380955D01*
X324553Y381020D01*
X324479Y381088D01*
X324407Y381158D01*
X324338Y381231D01*
X324271Y381307D01*
X324208Y381386D01*
X324148Y381466D01*
X324091Y381549D01*
X324037Y381635D01*
X323987Y381722D01*
X323940Y381811D01*
X323897Y381902D01*
X323857Y381994D01*
X323821Y382088D01*
X323788Y382183D01*
X323759Y382280D01*
X323734Y382377D01*
X323713Y382476D01*
X323695Y382575D01*
X323682Y382675D01*
X323672Y382775D01*
X323666Y382875D01*
X323664Y382976D01*
X497849Y409448D02*
X500446Y409448D01*
X497849Y409448D02*
X497750Y409450D01*
X497650Y409456D01*
X497551Y409465D01*
X497453Y409478D01*
X497355Y409495D01*
X497257Y409516D01*
X497161Y409541D01*
X497066Y409569D01*
X496972Y409601D01*
X496879Y409636D01*
X496787Y409675D01*
X496697Y409718D01*
X496609Y409763D01*
X496522Y409813D01*
X496438Y409865D01*
X496355Y409921D01*
X496275Y409979D01*
X496197Y410041D01*
X496122Y410106D01*
X496049Y410174D01*
X495979Y410244D01*
X495911Y410317D01*
X495846Y410392D01*
X495784Y410470D01*
X495726Y410550D01*
X495670Y410633D01*
X495618Y410717D01*
X495568Y410804D01*
X495523Y410892D01*
X495480Y410982D01*
X495441Y411074D01*
X495406Y411167D01*
X495374Y411261D01*
X495346Y411356D01*
X495321Y411452D01*
X495300Y411550D01*
X495283Y411648D01*
X495270Y411746D01*
X495261Y411845D01*
X495255Y411945D01*
X495253Y412044D01*
X495253Y418536D01*
X495255Y418635D01*
X495261Y418735D01*
X495270Y418834D01*
X495283Y418932D01*
X495300Y419030D01*
X495321Y419128D01*
X495346Y419224D01*
X495374Y419319D01*
X495406Y419413D01*
X495441Y419506D01*
X495480Y419598D01*
X495523Y419688D01*
X495568Y419776D01*
X495618Y419863D01*
X495670Y419947D01*
X495726Y420030D01*
X495784Y420110D01*
X495846Y420188D01*
X495911Y420263D01*
X495979Y420336D01*
X496049Y420406D01*
X496122Y420474D01*
X496197Y420539D01*
X496275Y420601D01*
X496355Y420659D01*
X496438Y420715D01*
X496522Y420767D01*
X496609Y420817D01*
X496697Y420862D01*
X496787Y420905D01*
X496879Y420944D01*
X496971Y420979D01*
X497066Y421011D01*
X497161Y421039D01*
X497257Y421064D01*
X497355Y421085D01*
X497453Y421102D01*
X497551Y421115D01*
X497650Y421124D01*
X497750Y421130D01*
X497849Y421132D01*
X500446Y421132D01*
X504811Y418536D02*
X508056Y421132D01*
X508056Y409448D01*
X504811Y409448D02*
X511302Y409448D01*
X516241Y409448D02*
X519486Y409448D01*
X519599Y409450D01*
X519712Y409456D01*
X519825Y409466D01*
X519938Y409480D01*
X520050Y409497D01*
X520161Y409519D01*
X520271Y409544D01*
X520381Y409574D01*
X520489Y409607D01*
X520596Y409644D01*
X520702Y409684D01*
X520806Y409729D01*
X520909Y409777D01*
X521010Y409828D01*
X521109Y409883D01*
X521206Y409941D01*
X521301Y410003D01*
X521394Y410068D01*
X521484Y410136D01*
X521572Y410207D01*
X521658Y410282D01*
X521741Y410359D01*
X521821Y410439D01*
X521898Y410522D01*
X521973Y410608D01*
X522044Y410696D01*
X522112Y410786D01*
X522177Y410879D01*
X522239Y410974D01*
X522297Y411071D01*
X522352Y411170D01*
X522403Y411271D01*
X522451Y411374D01*
X522496Y411478D01*
X522536Y411584D01*
X522573Y411691D01*
X522606Y411799D01*
X522636Y411909D01*
X522661Y412019D01*
X522683Y412130D01*
X522700Y412242D01*
X522714Y412355D01*
X522724Y412468D01*
X522730Y412581D01*
X522732Y412694D01*
X522730Y412807D01*
X522724Y412920D01*
X522714Y413033D01*
X522700Y413146D01*
X522683Y413258D01*
X522661Y413369D01*
X522636Y413479D01*
X522606Y413589D01*
X522573Y413697D01*
X522536Y413804D01*
X522496Y413910D01*
X522451Y414014D01*
X522403Y414117D01*
X522352Y414218D01*
X522297Y414317D01*
X522239Y414414D01*
X522177Y414509D01*
X522112Y414602D01*
X522044Y414692D01*
X521973Y414780D01*
X521898Y414866D01*
X521821Y414949D01*
X521741Y415029D01*
X521658Y415106D01*
X521572Y415181D01*
X521484Y415252D01*
X521394Y415320D01*
X521301Y415385D01*
X521206Y415447D01*
X521109Y415505D01*
X521010Y415560D01*
X520909Y415611D01*
X520806Y415659D01*
X520702Y415704D01*
X520596Y415744D01*
X520489Y415781D01*
X520381Y415814D01*
X520271Y415844D01*
X520161Y415869D01*
X520050Y415891D01*
X519938Y415908D01*
X519825Y415922D01*
X519712Y415932D01*
X519599Y415938D01*
X519486Y415940D01*
X520136Y421132D02*
X516241Y421132D01*
X520136Y421132D02*
X520237Y421130D01*
X520337Y421124D01*
X520437Y421114D01*
X520537Y421101D01*
X520636Y421083D01*
X520735Y421062D01*
X520832Y421037D01*
X520929Y421008D01*
X521024Y420975D01*
X521118Y420939D01*
X521210Y420899D01*
X521301Y420856D01*
X521390Y420809D01*
X521477Y420759D01*
X521563Y420705D01*
X521646Y420648D01*
X521726Y420588D01*
X521805Y420525D01*
X521881Y420458D01*
X521954Y420389D01*
X522024Y420317D01*
X522092Y420243D01*
X522157Y420166D01*
X522218Y420086D01*
X522277Y420004D01*
X522332Y419920D01*
X522384Y419834D01*
X522433Y419746D01*
X522478Y419656D01*
X522520Y419564D01*
X522558Y419471D01*
X522592Y419376D01*
X522623Y419281D01*
X522650Y419184D01*
X522673Y419086D01*
X522693Y418987D01*
X522708Y418887D01*
X522720Y418787D01*
X522728Y418687D01*
X522732Y418586D01*
X522732Y418486D01*
X522728Y418385D01*
X522720Y418285D01*
X522708Y418185D01*
X522693Y418085D01*
X522673Y417986D01*
X522650Y417888D01*
X522623Y417791D01*
X522592Y417696D01*
X522558Y417601D01*
X522520Y417508D01*
X522478Y417416D01*
X522433Y417326D01*
X522384Y417238D01*
X522332Y417152D01*
X522277Y417068D01*
X522218Y416986D01*
X522157Y416906D01*
X522092Y416829D01*
X522024Y416755D01*
X521954Y416683D01*
X521881Y416614D01*
X521805Y416547D01*
X521726Y416484D01*
X521646Y416424D01*
X521563Y416367D01*
X521477Y416313D01*
X521390Y416263D01*
X521301Y416216D01*
X521210Y416173D01*
X521118Y416133D01*
X521024Y416097D01*
X520929Y416064D01*
X520832Y416035D01*
X520735Y416010D01*
X520636Y415989D01*
X520537Y415971D01*
X520437Y415958D01*
X520337Y415948D01*
X520237Y415942D01*
X520136Y415940D01*
X520136Y415939D02*
X517539Y415939D01*
X255778Y385572D02*
X255778Y373888D01*
X255778Y385572D02*
X259024Y385572D01*
X259137Y385570D01*
X259250Y385564D01*
X259363Y385554D01*
X259476Y385540D01*
X259588Y385523D01*
X259699Y385501D01*
X259809Y385476D01*
X259919Y385446D01*
X260027Y385413D01*
X260134Y385376D01*
X260240Y385336D01*
X260344Y385291D01*
X260447Y385243D01*
X260548Y385192D01*
X260647Y385137D01*
X260744Y385079D01*
X260839Y385017D01*
X260932Y384952D01*
X261022Y384884D01*
X261110Y384813D01*
X261196Y384738D01*
X261279Y384661D01*
X261359Y384581D01*
X261436Y384498D01*
X261511Y384412D01*
X261582Y384324D01*
X261650Y384234D01*
X261715Y384141D01*
X261777Y384046D01*
X261835Y383949D01*
X261890Y383850D01*
X261941Y383749D01*
X261989Y383646D01*
X262034Y383542D01*
X262074Y383436D01*
X262111Y383329D01*
X262144Y383221D01*
X262174Y383111D01*
X262199Y383001D01*
X262221Y382890D01*
X262238Y382778D01*
X262252Y382665D01*
X262262Y382552D01*
X262268Y382439D01*
X262270Y382326D01*
X262268Y382213D01*
X262262Y382100D01*
X262252Y381987D01*
X262238Y381874D01*
X262221Y381762D01*
X262199Y381651D01*
X262174Y381541D01*
X262144Y381431D01*
X262111Y381323D01*
X262074Y381216D01*
X262034Y381110D01*
X261989Y381006D01*
X261941Y380903D01*
X261890Y380802D01*
X261835Y380703D01*
X261777Y380606D01*
X261715Y380511D01*
X261650Y380418D01*
X261582Y380328D01*
X261511Y380240D01*
X261436Y380154D01*
X261359Y380071D01*
X261279Y379991D01*
X261196Y379914D01*
X261110Y379839D01*
X261022Y379768D01*
X260932Y379700D01*
X260839Y379635D01*
X260744Y379573D01*
X260647Y379515D01*
X260548Y379460D01*
X260447Y379409D01*
X260344Y379361D01*
X260240Y379316D01*
X260134Y379276D01*
X260027Y379239D01*
X259919Y379206D01*
X259809Y379176D01*
X259699Y379151D01*
X259588Y379129D01*
X259476Y379112D01*
X259363Y379098D01*
X259250Y379088D01*
X259137Y379082D01*
X259024Y379080D01*
X259024Y379081D02*
X255778Y379081D01*
X259673Y379081D02*
X262269Y373888D01*
X269731Y379081D02*
X273625Y379081D01*
X269731Y379081D02*
X269632Y379083D01*
X269532Y379089D01*
X269433Y379098D01*
X269335Y379111D01*
X269237Y379128D01*
X269139Y379149D01*
X269043Y379174D01*
X268948Y379202D01*
X268854Y379234D01*
X268761Y379269D01*
X268669Y379308D01*
X268579Y379351D01*
X268491Y379396D01*
X268404Y379446D01*
X268320Y379498D01*
X268237Y379554D01*
X268157Y379612D01*
X268079Y379674D01*
X268004Y379739D01*
X267931Y379807D01*
X267861Y379877D01*
X267793Y379950D01*
X267728Y380025D01*
X267666Y380103D01*
X267608Y380183D01*
X267552Y380266D01*
X267500Y380350D01*
X267450Y380437D01*
X267405Y380525D01*
X267362Y380615D01*
X267323Y380707D01*
X267288Y380800D01*
X267256Y380894D01*
X267228Y380989D01*
X267203Y381085D01*
X267182Y381183D01*
X267165Y381281D01*
X267152Y381379D01*
X267143Y381478D01*
X267137Y381578D01*
X267135Y381677D01*
X267134Y381677D02*
X267134Y382326D01*
X267136Y382439D01*
X267142Y382552D01*
X267152Y382665D01*
X267166Y382778D01*
X267183Y382890D01*
X267205Y383001D01*
X267230Y383111D01*
X267260Y383221D01*
X267293Y383329D01*
X267330Y383436D01*
X267370Y383542D01*
X267415Y383646D01*
X267463Y383749D01*
X267514Y383850D01*
X267569Y383949D01*
X267627Y384046D01*
X267689Y384141D01*
X267754Y384234D01*
X267822Y384324D01*
X267893Y384412D01*
X267968Y384498D01*
X268045Y384581D01*
X268125Y384661D01*
X268208Y384738D01*
X268294Y384813D01*
X268382Y384884D01*
X268472Y384952D01*
X268565Y385017D01*
X268660Y385079D01*
X268757Y385137D01*
X268856Y385192D01*
X268957Y385243D01*
X269060Y385291D01*
X269164Y385336D01*
X269270Y385376D01*
X269377Y385413D01*
X269485Y385446D01*
X269595Y385476D01*
X269705Y385501D01*
X269816Y385523D01*
X269928Y385540D01*
X270041Y385554D01*
X270154Y385564D01*
X270267Y385570D01*
X270380Y385572D01*
X270493Y385570D01*
X270606Y385564D01*
X270719Y385554D01*
X270832Y385540D01*
X270944Y385523D01*
X271055Y385501D01*
X271165Y385476D01*
X271275Y385446D01*
X271383Y385413D01*
X271490Y385376D01*
X271596Y385336D01*
X271700Y385291D01*
X271803Y385243D01*
X271904Y385192D01*
X272003Y385137D01*
X272100Y385079D01*
X272195Y385017D01*
X272288Y384952D01*
X272378Y384884D01*
X272466Y384813D01*
X272552Y384738D01*
X272635Y384661D01*
X272715Y384581D01*
X272792Y384498D01*
X272867Y384412D01*
X272938Y384324D01*
X273006Y384234D01*
X273071Y384141D01*
X273133Y384046D01*
X273191Y383949D01*
X273246Y383850D01*
X273297Y383749D01*
X273345Y383646D01*
X273390Y383542D01*
X273430Y383436D01*
X273467Y383329D01*
X273500Y383221D01*
X273530Y383111D01*
X273555Y383001D01*
X273577Y382890D01*
X273594Y382778D01*
X273608Y382665D01*
X273618Y382552D01*
X273624Y382439D01*
X273626Y382326D01*
X273625Y382326D02*
X273625Y379081D01*
X273626Y379081D02*
X273624Y378938D01*
X273618Y378795D01*
X273608Y378652D01*
X273594Y378510D01*
X273577Y378368D01*
X273555Y378226D01*
X273530Y378085D01*
X273500Y377945D01*
X273467Y377806D01*
X273430Y377668D01*
X273389Y377531D01*
X273345Y377395D01*
X273296Y377260D01*
X273244Y377127D01*
X273189Y376995D01*
X273129Y376865D01*
X273066Y376736D01*
X273000Y376609D01*
X272930Y376484D01*
X272857Y376362D01*
X272780Y376241D01*
X272700Y376122D01*
X272617Y376006D01*
X272531Y375891D01*
X272442Y375780D01*
X272349Y375670D01*
X272254Y375564D01*
X272155Y375460D01*
X272054Y375359D01*
X271950Y375260D01*
X271844Y375165D01*
X271734Y375072D01*
X271623Y374983D01*
X271508Y374897D01*
X271392Y374814D01*
X271273Y374734D01*
X271152Y374657D01*
X271030Y374584D01*
X270905Y374514D01*
X270778Y374448D01*
X270649Y374385D01*
X270519Y374325D01*
X270387Y374270D01*
X270254Y374218D01*
X270119Y374169D01*
X269983Y374125D01*
X269846Y374084D01*
X269708Y374047D01*
X269569Y374014D01*
X269429Y373984D01*
X269288Y373959D01*
X269146Y373937D01*
X269004Y373920D01*
X268862Y373906D01*
X268719Y373896D01*
X268576Y373890D01*
X268433Y373888D01*
X301685Y347472D02*
X301685Y335788D01*
X301685Y347472D02*
X304930Y347472D01*
X305043Y347470D01*
X305156Y347464D01*
X305269Y347454D01*
X305382Y347440D01*
X305494Y347423D01*
X305605Y347401D01*
X305715Y347376D01*
X305825Y347346D01*
X305933Y347313D01*
X306040Y347276D01*
X306146Y347236D01*
X306250Y347191D01*
X306353Y347143D01*
X306454Y347092D01*
X306553Y347037D01*
X306650Y346979D01*
X306745Y346917D01*
X306838Y346852D01*
X306928Y346784D01*
X307016Y346713D01*
X307102Y346638D01*
X307185Y346561D01*
X307265Y346481D01*
X307342Y346398D01*
X307417Y346312D01*
X307488Y346224D01*
X307556Y346134D01*
X307621Y346041D01*
X307683Y345946D01*
X307741Y345849D01*
X307796Y345750D01*
X307847Y345649D01*
X307895Y345546D01*
X307940Y345442D01*
X307980Y345336D01*
X308017Y345229D01*
X308050Y345121D01*
X308080Y345011D01*
X308105Y344901D01*
X308127Y344790D01*
X308144Y344678D01*
X308158Y344565D01*
X308168Y344452D01*
X308174Y344339D01*
X308176Y344226D01*
X308174Y344113D01*
X308168Y344000D01*
X308158Y343887D01*
X308144Y343774D01*
X308127Y343662D01*
X308105Y343551D01*
X308080Y343441D01*
X308050Y343331D01*
X308017Y343223D01*
X307980Y343116D01*
X307940Y343010D01*
X307895Y342906D01*
X307847Y342803D01*
X307796Y342702D01*
X307741Y342603D01*
X307683Y342506D01*
X307621Y342411D01*
X307556Y342318D01*
X307488Y342228D01*
X307417Y342140D01*
X307342Y342054D01*
X307265Y341971D01*
X307185Y341891D01*
X307102Y341814D01*
X307016Y341739D01*
X306928Y341668D01*
X306838Y341600D01*
X306745Y341535D01*
X306650Y341473D01*
X306553Y341415D01*
X306454Y341360D01*
X306353Y341309D01*
X306250Y341261D01*
X306146Y341216D01*
X306040Y341176D01*
X305933Y341139D01*
X305825Y341106D01*
X305715Y341076D01*
X305605Y341051D01*
X305494Y341029D01*
X305382Y341012D01*
X305269Y340998D01*
X305156Y340988D01*
X305043Y340982D01*
X304930Y340980D01*
X304930Y340981D02*
X301685Y340981D01*
X305579Y340981D02*
X308176Y335788D01*
X313041Y344876D02*
X316286Y347472D01*
X316286Y335788D01*
X313041Y335788D02*
X319532Y335788D01*
X324471Y341630D02*
X324474Y341860D01*
X324482Y342090D01*
X324496Y342319D01*
X324515Y342548D01*
X324540Y342777D01*
X324570Y343004D01*
X324605Y343232D01*
X324646Y343458D01*
X324692Y343683D01*
X324744Y343907D01*
X324801Y344129D01*
X324863Y344351D01*
X324931Y344570D01*
X325004Y344788D01*
X325082Y345005D01*
X325165Y345219D01*
X325253Y345431D01*
X325346Y345641D01*
X325445Y345849D01*
X325444Y345849D02*
X325477Y345939D01*
X325513Y346028D01*
X325553Y346116D01*
X325597Y346201D01*
X325644Y346285D01*
X325694Y346367D01*
X325748Y346447D01*
X325804Y346524D01*
X325864Y346600D01*
X325927Y346673D01*
X325992Y346743D01*
X326061Y346811D01*
X326132Y346875D01*
X326205Y346937D01*
X326281Y346996D01*
X326359Y347052D01*
X326440Y347105D01*
X326522Y347154D01*
X326606Y347200D01*
X326693Y347243D01*
X326780Y347282D01*
X326870Y347318D01*
X326960Y347350D01*
X327052Y347378D01*
X327145Y347403D01*
X327239Y347424D01*
X327333Y347441D01*
X327428Y347455D01*
X327524Y347464D01*
X327620Y347470D01*
X327716Y347472D01*
X327812Y347470D01*
X327908Y347464D01*
X328004Y347455D01*
X328099Y347441D01*
X328193Y347424D01*
X328287Y347403D01*
X328380Y347378D01*
X328472Y347350D01*
X328562Y347318D01*
X328652Y347282D01*
X328739Y347243D01*
X328826Y347200D01*
X328910Y347154D01*
X328992Y347105D01*
X329073Y347052D01*
X329151Y346996D01*
X329227Y346937D01*
X329300Y346875D01*
X329371Y346811D01*
X329440Y346743D01*
X329505Y346673D01*
X329568Y346600D01*
X329628Y346524D01*
X329684Y346447D01*
X329738Y346367D01*
X329788Y346285D01*
X329835Y346201D01*
X329879Y346116D01*
X329919Y346028D01*
X329955Y345939D01*
X329988Y345849D01*
X329989Y345849D02*
X330088Y345642D01*
X330181Y345432D01*
X330269Y345219D01*
X330352Y345005D01*
X330430Y344789D01*
X330503Y344571D01*
X330571Y344351D01*
X330633Y344130D01*
X330690Y343907D01*
X330742Y343683D01*
X330788Y343458D01*
X330829Y343232D01*
X330864Y343005D01*
X330894Y342777D01*
X330919Y342548D01*
X330938Y342319D01*
X330952Y342090D01*
X330960Y341860D01*
X330963Y341630D01*
X324471Y341630D02*
X324474Y341400D01*
X324482Y341170D01*
X324496Y340941D01*
X324515Y340712D01*
X324540Y340483D01*
X324570Y340255D01*
X324605Y340028D01*
X324646Y339802D01*
X324692Y339577D01*
X324744Y339353D01*
X324801Y339130D01*
X324863Y338909D01*
X324931Y338689D01*
X325004Y338471D01*
X325082Y338255D01*
X325165Y338041D01*
X325253Y337829D01*
X325346Y337618D01*
X325445Y337411D01*
X325444Y337411D02*
X325477Y337321D01*
X325513Y337232D01*
X325554Y337144D01*
X325597Y337059D01*
X325644Y336975D01*
X325694Y336893D01*
X325748Y336813D01*
X325804Y336736D01*
X325864Y336660D01*
X325927Y336587D01*
X325992Y336517D01*
X326061Y336449D01*
X326132Y336385D01*
X326205Y336323D01*
X326281Y336264D01*
X326359Y336208D01*
X326440Y336155D01*
X326522Y336106D01*
X326606Y336060D01*
X326693Y336017D01*
X326780Y335978D01*
X326870Y335942D01*
X326960Y335910D01*
X327052Y335882D01*
X327145Y335857D01*
X327239Y335836D01*
X327333Y335819D01*
X327428Y335805D01*
X327524Y335796D01*
X327620Y335790D01*
X327716Y335788D01*
X329988Y337411D02*
X330087Y337618D01*
X330180Y337829D01*
X330268Y338041D01*
X330351Y338255D01*
X330429Y338471D01*
X330502Y338689D01*
X330570Y338909D01*
X330632Y339130D01*
X330689Y339353D01*
X330741Y339577D01*
X330787Y339802D01*
X330828Y340028D01*
X330863Y340255D01*
X330893Y340483D01*
X330918Y340712D01*
X330937Y340941D01*
X330951Y341170D01*
X330959Y341400D01*
X330962Y341630D01*
X329988Y337411D02*
X329955Y337321D01*
X329919Y337232D01*
X329879Y337144D01*
X329835Y337059D01*
X329788Y336975D01*
X329738Y336893D01*
X329684Y336813D01*
X329628Y336736D01*
X329568Y336660D01*
X329505Y336587D01*
X329440Y336517D01*
X329371Y336449D01*
X329300Y336385D01*
X329227Y336323D01*
X329151Y336264D01*
X329073Y336208D01*
X328992Y336155D01*
X328910Y336106D01*
X328826Y336060D01*
X328739Y336017D01*
X328652Y335978D01*
X328562Y335942D01*
X328472Y335910D01*
X328380Y335882D01*
X328287Y335857D01*
X328193Y335836D01*
X328099Y335819D01*
X328004Y335805D01*
X327908Y335796D01*
X327812Y335790D01*
X327716Y335788D01*
X325120Y338384D02*
X330313Y344876D01*
X446278Y373888D02*
X446278Y385572D01*
X449524Y385572D01*
X449637Y385570D01*
X449750Y385564D01*
X449863Y385554D01*
X449976Y385540D01*
X450088Y385523D01*
X450199Y385501D01*
X450309Y385476D01*
X450419Y385446D01*
X450527Y385413D01*
X450634Y385376D01*
X450740Y385336D01*
X450844Y385291D01*
X450947Y385243D01*
X451048Y385192D01*
X451147Y385137D01*
X451244Y385079D01*
X451339Y385017D01*
X451432Y384952D01*
X451522Y384884D01*
X451610Y384813D01*
X451696Y384738D01*
X451779Y384661D01*
X451859Y384581D01*
X451936Y384498D01*
X452011Y384412D01*
X452082Y384324D01*
X452150Y384234D01*
X452215Y384141D01*
X452277Y384046D01*
X452335Y383949D01*
X452390Y383850D01*
X452441Y383749D01*
X452489Y383646D01*
X452534Y383542D01*
X452574Y383436D01*
X452611Y383329D01*
X452644Y383221D01*
X452674Y383111D01*
X452699Y383001D01*
X452721Y382890D01*
X452738Y382778D01*
X452752Y382665D01*
X452762Y382552D01*
X452768Y382439D01*
X452770Y382326D01*
X452768Y382213D01*
X452762Y382100D01*
X452752Y381987D01*
X452738Y381874D01*
X452721Y381762D01*
X452699Y381651D01*
X452674Y381541D01*
X452644Y381431D01*
X452611Y381323D01*
X452574Y381216D01*
X452534Y381110D01*
X452489Y381006D01*
X452441Y380903D01*
X452390Y380802D01*
X452335Y380703D01*
X452277Y380606D01*
X452215Y380511D01*
X452150Y380418D01*
X452082Y380328D01*
X452011Y380240D01*
X451936Y380154D01*
X451859Y380071D01*
X451779Y379991D01*
X451696Y379914D01*
X451610Y379839D01*
X451522Y379768D01*
X451432Y379700D01*
X451339Y379635D01*
X451244Y379573D01*
X451147Y379515D01*
X451048Y379460D01*
X450947Y379409D01*
X450844Y379361D01*
X450740Y379316D01*
X450634Y379276D01*
X450527Y379239D01*
X450419Y379206D01*
X450309Y379176D01*
X450199Y379151D01*
X450088Y379129D01*
X449976Y379112D01*
X449863Y379098D01*
X449750Y379088D01*
X449637Y379082D01*
X449524Y379080D01*
X449524Y379081D02*
X446278Y379081D01*
X450173Y379081D02*
X452769Y373888D01*
X457634Y382976D02*
X460880Y385572D01*
X460880Y373888D01*
X464125Y373888D02*
X457634Y373888D01*
X469064Y382976D02*
X472310Y385572D01*
X472310Y373888D01*
X475555Y373888D02*
X469064Y373888D01*
X502345Y373888D02*
X502345Y385572D01*
X505590Y385572D01*
X505703Y385570D01*
X505816Y385564D01*
X505929Y385554D01*
X506042Y385540D01*
X506154Y385523D01*
X506265Y385501D01*
X506375Y385476D01*
X506485Y385446D01*
X506593Y385413D01*
X506700Y385376D01*
X506806Y385336D01*
X506910Y385291D01*
X507013Y385243D01*
X507114Y385192D01*
X507213Y385137D01*
X507310Y385079D01*
X507405Y385017D01*
X507498Y384952D01*
X507588Y384884D01*
X507676Y384813D01*
X507762Y384738D01*
X507845Y384661D01*
X507925Y384581D01*
X508002Y384498D01*
X508077Y384412D01*
X508148Y384324D01*
X508216Y384234D01*
X508281Y384141D01*
X508343Y384046D01*
X508401Y383949D01*
X508456Y383850D01*
X508507Y383749D01*
X508555Y383646D01*
X508600Y383542D01*
X508640Y383436D01*
X508677Y383329D01*
X508710Y383221D01*
X508740Y383111D01*
X508765Y383001D01*
X508787Y382890D01*
X508804Y382778D01*
X508818Y382665D01*
X508828Y382552D01*
X508834Y382439D01*
X508836Y382326D01*
X508834Y382213D01*
X508828Y382100D01*
X508818Y381987D01*
X508804Y381874D01*
X508787Y381762D01*
X508765Y381651D01*
X508740Y381541D01*
X508710Y381431D01*
X508677Y381323D01*
X508640Y381216D01*
X508600Y381110D01*
X508555Y381006D01*
X508507Y380903D01*
X508456Y380802D01*
X508401Y380703D01*
X508343Y380606D01*
X508281Y380511D01*
X508216Y380418D01*
X508148Y380328D01*
X508077Y380240D01*
X508002Y380154D01*
X507925Y380071D01*
X507845Y379991D01*
X507762Y379914D01*
X507676Y379839D01*
X507588Y379768D01*
X507498Y379700D01*
X507405Y379635D01*
X507310Y379573D01*
X507213Y379515D01*
X507114Y379460D01*
X507013Y379409D01*
X506910Y379361D01*
X506806Y379316D01*
X506700Y379276D01*
X506593Y379239D01*
X506485Y379206D01*
X506375Y379176D01*
X506265Y379151D01*
X506154Y379129D01*
X506042Y379112D01*
X505929Y379098D01*
X505816Y379088D01*
X505703Y379082D01*
X505590Y379080D01*
X505590Y379081D02*
X502345Y379081D01*
X506239Y379081D02*
X508836Y373888D01*
X513701Y382976D02*
X516946Y385572D01*
X516946Y373888D01*
X513701Y373888D02*
X520192Y373888D01*
X531622Y382651D02*
X531620Y382758D01*
X531614Y382864D01*
X531604Y382970D01*
X531591Y383076D01*
X531573Y383182D01*
X531552Y383286D01*
X531527Y383390D01*
X531498Y383493D01*
X531466Y383594D01*
X531429Y383694D01*
X531389Y383793D01*
X531346Y383891D01*
X531299Y383987D01*
X531248Y384081D01*
X531194Y384173D01*
X531137Y384263D01*
X531077Y384351D01*
X531013Y384436D01*
X530946Y384519D01*
X530876Y384600D01*
X530804Y384678D01*
X530728Y384754D01*
X530650Y384826D01*
X530569Y384896D01*
X530486Y384963D01*
X530401Y385027D01*
X530313Y385087D01*
X530223Y385144D01*
X530131Y385198D01*
X530037Y385249D01*
X529941Y385296D01*
X529843Y385339D01*
X529744Y385379D01*
X529644Y385416D01*
X529543Y385448D01*
X529440Y385477D01*
X529336Y385502D01*
X529232Y385523D01*
X529126Y385541D01*
X529020Y385554D01*
X528914Y385564D01*
X528808Y385570D01*
X528701Y385572D01*
X528580Y385570D01*
X528459Y385564D01*
X528339Y385554D01*
X528218Y385541D01*
X528099Y385523D01*
X527979Y385502D01*
X527861Y385477D01*
X527744Y385448D01*
X527627Y385415D01*
X527512Y385379D01*
X527398Y385338D01*
X527285Y385295D01*
X527173Y385247D01*
X527064Y385196D01*
X526956Y385141D01*
X526849Y385083D01*
X526745Y385022D01*
X526643Y384957D01*
X526543Y384889D01*
X526445Y384818D01*
X526349Y384744D01*
X526256Y384667D01*
X526166Y384586D01*
X526078Y384503D01*
X525993Y384417D01*
X525910Y384328D01*
X525831Y384237D01*
X525754Y384143D01*
X525681Y384047D01*
X525611Y383949D01*
X525544Y383848D01*
X525480Y383745D01*
X525420Y383640D01*
X525363Y383533D01*
X525309Y383425D01*
X525259Y383315D01*
X525213Y383203D01*
X525170Y383090D01*
X525131Y382975D01*
X530649Y380379D02*
X530728Y380456D01*
X530804Y380537D01*
X530877Y380620D01*
X530947Y380705D01*
X531014Y380793D01*
X531078Y380883D01*
X531138Y380975D01*
X531195Y381070D01*
X531249Y381166D01*
X531300Y381264D01*
X531347Y381364D01*
X531391Y381466D01*
X531431Y381569D01*
X531467Y381673D01*
X531499Y381779D01*
X531528Y381885D01*
X531553Y381993D01*
X531575Y382101D01*
X531592Y382211D01*
X531606Y382320D01*
X531615Y382430D01*
X531621Y382541D01*
X531623Y382651D01*
X530648Y380379D02*
X525131Y373888D01*
X531622Y373888D01*
X502345Y450088D02*
X502345Y461772D01*
X505590Y461772D01*
X505703Y461770D01*
X505816Y461764D01*
X505929Y461754D01*
X506042Y461740D01*
X506154Y461723D01*
X506265Y461701D01*
X506375Y461676D01*
X506485Y461646D01*
X506593Y461613D01*
X506700Y461576D01*
X506806Y461536D01*
X506910Y461491D01*
X507013Y461443D01*
X507114Y461392D01*
X507213Y461337D01*
X507310Y461279D01*
X507405Y461217D01*
X507498Y461152D01*
X507588Y461084D01*
X507676Y461013D01*
X507762Y460938D01*
X507845Y460861D01*
X507925Y460781D01*
X508002Y460698D01*
X508077Y460612D01*
X508148Y460524D01*
X508216Y460434D01*
X508281Y460341D01*
X508343Y460246D01*
X508401Y460149D01*
X508456Y460050D01*
X508507Y459949D01*
X508555Y459846D01*
X508600Y459742D01*
X508640Y459636D01*
X508677Y459529D01*
X508710Y459421D01*
X508740Y459311D01*
X508765Y459201D01*
X508787Y459090D01*
X508804Y458978D01*
X508818Y458865D01*
X508828Y458752D01*
X508834Y458639D01*
X508836Y458526D01*
X508834Y458413D01*
X508828Y458300D01*
X508818Y458187D01*
X508804Y458074D01*
X508787Y457962D01*
X508765Y457851D01*
X508740Y457741D01*
X508710Y457631D01*
X508677Y457523D01*
X508640Y457416D01*
X508600Y457310D01*
X508555Y457206D01*
X508507Y457103D01*
X508456Y457002D01*
X508401Y456903D01*
X508343Y456806D01*
X508281Y456711D01*
X508216Y456618D01*
X508148Y456528D01*
X508077Y456440D01*
X508002Y456354D01*
X507925Y456271D01*
X507845Y456191D01*
X507762Y456114D01*
X507676Y456039D01*
X507588Y455968D01*
X507498Y455900D01*
X507405Y455835D01*
X507310Y455773D01*
X507213Y455715D01*
X507114Y455660D01*
X507013Y455609D01*
X506910Y455561D01*
X506806Y455516D01*
X506700Y455476D01*
X506593Y455439D01*
X506485Y455406D01*
X506375Y455376D01*
X506265Y455351D01*
X506154Y455329D01*
X506042Y455312D01*
X505929Y455298D01*
X505816Y455288D01*
X505703Y455282D01*
X505590Y455280D01*
X505590Y455281D02*
X502345Y455281D01*
X506239Y455281D02*
X508836Y450088D01*
X513701Y459176D02*
X516946Y461772D01*
X516946Y450088D01*
X513701Y450088D02*
X520192Y450088D01*
X525131Y450088D02*
X528376Y450088D01*
X528489Y450090D01*
X528602Y450096D01*
X528715Y450106D01*
X528828Y450120D01*
X528940Y450137D01*
X529051Y450159D01*
X529161Y450184D01*
X529271Y450214D01*
X529379Y450247D01*
X529486Y450284D01*
X529592Y450324D01*
X529696Y450369D01*
X529799Y450417D01*
X529900Y450468D01*
X529999Y450523D01*
X530096Y450581D01*
X530191Y450643D01*
X530284Y450708D01*
X530374Y450776D01*
X530462Y450847D01*
X530548Y450922D01*
X530631Y450999D01*
X530711Y451079D01*
X530788Y451162D01*
X530863Y451248D01*
X530934Y451336D01*
X531002Y451426D01*
X531067Y451519D01*
X531129Y451614D01*
X531187Y451711D01*
X531242Y451810D01*
X531293Y451911D01*
X531341Y452014D01*
X531386Y452118D01*
X531426Y452224D01*
X531463Y452331D01*
X531496Y452439D01*
X531526Y452549D01*
X531551Y452659D01*
X531573Y452770D01*
X531590Y452882D01*
X531604Y452995D01*
X531614Y453108D01*
X531620Y453221D01*
X531622Y453334D01*
X531620Y453447D01*
X531614Y453560D01*
X531604Y453673D01*
X531590Y453786D01*
X531573Y453898D01*
X531551Y454009D01*
X531526Y454119D01*
X531496Y454229D01*
X531463Y454337D01*
X531426Y454444D01*
X531386Y454550D01*
X531341Y454654D01*
X531293Y454757D01*
X531242Y454858D01*
X531187Y454957D01*
X531129Y455054D01*
X531067Y455149D01*
X531002Y455242D01*
X530934Y455332D01*
X530863Y455420D01*
X530788Y455506D01*
X530711Y455589D01*
X530631Y455669D01*
X530548Y455746D01*
X530462Y455821D01*
X530374Y455892D01*
X530284Y455960D01*
X530191Y456025D01*
X530096Y456087D01*
X529999Y456145D01*
X529900Y456200D01*
X529799Y456251D01*
X529696Y456299D01*
X529592Y456344D01*
X529486Y456384D01*
X529379Y456421D01*
X529271Y456454D01*
X529161Y456484D01*
X529051Y456509D01*
X528940Y456531D01*
X528828Y456548D01*
X528715Y456562D01*
X528602Y456572D01*
X528489Y456578D01*
X528376Y456580D01*
X529026Y461772D02*
X525131Y461772D01*
X529026Y461772D02*
X529127Y461770D01*
X529227Y461764D01*
X529327Y461754D01*
X529427Y461741D01*
X529526Y461723D01*
X529625Y461702D01*
X529722Y461677D01*
X529819Y461648D01*
X529914Y461615D01*
X530008Y461579D01*
X530100Y461539D01*
X530191Y461496D01*
X530280Y461449D01*
X530367Y461399D01*
X530453Y461345D01*
X530536Y461288D01*
X530616Y461228D01*
X530695Y461165D01*
X530771Y461098D01*
X530844Y461029D01*
X530914Y460957D01*
X530982Y460883D01*
X531047Y460806D01*
X531108Y460726D01*
X531167Y460644D01*
X531222Y460560D01*
X531274Y460474D01*
X531323Y460386D01*
X531368Y460296D01*
X531410Y460204D01*
X531448Y460111D01*
X531482Y460016D01*
X531513Y459921D01*
X531540Y459824D01*
X531563Y459726D01*
X531583Y459627D01*
X531598Y459527D01*
X531610Y459427D01*
X531618Y459327D01*
X531622Y459226D01*
X531622Y459126D01*
X531618Y459025D01*
X531610Y458925D01*
X531598Y458825D01*
X531583Y458725D01*
X531563Y458626D01*
X531540Y458528D01*
X531513Y458431D01*
X531482Y458336D01*
X531448Y458241D01*
X531410Y458148D01*
X531368Y458056D01*
X531323Y457966D01*
X531274Y457878D01*
X531222Y457792D01*
X531167Y457708D01*
X531108Y457626D01*
X531047Y457546D01*
X530982Y457469D01*
X530914Y457395D01*
X530844Y457323D01*
X530771Y457254D01*
X530695Y457187D01*
X530616Y457124D01*
X530536Y457064D01*
X530453Y457007D01*
X530367Y456953D01*
X530280Y456903D01*
X530191Y456856D01*
X530100Y456813D01*
X530008Y456773D01*
X529914Y456737D01*
X529819Y456704D01*
X529722Y456675D01*
X529625Y456650D01*
X529526Y456629D01*
X529427Y456611D01*
X529327Y456598D01*
X529227Y456588D01*
X529127Y456582D01*
X529026Y456580D01*
X529026Y456579D02*
X526429Y456579D01*
X502158Y488188D02*
X502158Y499872D01*
X505404Y499872D01*
X505517Y499870D01*
X505630Y499864D01*
X505743Y499854D01*
X505856Y499840D01*
X505968Y499823D01*
X506079Y499801D01*
X506189Y499776D01*
X506299Y499746D01*
X506407Y499713D01*
X506514Y499676D01*
X506620Y499636D01*
X506724Y499591D01*
X506827Y499543D01*
X506928Y499492D01*
X507027Y499437D01*
X507124Y499379D01*
X507219Y499317D01*
X507312Y499252D01*
X507402Y499184D01*
X507490Y499113D01*
X507576Y499038D01*
X507659Y498961D01*
X507739Y498881D01*
X507816Y498798D01*
X507891Y498712D01*
X507962Y498624D01*
X508030Y498534D01*
X508095Y498441D01*
X508157Y498346D01*
X508215Y498249D01*
X508270Y498150D01*
X508321Y498049D01*
X508369Y497946D01*
X508414Y497842D01*
X508454Y497736D01*
X508491Y497629D01*
X508524Y497521D01*
X508554Y497411D01*
X508579Y497301D01*
X508601Y497190D01*
X508618Y497078D01*
X508632Y496965D01*
X508642Y496852D01*
X508648Y496739D01*
X508650Y496626D01*
X508648Y496513D01*
X508642Y496400D01*
X508632Y496287D01*
X508618Y496174D01*
X508601Y496062D01*
X508579Y495951D01*
X508554Y495841D01*
X508524Y495731D01*
X508491Y495623D01*
X508454Y495516D01*
X508414Y495410D01*
X508369Y495306D01*
X508321Y495203D01*
X508270Y495102D01*
X508215Y495003D01*
X508157Y494906D01*
X508095Y494811D01*
X508030Y494718D01*
X507962Y494628D01*
X507891Y494540D01*
X507816Y494454D01*
X507739Y494371D01*
X507659Y494291D01*
X507576Y494214D01*
X507490Y494139D01*
X507402Y494068D01*
X507312Y494000D01*
X507219Y493935D01*
X507124Y493873D01*
X507027Y493815D01*
X506928Y493760D01*
X506827Y493709D01*
X506724Y493661D01*
X506620Y493616D01*
X506514Y493576D01*
X506407Y493539D01*
X506299Y493506D01*
X506189Y493476D01*
X506079Y493451D01*
X505968Y493429D01*
X505856Y493412D01*
X505743Y493398D01*
X505630Y493388D01*
X505517Y493382D01*
X505404Y493380D01*
X505404Y493381D02*
X502158Y493381D01*
X506053Y493381D02*
X508649Y488188D01*
X513514Y497276D02*
X516760Y499872D01*
X516760Y488188D01*
X520005Y488188D02*
X513514Y488188D01*
X524944Y490784D02*
X527541Y499872D01*
X524944Y490784D02*
X531435Y490784D01*
X529488Y493381D02*
X529488Y488188D01*
M02*
