G04 EAGLE Gerber RS-274X export*
G75*
%MOMM*%
%FSLAX34Y34*%
%LPD*%
%INSoldermask Bottom*%
%IPPOS*%
%AMOC8*
5,1,8,0,0,1.08239X$1,22.5*%
G01*
%ADD10P,1.951982X8X22.500000*%
%ADD11C,2.978200*%
%ADD12C,3.253200*%
%ADD13R,2.908300X2.908300*%
%ADD14C,3.200400*%
%ADD15R,1.511200X1.511200*%
%ADD16C,1.511200*%
%ADD17C,0.959600*%


D10*
X33020Y60960D03*
X33020Y86360D03*
X33020Y111760D03*
X33020Y137160D03*
X33020Y162560D03*
X33020Y187960D03*
X33020Y213360D03*
X33020Y238760D03*
X33020Y264160D03*
X33020Y289560D03*
X33020Y314960D03*
X33020Y340360D03*
X33020Y365760D03*
X33020Y391160D03*
X33020Y416560D03*
X33020Y441960D03*
X604520Y60960D03*
X604520Y86360D03*
X604520Y111760D03*
X604520Y137160D03*
X604520Y162560D03*
X604520Y187960D03*
X604520Y213360D03*
X604520Y238760D03*
X604520Y264160D03*
X604520Y289560D03*
X604520Y314960D03*
D11*
X535940Y149860D03*
X493940Y149860D03*
X535940Y204860D03*
X493940Y204860D03*
D12*
X514940Y76860D03*
D13*
X422008Y150546D03*
D14*
X422008Y77648D03*
D13*
X422008Y205664D03*
D15*
X515620Y307340D03*
D16*
X515620Y257340D03*
D17*
X233680Y266700D03*
X93980Y137160D03*
X271780Y299720D03*
X55880Y383540D03*
X160020Y347980D03*
X170180Y289560D03*
X55880Y345440D03*
X121920Y86360D03*
X220980Y165100D03*
X373380Y58420D03*
X182880Y205740D03*
X187960Y81280D03*
X55880Y312420D03*
X101600Y472440D03*
X375920Y167640D03*
X218440Y434340D03*
X147320Y292100D03*
X139700Y241300D03*
X576580Y259080D03*
X436880Y386080D03*
X449580Y419100D03*
X530860Y416560D03*
X558800Y477520D03*
X134620Y152400D03*
X116840Y294640D03*
X147320Y83820D03*
X485140Y370840D03*
X429260Y335280D03*
X429260Y360680D03*
X429260Y411480D03*
X429260Y464820D03*
X185420Y447040D03*
X340360Y454660D03*
X340360Y381000D03*
X342900Y327660D03*
X365760Y388620D03*
X310718Y342900D03*
X307340Y375920D03*
X333068Y414020D03*
M02*
