M48
;GenerationSoftware,Autodesk,EAGLE,9.6.2*%
;CreationDate,2022-03-31T17:54:51Z*%
FMAT,2
ICI,OFF
METRIC,TZ,000.000
T7C0.350
T6C0.800
T5C0.914
T4C1.803
T3C1.850
T2C2.997
T1C3.050
%
G90
M71
T1
X51494Y7686
T2
X42201Y7765
T3
X53594Y14986
X49394Y14986
X53594Y20486
X49394Y20486
T4
X42201Y15055
X42201Y20566
T5
X3302Y16256
X3302Y18796
X3302Y23876
X3302Y26416
X3302Y28956
X3302Y31496
X3302Y34036
X3302Y36576
X3302Y39116
X3302Y41656
X3302Y44196
X60452Y6096
X60452Y8636
X60452Y11176
X60452Y13716
X60452Y16256
X60452Y18796
X60452Y21336
X60452Y23876
X60452Y26416
X60452Y31496
X3302Y21336
X60452Y28956
X3302Y6096
X3302Y8636
X3302Y11176
X3302Y13716
T6
X51562Y30734
X51562Y25734
T7
X30734Y37592
X37338Y5842
X23368Y26670
X9398Y13716
X27178Y29972
X5588Y38354
X16002Y34798
X17018Y28956
X5588Y34544
X12192Y8636
X33307Y41402
X22098Y16510
X18288Y20574
X18796Y8128
X5588Y31242
X10160Y47244
X37592Y16764
X21844Y43434
X14732Y29210
X13970Y24130
X57658Y25908
X43688Y38608
X44958Y41910
X53086Y41656
X55880Y47752
X13462Y15240
X11684Y29464
X14732Y8382
X48514Y37084
X42926Y41148
X42926Y33528
X42926Y36068
X42926Y46482
X18542Y44704
X34036Y45466
X34036Y38100
X34290Y32766
X36576Y38862
X31072Y34290
M30