G04 EAGLE Gerber RS-274X export*
G75*
%MOMM*%
%FSLAX34Y34*%
%LPD*%
%INSolderpaste Top*%
%IPPOS*%
%AMOC8*
5,1,8,0,0,1.08239X$1,22.5*%
G01*
%ADD10R,1.300000X1.500000*%
%ADD11R,1.778000X0.431800*%
%ADD12R,0.800000X1.600000*%
%ADD13R,2.100000X3.000000*%
%ADD14R,1.425000X0.300000*%
%ADD15R,1.680000X1.880000*%
%ADD16R,1.500000X1.300000*%
%ADD17R,1.000000X1.000000*%


D10*
X328320Y330200D03*
X347320Y330200D03*
X328320Y381000D03*
X347320Y381000D03*
X532740Y467360D03*
X513740Y467360D03*
X513740Y441960D03*
X532740Y441960D03*
X532740Y391160D03*
X513740Y391160D03*
X532740Y416560D03*
X513740Y416560D03*
X349860Y444500D03*
X330860Y444500D03*
X330860Y469900D03*
X349860Y469900D03*
X328320Y406400D03*
X347320Y406400D03*
X347320Y355600D03*
X328320Y355600D03*
D11*
X413893Y469490D03*
X413893Y462990D03*
X413893Y456490D03*
X413893Y449990D03*
X454787Y449990D03*
X454787Y456490D03*
X454787Y462990D03*
X454787Y469490D03*
X413893Y405990D03*
X413893Y399490D03*
X413893Y392990D03*
X413893Y386490D03*
X454787Y386490D03*
X454787Y392990D03*
X454787Y399490D03*
X454787Y405990D03*
D12*
X241700Y53340D03*
X254200Y53340D03*
X266700Y53340D03*
X279200Y53340D03*
X291700Y53340D03*
D13*
X216100Y25840D03*
X317300Y25840D03*
D12*
X96920Y53340D03*
X109420Y53340D03*
X121920Y53340D03*
X134420Y53340D03*
X146920Y53340D03*
D13*
X71320Y25840D03*
X172520Y25840D03*
D14*
X150600Y269080D03*
X150600Y264080D03*
X150600Y259080D03*
X150600Y254080D03*
X150600Y249080D03*
X194840Y249080D03*
X194840Y254080D03*
X194840Y259080D03*
X194840Y264080D03*
X194840Y269080D03*
D15*
X172720Y259080D03*
D14*
X197380Y449740D03*
X197380Y454740D03*
X197380Y459740D03*
X197380Y464740D03*
X197380Y469740D03*
X153140Y469740D03*
X153140Y464740D03*
X153140Y459740D03*
X153140Y454740D03*
X153140Y449740D03*
D15*
X175260Y459740D03*
D16*
X172720Y327000D03*
X172720Y308000D03*
X139700Y413360D03*
X139700Y394360D03*
X241300Y327000D03*
X241300Y308000D03*
X175260Y394360D03*
X175260Y413360D03*
X106680Y413360D03*
X106680Y394360D03*
X106680Y327000D03*
X106680Y308000D03*
X208280Y327000D03*
X208280Y308000D03*
X208280Y413360D03*
X208280Y394360D03*
D17*
X139700Y327500D03*
X139700Y307500D03*
X241300Y393860D03*
X241300Y413860D03*
M02*
