G04 EAGLE Gerber RS-274X export*
G75*
%MOMM*%
%FSLAX34Y34*%
%LPD*%
%INBottom Copper*%
%IPPOS*%
%AMOC8*
5,1,8,0,0,1.08239X$1,22.5*%
G01*
%ADD10P,1.732040X8X22.500000*%
%ADD11C,2.775000*%
%ADD12R,2.705100X2.705100*%
%ADD13R,1.308000X1.308000*%
%ADD14C,1.308000*%
%ADD15C,0.756400*%
%ADD16C,0.152400*%
%ADD17C,2.540000*%
%ADD18C,3.810000*%

G36*
X623898Y10164D02*
X623898Y10164D01*
X623917Y10162D01*
X624019Y10184D01*
X624121Y10200D01*
X624138Y10210D01*
X624158Y10214D01*
X624247Y10267D01*
X624338Y10316D01*
X624352Y10330D01*
X624369Y10340D01*
X624436Y10419D01*
X624508Y10494D01*
X624516Y10512D01*
X624529Y10527D01*
X624568Y10623D01*
X624611Y10717D01*
X624613Y10737D01*
X624621Y10755D01*
X624639Y10922D01*
X624639Y105916D01*
X624624Y106012D01*
X624614Y106109D01*
X624604Y106133D01*
X624600Y106159D01*
X624554Y106245D01*
X624514Y106334D01*
X624497Y106353D01*
X624484Y106376D01*
X624414Y106443D01*
X624348Y106515D01*
X624325Y106527D01*
X624306Y106545D01*
X624218Y106586D01*
X624132Y106633D01*
X624107Y106638D01*
X624083Y106649D01*
X623986Y106660D01*
X623890Y106677D01*
X623864Y106673D01*
X623839Y106676D01*
X623743Y106655D01*
X623647Y106641D01*
X623624Y106629D01*
X623598Y106624D01*
X623515Y106574D01*
X623428Y106530D01*
X623409Y106511D01*
X623387Y106498D01*
X623324Y106424D01*
X623256Y106354D01*
X623240Y106326D01*
X623227Y106311D01*
X623215Y106280D01*
X623175Y106207D01*
X621962Y103280D01*
X616175Y97493D01*
X610640Y95200D01*
X610601Y95176D01*
X610558Y95160D01*
X610497Y95111D01*
X610431Y95070D01*
X610402Y95035D01*
X610366Y95006D01*
X610324Y94941D01*
X610274Y94881D01*
X610258Y94838D01*
X610233Y94799D01*
X610214Y94724D01*
X610186Y94651D01*
X610184Y94605D01*
X610173Y94561D01*
X610179Y94483D01*
X610175Y94406D01*
X610188Y94361D01*
X610192Y94316D01*
X610222Y94244D01*
X610244Y94169D01*
X610270Y94132D01*
X610288Y94089D01*
X610374Y93983D01*
X610384Y93967D01*
X610388Y93964D01*
X610393Y93958D01*
X614046Y90306D01*
X614046Y82414D01*
X608466Y76834D01*
X600574Y76834D01*
X594994Y82414D01*
X594994Y86311D01*
X594993Y86320D01*
X594993Y86325D01*
X594988Y86351D01*
X594983Y86381D01*
X594981Y86453D01*
X594963Y86502D01*
X594955Y86553D01*
X594921Y86617D01*
X594896Y86684D01*
X594864Y86725D01*
X594839Y86771D01*
X594787Y86820D01*
X594743Y86876D01*
X594699Y86904D01*
X594661Y86940D01*
X594596Y86970D01*
X594536Y87009D01*
X594485Y87022D01*
X594438Y87044D01*
X594367Y87052D01*
X594297Y87069D01*
X594245Y87065D01*
X594194Y87071D01*
X594123Y87056D01*
X594052Y87050D01*
X594004Y87030D01*
X593953Y87019D01*
X593892Y86982D01*
X593826Y86954D01*
X593770Y86909D01*
X593742Y86892D01*
X593727Y86875D01*
X593695Y86849D01*
X580198Y73352D01*
X580145Y73278D01*
X580085Y73208D01*
X580073Y73178D01*
X580054Y73152D01*
X580027Y73065D01*
X579993Y72980D01*
X579989Y72939D01*
X579982Y72917D01*
X579983Y72885D01*
X579975Y72814D01*
X579975Y54351D01*
X576842Y46789D01*
X545011Y14958D01*
X537449Y11825D01*
X492431Y11825D01*
X484869Y14958D01*
X453038Y46789D01*
X449905Y54351D01*
X449905Y99369D01*
X453038Y106931D01*
X473142Y127035D01*
X473195Y127109D01*
X473255Y127179D01*
X473267Y127209D01*
X473286Y127235D01*
X473313Y127322D01*
X473347Y127407D01*
X473351Y127448D01*
X473358Y127470D01*
X473357Y127502D01*
X473365Y127574D01*
X473365Y153953D01*
X476498Y161515D01*
X482285Y167302D01*
X489847Y170435D01*
X498033Y170435D01*
X505595Y167302D01*
X511382Y161515D01*
X514515Y153953D01*
X514515Y114643D01*
X511382Y107081D01*
X506742Y102441D01*
X506714Y102402D01*
X506679Y102370D01*
X506643Y102303D01*
X506599Y102241D01*
X506585Y102196D01*
X506562Y102153D01*
X506549Y102079D01*
X506526Y102006D01*
X506528Y101958D01*
X506519Y101911D01*
X506531Y101836D01*
X506533Y101760D01*
X506549Y101715D01*
X506556Y101668D01*
X506591Y101601D01*
X506617Y101529D01*
X506647Y101492D01*
X506669Y101449D01*
X506723Y101397D01*
X506771Y101337D01*
X506811Y101311D01*
X506846Y101278D01*
X506914Y101245D01*
X506978Y101204D01*
X507024Y101193D01*
X507068Y101172D01*
X507143Y101163D01*
X507216Y101144D01*
X507264Y101148D01*
X507312Y101142D01*
X507439Y101162D01*
X507462Y101163D01*
X507468Y101166D01*
X507478Y101168D01*
X511595Y102271D01*
X518285Y102271D01*
X524748Y100539D01*
X530543Y97194D01*
X535274Y92463D01*
X538190Y87411D01*
X538204Y87394D01*
X538213Y87374D01*
X538245Y87339D01*
X538258Y87317D01*
X538287Y87292D01*
X538346Y87221D01*
X538365Y87209D01*
X538380Y87193D01*
X538469Y87144D01*
X538554Y87090D01*
X538576Y87085D01*
X538595Y87074D01*
X538695Y87056D01*
X538794Y87032D01*
X538815Y87034D01*
X538837Y87030D01*
X538938Y87045D01*
X539039Y87054D01*
X539059Y87063D01*
X539080Y87066D01*
X539171Y87112D01*
X539264Y87153D01*
X539280Y87168D01*
X539300Y87178D01*
X539371Y87250D01*
X539446Y87318D01*
X539457Y87337D01*
X539472Y87353D01*
X539553Y87500D01*
X541958Y93306D01*
X581029Y132377D01*
X588591Y135510D01*
X589534Y135510D01*
X589554Y135513D01*
X589573Y135511D01*
X589675Y135533D01*
X589777Y135549D01*
X589794Y135559D01*
X589814Y135563D01*
X589903Y135616D01*
X589994Y135665D01*
X590008Y135679D01*
X590025Y135689D01*
X590092Y135768D01*
X590164Y135843D01*
X590172Y135861D01*
X590185Y135876D01*
X590223Y135972D01*
X590267Y136066D01*
X590269Y136086D01*
X590277Y136104D01*
X590295Y136271D01*
X590295Y139989D01*
X592461Y145218D01*
X596462Y149219D01*
X601691Y151385D01*
X607349Y151385D01*
X612578Y149219D01*
X616579Y145218D01*
X618745Y139989D01*
X618745Y130123D01*
X618759Y130033D01*
X618767Y129942D01*
X618779Y129912D01*
X618784Y129880D01*
X618827Y129799D01*
X618863Y129715D01*
X618889Y129683D01*
X618900Y129663D01*
X618923Y129640D01*
X618968Y129584D01*
X621962Y126590D01*
X623175Y123663D01*
X623226Y123580D01*
X623272Y123494D01*
X623291Y123476D01*
X623304Y123454D01*
X623379Y123392D01*
X623450Y123325D01*
X623474Y123314D01*
X623494Y123297D01*
X623585Y123262D01*
X623673Y123221D01*
X623699Y123218D01*
X623723Y123209D01*
X623821Y123205D01*
X623917Y123194D01*
X623943Y123199D01*
X623969Y123198D01*
X624063Y123226D01*
X624158Y123246D01*
X624180Y123260D01*
X624205Y123267D01*
X624285Y123322D01*
X624369Y123372D01*
X624386Y123392D01*
X624407Y123407D01*
X624466Y123485D01*
X624529Y123559D01*
X624539Y123584D01*
X624554Y123605D01*
X624584Y123697D01*
X624621Y123787D01*
X624624Y123820D01*
X624630Y123838D01*
X624630Y123871D01*
X624639Y123954D01*
X624639Y493778D01*
X624636Y493798D01*
X624638Y493817D01*
X624616Y493919D01*
X624600Y494021D01*
X624590Y494038D01*
X624586Y494058D01*
X624533Y494147D01*
X624484Y494238D01*
X624470Y494252D01*
X624460Y494269D01*
X624381Y494336D01*
X624306Y494408D01*
X624288Y494416D01*
X624273Y494429D01*
X624177Y494468D01*
X624083Y494511D01*
X624063Y494513D01*
X624045Y494521D01*
X623878Y494539D01*
X10922Y494539D01*
X10902Y494536D01*
X10883Y494538D01*
X10781Y494516D01*
X10679Y494500D01*
X10662Y494490D01*
X10642Y494486D01*
X10553Y494433D01*
X10462Y494384D01*
X10448Y494370D01*
X10431Y494360D01*
X10364Y494281D01*
X10292Y494206D01*
X10284Y494188D01*
X10271Y494173D01*
X10232Y494077D01*
X10189Y493983D01*
X10187Y493963D01*
X10179Y493945D01*
X10161Y493778D01*
X10161Y10922D01*
X10164Y10902D01*
X10162Y10883D01*
X10184Y10781D01*
X10200Y10679D01*
X10210Y10662D01*
X10214Y10642D01*
X10267Y10553D01*
X10316Y10462D01*
X10330Y10448D01*
X10340Y10431D01*
X10419Y10364D01*
X10494Y10292D01*
X10512Y10284D01*
X10527Y10271D01*
X10623Y10232D01*
X10717Y10189D01*
X10737Y10187D01*
X10755Y10179D01*
X10922Y10161D01*
X623878Y10161D01*
X623898Y10164D01*
G37*
%LPC*%
G36*
X339439Y319305D02*
X339439Y319305D01*
X337877Y320868D01*
X318354Y340390D01*
X318280Y340443D01*
X318211Y340503D01*
X318181Y340515D01*
X318155Y340534D01*
X318068Y340561D01*
X317983Y340595D01*
X317942Y340599D01*
X317919Y340606D01*
X317887Y340605D01*
X317816Y340613D01*
X316251Y340613D01*
X316161Y340599D01*
X316070Y340591D01*
X316041Y340579D01*
X316009Y340574D01*
X315928Y340531D01*
X315844Y340495D01*
X315812Y340469D01*
X315791Y340458D01*
X315769Y340435D01*
X315713Y340390D01*
X312916Y337593D01*
X308520Y337593D01*
X305411Y340702D01*
X305411Y345098D01*
X308520Y348207D01*
X312916Y348207D01*
X315713Y345410D01*
X315787Y345357D01*
X315857Y345297D01*
X315887Y345285D01*
X315913Y345266D01*
X316000Y345239D01*
X316085Y345205D01*
X316126Y345201D01*
X316148Y345194D01*
X316180Y345195D01*
X316251Y345187D01*
X320026Y345187D01*
X321588Y343624D01*
X336294Y328919D01*
X336352Y328877D01*
X336404Y328827D01*
X336451Y328805D01*
X336493Y328775D01*
X336562Y328754D01*
X336627Y328724D01*
X336679Y328718D01*
X336729Y328703D01*
X336800Y328705D01*
X336871Y328697D01*
X336922Y328708D01*
X336974Y328709D01*
X337042Y328734D01*
X337112Y328749D01*
X337156Y328776D01*
X337205Y328794D01*
X337261Y328838D01*
X337323Y328875D01*
X337357Y328915D01*
X337397Y328947D01*
X337436Y329008D01*
X337483Y329062D01*
X337502Y329110D01*
X337530Y329154D01*
X337548Y329224D01*
X337575Y329290D01*
X337583Y329362D01*
X337591Y329393D01*
X337589Y329416D01*
X337593Y329457D01*
X337593Y329858D01*
X337850Y330115D01*
X337893Y330175D01*
X337935Y330219D01*
X337942Y330235D01*
X337963Y330259D01*
X337975Y330289D01*
X337994Y330315D01*
X338021Y330402D01*
X338024Y330411D01*
X338039Y330442D01*
X338039Y330449D01*
X338055Y330487D01*
X338059Y330528D01*
X338066Y330550D01*
X338065Y330582D01*
X338073Y330653D01*
X338073Y375467D01*
X338059Y375557D01*
X338051Y375648D01*
X338039Y375677D01*
X338034Y375709D01*
X337991Y375790D01*
X337955Y375874D01*
X337929Y375906D01*
X337918Y375927D01*
X337895Y375949D01*
X337850Y376005D01*
X335053Y378802D01*
X335053Y383198D01*
X337850Y385995D01*
X337903Y386069D01*
X337963Y386139D01*
X337975Y386169D01*
X337994Y386195D01*
X338021Y386282D01*
X338055Y386367D01*
X338059Y386408D01*
X338066Y386430D01*
X338065Y386462D01*
X338073Y386533D01*
X338073Y409683D01*
X338062Y409753D01*
X338060Y409825D01*
X338042Y409874D01*
X338034Y409925D01*
X338000Y409989D01*
X337975Y410056D01*
X337943Y410097D01*
X337918Y410143D01*
X337866Y410192D01*
X337822Y410248D01*
X337778Y410276D01*
X337740Y410312D01*
X337675Y410342D01*
X337615Y410381D01*
X337564Y410394D01*
X337517Y410416D01*
X337446Y410424D01*
X337376Y410441D01*
X337324Y410437D01*
X337273Y410443D01*
X337202Y410428D01*
X337131Y410422D01*
X337083Y410402D01*
X337032Y410391D01*
X336971Y410354D01*
X336905Y410326D01*
X336849Y410281D01*
X336821Y410264D01*
X336806Y410247D01*
X336774Y410221D01*
X335250Y408697D01*
X335197Y408623D01*
X335137Y408553D01*
X335125Y408523D01*
X335106Y408497D01*
X335079Y408410D01*
X335045Y408325D01*
X335041Y408284D01*
X335034Y408262D01*
X335035Y408230D01*
X335027Y408159D01*
X335027Y400373D01*
X312870Y378216D01*
X312817Y378142D01*
X312757Y378072D01*
X312745Y378042D01*
X312726Y378016D01*
X312699Y377929D01*
X312665Y377844D01*
X312661Y377803D01*
X312654Y377781D01*
X312655Y377749D01*
X312647Y377677D01*
X312647Y373722D01*
X309538Y370613D01*
X305142Y370613D01*
X302033Y373722D01*
X302033Y378118D01*
X305142Y381227D01*
X309097Y381227D01*
X309188Y381241D01*
X309278Y381249D01*
X309308Y381261D01*
X309340Y381266D01*
X309421Y381309D01*
X309505Y381345D01*
X309537Y381371D01*
X309558Y381382D01*
X309580Y381405D01*
X309636Y381450D01*
X330230Y402044D01*
X330283Y402118D01*
X330343Y402188D01*
X330355Y402218D01*
X330374Y402244D01*
X330401Y402331D01*
X330435Y402416D01*
X330439Y402457D01*
X330446Y402479D01*
X330445Y402511D01*
X330453Y402583D01*
X330453Y408815D01*
X330439Y408905D01*
X330431Y408996D01*
X330419Y409025D01*
X330414Y409057D01*
X330371Y409138D01*
X330335Y409222D01*
X330309Y409254D01*
X330298Y409275D01*
X330275Y409297D01*
X330230Y409353D01*
X327761Y411822D01*
X327761Y416218D01*
X330870Y419327D01*
X335266Y419327D01*
X336774Y417819D01*
X336832Y417777D01*
X336884Y417728D01*
X336931Y417706D01*
X336973Y417676D01*
X337042Y417654D01*
X337107Y417624D01*
X337159Y417619D01*
X337209Y417603D01*
X337280Y417605D01*
X337351Y417597D01*
X337402Y417608D01*
X337454Y417610D01*
X337522Y417634D01*
X337592Y417649D01*
X337637Y417676D01*
X337685Y417694D01*
X337741Y417739D01*
X337803Y417776D01*
X337837Y417815D01*
X337877Y417848D01*
X337916Y417908D01*
X337963Y417963D01*
X337982Y418011D01*
X338010Y418055D01*
X338028Y418124D01*
X338055Y418191D01*
X338063Y418262D01*
X338071Y418293D01*
X338069Y418316D01*
X338073Y418357D01*
X338073Y447302D01*
X338062Y447372D01*
X338060Y447444D01*
X338042Y447493D01*
X338034Y447544D01*
X338000Y447608D01*
X337975Y447675D01*
X337943Y447716D01*
X337918Y447762D01*
X337866Y447811D01*
X337822Y447867D01*
X337778Y447895D01*
X337740Y447931D01*
X337675Y447961D01*
X337615Y448000D01*
X337564Y448013D01*
X337517Y448035D01*
X337446Y448043D01*
X337376Y448060D01*
X337324Y448056D01*
X337273Y448062D01*
X337202Y448047D01*
X337131Y448041D01*
X337083Y448021D01*
X337032Y448010D01*
X336971Y447973D01*
X336905Y447945D01*
X336849Y447900D01*
X336821Y447883D01*
X336806Y447866D01*
X336774Y447840D01*
X335250Y446316D01*
X333687Y444753D01*
X190953Y444753D01*
X190863Y444739D01*
X190772Y444731D01*
X190743Y444719D01*
X190711Y444714D01*
X190630Y444671D01*
X190546Y444635D01*
X190514Y444609D01*
X190493Y444598D01*
X190471Y444575D01*
X190415Y444530D01*
X187618Y441733D01*
X183222Y441733D01*
X180113Y444842D01*
X180113Y449238D01*
X183222Y452347D01*
X187618Y452347D01*
X190415Y449550D01*
X190489Y449497D01*
X190559Y449437D01*
X190589Y449425D01*
X190615Y449406D01*
X190702Y449379D01*
X190787Y449345D01*
X190828Y449341D01*
X190850Y449334D01*
X190882Y449335D01*
X190953Y449327D01*
X331477Y449327D01*
X331568Y449341D01*
X331658Y449349D01*
X331688Y449361D01*
X331720Y449366D01*
X331801Y449409D01*
X331885Y449445D01*
X331917Y449471D01*
X331938Y449482D01*
X331960Y449505D01*
X332016Y449550D01*
X334830Y452364D01*
X334883Y452438D01*
X334943Y452508D01*
X334955Y452538D01*
X334974Y452564D01*
X335001Y452651D01*
X335035Y452736D01*
X335039Y452777D01*
X335046Y452799D01*
X335045Y452831D01*
X335053Y452903D01*
X335053Y456858D01*
X338162Y459967D01*
X342558Y459967D01*
X345667Y456858D01*
X345667Y452462D01*
X342870Y449665D01*
X342817Y449591D01*
X342757Y449521D01*
X342745Y449491D01*
X342726Y449465D01*
X342699Y449378D01*
X342665Y449293D01*
X342661Y449252D01*
X342654Y449230D01*
X342655Y449198D01*
X342647Y449127D01*
X342647Y386533D01*
X342661Y386443D01*
X342669Y386352D01*
X342681Y386323D01*
X342686Y386291D01*
X342729Y386210D01*
X342765Y386126D01*
X342791Y386094D01*
X342802Y386073D01*
X342825Y386051D01*
X342870Y385995D01*
X345667Y383198D01*
X345667Y378802D01*
X342870Y376005D01*
X342817Y375931D01*
X342757Y375861D01*
X342745Y375831D01*
X342726Y375805D01*
X342699Y375718D01*
X342665Y375633D01*
X342661Y375592D01*
X342654Y375570D01*
X342655Y375538D01*
X342647Y375467D01*
X342647Y333728D01*
X342650Y333708D01*
X342648Y333689D01*
X342670Y333587D01*
X342686Y333485D01*
X342696Y333468D01*
X342700Y333448D01*
X342753Y333359D01*
X342802Y333268D01*
X342816Y333254D01*
X342826Y333237D01*
X342905Y333170D01*
X342980Y333098D01*
X342998Y333090D01*
X343013Y333077D01*
X343109Y333038D01*
X343203Y332995D01*
X343223Y332993D01*
X343241Y332985D01*
X343408Y332967D01*
X345098Y332967D01*
X345382Y332683D01*
X345440Y332641D01*
X345492Y332592D01*
X345539Y332570D01*
X345581Y332540D01*
X345650Y332518D01*
X345715Y332488D01*
X345767Y332483D01*
X345817Y332467D01*
X345888Y332469D01*
X345959Y332461D01*
X346010Y332472D01*
X346062Y332474D01*
X346130Y332498D01*
X346200Y332513D01*
X346245Y332540D01*
X346293Y332558D01*
X346349Y332603D01*
X346411Y332640D01*
X346445Y332679D01*
X346485Y332712D01*
X346524Y332772D01*
X346571Y332827D01*
X346590Y332875D01*
X346618Y332919D01*
X346636Y332988D01*
X346663Y333055D01*
X346671Y333126D01*
X346679Y333157D01*
X346677Y333180D01*
X346681Y333221D01*
X346681Y372775D01*
X360230Y386324D01*
X360283Y386398D01*
X360343Y386468D01*
X360355Y386498D01*
X360374Y386524D01*
X360401Y386611D01*
X360435Y386696D01*
X360439Y386737D01*
X360446Y386759D01*
X360445Y386791D01*
X360453Y386863D01*
X360453Y390818D01*
X363562Y393927D01*
X367958Y393927D01*
X371067Y390818D01*
X371067Y386422D01*
X367958Y383313D01*
X364003Y383313D01*
X363912Y383299D01*
X363822Y383291D01*
X363792Y383279D01*
X363760Y383274D01*
X363679Y383231D01*
X363595Y383195D01*
X363563Y383169D01*
X363542Y383158D01*
X363520Y383135D01*
X363464Y383090D01*
X351478Y371104D01*
X351425Y371030D01*
X351365Y370960D01*
X351353Y370930D01*
X351334Y370904D01*
X351307Y370817D01*
X351273Y370732D01*
X351269Y370691D01*
X351262Y370669D01*
X351263Y370637D01*
X351255Y370565D01*
X351255Y324199D01*
X346361Y319305D01*
X339439Y319305D01*
G37*
%LPD*%
%LPC*%
G36*
X145122Y78513D02*
X145122Y78513D01*
X142013Y81622D01*
X142013Y86018D01*
X145122Y89127D01*
X149078Y89127D01*
X149168Y89141D01*
X149259Y89149D01*
X149288Y89161D01*
X149320Y89166D01*
X149401Y89209D01*
X149485Y89245D01*
X149517Y89271D01*
X149538Y89282D01*
X149560Y89305D01*
X149616Y89350D01*
X171773Y111507D01*
X216408Y111507D01*
X216498Y111521D01*
X216589Y111529D01*
X216619Y111541D01*
X216651Y111546D01*
X216732Y111589D01*
X216815Y111625D01*
X216848Y111651D01*
X216868Y111662D01*
X216890Y111685D01*
X216946Y111730D01*
X478343Y373127D01*
X479607Y373127D01*
X479697Y373141D01*
X479788Y373149D01*
X479817Y373161D01*
X479849Y373166D01*
X479930Y373209D01*
X480014Y373245D01*
X480046Y373271D01*
X480067Y373282D01*
X480089Y373305D01*
X480145Y373350D01*
X482942Y376147D01*
X487338Y376147D01*
X490447Y373038D01*
X490447Y368642D01*
X487338Y365533D01*
X482942Y365533D01*
X480618Y367857D01*
X480602Y367869D01*
X480589Y367884D01*
X480502Y367940D01*
X480418Y368001D01*
X480399Y368006D01*
X480383Y368017D01*
X480282Y368043D01*
X480183Y368073D01*
X480163Y368072D01*
X480144Y368077D01*
X480041Y368069D01*
X479937Y368067D01*
X479919Y368060D01*
X479899Y368058D01*
X479804Y368018D01*
X479706Y367982D01*
X479691Y367970D01*
X479672Y367962D01*
X479542Y367857D01*
X220180Y108496D01*
X218618Y106933D01*
X173983Y106933D01*
X173892Y106919D01*
X173802Y106911D01*
X173772Y106899D01*
X173740Y106894D01*
X173659Y106851D01*
X173575Y106815D01*
X173543Y106789D01*
X173522Y106778D01*
X173500Y106755D01*
X173444Y106710D01*
X152850Y86116D01*
X152797Y86042D01*
X152737Y85972D01*
X152725Y85942D01*
X152706Y85916D01*
X152679Y85829D01*
X152645Y85744D01*
X152641Y85703D01*
X152634Y85681D01*
X152635Y85649D01*
X152627Y85578D01*
X152627Y81622D01*
X149518Y78513D01*
X145122Y78513D01*
G37*
%LPD*%
%LPC*%
G36*
X418698Y52501D02*
X418698Y52501D01*
X412302Y54215D01*
X406568Y57525D01*
X401886Y62207D01*
X398575Y67941D01*
X396862Y74337D01*
X396862Y80958D01*
X398575Y87354D01*
X401886Y93088D01*
X406568Y97770D01*
X412302Y101081D01*
X418698Y102795D01*
X425319Y102795D01*
X431715Y101081D01*
X437449Y97770D01*
X442131Y93088D01*
X445441Y87354D01*
X447155Y80958D01*
X447155Y74337D01*
X445441Y67941D01*
X442131Y62207D01*
X437449Y57525D01*
X431715Y54215D01*
X425319Y52501D01*
X418698Y52501D01*
G37*
%LPD*%
%LPC*%
G36*
X91782Y131853D02*
X91782Y131853D01*
X88673Y134962D01*
X88673Y139358D01*
X91782Y142467D01*
X96178Y142467D01*
X98975Y139670D01*
X99049Y139617D01*
X99119Y139557D01*
X99149Y139545D01*
X99175Y139526D01*
X99262Y139499D01*
X99347Y139465D01*
X99388Y139461D01*
X99410Y139454D01*
X99442Y139455D01*
X99513Y139447D01*
X148597Y139447D01*
X148688Y139461D01*
X148778Y139469D01*
X148808Y139481D01*
X148840Y139486D01*
X148921Y139529D01*
X149005Y139565D01*
X149037Y139591D01*
X149058Y139602D01*
X149080Y139625D01*
X149136Y139670D01*
X231170Y221704D01*
X231223Y221778D01*
X231283Y221848D01*
X231295Y221878D01*
X231314Y221904D01*
X231341Y221991D01*
X231375Y222076D01*
X231379Y222117D01*
X231386Y222139D01*
X231385Y222171D01*
X231393Y222243D01*
X231393Y261167D01*
X231379Y261257D01*
X231371Y261348D01*
X231359Y261377D01*
X231354Y261409D01*
X231311Y261490D01*
X231275Y261574D01*
X231249Y261606D01*
X231238Y261627D01*
X231215Y261649D01*
X231170Y261705D01*
X228373Y264502D01*
X228373Y268898D01*
X231482Y272007D01*
X235878Y272007D01*
X238987Y268898D01*
X238987Y264502D01*
X236190Y261705D01*
X236137Y261631D01*
X236077Y261561D01*
X236065Y261531D01*
X236046Y261505D01*
X236019Y261418D01*
X235985Y261333D01*
X235981Y261292D01*
X235974Y261270D01*
X235975Y261238D01*
X235967Y261167D01*
X235967Y220033D01*
X150807Y134873D01*
X99513Y134873D01*
X99423Y134859D01*
X99332Y134851D01*
X99303Y134839D01*
X99271Y134834D01*
X99190Y134791D01*
X99106Y134755D01*
X99074Y134729D01*
X99053Y134718D01*
X99031Y134695D01*
X98975Y134650D01*
X96178Y131853D01*
X91782Y131853D01*
G37*
%LPD*%
%LPC*%
G36*
X132422Y147093D02*
X132422Y147093D01*
X129313Y150202D01*
X129313Y154157D01*
X129299Y154248D01*
X129291Y154338D01*
X129279Y154368D01*
X129274Y154400D01*
X129231Y154481D01*
X129195Y154565D01*
X129169Y154597D01*
X129158Y154618D01*
X129135Y154640D01*
X129090Y154696D01*
X91693Y192093D01*
X91693Y285427D01*
X103193Y296927D01*
X111307Y296927D01*
X111397Y296941D01*
X111488Y296949D01*
X111517Y296961D01*
X111549Y296966D01*
X111630Y297009D01*
X111714Y297045D01*
X111746Y297071D01*
X111767Y297082D01*
X111789Y297105D01*
X111845Y297150D01*
X114642Y299947D01*
X119038Y299947D01*
X122147Y296838D01*
X122147Y292442D01*
X119038Y289333D01*
X114642Y289333D01*
X111845Y292130D01*
X111771Y292183D01*
X111701Y292243D01*
X111671Y292255D01*
X111645Y292274D01*
X111558Y292301D01*
X111473Y292335D01*
X111432Y292339D01*
X111410Y292346D01*
X111378Y292345D01*
X111307Y292353D01*
X105403Y292353D01*
X105312Y292339D01*
X105222Y292331D01*
X105192Y292319D01*
X105160Y292314D01*
X105079Y292271D01*
X104995Y292235D01*
X104963Y292209D01*
X104942Y292198D01*
X104920Y292175D01*
X104864Y292130D01*
X96490Y283756D01*
X96437Y283682D01*
X96377Y283612D01*
X96365Y283582D01*
X96346Y283556D01*
X96319Y283469D01*
X96285Y283384D01*
X96281Y283343D01*
X96274Y283321D01*
X96275Y283289D01*
X96267Y283217D01*
X96267Y194303D01*
X96281Y194212D01*
X96289Y194122D01*
X96301Y194092D01*
X96306Y194060D01*
X96349Y193979D01*
X96385Y193895D01*
X96411Y193863D01*
X96422Y193842D01*
X96445Y193820D01*
X96490Y193764D01*
X132324Y157930D01*
X132398Y157877D01*
X132468Y157817D01*
X132498Y157805D01*
X132524Y157786D01*
X132611Y157759D01*
X132696Y157725D01*
X132737Y157721D01*
X132759Y157714D01*
X132791Y157715D01*
X132863Y157707D01*
X136818Y157707D01*
X139927Y154598D01*
X139927Y150202D01*
X136818Y147093D01*
X132422Y147093D01*
G37*
%LPD*%
%LPC*%
G36*
X407851Y190614D02*
X407851Y190614D01*
X406958Y191507D01*
X406958Y219821D01*
X407851Y220714D01*
X436165Y220714D01*
X437059Y219821D01*
X437059Y191507D01*
X436165Y190614D01*
X407851Y190614D01*
G37*
%LPD*%
%LPC*%
G36*
X427062Y329973D02*
X427062Y329973D01*
X423953Y333082D01*
X423953Y337478D01*
X426750Y340275D01*
X426803Y340349D01*
X426863Y340419D01*
X426875Y340449D01*
X426894Y340475D01*
X426921Y340562D01*
X426955Y340647D01*
X426959Y340688D01*
X426966Y340710D01*
X426965Y340742D01*
X426973Y340813D01*
X426973Y355147D01*
X426959Y355237D01*
X426951Y355328D01*
X426939Y355357D01*
X426934Y355389D01*
X426891Y355470D01*
X426855Y355554D01*
X426829Y355586D01*
X426818Y355607D01*
X426795Y355629D01*
X426750Y355685D01*
X423953Y358482D01*
X423953Y362878D01*
X426750Y365675D01*
X426803Y365749D01*
X426863Y365819D01*
X426875Y365849D01*
X426894Y365875D01*
X426921Y365962D01*
X426955Y366047D01*
X426959Y366088D01*
X426966Y366110D01*
X426965Y366142D01*
X426973Y366213D01*
X426973Y405947D01*
X426959Y406037D01*
X426951Y406128D01*
X426939Y406157D01*
X426934Y406189D01*
X426891Y406270D01*
X426855Y406354D01*
X426829Y406386D01*
X426818Y406407D01*
X426795Y406429D01*
X426750Y406485D01*
X423953Y409282D01*
X423953Y413678D01*
X426750Y416475D01*
X426803Y416549D01*
X426863Y416619D01*
X426875Y416649D01*
X426894Y416675D01*
X426921Y416762D01*
X426955Y416847D01*
X426959Y416888D01*
X426966Y416910D01*
X426965Y416942D01*
X426973Y417013D01*
X426973Y459287D01*
X426959Y459377D01*
X426951Y459468D01*
X426939Y459497D01*
X426934Y459529D01*
X426909Y459576D01*
X426908Y459578D01*
X426903Y459587D01*
X426891Y459610D01*
X426855Y459694D01*
X426829Y459726D01*
X426818Y459747D01*
X426795Y459769D01*
X426792Y459773D01*
X426782Y459789D01*
X426772Y459798D01*
X426750Y459825D01*
X423953Y462622D01*
X423953Y467018D01*
X427062Y470127D01*
X431458Y470127D01*
X434567Y467018D01*
X434567Y462622D01*
X431770Y459825D01*
X431726Y459764D01*
X431690Y459726D01*
X431684Y459713D01*
X431657Y459681D01*
X431645Y459651D01*
X431626Y459625D01*
X431599Y459538D01*
X431565Y459453D01*
X431561Y459412D01*
X431554Y459390D01*
X431555Y459358D01*
X431547Y459287D01*
X431547Y417013D01*
X431561Y416923D01*
X431569Y416832D01*
X431581Y416803D01*
X431586Y416771D01*
X431629Y416690D01*
X431665Y416606D01*
X431691Y416574D01*
X431702Y416553D01*
X431725Y416531D01*
X431770Y416475D01*
X434567Y413678D01*
X434567Y409282D01*
X431770Y406485D01*
X431717Y406411D01*
X431657Y406341D01*
X431645Y406311D01*
X431626Y406285D01*
X431599Y406198D01*
X431565Y406113D01*
X431561Y406072D01*
X431554Y406050D01*
X431555Y406018D01*
X431547Y405947D01*
X431547Y366213D01*
X431561Y366123D01*
X431569Y366032D01*
X431581Y366003D01*
X431586Y365971D01*
X431629Y365890D01*
X431665Y365806D01*
X431691Y365774D01*
X431702Y365753D01*
X431725Y365731D01*
X431770Y365675D01*
X434567Y362878D01*
X434567Y358482D01*
X431770Y355685D01*
X431717Y355611D01*
X431657Y355541D01*
X431645Y355511D01*
X431626Y355485D01*
X431599Y355398D01*
X431565Y355313D01*
X431561Y355272D01*
X431554Y355250D01*
X431555Y355218D01*
X431547Y355147D01*
X431547Y340813D01*
X431561Y340723D01*
X431569Y340632D01*
X431581Y340603D01*
X431586Y340571D01*
X431629Y340490D01*
X431665Y340406D01*
X431691Y340374D01*
X431702Y340353D01*
X431725Y340331D01*
X431770Y340275D01*
X434567Y337478D01*
X434567Y333082D01*
X431458Y329973D01*
X427062Y329973D01*
G37*
%LPD*%
%LPC*%
G36*
X532877Y134460D02*
X532877Y134460D01*
X527217Y136805D01*
X522885Y141137D01*
X520540Y146797D01*
X520540Y152923D01*
X522885Y158583D01*
X527217Y162915D01*
X532877Y165260D01*
X539003Y165260D01*
X544663Y162915D01*
X548995Y158583D01*
X551340Y152923D01*
X551340Y146797D01*
X548995Y141137D01*
X544663Y136805D01*
X539003Y134460D01*
X532877Y134460D01*
G37*
%LPD*%
%LPC*%
G36*
X490877Y189460D02*
X490877Y189460D01*
X485217Y191805D01*
X480885Y196137D01*
X478540Y201797D01*
X478540Y207923D01*
X480885Y213583D01*
X485217Y217915D01*
X490877Y220260D01*
X497003Y220260D01*
X502663Y217915D01*
X506995Y213583D01*
X509340Y207923D01*
X509340Y201797D01*
X506995Y196137D01*
X502663Y191805D01*
X497003Y189460D01*
X490877Y189460D01*
G37*
%LPD*%
%LPC*%
G36*
X532877Y189460D02*
X532877Y189460D01*
X527217Y191805D01*
X522885Y196137D01*
X520540Y201797D01*
X520540Y207923D01*
X522885Y213583D01*
X527217Y217915D01*
X532877Y220260D01*
X539003Y220260D01*
X544663Y217915D01*
X548995Y213583D01*
X551340Y207923D01*
X551340Y201797D01*
X548995Y196137D01*
X544663Y191805D01*
X539003Y189460D01*
X532877Y189460D01*
G37*
%LPD*%
%LPC*%
G36*
X29074Y432434D02*
X29074Y432434D01*
X23494Y438014D01*
X23494Y445906D01*
X29074Y451486D01*
X36966Y451486D01*
X42546Y445906D01*
X42546Y438014D01*
X36966Y432434D01*
X29074Y432434D01*
G37*
%LPD*%
%LPC*%
G36*
X29074Y407034D02*
X29074Y407034D01*
X23494Y412614D01*
X23494Y420506D01*
X29074Y426086D01*
X36966Y426086D01*
X42546Y420506D01*
X42546Y412614D01*
X36966Y407034D01*
X29074Y407034D01*
G37*
%LPD*%
%LPC*%
G36*
X29074Y381634D02*
X29074Y381634D01*
X23494Y387214D01*
X23494Y395106D01*
X29074Y400686D01*
X36966Y400686D01*
X42546Y395106D01*
X42546Y387214D01*
X36966Y381634D01*
X29074Y381634D01*
G37*
%LPD*%
%LPC*%
G36*
X29074Y356234D02*
X29074Y356234D01*
X23494Y361814D01*
X23494Y369706D01*
X29074Y375286D01*
X36966Y375286D01*
X42546Y369706D01*
X42546Y361814D01*
X36966Y356234D01*
X29074Y356234D01*
G37*
%LPD*%
%LPC*%
G36*
X29074Y330834D02*
X29074Y330834D01*
X23494Y336414D01*
X23494Y344306D01*
X29074Y349886D01*
X36966Y349886D01*
X42546Y344306D01*
X42546Y336414D01*
X36966Y330834D01*
X29074Y330834D01*
G37*
%LPD*%
%LPC*%
G36*
X600574Y305434D02*
X600574Y305434D01*
X594994Y311014D01*
X594994Y318906D01*
X600574Y324486D01*
X608466Y324486D01*
X614046Y318906D01*
X614046Y311014D01*
X608466Y305434D01*
X600574Y305434D01*
G37*
%LPD*%
%LPC*%
G36*
X29074Y305434D02*
X29074Y305434D01*
X23494Y311014D01*
X23494Y318906D01*
X29074Y324486D01*
X36966Y324486D01*
X42546Y318906D01*
X42546Y311014D01*
X36966Y305434D01*
X29074Y305434D01*
G37*
%LPD*%
%LPC*%
G36*
X29074Y178434D02*
X29074Y178434D01*
X23494Y184014D01*
X23494Y191906D01*
X29074Y197486D01*
X36966Y197486D01*
X42546Y191906D01*
X42546Y184014D01*
X36966Y178434D01*
X29074Y178434D01*
G37*
%LPD*%
%LPC*%
G36*
X600574Y280034D02*
X600574Y280034D01*
X594994Y285614D01*
X594994Y293506D01*
X600574Y299086D01*
X608466Y299086D01*
X614046Y293506D01*
X614046Y285614D01*
X608466Y280034D01*
X600574Y280034D01*
G37*
%LPD*%
%LPC*%
G36*
X29074Y280034D02*
X29074Y280034D01*
X23494Y285614D01*
X23494Y293506D01*
X29074Y299086D01*
X36966Y299086D01*
X42546Y293506D01*
X42546Y285614D01*
X36966Y280034D01*
X29074Y280034D01*
G37*
%LPD*%
%LPC*%
G36*
X29074Y254634D02*
X29074Y254634D01*
X23494Y260214D01*
X23494Y268106D01*
X29074Y273686D01*
X36966Y273686D01*
X42546Y268106D01*
X42546Y260214D01*
X36966Y254634D01*
X29074Y254634D01*
G37*
%LPD*%
%LPC*%
G36*
X600574Y254634D02*
X600574Y254634D01*
X594994Y260214D01*
X594994Y268106D01*
X600574Y273686D01*
X608466Y273686D01*
X614046Y268106D01*
X614046Y260214D01*
X608466Y254634D01*
X600574Y254634D01*
G37*
%LPD*%
%LPC*%
G36*
X600574Y153034D02*
X600574Y153034D01*
X594994Y158614D01*
X594994Y166506D01*
X600574Y172086D01*
X608466Y172086D01*
X614046Y166506D01*
X614046Y158614D01*
X608466Y153034D01*
X600574Y153034D01*
G37*
%LPD*%
%LPC*%
G36*
X29074Y153034D02*
X29074Y153034D01*
X23494Y158614D01*
X23494Y166506D01*
X29074Y172086D01*
X36966Y172086D01*
X42546Y166506D01*
X42546Y158614D01*
X36966Y153034D01*
X29074Y153034D01*
G37*
%LPD*%
%LPC*%
G36*
X29074Y127634D02*
X29074Y127634D01*
X23494Y133214D01*
X23494Y141106D01*
X29074Y146686D01*
X36966Y146686D01*
X42546Y141106D01*
X42546Y133214D01*
X36966Y127634D01*
X29074Y127634D01*
G37*
%LPD*%
%LPC*%
G36*
X29074Y102234D02*
X29074Y102234D01*
X23494Y107814D01*
X23494Y115706D01*
X29074Y121286D01*
X36966Y121286D01*
X42546Y115706D01*
X42546Y107814D01*
X36966Y102234D01*
X29074Y102234D01*
G37*
%LPD*%
%LPC*%
G36*
X600574Y51434D02*
X600574Y51434D01*
X594994Y57014D01*
X594994Y64906D01*
X600574Y70486D01*
X608466Y70486D01*
X614046Y64906D01*
X614046Y57014D01*
X608466Y51434D01*
X600574Y51434D01*
G37*
%LPD*%
%LPC*%
G36*
X29074Y229234D02*
X29074Y229234D01*
X23494Y234814D01*
X23494Y242706D01*
X29074Y248286D01*
X36966Y248286D01*
X42546Y242706D01*
X42546Y234814D01*
X36966Y229234D01*
X29074Y229234D01*
G37*
%LPD*%
%LPC*%
G36*
X29074Y51434D02*
X29074Y51434D01*
X23494Y57014D01*
X23494Y64906D01*
X29074Y70486D01*
X36966Y70486D01*
X42546Y64906D01*
X42546Y57014D01*
X36966Y51434D01*
X29074Y51434D01*
G37*
%LPD*%
%LPC*%
G36*
X29074Y203834D02*
X29074Y203834D01*
X23494Y209414D01*
X23494Y217306D01*
X29074Y222886D01*
X36966Y222886D01*
X42546Y217306D01*
X42546Y209414D01*
X36966Y203834D01*
X29074Y203834D01*
G37*
%LPD*%
%LPC*%
G36*
X600574Y178434D02*
X600574Y178434D01*
X594994Y184014D01*
X594994Y191906D01*
X600574Y197486D01*
X608466Y197486D01*
X614046Y191906D01*
X614046Y184014D01*
X608466Y178434D01*
X600574Y178434D01*
G37*
%LPD*%
%LPC*%
G36*
X508448Y299275D02*
X508448Y299275D01*
X507555Y300168D01*
X507555Y314512D01*
X508448Y315405D01*
X522792Y315405D01*
X523685Y314512D01*
X523685Y300168D01*
X522792Y299275D01*
X508448Y299275D01*
G37*
%LPD*%
%LPC*%
G36*
X423532Y152069D02*
X423532Y152069D01*
X423532Y166612D01*
X435868Y166612D01*
X436515Y166439D01*
X437094Y166104D01*
X437567Y165631D01*
X437901Y165052D01*
X438075Y164406D01*
X438075Y152069D01*
X423532Y152069D01*
G37*
%LPD*%
%LPC*%
G36*
X423532Y134480D02*
X423532Y134480D01*
X423532Y149023D01*
X438075Y149023D01*
X438075Y136686D01*
X437901Y136040D01*
X437567Y135460D01*
X437094Y134987D01*
X436515Y134653D01*
X435868Y134480D01*
X423532Y134480D01*
G37*
%LPD*%
%LPC*%
G36*
X405942Y152069D02*
X405942Y152069D01*
X405942Y164406D01*
X406115Y165052D01*
X406450Y165631D01*
X406923Y166104D01*
X407502Y166439D01*
X408148Y166612D01*
X420485Y166612D01*
X420485Y152069D01*
X405942Y152069D01*
G37*
%LPD*%
%LPC*%
G36*
X408148Y134480D02*
X408148Y134480D01*
X407502Y134653D01*
X406923Y134987D01*
X406450Y135460D01*
X406115Y136040D01*
X405942Y136686D01*
X405942Y149023D01*
X420485Y149023D01*
X420485Y134480D01*
X408148Y134480D01*
G37*
%LPD*%
%LPC*%
G36*
X606043Y214883D02*
X606043Y214883D01*
X606043Y223902D01*
X608887Y223902D01*
X615062Y217727D01*
X615062Y214883D01*
X606043Y214883D01*
G37*
%LPD*%
%LPC*%
G36*
X606043Y240283D02*
X606043Y240283D01*
X606043Y249302D01*
X608887Y249302D01*
X615062Y243127D01*
X615062Y240283D01*
X606043Y240283D01*
G37*
%LPD*%
%LPC*%
G36*
X34543Y87883D02*
X34543Y87883D01*
X34543Y96902D01*
X37387Y96902D01*
X43562Y90727D01*
X43562Y87883D01*
X34543Y87883D01*
G37*
%LPD*%
%LPC*%
G36*
X593978Y214883D02*
X593978Y214883D01*
X593978Y217727D01*
X600153Y223902D01*
X602997Y223902D01*
X602997Y214883D01*
X593978Y214883D01*
G37*
%LPD*%
%LPC*%
G36*
X606043Y228218D02*
X606043Y228218D01*
X606043Y237237D01*
X615062Y237237D01*
X615062Y234393D01*
X608887Y228218D01*
X606043Y228218D01*
G37*
%LPD*%
%LPC*%
G36*
X593978Y240283D02*
X593978Y240283D01*
X593978Y243127D01*
X600153Y249302D01*
X602997Y249302D01*
X602997Y240283D01*
X593978Y240283D01*
G37*
%LPD*%
%LPC*%
G36*
X606043Y202818D02*
X606043Y202818D01*
X606043Y211837D01*
X615062Y211837D01*
X615062Y208993D01*
X608887Y202818D01*
X606043Y202818D01*
G37*
%LPD*%
%LPC*%
G36*
X22478Y87883D02*
X22478Y87883D01*
X22478Y90727D01*
X28653Y96902D01*
X31497Y96902D01*
X31497Y87883D01*
X22478Y87883D01*
G37*
%LPD*%
%LPC*%
G36*
X34543Y75818D02*
X34543Y75818D01*
X34543Y84837D01*
X43562Y84837D01*
X43562Y81993D01*
X37387Y75818D01*
X34543Y75818D01*
G37*
%LPD*%
%LPC*%
G36*
X600153Y228218D02*
X600153Y228218D01*
X593978Y234393D01*
X593978Y237237D01*
X602997Y237237D01*
X602997Y228218D01*
X600153Y228218D01*
G37*
%LPD*%
%LPC*%
G36*
X28653Y75818D02*
X28653Y75818D01*
X22478Y81993D01*
X22478Y84837D01*
X31497Y84837D01*
X31497Y75818D01*
X28653Y75818D01*
G37*
%LPD*%
%LPC*%
G36*
X600153Y202818D02*
X600153Y202818D01*
X593978Y208993D01*
X593978Y211837D01*
X602997Y211837D01*
X602997Y202818D01*
X600153Y202818D01*
G37*
%LPD*%
%LPC*%
G36*
X517143Y258863D02*
X517143Y258863D01*
X517143Y266296D01*
X518269Y266072D01*
X519921Y265387D01*
X521409Y264393D01*
X522673Y263129D01*
X523667Y261641D01*
X524352Y259989D01*
X524576Y258863D01*
X517143Y258863D01*
G37*
%LPD*%
%LPC*%
G36*
X506664Y258863D02*
X506664Y258863D01*
X506888Y259989D01*
X507573Y261641D01*
X508567Y263129D01*
X509831Y264393D01*
X511319Y265387D01*
X512971Y266072D01*
X514097Y266296D01*
X514097Y258863D01*
X506664Y258863D01*
G37*
%LPD*%
%LPC*%
G36*
X517143Y255817D02*
X517143Y255817D01*
X524576Y255817D01*
X524352Y254691D01*
X523667Y253039D01*
X522673Y251551D01*
X521409Y250287D01*
X519921Y249293D01*
X518269Y248608D01*
X517143Y248384D01*
X517143Y255817D01*
G37*
%LPD*%
%LPC*%
G36*
X512971Y248608D02*
X512971Y248608D01*
X511319Y249293D01*
X509831Y250287D01*
X508567Y251551D01*
X507573Y253039D01*
X506888Y254691D01*
X506664Y255817D01*
X514097Y255817D01*
X514097Y248384D01*
X512971Y248608D01*
G37*
%LPD*%
%LPC*%
G36*
X515619Y257339D02*
X515619Y257339D01*
X515619Y257341D01*
X515621Y257341D01*
X515621Y257339D01*
X515619Y257339D01*
G37*
%LPD*%
%LPC*%
G36*
X604519Y238759D02*
X604519Y238759D01*
X604519Y238761D01*
X604521Y238761D01*
X604521Y238759D01*
X604519Y238759D01*
G37*
%LPD*%
%LPC*%
G36*
X422007Y150545D02*
X422007Y150545D01*
X422007Y150547D01*
X422009Y150547D01*
X422009Y150545D01*
X422007Y150545D01*
G37*
%LPD*%
%LPC*%
G36*
X604519Y213359D02*
X604519Y213359D01*
X604519Y213361D01*
X604521Y213361D01*
X604521Y213359D01*
X604519Y213359D01*
G37*
%LPD*%
%LPC*%
G36*
X33019Y86359D02*
X33019Y86359D01*
X33019Y86361D01*
X33021Y86361D01*
X33021Y86359D01*
X33019Y86359D01*
G37*
%LPD*%
D10*
X33020Y60960D03*
X33020Y86360D03*
X33020Y111760D03*
X33020Y137160D03*
X33020Y162560D03*
X33020Y187960D03*
X33020Y213360D03*
X33020Y238760D03*
X33020Y264160D03*
X33020Y289560D03*
X33020Y314960D03*
X33020Y340360D03*
X33020Y365760D03*
X33020Y391160D03*
X33020Y416560D03*
X33020Y441960D03*
X604520Y60960D03*
X604520Y86360D03*
X604520Y111760D03*
X604520Y137160D03*
X604520Y162560D03*
X604520Y187960D03*
X604520Y213360D03*
X604520Y238760D03*
X604520Y264160D03*
X604520Y289560D03*
X604520Y314960D03*
D11*
X535940Y149860D03*
X493940Y149860D03*
X535940Y204860D03*
X493940Y204860D03*
D12*
X422008Y150546D03*
X422008Y205664D03*
D13*
X515620Y307340D03*
D14*
X515620Y257340D03*
D15*
X233680Y266700D03*
D16*
X233680Y220980D01*
X149860Y137160D01*
X93980Y137160D01*
D15*
X93980Y137160D03*
X271780Y299720D03*
X55880Y383540D03*
X160020Y347980D03*
X170180Y289560D03*
X55880Y345440D03*
X121920Y86360D03*
X220980Y165100D03*
X373380Y58420D03*
X182880Y205740D03*
X187960Y81280D03*
X55880Y312420D03*
X101600Y472440D03*
X375920Y167640D03*
X218440Y434340D03*
X147320Y292100D03*
X139700Y241300D03*
X576580Y259080D03*
X436880Y386080D03*
X449580Y419100D03*
X530860Y416560D03*
X558800Y477520D03*
X134620Y152400D03*
D16*
X93980Y193040D02*
X93980Y284480D01*
X93980Y193040D02*
X134620Y152400D01*
X116840Y294640D02*
X104140Y294640D01*
X93980Y284480D01*
D15*
X116840Y294640D03*
X147320Y83820D03*
D16*
X479291Y370840D02*
X485140Y370840D01*
X479291Y370840D02*
X217671Y109220D01*
X172720Y109220D01*
X147320Y83820D01*
D15*
X485140Y370840D03*
X429260Y335280D03*
D16*
X429260Y360680D01*
D15*
X429260Y360680D03*
D16*
X429260Y411480D01*
D15*
X429260Y411480D03*
D16*
X429260Y464820D01*
D15*
X429260Y464820D03*
X185420Y447040D03*
X340360Y454660D03*
D16*
X332740Y447040D01*
X185420Y447040D01*
X340360Y454660D02*
X340360Y381000D01*
D15*
X340360Y381000D03*
D16*
X340360Y330200D01*
X342900Y327660D01*
D15*
X342900Y327660D03*
D17*
X604520Y114935D02*
X604520Y111760D01*
X604520Y114935D02*
X604520Y137160D01*
D18*
X470480Y95276D02*
X470480Y58444D01*
X496524Y32400D01*
X533356Y32400D01*
X559400Y58444D01*
X592684Y114935D02*
X604520Y114935D01*
X559400Y81651D02*
X559400Y58444D01*
X559400Y81651D02*
X592684Y114935D01*
X493940Y118736D02*
X493940Y149860D01*
X493940Y118736D02*
X470480Y95276D01*
D15*
X365760Y388620D03*
D16*
X348968Y325147D02*
X345414Y321592D01*
X340387Y321592D01*
X348968Y371828D02*
X365760Y388620D01*
X348968Y371828D02*
X348968Y325147D01*
X340387Y321592D02*
X319079Y342900D01*
D15*
X310718Y342900D03*
D16*
X319079Y342900D01*
D15*
X307340Y375920D03*
D16*
X332740Y401320D01*
X332740Y414020D01*
X333068Y414020D01*
D15*
X333068Y414020D03*
M02*
