G04 EAGLE Gerber RS-274X export*
G75*
%MOMM*%
%FSLAX34Y34*%
%LPD*%
%INSoldermask Top*%
%IPPOS*%
%AMOC8*
5,1,8,0,0,1.08239X$1,22.5*%
G01*
%ADD10P,1.951982X8X22.500000*%
%ADD11R,1.003200X1.803200*%
%ADD12R,2.303200X3.203200*%
%ADD13C,2.978200*%
%ADD14C,3.253200*%
%ADD15R,1.628200X0.503200*%
%ADD16R,1.883200X2.083200*%
%ADD17R,1.703200X1.503200*%
%ADD18R,1.203200X1.203200*%
%ADD19R,2.908300X2.908300*%
%ADD20C,3.200400*%
%ADD21R,1.511200X1.511200*%
%ADD22C,1.511200*%
%ADD23R,1.628200X0.653200*%
%ADD24R,1.503200X1.703200*%
%ADD25C,0.959600*%


D10*
X33020Y60960D03*
X33020Y86360D03*
X33020Y111760D03*
X33020Y137160D03*
X33020Y162560D03*
X33020Y187960D03*
X33020Y213360D03*
X33020Y238760D03*
X33020Y264160D03*
X33020Y289560D03*
X33020Y314960D03*
X33020Y340360D03*
X33020Y365760D03*
X33020Y391160D03*
X33020Y416560D03*
X33020Y441960D03*
X604520Y60960D03*
X604520Y86360D03*
X604520Y111760D03*
X604520Y137160D03*
X604520Y162560D03*
X604520Y187960D03*
X604520Y213360D03*
X604520Y238760D03*
X604520Y264160D03*
X604520Y289560D03*
X604520Y314960D03*
D11*
X241700Y53340D03*
X254200Y53340D03*
X266700Y53340D03*
X279200Y53340D03*
X291700Y53340D03*
D12*
X216100Y25840D03*
X317300Y25840D03*
D13*
X535940Y149860D03*
X493940Y149860D03*
X535940Y204860D03*
X493940Y204860D03*
D14*
X514940Y76860D03*
D11*
X96920Y53340D03*
X109420Y53340D03*
X121920Y53340D03*
X134420Y53340D03*
X146920Y53340D03*
D12*
X71320Y25840D03*
X172520Y25840D03*
D15*
X120120Y271620D03*
X120120Y266620D03*
X120120Y261620D03*
X120120Y256620D03*
X120120Y251620D03*
X164360Y251620D03*
X164360Y256620D03*
X164360Y261620D03*
X164360Y266620D03*
X164360Y271620D03*
D16*
X142240Y261620D03*
D15*
X166900Y452280D03*
X166900Y457280D03*
X166900Y462280D03*
X166900Y467280D03*
X166900Y472280D03*
X122660Y472280D03*
X122660Y467280D03*
X122660Y462280D03*
X122660Y457280D03*
X122660Y452280D03*
D16*
X144780Y462280D03*
D17*
X142240Y329540D03*
X142240Y310540D03*
X109220Y415900D03*
X109220Y396900D03*
X210820Y329540D03*
X210820Y310540D03*
X144780Y396900D03*
X144780Y415900D03*
X76200Y415900D03*
X76200Y396900D03*
X76200Y329540D03*
X76200Y310540D03*
X177800Y329540D03*
X177800Y310540D03*
X177800Y415900D03*
X177800Y396900D03*
D18*
X109220Y330040D03*
X109220Y310040D03*
X210820Y396400D03*
X210820Y416400D03*
D19*
X422008Y150546D03*
D20*
X422008Y77648D03*
D19*
X422008Y205664D03*
D21*
X515620Y307340D03*
D22*
X515620Y257340D03*
D23*
X366500Y477110D03*
X366500Y470610D03*
X366500Y464110D03*
X366500Y457610D03*
X410740Y457610D03*
X410740Y464110D03*
X410740Y470610D03*
X410740Y477110D03*
X366500Y421230D03*
X366500Y414730D03*
X366500Y408230D03*
X366500Y401730D03*
X410740Y401730D03*
X410740Y408230D03*
X410740Y414730D03*
X410740Y421230D03*
X366500Y365350D03*
X366500Y358850D03*
X366500Y352350D03*
X366500Y345850D03*
X410740Y345850D03*
X410740Y352350D03*
X410740Y358850D03*
X410740Y365350D03*
D24*
X252120Y474980D03*
X271120Y474980D03*
X308000Y474980D03*
X327000Y474980D03*
X308000Y436880D03*
X327000Y436880D03*
X450240Y474980D03*
X469240Y474980D03*
X450240Y436880D03*
X469240Y436880D03*
X308000Y398780D03*
X327000Y398780D03*
X271120Y398780D03*
X252120Y398780D03*
X252120Y436880D03*
X271120Y436880D03*
X450240Y398780D03*
X469240Y398780D03*
X252120Y325120D03*
X271120Y325120D03*
X308000Y360680D03*
X327000Y360680D03*
X525120Y398780D03*
X506120Y398780D03*
X252120Y360680D03*
X271120Y360680D03*
X327000Y325120D03*
X308000Y325120D03*
X450240Y360680D03*
X469240Y360680D03*
X525120Y360680D03*
X506120Y360680D03*
X525120Y436880D03*
X506120Y436880D03*
X506120Y474980D03*
X525120Y474980D03*
D25*
X233680Y266700D03*
X93980Y137160D03*
X271780Y299720D03*
X55880Y383540D03*
X160020Y347980D03*
X170180Y289560D03*
X55880Y345440D03*
X121920Y86360D03*
X220980Y165100D03*
X373380Y58420D03*
X182880Y205740D03*
X187960Y81280D03*
X55880Y312420D03*
X101600Y472440D03*
X375920Y167640D03*
X218440Y434340D03*
X147320Y292100D03*
X139700Y241300D03*
X576580Y259080D03*
X436880Y386080D03*
X449580Y419100D03*
X530860Y416560D03*
X558800Y477520D03*
X134620Y152400D03*
X116840Y294640D03*
X147320Y83820D03*
X485140Y370840D03*
X429260Y335280D03*
X429260Y360680D03*
X429260Y411480D03*
X429260Y464820D03*
X185420Y447040D03*
X340360Y454660D03*
X340360Y381000D03*
X342900Y327660D03*
X365760Y388620D03*
X310718Y342900D03*
X307340Y375920D03*
X333068Y414020D03*
M02*
