G04 EAGLE Gerber RS-274X export*
G75*
%MOMM*%
%FSLAX34Y34*%
%LPD*%
%INBottom Copper*%
%IPPOS*%
%AMOC8*
5,1,8,0,0,1.08239X$1,22.5*%
G01*
%ADD10P,1.732040X8X22.500000*%
%ADD11C,2.775000*%
%ADD12R,2.705100X2.705100*%
%ADD13R,1.308000X1.308000*%
%ADD14C,1.308000*%
%ADD15C,0.756400*%
%ADD16C,0.152400*%
%ADD17C,2.540000*%
%ADD18C,3.810000*%

G36*
X623898Y10164D02*
X623898Y10164D01*
X623917Y10162D01*
X624019Y10184D01*
X624121Y10200D01*
X624138Y10210D01*
X624158Y10214D01*
X624247Y10267D01*
X624338Y10316D01*
X624352Y10330D01*
X624369Y10340D01*
X624436Y10419D01*
X624508Y10494D01*
X624516Y10512D01*
X624529Y10527D01*
X624568Y10623D01*
X624611Y10717D01*
X624613Y10737D01*
X624621Y10755D01*
X624639Y10922D01*
X624639Y105916D01*
X624624Y106012D01*
X624614Y106109D01*
X624604Y106133D01*
X624600Y106159D01*
X624554Y106245D01*
X624514Y106334D01*
X624497Y106353D01*
X624484Y106376D01*
X624414Y106443D01*
X624348Y106515D01*
X624325Y106527D01*
X624306Y106545D01*
X624218Y106586D01*
X624132Y106633D01*
X624107Y106638D01*
X624083Y106649D01*
X623986Y106660D01*
X623890Y106677D01*
X623864Y106673D01*
X623839Y106676D01*
X623743Y106655D01*
X623647Y106641D01*
X623624Y106629D01*
X623598Y106624D01*
X623515Y106574D01*
X623428Y106530D01*
X623409Y106511D01*
X623387Y106498D01*
X623324Y106424D01*
X623256Y106354D01*
X623240Y106326D01*
X623227Y106311D01*
X623215Y106280D01*
X623175Y106207D01*
X621962Y103280D01*
X616175Y97493D01*
X610640Y95200D01*
X610601Y95176D01*
X610558Y95160D01*
X610497Y95111D01*
X610431Y95070D01*
X610402Y95035D01*
X610366Y95006D01*
X610324Y94941D01*
X610274Y94881D01*
X610258Y94838D01*
X610233Y94799D01*
X610214Y94724D01*
X610186Y94651D01*
X610184Y94605D01*
X610173Y94561D01*
X610179Y94483D01*
X610175Y94406D01*
X610188Y94361D01*
X610192Y94316D01*
X610222Y94244D01*
X610244Y94169D01*
X610270Y94132D01*
X610288Y94089D01*
X610374Y93983D01*
X610384Y93967D01*
X610388Y93964D01*
X610393Y93958D01*
X614046Y90306D01*
X614046Y82414D01*
X608466Y76834D01*
X600574Y76834D01*
X594994Y82414D01*
X594994Y86311D01*
X594993Y86320D01*
X594993Y86325D01*
X594988Y86351D01*
X594983Y86381D01*
X594981Y86453D01*
X594963Y86502D01*
X594955Y86553D01*
X594921Y86617D01*
X594896Y86684D01*
X594864Y86725D01*
X594839Y86771D01*
X594787Y86820D01*
X594743Y86876D01*
X594699Y86904D01*
X594661Y86940D01*
X594596Y86970D01*
X594536Y87009D01*
X594485Y87022D01*
X594438Y87044D01*
X594367Y87052D01*
X594297Y87069D01*
X594245Y87065D01*
X594194Y87071D01*
X594123Y87056D01*
X594052Y87050D01*
X594004Y87030D01*
X593953Y87019D01*
X593892Y86982D01*
X593826Y86954D01*
X593770Y86909D01*
X593742Y86892D01*
X593727Y86875D01*
X593695Y86849D01*
X580198Y73352D01*
X580145Y73278D01*
X580085Y73208D01*
X580073Y73178D01*
X580054Y73152D01*
X580027Y73065D01*
X579993Y72980D01*
X579989Y72939D01*
X579982Y72917D01*
X579983Y72885D01*
X579975Y72814D01*
X579975Y54351D01*
X576842Y46789D01*
X545011Y14958D01*
X537449Y11825D01*
X492431Y11825D01*
X484869Y14958D01*
X453038Y46789D01*
X449905Y54351D01*
X449905Y99369D01*
X453038Y106931D01*
X473142Y127035D01*
X473195Y127109D01*
X473255Y127179D01*
X473267Y127209D01*
X473286Y127235D01*
X473313Y127322D01*
X473347Y127407D01*
X473351Y127448D01*
X473358Y127470D01*
X473357Y127502D01*
X473365Y127574D01*
X473365Y153953D01*
X476498Y161515D01*
X482285Y167302D01*
X489847Y170435D01*
X498033Y170435D01*
X505595Y167302D01*
X511382Y161515D01*
X514515Y153953D01*
X514515Y114643D01*
X511382Y107081D01*
X506742Y102441D01*
X506714Y102402D01*
X506679Y102370D01*
X506643Y102303D01*
X506599Y102241D01*
X506585Y102196D01*
X506562Y102153D01*
X506549Y102079D01*
X506526Y102006D01*
X506528Y101958D01*
X506519Y101911D01*
X506531Y101836D01*
X506533Y101760D01*
X506549Y101715D01*
X506556Y101668D01*
X506591Y101601D01*
X506617Y101529D01*
X506647Y101492D01*
X506669Y101449D01*
X506723Y101397D01*
X506771Y101337D01*
X506811Y101311D01*
X506846Y101278D01*
X506914Y101245D01*
X506978Y101204D01*
X507024Y101193D01*
X507068Y101172D01*
X507143Y101163D01*
X507216Y101144D01*
X507264Y101148D01*
X507312Y101142D01*
X507439Y101162D01*
X507462Y101163D01*
X507468Y101166D01*
X507478Y101168D01*
X511595Y102271D01*
X518285Y102271D01*
X524748Y100539D01*
X530543Y97194D01*
X535274Y92463D01*
X538190Y87411D01*
X538204Y87394D01*
X538213Y87374D01*
X538245Y87339D01*
X538258Y87317D01*
X538287Y87292D01*
X538346Y87221D01*
X538365Y87209D01*
X538380Y87193D01*
X538469Y87144D01*
X538554Y87090D01*
X538576Y87085D01*
X538595Y87074D01*
X538695Y87056D01*
X538794Y87032D01*
X538815Y87034D01*
X538837Y87030D01*
X538938Y87045D01*
X539039Y87054D01*
X539059Y87063D01*
X539080Y87066D01*
X539171Y87112D01*
X539264Y87153D01*
X539280Y87168D01*
X539300Y87178D01*
X539371Y87250D01*
X539446Y87318D01*
X539457Y87337D01*
X539472Y87353D01*
X539553Y87500D01*
X541958Y93306D01*
X581029Y132377D01*
X588591Y135510D01*
X589534Y135510D01*
X589554Y135513D01*
X589573Y135511D01*
X589675Y135533D01*
X589777Y135549D01*
X589794Y135559D01*
X589814Y135563D01*
X589903Y135616D01*
X589994Y135665D01*
X590008Y135679D01*
X590025Y135689D01*
X590092Y135768D01*
X590164Y135843D01*
X590172Y135861D01*
X590185Y135876D01*
X590223Y135972D01*
X590267Y136066D01*
X590269Y136086D01*
X590277Y136104D01*
X590295Y136271D01*
X590295Y139989D01*
X592461Y145218D01*
X596462Y149219D01*
X601691Y151385D01*
X607349Y151385D01*
X612578Y149219D01*
X616579Y145218D01*
X618745Y139989D01*
X618745Y130123D01*
X618759Y130033D01*
X618767Y129942D01*
X618779Y129912D01*
X618784Y129880D01*
X618827Y129799D01*
X618863Y129715D01*
X618889Y129683D01*
X618900Y129663D01*
X618923Y129640D01*
X618968Y129584D01*
X621962Y126590D01*
X623175Y123663D01*
X623226Y123580D01*
X623272Y123494D01*
X623290Y123476D01*
X623304Y123454D01*
X623380Y123392D01*
X623450Y123325D01*
X623474Y123314D01*
X623494Y123297D01*
X623585Y123262D01*
X623673Y123221D01*
X623699Y123218D01*
X623723Y123209D01*
X623821Y123205D01*
X623917Y123194D01*
X623943Y123199D01*
X623969Y123198D01*
X624063Y123225D01*
X624158Y123246D01*
X624180Y123260D01*
X624205Y123267D01*
X624285Y123322D01*
X624369Y123372D01*
X624386Y123392D01*
X624407Y123407D01*
X624466Y123485D01*
X624529Y123559D01*
X624539Y123584D01*
X624554Y123605D01*
X624584Y123697D01*
X624621Y123787D01*
X624624Y123820D01*
X624630Y123838D01*
X624630Y123871D01*
X624639Y123954D01*
X624639Y493778D01*
X624636Y493798D01*
X624638Y493817D01*
X624616Y493919D01*
X624600Y494021D01*
X624590Y494038D01*
X624586Y494058D01*
X624533Y494147D01*
X624484Y494238D01*
X624470Y494252D01*
X624460Y494269D01*
X624381Y494336D01*
X624306Y494408D01*
X624288Y494416D01*
X624273Y494429D01*
X624177Y494468D01*
X624083Y494511D01*
X624063Y494513D01*
X624045Y494521D01*
X623878Y494539D01*
X10922Y494539D01*
X10902Y494536D01*
X10883Y494538D01*
X10781Y494516D01*
X10679Y494500D01*
X10662Y494490D01*
X10642Y494486D01*
X10553Y494433D01*
X10462Y494384D01*
X10448Y494370D01*
X10431Y494360D01*
X10364Y494281D01*
X10292Y494206D01*
X10284Y494188D01*
X10271Y494173D01*
X10232Y494077D01*
X10189Y493983D01*
X10187Y493963D01*
X10179Y493945D01*
X10161Y493778D01*
X10161Y10922D01*
X10164Y10902D01*
X10162Y10883D01*
X10184Y10781D01*
X10200Y10679D01*
X10210Y10662D01*
X10214Y10642D01*
X10267Y10553D01*
X10316Y10462D01*
X10330Y10448D01*
X10340Y10431D01*
X10419Y10364D01*
X10494Y10292D01*
X10512Y10284D01*
X10527Y10271D01*
X10623Y10232D01*
X10717Y10189D01*
X10737Y10187D01*
X10755Y10179D01*
X10922Y10161D01*
X623878Y10161D01*
X623898Y10164D01*
G37*
%LPC*%
G36*
X415746Y129971D02*
X415746Y129971D01*
X408184Y133103D01*
X375169Y166118D01*
X375095Y166171D01*
X375026Y166231D01*
X374996Y166243D01*
X374970Y166262D01*
X374883Y166289D01*
X374798Y166323D01*
X374757Y166327D01*
X374734Y166334D01*
X374702Y166333D01*
X374631Y166341D01*
X374367Y166341D01*
X366805Y169474D01*
X361018Y175261D01*
X357885Y182823D01*
X357885Y236348D01*
X361018Y243910D01*
X369019Y251912D01*
X369057Y251965D01*
X369103Y252012D01*
X369144Y252085D01*
X369163Y252111D01*
X369168Y252130D01*
X369184Y252159D01*
X370134Y254451D01*
X390465Y274782D01*
X398027Y277915D01*
X567173Y277915D01*
X574735Y274782D01*
X580522Y268995D01*
X583655Y261433D01*
X583655Y257197D01*
X583669Y257107D01*
X583677Y257016D01*
X583689Y256987D01*
X583694Y256955D01*
X583737Y256874D01*
X583773Y256790D01*
X583799Y256758D01*
X583810Y256737D01*
X583833Y256715D01*
X583878Y256659D01*
X592552Y247985D01*
X592568Y247973D01*
X592580Y247958D01*
X592668Y247902D01*
X592751Y247842D01*
X592770Y247836D01*
X592787Y247825D01*
X592888Y247800D01*
X592987Y247769D01*
X593006Y247770D01*
X593026Y247765D01*
X593129Y247773D01*
X593232Y247776D01*
X593251Y247782D01*
X593271Y247784D01*
X593366Y247824D01*
X593463Y247860D01*
X593479Y247873D01*
X593497Y247880D01*
X593628Y247985D01*
X596462Y250819D01*
X601691Y252985D01*
X607349Y252985D01*
X612578Y250819D01*
X616579Y246818D01*
X618745Y241589D01*
X618745Y210531D01*
X616579Y205302D01*
X612578Y201301D01*
X607349Y199135D01*
X601691Y199135D01*
X596462Y201301D01*
X592461Y205302D01*
X590723Y209498D01*
X590688Y209554D01*
X590663Y209614D01*
X590611Y209679D01*
X590593Y209708D01*
X590578Y209720D01*
X590558Y209745D01*
X563761Y236542D01*
X563687Y236595D01*
X563617Y236655D01*
X563587Y236667D01*
X563561Y236686D01*
X563474Y236713D01*
X563389Y236747D01*
X563348Y236751D01*
X563326Y236758D01*
X563294Y236757D01*
X563223Y236765D01*
X410958Y236765D01*
X410868Y236751D01*
X410777Y236743D01*
X410747Y236731D01*
X410715Y236726D01*
X410634Y236683D01*
X410550Y236647D01*
X410518Y236621D01*
X410498Y236610D01*
X410475Y236587D01*
X410419Y236542D01*
X406133Y232256D01*
X406095Y232203D01*
X406049Y232156D01*
X406008Y232083D01*
X405989Y232056D01*
X405984Y232038D01*
X405968Y232009D01*
X405018Y229717D01*
X399258Y223956D01*
X399205Y223882D01*
X399145Y223813D01*
X399133Y223782D01*
X399114Y223756D01*
X399087Y223669D01*
X399053Y223584D01*
X399049Y223544D01*
X399042Y223521D01*
X399043Y223489D01*
X399035Y223418D01*
X399035Y200762D01*
X399049Y200672D01*
X399057Y200581D01*
X399069Y200551D01*
X399074Y200520D01*
X399117Y200439D01*
X399153Y200355D01*
X399179Y200323D01*
X399190Y200302D01*
X399213Y200280D01*
X399258Y200224D01*
X405659Y193823D01*
X405717Y193781D01*
X405769Y193732D01*
X405816Y193710D01*
X405858Y193680D01*
X405927Y193658D01*
X405992Y193628D01*
X406044Y193623D01*
X406093Y193607D01*
X406165Y193609D01*
X406236Y193601D01*
X406287Y193612D01*
X406339Y193614D01*
X406407Y193638D01*
X406477Y193653D01*
X406521Y193680D01*
X406570Y193698D01*
X406626Y193743D01*
X406688Y193780D01*
X406722Y193819D01*
X406762Y193852D01*
X406801Y193912D01*
X406848Y193967D01*
X406867Y194015D01*
X406895Y194059D01*
X406913Y194128D01*
X406940Y194195D01*
X406948Y194266D01*
X406955Y194297D01*
X406954Y194320D01*
X406958Y194361D01*
X406958Y219821D01*
X407851Y220714D01*
X436165Y220714D01*
X437059Y219821D01*
X437059Y191507D01*
X436165Y190614D01*
X410706Y190614D01*
X410635Y190602D01*
X410563Y190600D01*
X410515Y190582D01*
X410463Y190574D01*
X410400Y190540D01*
X410332Y190516D01*
X410292Y190483D01*
X410246Y190459D01*
X410196Y190407D01*
X410140Y190362D01*
X410112Y190318D01*
X410076Y190280D01*
X410046Y190215D01*
X410007Y190155D01*
X409995Y190104D01*
X409973Y190057D01*
X409965Y189986D01*
X409947Y189917D01*
X409951Y189865D01*
X409946Y189813D01*
X409961Y189743D01*
X409967Y189671D01*
X409987Y189623D01*
X409998Y189572D01*
X410035Y189511D01*
X410063Y189445D01*
X410108Y189389D01*
X410124Y189361D01*
X410142Y189346D01*
X410168Y189314D01*
X429852Y169629D01*
X429905Y169591D01*
X429952Y169545D01*
X430025Y169505D01*
X430052Y169486D01*
X430071Y169480D01*
X430099Y169464D01*
X433663Y167988D01*
X435832Y165819D01*
X435906Y165766D01*
X435976Y165706D01*
X436006Y165694D01*
X436032Y165675D01*
X436110Y165651D01*
X437101Y164661D01*
X437141Y164584D01*
X437177Y164501D01*
X437202Y164468D01*
X437213Y164448D01*
X437237Y164426D01*
X437282Y164370D01*
X439451Y162200D01*
X442583Y154638D01*
X442583Y146453D01*
X439451Y138891D01*
X437282Y136722D01*
X437228Y136648D01*
X437169Y136579D01*
X437157Y136548D01*
X437138Y136522D01*
X437114Y136444D01*
X436123Y135453D01*
X436047Y135413D01*
X435963Y135377D01*
X435931Y135352D01*
X435910Y135341D01*
X435888Y135317D01*
X435832Y135273D01*
X433663Y133103D01*
X426101Y129971D01*
X415746Y129971D01*
G37*
%LPD*%
%LPC*%
G36*
X145122Y98833D02*
X145122Y98833D01*
X142013Y101942D01*
X142013Y106338D01*
X144810Y109135D01*
X144863Y109209D01*
X144923Y109279D01*
X144935Y109309D01*
X144954Y109335D01*
X144981Y109422D01*
X145015Y109507D01*
X145019Y109548D01*
X145026Y109570D01*
X145025Y109602D01*
X145033Y109673D01*
X145033Y130487D01*
X146596Y132050D01*
X274640Y260094D01*
X274682Y260152D01*
X274731Y260204D01*
X274753Y260251D01*
X274783Y260293D01*
X274804Y260362D01*
X274835Y260427D01*
X274840Y260479D01*
X274856Y260529D01*
X274854Y260600D01*
X274862Y260671D01*
X274851Y260722D01*
X274849Y260774D01*
X274825Y260842D01*
X274810Y260912D01*
X274783Y260956D01*
X274765Y261005D01*
X274720Y261061D01*
X274683Y261123D01*
X274644Y261157D01*
X274611Y261197D01*
X274551Y261236D01*
X274496Y261283D01*
X274448Y261302D01*
X274404Y261330D01*
X274335Y261348D01*
X274268Y261375D01*
X274197Y261383D01*
X274166Y261391D01*
X274142Y261389D01*
X274102Y261393D01*
X270023Y261393D01*
X269932Y261379D01*
X269842Y261371D01*
X269812Y261359D01*
X269780Y261354D01*
X269699Y261311D01*
X269615Y261275D01*
X269583Y261249D01*
X269562Y261238D01*
X269544Y261219D01*
X269542Y261218D01*
X269536Y261212D01*
X269484Y261170D01*
X143187Y134873D01*
X99513Y134873D01*
X99423Y134859D01*
X99332Y134851D01*
X99303Y134839D01*
X99271Y134834D01*
X99190Y134791D01*
X99106Y134755D01*
X99074Y134729D01*
X99053Y134718D01*
X99031Y134695D01*
X98975Y134650D01*
X96178Y131853D01*
X91782Y131853D01*
X88673Y134962D01*
X88673Y139358D01*
X91782Y142467D01*
X96178Y142467D01*
X98975Y139670D01*
X99049Y139617D01*
X99119Y139557D01*
X99149Y139545D01*
X99175Y139526D01*
X99262Y139499D01*
X99347Y139465D01*
X99388Y139461D01*
X99410Y139454D01*
X99442Y139455D01*
X99513Y139447D01*
X140977Y139447D01*
X141068Y139461D01*
X141158Y139469D01*
X141188Y139481D01*
X141220Y139486D01*
X141301Y139529D01*
X141385Y139565D01*
X141417Y139591D01*
X141438Y139602D01*
X141460Y139625D01*
X141516Y139670D01*
X266250Y264404D01*
X266303Y264478D01*
X266363Y264548D01*
X266375Y264578D01*
X266394Y264604D01*
X266421Y264691D01*
X266455Y264776D01*
X266459Y264817D01*
X266466Y264839D01*
X266465Y264871D01*
X266473Y264943D01*
X266473Y268898D01*
X269582Y272007D01*
X273978Y272007D01*
X277087Y268898D01*
X277087Y264378D01*
X277098Y264308D01*
X277100Y264236D01*
X277118Y264187D01*
X277126Y264136D01*
X277160Y264072D01*
X277185Y264005D01*
X277217Y263964D01*
X277242Y263918D01*
X277294Y263869D01*
X277338Y263813D01*
X277382Y263785D01*
X277420Y263749D01*
X277485Y263719D01*
X277545Y263680D01*
X277596Y263667D01*
X277643Y263645D01*
X277714Y263637D01*
X277784Y263620D01*
X277836Y263624D01*
X277887Y263618D01*
X277958Y263633D01*
X278029Y263639D01*
X278077Y263659D01*
X278128Y263670D01*
X278189Y263707D01*
X278255Y263735D01*
X278311Y263780D01*
X278339Y263797D01*
X278354Y263814D01*
X278386Y263840D01*
X279430Y264884D01*
X279483Y264958D01*
X279543Y265028D01*
X279555Y265058D01*
X279574Y265084D01*
X279601Y265171D01*
X279635Y265256D01*
X279639Y265297D01*
X279646Y265319D01*
X279645Y265351D01*
X279653Y265423D01*
X279653Y473387D01*
X284030Y477764D01*
X284083Y477838D01*
X284143Y477908D01*
X284155Y477938D01*
X284174Y477964D01*
X284201Y478051D01*
X284235Y478136D01*
X284239Y478177D01*
X284246Y478199D01*
X284245Y478231D01*
X284253Y478303D01*
X284253Y482258D01*
X287362Y485367D01*
X291758Y485367D01*
X294867Y482258D01*
X294867Y477862D01*
X291758Y474753D01*
X287803Y474753D01*
X287712Y474739D01*
X287622Y474731D01*
X287592Y474719D01*
X287560Y474714D01*
X287479Y474671D01*
X287395Y474635D01*
X287363Y474609D01*
X287342Y474598D01*
X287320Y474575D01*
X287264Y474530D01*
X284450Y471716D01*
X284397Y471642D01*
X284337Y471572D01*
X284325Y471542D01*
X284306Y471516D01*
X284279Y471429D01*
X284245Y471344D01*
X284241Y471303D01*
X284234Y471281D01*
X284235Y471249D01*
X284227Y471177D01*
X284227Y263213D01*
X149830Y128816D01*
X149777Y128742D01*
X149717Y128672D01*
X149705Y128642D01*
X149686Y128616D01*
X149659Y128529D01*
X149625Y128444D01*
X149621Y128403D01*
X149614Y128381D01*
X149615Y128349D01*
X149607Y128277D01*
X149607Y109673D01*
X149621Y109583D01*
X149629Y109492D01*
X149641Y109463D01*
X149646Y109431D01*
X149689Y109350D01*
X149725Y109266D01*
X149751Y109234D01*
X149762Y109213D01*
X149785Y109191D01*
X149830Y109135D01*
X152627Y106338D01*
X152627Y101942D01*
X149518Y98833D01*
X145122Y98833D01*
G37*
%LPD*%
%LPC*%
G36*
X418698Y52501D02*
X418698Y52501D01*
X412302Y54215D01*
X406568Y57525D01*
X401886Y62207D01*
X398575Y67941D01*
X396862Y74337D01*
X396862Y80958D01*
X398575Y87354D01*
X401886Y93088D01*
X406568Y97770D01*
X412302Y101081D01*
X418698Y102795D01*
X425319Y102795D01*
X431715Y101081D01*
X437449Y97770D01*
X442131Y93088D01*
X445441Y87354D01*
X447155Y80958D01*
X447155Y74337D01*
X445441Y67941D01*
X442131Y62207D01*
X437449Y57525D01*
X431715Y54215D01*
X425319Y52501D01*
X418698Y52501D01*
G37*
%LPD*%
%LPC*%
G36*
X132422Y147093D02*
X132422Y147093D01*
X129313Y150202D01*
X129313Y154157D01*
X129299Y154248D01*
X129291Y154338D01*
X129279Y154368D01*
X129274Y154400D01*
X129231Y154481D01*
X129195Y154565D01*
X129169Y154597D01*
X129158Y154618D01*
X129135Y154640D01*
X129090Y154696D01*
X122173Y161613D01*
X122173Y282887D01*
X133673Y294387D01*
X141787Y294387D01*
X141877Y294401D01*
X141968Y294409D01*
X141997Y294421D01*
X142029Y294426D01*
X142110Y294469D01*
X142194Y294505D01*
X142226Y294531D01*
X142247Y294542D01*
X142269Y294565D01*
X142325Y294610D01*
X145122Y297407D01*
X149518Y297407D01*
X152627Y294298D01*
X152627Y289902D01*
X149518Y286793D01*
X145122Y286793D01*
X142325Y289590D01*
X142251Y289643D01*
X142181Y289703D01*
X142151Y289715D01*
X142125Y289734D01*
X142038Y289761D01*
X141953Y289795D01*
X141912Y289799D01*
X141890Y289806D01*
X141858Y289805D01*
X141787Y289813D01*
X135883Y289813D01*
X135792Y289799D01*
X135702Y289791D01*
X135672Y289779D01*
X135640Y289774D01*
X135559Y289731D01*
X135475Y289695D01*
X135443Y289669D01*
X135422Y289658D01*
X135400Y289635D01*
X135344Y289590D01*
X126970Y281216D01*
X126917Y281142D01*
X126857Y281072D01*
X126845Y281042D01*
X126826Y281016D01*
X126799Y280929D01*
X126765Y280844D01*
X126761Y280803D01*
X126754Y280781D01*
X126755Y280749D01*
X126747Y280677D01*
X126747Y163823D01*
X126761Y163732D01*
X126769Y163642D01*
X126781Y163612D01*
X126786Y163580D01*
X126829Y163499D01*
X126865Y163415D01*
X126891Y163383D01*
X126902Y163362D01*
X126925Y163340D01*
X126970Y163284D01*
X132324Y157930D01*
X132398Y157877D01*
X132468Y157817D01*
X132498Y157805D01*
X132524Y157786D01*
X132611Y157759D01*
X132696Y157725D01*
X132737Y157721D01*
X132759Y157714D01*
X132791Y157715D01*
X132863Y157707D01*
X136818Y157707D01*
X139927Y154598D01*
X139927Y150202D01*
X136818Y147093D01*
X132422Y147093D01*
G37*
%LPD*%
%LPC*%
G36*
X490877Y189460D02*
X490877Y189460D01*
X485217Y191805D01*
X480885Y196137D01*
X478540Y201797D01*
X478540Y207923D01*
X480885Y213583D01*
X485217Y217915D01*
X490877Y220260D01*
X497003Y220260D01*
X502663Y217915D01*
X506995Y213583D01*
X509340Y207923D01*
X509340Y201797D01*
X506995Y196137D01*
X502663Y191805D01*
X497003Y189460D01*
X490877Y189460D01*
G37*
%LPD*%
%LPC*%
G36*
X532877Y189460D02*
X532877Y189460D01*
X527217Y191805D01*
X522885Y196137D01*
X520540Y201797D01*
X520540Y207923D01*
X522885Y213583D01*
X527217Y217915D01*
X532877Y220260D01*
X539003Y220260D01*
X544663Y217915D01*
X548995Y213583D01*
X551340Y207923D01*
X551340Y201797D01*
X548995Y196137D01*
X544663Y191805D01*
X539003Y189460D01*
X532877Y189460D01*
G37*
%LPD*%
%LPC*%
G36*
X532877Y134460D02*
X532877Y134460D01*
X527217Y136805D01*
X522885Y141137D01*
X520540Y146797D01*
X520540Y152923D01*
X522885Y158583D01*
X527217Y162915D01*
X532877Y165260D01*
X539003Y165260D01*
X544663Y162915D01*
X548995Y158583D01*
X551340Y152923D01*
X551340Y146797D01*
X548995Y141137D01*
X544663Y136805D01*
X539003Y134460D01*
X532877Y134460D01*
G37*
%LPD*%
%LPC*%
G36*
X498182Y401093D02*
X498182Y401093D01*
X495073Y404202D01*
X495073Y408598D01*
X497870Y411395D01*
X497923Y411469D01*
X497983Y411539D01*
X497995Y411569D01*
X498014Y411595D01*
X498041Y411682D01*
X498075Y411767D01*
X498079Y411808D01*
X498086Y411830D01*
X498085Y411862D01*
X498093Y411933D01*
X498093Y458478D01*
X498079Y458568D01*
X498071Y458659D01*
X498059Y458688D01*
X498054Y458720D01*
X498011Y458801D01*
X497975Y458885D01*
X497949Y458917D01*
X497938Y458938D01*
X497915Y458960D01*
X497870Y459016D01*
X489496Y467390D01*
X489422Y467443D01*
X489352Y467503D01*
X489322Y467515D01*
X489296Y467534D01*
X489209Y467561D01*
X489124Y467595D01*
X489083Y467599D01*
X489061Y467606D01*
X489029Y467605D01*
X488958Y467613D01*
X483053Y467613D01*
X482963Y467599D01*
X482872Y467591D01*
X482843Y467579D01*
X482811Y467574D01*
X482730Y467531D01*
X482646Y467495D01*
X482614Y467469D01*
X482593Y467458D01*
X482571Y467435D01*
X482515Y467390D01*
X479718Y464593D01*
X475322Y464593D01*
X472213Y467702D01*
X472213Y472098D01*
X475322Y475207D01*
X479718Y475207D01*
X482515Y472410D01*
X482589Y472357D01*
X482659Y472297D01*
X482689Y472285D01*
X482715Y472266D01*
X482802Y472239D01*
X482887Y472205D01*
X482928Y472201D01*
X482950Y472194D01*
X482982Y472195D01*
X483053Y472187D01*
X491167Y472187D01*
X492730Y470624D01*
X501104Y462250D01*
X502667Y460687D01*
X502667Y411933D01*
X502681Y411843D01*
X502689Y411752D01*
X502701Y411723D01*
X502706Y411691D01*
X502749Y411610D01*
X502785Y411526D01*
X502811Y411494D01*
X502822Y411473D01*
X502845Y411451D01*
X502890Y411395D01*
X505687Y408598D01*
X505687Y404202D01*
X502578Y401093D01*
X498182Y401093D01*
G37*
%LPD*%
%LPC*%
G36*
X391502Y380773D02*
X391502Y380773D01*
X388393Y383882D01*
X388393Y387837D01*
X388379Y387928D01*
X388371Y388018D01*
X388359Y388048D01*
X388354Y388080D01*
X388311Y388161D01*
X388275Y388245D01*
X388249Y388277D01*
X388238Y388298D01*
X388215Y388320D01*
X388170Y388376D01*
X381253Y395293D01*
X381253Y417837D01*
X381239Y417928D01*
X381231Y418018D01*
X381219Y418048D01*
X381214Y418080D01*
X381171Y418161D01*
X381135Y418245D01*
X381109Y418277D01*
X381098Y418298D01*
X381075Y418320D01*
X381030Y418376D01*
X380756Y418650D01*
X380682Y418703D01*
X380612Y418763D01*
X380582Y418775D01*
X380556Y418794D01*
X380469Y418821D01*
X380384Y418855D01*
X380343Y418859D01*
X380321Y418866D01*
X380289Y418865D01*
X380217Y418873D01*
X376262Y418873D01*
X373153Y421982D01*
X373153Y426378D01*
X376262Y429487D01*
X380658Y429487D01*
X383767Y426378D01*
X383767Y422423D01*
X383781Y422332D01*
X383789Y422242D01*
X383801Y422212D01*
X383806Y422180D01*
X383849Y422099D01*
X383885Y422015D01*
X383911Y421983D01*
X383922Y421962D01*
X383945Y421940D01*
X383990Y421884D01*
X385827Y420047D01*
X385827Y397503D01*
X385841Y397412D01*
X385849Y397322D01*
X385861Y397292D01*
X385866Y397260D01*
X385909Y397179D01*
X385945Y397095D01*
X385971Y397063D01*
X385982Y397042D01*
X386005Y397020D01*
X386050Y396964D01*
X391404Y391610D01*
X391478Y391557D01*
X391548Y391497D01*
X391578Y391485D01*
X391604Y391466D01*
X391691Y391439D01*
X391776Y391405D01*
X391817Y391401D01*
X391839Y391394D01*
X391871Y391395D01*
X391943Y391387D01*
X395898Y391387D01*
X399007Y388278D01*
X399007Y383882D01*
X395898Y380773D01*
X391502Y380773D01*
G37*
%LPD*%
%LPC*%
G36*
X29074Y381634D02*
X29074Y381634D01*
X23494Y387214D01*
X23494Y395106D01*
X29074Y400686D01*
X36966Y400686D01*
X42546Y395106D01*
X42546Y387214D01*
X36966Y381634D01*
X29074Y381634D01*
G37*
%LPD*%
%LPC*%
G36*
X29074Y356234D02*
X29074Y356234D01*
X23494Y361814D01*
X23494Y369706D01*
X29074Y375286D01*
X36966Y375286D01*
X42546Y369706D01*
X42546Y361814D01*
X36966Y356234D01*
X29074Y356234D01*
G37*
%LPD*%
%LPC*%
G36*
X29074Y330834D02*
X29074Y330834D01*
X23494Y336414D01*
X23494Y344306D01*
X29074Y349886D01*
X36966Y349886D01*
X42546Y344306D01*
X42546Y336414D01*
X36966Y330834D01*
X29074Y330834D01*
G37*
%LPD*%
%LPC*%
G36*
X600574Y305434D02*
X600574Y305434D01*
X594994Y311014D01*
X594994Y318906D01*
X600574Y324486D01*
X608466Y324486D01*
X614046Y318906D01*
X614046Y311014D01*
X608466Y305434D01*
X600574Y305434D01*
G37*
%LPD*%
%LPC*%
G36*
X29074Y305434D02*
X29074Y305434D01*
X23494Y311014D01*
X23494Y318906D01*
X29074Y324486D01*
X36966Y324486D01*
X42546Y318906D01*
X42546Y311014D01*
X36966Y305434D01*
X29074Y305434D01*
G37*
%LPD*%
%LPC*%
G36*
X600574Y280034D02*
X600574Y280034D01*
X594994Y285614D01*
X594994Y293506D01*
X600574Y299086D01*
X608466Y299086D01*
X614046Y293506D01*
X614046Y285614D01*
X608466Y280034D01*
X600574Y280034D01*
G37*
%LPD*%
%LPC*%
G36*
X29074Y280034D02*
X29074Y280034D01*
X23494Y285614D01*
X23494Y293506D01*
X29074Y299086D01*
X36966Y299086D01*
X42546Y293506D01*
X42546Y285614D01*
X36966Y280034D01*
X29074Y280034D01*
G37*
%LPD*%
%LPC*%
G36*
X600574Y254634D02*
X600574Y254634D01*
X594994Y260214D01*
X594994Y268106D01*
X600574Y273686D01*
X608466Y273686D01*
X614046Y268106D01*
X614046Y260214D01*
X608466Y254634D01*
X600574Y254634D01*
G37*
%LPD*%
%LPC*%
G36*
X29074Y254634D02*
X29074Y254634D01*
X23494Y260214D01*
X23494Y268106D01*
X29074Y273686D01*
X36966Y273686D01*
X42546Y268106D01*
X42546Y260214D01*
X36966Y254634D01*
X29074Y254634D01*
G37*
%LPD*%
%LPC*%
G36*
X29074Y229234D02*
X29074Y229234D01*
X23494Y234814D01*
X23494Y242706D01*
X29074Y248286D01*
X36966Y248286D01*
X42546Y242706D01*
X42546Y234814D01*
X36966Y229234D01*
X29074Y229234D01*
G37*
%LPD*%
%LPC*%
G36*
X29074Y203834D02*
X29074Y203834D01*
X23494Y209414D01*
X23494Y217306D01*
X29074Y222886D01*
X36966Y222886D01*
X42546Y217306D01*
X42546Y209414D01*
X36966Y203834D01*
X29074Y203834D01*
G37*
%LPD*%
%LPC*%
G36*
X600574Y178434D02*
X600574Y178434D01*
X594994Y184014D01*
X594994Y191906D01*
X600574Y197486D01*
X608466Y197486D01*
X614046Y191906D01*
X614046Y184014D01*
X608466Y178434D01*
X600574Y178434D01*
G37*
%LPD*%
%LPC*%
G36*
X29074Y178434D02*
X29074Y178434D01*
X23494Y184014D01*
X23494Y191906D01*
X29074Y197486D01*
X36966Y197486D01*
X42546Y191906D01*
X42546Y184014D01*
X36966Y178434D01*
X29074Y178434D01*
G37*
%LPD*%
%LPC*%
G36*
X600574Y153034D02*
X600574Y153034D01*
X594994Y158614D01*
X594994Y166506D01*
X600574Y172086D01*
X608466Y172086D01*
X614046Y166506D01*
X614046Y158614D01*
X608466Y153034D01*
X600574Y153034D01*
G37*
%LPD*%
%LPC*%
G36*
X29074Y153034D02*
X29074Y153034D01*
X23494Y158614D01*
X23494Y166506D01*
X29074Y172086D01*
X36966Y172086D01*
X42546Y166506D01*
X42546Y158614D01*
X36966Y153034D01*
X29074Y153034D01*
G37*
%LPD*%
%LPC*%
G36*
X29074Y432434D02*
X29074Y432434D01*
X23494Y438014D01*
X23494Y445906D01*
X29074Y451486D01*
X36966Y451486D01*
X42546Y445906D01*
X42546Y438014D01*
X36966Y432434D01*
X29074Y432434D01*
G37*
%LPD*%
%LPC*%
G36*
X29074Y127634D02*
X29074Y127634D01*
X23494Y133214D01*
X23494Y141106D01*
X29074Y146686D01*
X36966Y146686D01*
X42546Y141106D01*
X42546Y133214D01*
X36966Y127634D01*
X29074Y127634D01*
G37*
%LPD*%
%LPC*%
G36*
X29074Y102234D02*
X29074Y102234D01*
X23494Y107814D01*
X23494Y115706D01*
X29074Y121286D01*
X36966Y121286D01*
X42546Y115706D01*
X42546Y107814D01*
X36966Y102234D01*
X29074Y102234D01*
G37*
%LPD*%
%LPC*%
G36*
X29074Y407034D02*
X29074Y407034D01*
X23494Y412614D01*
X23494Y420506D01*
X29074Y426086D01*
X36966Y426086D01*
X42546Y420506D01*
X42546Y412614D01*
X36966Y407034D01*
X29074Y407034D01*
G37*
%LPD*%
%LPC*%
G36*
X600574Y51434D02*
X600574Y51434D01*
X594994Y57014D01*
X594994Y64906D01*
X600574Y70486D01*
X608466Y70486D01*
X614046Y64906D01*
X614046Y57014D01*
X608466Y51434D01*
X600574Y51434D01*
G37*
%LPD*%
%LPC*%
G36*
X29074Y51434D02*
X29074Y51434D01*
X23494Y57014D01*
X23494Y64906D01*
X29074Y70486D01*
X36966Y70486D01*
X42546Y64906D01*
X42546Y57014D01*
X36966Y51434D01*
X29074Y51434D01*
G37*
%LPD*%
%LPC*%
G36*
X216242Y444273D02*
X216242Y444273D01*
X213133Y447382D01*
X213133Y451778D01*
X216242Y454887D01*
X220638Y454887D01*
X223435Y452090D01*
X223509Y452037D01*
X223579Y451977D01*
X223609Y451965D01*
X223635Y451946D01*
X223722Y451919D01*
X223807Y451885D01*
X223848Y451881D01*
X223870Y451874D01*
X223902Y451875D01*
X223973Y451867D01*
X245927Y451867D01*
X246017Y451881D01*
X246108Y451889D01*
X246137Y451901D01*
X246169Y451906D01*
X246250Y451949D01*
X246334Y451985D01*
X246366Y452011D01*
X246387Y452022D01*
X246409Y452045D01*
X246465Y452090D01*
X249262Y454887D01*
X253658Y454887D01*
X256767Y451778D01*
X256767Y447382D01*
X253658Y444273D01*
X249262Y444273D01*
X246465Y447070D01*
X246391Y447123D01*
X246321Y447183D01*
X246291Y447195D01*
X246265Y447214D01*
X246178Y447241D01*
X246093Y447275D01*
X246052Y447279D01*
X246030Y447286D01*
X245998Y447285D01*
X245927Y447293D01*
X223973Y447293D01*
X223883Y447279D01*
X223792Y447271D01*
X223763Y447259D01*
X223731Y447254D01*
X223650Y447211D01*
X223566Y447175D01*
X223534Y447149D01*
X223513Y447138D01*
X223491Y447115D01*
X223435Y447070D01*
X220638Y444273D01*
X216242Y444273D01*
G37*
%LPD*%
%LPC*%
G36*
X508448Y299275D02*
X508448Y299275D01*
X507555Y300168D01*
X507555Y314512D01*
X508448Y315405D01*
X522792Y315405D01*
X523685Y314512D01*
X523685Y300168D01*
X522792Y299275D01*
X508448Y299275D01*
G37*
%LPD*%
%LPC*%
G36*
X34543Y87883D02*
X34543Y87883D01*
X34543Y96902D01*
X37387Y96902D01*
X43562Y90727D01*
X43562Y87883D01*
X34543Y87883D01*
G37*
%LPD*%
%LPC*%
G36*
X22478Y87883D02*
X22478Y87883D01*
X22478Y90727D01*
X28653Y96902D01*
X31497Y96902D01*
X31497Y87883D01*
X22478Y87883D01*
G37*
%LPD*%
%LPC*%
G36*
X34543Y75818D02*
X34543Y75818D01*
X34543Y84837D01*
X43562Y84837D01*
X43562Y81993D01*
X37387Y75818D01*
X34543Y75818D01*
G37*
%LPD*%
%LPC*%
G36*
X28653Y75818D02*
X28653Y75818D01*
X22478Y81993D01*
X22478Y84837D01*
X31497Y84837D01*
X31497Y75818D01*
X28653Y75818D01*
G37*
%LPD*%
%LPC*%
G36*
X33019Y86359D02*
X33019Y86359D01*
X33019Y86361D01*
X33021Y86361D01*
X33021Y86359D01*
X33019Y86359D01*
G37*
%LPD*%
D10*
X33020Y60960D03*
X33020Y86360D03*
X33020Y111760D03*
X33020Y137160D03*
X33020Y162560D03*
X33020Y187960D03*
X33020Y213360D03*
X33020Y238760D03*
X33020Y264160D03*
X33020Y289560D03*
X33020Y314960D03*
X33020Y340360D03*
X33020Y365760D03*
X33020Y391160D03*
X33020Y416560D03*
X33020Y441960D03*
X604520Y60960D03*
X604520Y86360D03*
X604520Y111760D03*
X604520Y137160D03*
X604520Y162560D03*
X604520Y187960D03*
X604520Y213360D03*
X604520Y238760D03*
X604520Y264160D03*
X604520Y289560D03*
X604520Y314960D03*
D11*
X535940Y149860D03*
X493940Y149860D03*
X535940Y204860D03*
X493940Y204860D03*
D12*
X422008Y150546D03*
X422008Y205664D03*
D13*
X515620Y307340D03*
D14*
X515620Y257340D03*
D15*
X271780Y266700D03*
D16*
X142240Y137160D01*
X93980Y137160D01*
D15*
X93980Y137160D03*
D17*
X604520Y213360D02*
X604520Y238760D01*
X604520Y215900D02*
X604520Y213360D01*
X604520Y215900D02*
X563080Y257340D01*
D18*
X515620Y257340D01*
X402120Y257340D01*
X387576Y242796D02*
X387576Y241371D01*
X378460Y232255D01*
X378460Y186916D01*
X383469Y186916D01*
X419839Y150546D02*
X422008Y150546D01*
X419839Y150546D02*
X383469Y186916D01*
X387576Y242796D02*
X402120Y257340D01*
D15*
X261620Y347980D03*
X86360Y381000D03*
X190500Y345440D03*
X200660Y287020D03*
X86360Y342900D03*
X317500Y429260D03*
X307340Y365760D03*
X551180Y426720D03*
X121920Y86360D03*
X368300Y482600D03*
X604520Y368300D03*
X220980Y165100D03*
X378460Y360680D03*
X363220Y251460D03*
X373380Y58420D03*
X182880Y205740D03*
X187960Y81280D03*
X68580Y322580D03*
X86360Y454660D03*
X373380Y162560D03*
X210820Y431800D03*
X375920Y447040D03*
X177800Y289560D03*
X487680Y398780D03*
X170180Y238760D03*
X134620Y152400D03*
D16*
X124460Y162560D02*
X124460Y281940D01*
X124460Y162560D02*
X134620Y152400D01*
X134620Y292100D02*
X147320Y292100D01*
X134620Y292100D02*
X124460Y281940D01*
D15*
X147320Y292100D03*
X147320Y104140D03*
D16*
X147320Y129540D02*
X281940Y264160D01*
X147320Y129540D02*
X147320Y104140D01*
X281940Y472440D02*
X289560Y480060D01*
X281940Y472440D02*
X281940Y264160D01*
D15*
X289560Y480060D03*
X477520Y469900D03*
D16*
X490220Y469900D02*
X500380Y459740D01*
X490220Y469900D02*
X477520Y469900D01*
X500380Y459740D02*
X500380Y406400D01*
D15*
X500380Y406400D03*
X218440Y449580D03*
D16*
X251460Y449580D01*
D15*
X251460Y449580D03*
X378460Y424180D03*
D16*
X383540Y419100D01*
X383540Y396240D01*
X393700Y386080D01*
D15*
X393700Y386080D03*
D17*
X604520Y114935D02*
X604520Y111760D01*
X604520Y114935D02*
X604520Y137160D01*
D18*
X470480Y95276D02*
X470480Y58444D01*
X496524Y32400D01*
X533356Y32400D01*
X559400Y58444D01*
X592684Y114935D02*
X604520Y114935D01*
X559400Y81651D02*
X559400Y58444D01*
X559400Y81651D02*
X592684Y114935D01*
X493940Y118736D02*
X493940Y149860D01*
X493940Y118736D02*
X470480Y95276D01*
M02*
