M48
;GenerationSoftware,Autodesk,EAGLE,9.6.2*%
;CreationDate,2021-12-13T15:59:17Z*%
FMAT,2
ICI,OFF
METRIC,TZ,000.000
T7C0.350
T6C0.800
T5C0.914
T4C1.803
T3C1.850
T2C2.997
T1C3.050
%
G90
M71
T1
X51494Y7686
T2
X42201Y7765
T3
X49394Y20486
X53594Y20486
X49394Y14986
X53594Y14986
T4
X42201Y20566
X42201Y15055
T5
X60452Y26416
X60452Y31496
X60452Y28956
X3302Y6096
X3302Y8636
X3302Y11176
X3302Y13716
X3302Y16256
X3302Y18796
X3302Y23876
X3302Y21336
X3302Y26416
X3302Y28956
X3302Y31496
X3302Y34036
X3302Y36576
X3302Y39116
X3302Y41656
X3302Y44196
X60452Y6096
X60452Y8636
X60452Y11176
X60452Y13716
X60452Y16256
X60452Y18796
X60452Y21336
X60452Y23876
T6
X51562Y25734
X51562Y30734
T7
X26162Y34798
X8636Y38100
X19050Y34544
X20066Y28702
X8636Y34290
X31750Y42926
X30734Y36576
X12192Y8636
X36830Y48260
X60452Y36830
X22098Y16510
X37846Y36068
X36322Y25146
X37338Y5842
X18288Y20574
X18796Y8128
X6858Y32258
X27178Y26670
X37338Y16256
X21082Y43180
X37592Y44704
X17780Y28956
X48768Y39878
X17018Y23876
X13462Y15240
X14732Y10414
X39370Y38608
X55118Y42672
X14732Y29210
X37846Y42418
X25146Y44958
X21844Y44958
X50038Y40640
X47752Y46990
X28956Y48006
X9398Y13716
X8636Y45466
M30