G04 EAGLE Gerber RS-274X export*
G75*
%MOMM*%
%FSLAX34Y34*%
%LPD*%
%IN*%
%IPPOS*%
%AMOC8*
5,1,8,0,0,1.08239X$1,22.5*%
G01*
%ADD10C,0.254000*%


D10*
X0Y0D02*
X634800Y0D01*
X634800Y504700D01*
X0Y504700D01*
X0Y0D01*
X530190Y76315D02*
X530112Y75229D01*
X529957Y74151D01*
X529726Y73086D01*
X529419Y72041D01*
X529038Y71020D01*
X528586Y70030D01*
X528064Y69073D01*
X527475Y68157D01*
X526822Y67285D01*
X526109Y66462D01*
X525338Y65692D01*
X524515Y64978D01*
X523643Y64325D01*
X522727Y63736D01*
X521771Y63214D01*
X520780Y62762D01*
X519759Y62381D01*
X518714Y62074D01*
X517649Y61843D01*
X516571Y61688D01*
X515485Y61610D01*
X514395Y61610D01*
X513309Y61688D01*
X512231Y61843D01*
X511166Y62074D01*
X510121Y62381D01*
X509100Y62762D01*
X508110Y63214D01*
X507153Y63736D01*
X506237Y64325D01*
X505365Y64978D01*
X504542Y65692D01*
X503772Y66462D01*
X503058Y67285D01*
X502405Y68157D01*
X501816Y69073D01*
X501294Y70030D01*
X500842Y71020D01*
X500461Y72041D01*
X500154Y73086D01*
X499923Y74151D01*
X499768Y75229D01*
X499690Y76315D01*
X499690Y77405D01*
X499768Y78491D01*
X499923Y79569D01*
X500154Y80634D01*
X500461Y81679D01*
X500842Y82700D01*
X501294Y83691D01*
X501816Y84647D01*
X502405Y85563D01*
X503058Y86435D01*
X503772Y87258D01*
X504542Y88029D01*
X505365Y88742D01*
X506237Y89395D01*
X507153Y89984D01*
X508110Y90506D01*
X509100Y90958D01*
X510121Y91339D01*
X511166Y91646D01*
X512231Y91877D01*
X513309Y92032D01*
X514395Y92110D01*
X515485Y92110D01*
X516571Y92032D01*
X517649Y91877D01*
X518714Y91646D01*
X519759Y91339D01*
X520780Y90958D01*
X521771Y90506D01*
X522727Y89984D01*
X523643Y89395D01*
X524515Y88742D01*
X525338Y88029D01*
X526109Y87258D01*
X526822Y86435D01*
X527475Y85563D01*
X528064Y84647D01*
X528586Y83691D01*
X529038Y82700D01*
X529419Y81679D01*
X529726Y80634D01*
X529957Y79569D01*
X530112Y78491D01*
X530190Y77405D01*
X530190Y76315D01*
X436994Y77113D02*
X436918Y76045D01*
X436766Y74985D01*
X436538Y73939D01*
X436236Y72912D01*
X435862Y71909D01*
X435418Y70936D01*
X434905Y69996D01*
X434326Y69095D01*
X433684Y68239D01*
X432983Y67430D01*
X432227Y66673D01*
X431418Y65972D01*
X430561Y65330D01*
X429660Y64751D01*
X428721Y64238D01*
X427747Y63794D01*
X426744Y63420D01*
X425717Y63118D01*
X424671Y62891D01*
X423611Y62738D01*
X422544Y62662D01*
X421473Y62662D01*
X420405Y62738D01*
X419346Y62891D01*
X418300Y63118D01*
X417273Y63420D01*
X416270Y63794D01*
X415296Y64238D01*
X414357Y64751D01*
X413456Y65330D01*
X412599Y65972D01*
X411790Y66673D01*
X411033Y67430D01*
X410332Y68239D01*
X409691Y69095D01*
X409112Y69996D01*
X408599Y70936D01*
X408154Y71909D01*
X407780Y72912D01*
X407479Y73939D01*
X407251Y74985D01*
X407099Y76045D01*
X407022Y77113D01*
X407022Y78183D01*
X407099Y79251D01*
X407251Y80310D01*
X407479Y81356D01*
X407780Y82383D01*
X408154Y83386D01*
X408599Y84360D01*
X409112Y85300D01*
X409691Y86200D01*
X410332Y87057D01*
X411033Y87866D01*
X411790Y88623D01*
X412599Y89324D01*
X413456Y89965D01*
X414357Y90544D01*
X415296Y91057D01*
X416270Y91502D01*
X417273Y91876D01*
X418300Y92178D01*
X419346Y92405D01*
X420405Y92557D01*
X421473Y92634D01*
X422544Y92634D01*
X423611Y92557D01*
X424671Y92405D01*
X425717Y92178D01*
X426744Y91876D01*
X427747Y91502D01*
X428721Y91057D01*
X429660Y90544D01*
X430561Y89965D01*
X431418Y89324D01*
X432227Y88623D01*
X432983Y87866D01*
X433684Y87057D01*
X434326Y86200D01*
X434905Y85300D01*
X435418Y84360D01*
X435862Y83386D01*
X436236Y82383D01*
X436538Y81356D01*
X436766Y80310D01*
X436918Y79251D01*
X436994Y78183D01*
X436994Y77113D01*
M02*
