G04 EAGLE Gerber RS-274X export*
G75*
%MOMM*%
%FSLAX34Y34*%
%LPD*%
%INSilkscreen Top*%
%IPPOS*%
%AMOC8*
5,1,8,0,0,1.08239X$1,22.5*%
G01*
%ADD10C,0.152400*%
%ADD11R,0.635000X0.042419*%
%ADD12R,0.635000X0.042162*%
%ADD13R,0.718819X0.042162*%
%ADD14R,0.805181X0.042162*%
%ADD15R,0.762000X0.042419*%
%ADD16R,1.143000X0.042419*%
%ADD17R,0.721363X0.042419*%
%ADD18R,1.397000X0.042419*%
%ADD19R,1.567181X0.042162*%
%ADD20R,0.718819X0.042419*%
%ADD21R,1.734819X0.042419*%
%ADD22R,1.905000X0.042419*%
%ADD23R,0.762000X0.042162*%
%ADD24R,2.032000X0.042162*%
%ADD25R,2.159000X0.042419*%
%ADD26R,2.242819X0.042419*%
%ADD27R,2.372362X0.042162*%
%ADD28R,2.453638X0.042419*%
%ADD29R,0.678181X0.042419*%
%ADD30R,1.226819X0.042419*%
%ADD31R,0.721363X0.042162*%
%ADD32R,1.016000X0.042162*%
%ADD33R,0.932181X0.042162*%
%ADD34R,0.889000X0.042419*%
%ADD35R,0.805181X0.042419*%
%ADD36R,0.845819X0.042419*%
%ADD37R,0.845819X0.042162*%
%ADD38R,0.508000X0.042162*%
%ADD39R,0.381000X0.042419*%
%ADD40R,0.297181X0.042419*%
%ADD41R,0.678181X0.042162*%
%ADD42R,0.170181X0.042162*%
%ADD43R,0.083819X0.042419*%
%ADD44R,0.675638X0.042419*%
%ADD45R,0.675638X0.042162*%
%ADD46R,3.134362X0.042162*%
%ADD47R,3.683000X0.042162*%
%ADD48R,7.239000X0.042419*%
%ADD49R,7.239000X0.042162*%
%ADD50R,3.385819X0.042162*%
%ADD51R,0.972819X0.042419*%
%ADD52R,0.551181X0.042419*%
%ADD53R,0.548638X0.042419*%
%ADD54R,0.591819X0.042419*%
%ADD55R,0.591819X0.042162*%
%ADD56R,0.594363X0.042419*%
%ADD57R,0.548638X0.042162*%
%ADD58R,0.040638X0.042419*%
%ADD59R,0.802638X0.042162*%
%ADD60R,0.127000X0.042162*%
%ADD61R,0.213363X0.042419*%
%ADD62R,0.294637X0.042419*%
%ADD63R,0.467363X0.042162*%
%ADD64R,0.929638X0.042419*%
%ADD65R,0.802638X0.042419*%
%ADD66R,0.975363X0.042419*%
%ADD67R,0.043181X0.042162*%
%ADD68R,0.551181X0.042162*%
%ADD69R,0.972819X0.042162*%
%ADD70R,1.099819X0.042162*%
%ADD71R,0.929638X0.042162*%
%ADD72R,0.464819X0.042419*%
%ADD73R,1.099819X0.042419*%
%ADD74R,4.064000X0.042419*%
%ADD75R,2.413000X0.042419*%
%ADD76R,0.424181X0.042162*%
%ADD77R,4.064000X0.042162*%
%ADD78R,2.329181X0.042162*%
%ADD79R,0.340363X0.042419*%
%ADD80R,2.202181X0.042419*%
%ADD81R,2.075181X0.042419*%
%ADD82R,0.086363X0.042162*%
%ADD83R,0.254000X0.042162*%
%ADD84R,1.948181X0.042162*%
%ADD85R,0.043181X0.042419*%
%ADD86R,1.821181X0.042419*%
%ADD87R,0.254000X0.042419*%
%ADD88R,1.651000X0.042419*%
%ADD89R,0.083819X0.042162*%
%ADD90R,0.297181X0.042162*%
%ADD91R,1.440181X0.042162*%
%ADD92R,1.186181X0.042419*%
%ADD93R,1.818638X0.042419*%
%ADD94R,0.932181X0.042419*%
%ADD95R,1.607819X0.042162*%
%ADD96R,2.202181X0.042162*%
%ADD97R,0.337819X0.042162*%
%ADD98R,1.437638X0.042419*%
%ADD99R,0.086363X0.042419*%
%ADD100R,1.437638X0.042162*%
%ADD101R,0.467363X0.042419*%
%ADD102R,0.424181X0.042419*%
%ADD103R,0.040638X0.042162*%
%ADD104R,0.294637X0.042162*%
%ADD105R,0.337819X0.042419*%
%ADD106R,0.381000X0.042162*%
%ADD107R,0.127000X0.042419*%
%ADD108R,2.286000X0.042419*%
%ADD109R,0.170181X0.042419*%
%ADD110R,2.286000X0.042162*%
%ADD111R,0.167637X0.042419*%
%ADD112R,0.421637X0.042419*%
%ADD113R,0.508000X0.042419*%
%ADD114R,0.464819X0.042162*%
%ADD115R,0.210819X0.042419*%
%ADD116R,0.210819X0.042162*%
%ADD117R,0.167637X0.042162*%
%ADD118R,0.213363X0.042162*%
%ADD119C,0.101600*%
%ADD120C,0.076200*%
%ADD121C,0.203200*%
%ADD122C,0.177800*%
%ADD123C,0.100000*%
%ADD124C,0.200000*%
%ADD125C,0.200000*%
%ADD126C,0.050000*%

G36*
X69637Y47931D02*
X69637Y47931D01*
X69663Y47928D01*
X69746Y47950D01*
X69831Y47965D01*
X69854Y47979D01*
X69880Y47986D01*
X69950Y48036D01*
X70024Y48080D01*
X70041Y48100D01*
X70063Y48116D01*
X70111Y48187D01*
X70165Y48254D01*
X70174Y48279D01*
X70189Y48301D01*
X70210Y48385D01*
X70237Y48466D01*
X70237Y48493D01*
X70243Y48519D01*
X70233Y48605D01*
X70231Y48691D01*
X70221Y48715D01*
X70218Y48742D01*
X70161Y48862D01*
X70146Y48898D01*
X70141Y48904D01*
X70138Y48912D01*
X67598Y52722D01*
X67544Y52778D01*
X67496Y52840D01*
X67471Y52856D01*
X67458Y52870D01*
X67453Y52872D01*
X67442Y52884D01*
X67372Y52917D01*
X67306Y52959D01*
X67272Y52966D01*
X67240Y52981D01*
X67163Y52988D01*
X67086Y53004D01*
X67051Y52999D01*
X67017Y53002D01*
X66941Y52982D01*
X66864Y52970D01*
X66847Y52960D01*
X66846Y52960D01*
X66841Y52957D01*
X66834Y52953D01*
X66800Y52944D01*
X66736Y52899D01*
X66668Y52861D01*
X66657Y52848D01*
X66653Y52846D01*
X66641Y52831D01*
X66617Y52814D01*
X66591Y52775D01*
X66542Y52722D01*
X64002Y48912D01*
X63992Y48887D01*
X63975Y48866D01*
X63947Y48785D01*
X63913Y48706D01*
X63911Y48679D01*
X63903Y48654D01*
X63905Y48568D01*
X63901Y48482D01*
X63909Y48456D01*
X63909Y48429D01*
X63942Y48350D01*
X63967Y48268D01*
X63984Y48246D01*
X63994Y48222D01*
X64052Y48158D01*
X64104Y48090D01*
X64127Y48076D01*
X64145Y48056D01*
X64222Y48017D01*
X64294Y47971D01*
X64321Y47966D01*
X64345Y47953D01*
X64475Y47934D01*
X64514Y47926D01*
X64521Y47927D01*
X64530Y47926D01*
X69610Y47926D01*
X69637Y47931D01*
G37*
G36*
X214417Y47931D02*
X214417Y47931D01*
X214443Y47928D01*
X214526Y47950D01*
X214611Y47965D01*
X214634Y47979D01*
X214660Y47986D01*
X214730Y48036D01*
X214804Y48080D01*
X214821Y48100D01*
X214843Y48116D01*
X214891Y48187D01*
X214945Y48254D01*
X214954Y48279D01*
X214969Y48301D01*
X214990Y48385D01*
X215017Y48466D01*
X215017Y48493D01*
X215023Y48519D01*
X215013Y48605D01*
X215011Y48691D01*
X215001Y48715D01*
X214998Y48742D01*
X214941Y48862D01*
X214926Y48898D01*
X214921Y48904D01*
X214918Y48912D01*
X212378Y52722D01*
X212324Y52778D01*
X212276Y52840D01*
X212251Y52856D01*
X212238Y52870D01*
X212233Y52872D01*
X212222Y52884D01*
X212152Y52917D01*
X212086Y52959D01*
X212052Y52966D01*
X212020Y52981D01*
X211943Y52988D01*
X211866Y53004D01*
X211831Y52999D01*
X211797Y53002D01*
X211721Y52982D01*
X211644Y52970D01*
X211627Y52960D01*
X211626Y52960D01*
X211621Y52957D01*
X211614Y52953D01*
X211580Y52944D01*
X211516Y52899D01*
X211448Y52861D01*
X211437Y52848D01*
X211433Y52846D01*
X211421Y52831D01*
X211397Y52814D01*
X211371Y52775D01*
X211322Y52722D01*
X208782Y48912D01*
X208772Y48887D01*
X208755Y48866D01*
X208727Y48785D01*
X208693Y48706D01*
X208691Y48679D01*
X208683Y48654D01*
X208685Y48568D01*
X208681Y48482D01*
X208689Y48456D01*
X208689Y48429D01*
X208722Y48350D01*
X208747Y48268D01*
X208764Y48246D01*
X208774Y48222D01*
X208832Y48158D01*
X208884Y48090D01*
X208907Y48076D01*
X208925Y48056D01*
X209002Y48017D01*
X209074Y47971D01*
X209101Y47966D01*
X209125Y47953D01*
X209255Y47934D01*
X209294Y47926D01*
X209301Y47927D01*
X209310Y47926D01*
X214390Y47926D01*
X214417Y47931D01*
G37*
D10*
X10922Y66746D02*
X15438Y70358D01*
X15438Y54102D01*
X19953Y54102D02*
X10922Y54102D01*
X617982Y320746D02*
X622498Y324358D01*
X622498Y308102D01*
X627013Y308102D02*
X617982Y308102D01*
D11*
X258690Y147319D03*
D12*
X258690Y147742D03*
D11*
X258690Y148165D03*
X258690Y148589D03*
D12*
X258690Y149012D03*
D11*
X258690Y149435D03*
X258690Y149859D03*
D12*
X258690Y150282D03*
D11*
X258690Y150705D03*
X258690Y151129D03*
D12*
X258690Y151552D03*
D11*
X258690Y151975D03*
X258690Y152399D03*
D12*
X258690Y152822D03*
D11*
X258690Y153245D03*
X258690Y153669D03*
D12*
X258690Y154092D03*
D11*
X258690Y154515D03*
X258690Y154939D03*
D12*
X258690Y155362D03*
D11*
X258690Y155785D03*
X258690Y156209D03*
D12*
X258690Y156632D03*
D11*
X258690Y157055D03*
X258690Y157479D03*
D12*
X258690Y157902D03*
D11*
X258690Y158325D03*
X258690Y158749D03*
D12*
X258690Y159172D03*
D11*
X258690Y159595D03*
X258690Y160019D03*
D12*
X258690Y160442D03*
D11*
X258690Y160865D03*
X258690Y161289D03*
D12*
X258690Y161712D03*
X273523Y161712D03*
D13*
X292561Y161712D03*
D14*
X328552Y161712D03*
D11*
X258690Y162135D03*
X273523Y162135D03*
D15*
X292345Y162135D03*
D16*
X328540Y162135D03*
D11*
X258690Y162559D03*
X273523Y162559D03*
D17*
X292141Y162559D03*
D18*
X328540Y162559D03*
D12*
X258690Y162982D03*
X273523Y162982D03*
D13*
X291722Y162982D03*
D19*
X328552Y162982D03*
D11*
X258690Y163405D03*
X273523Y163405D03*
D20*
X291722Y163405D03*
D21*
X328552Y163405D03*
D11*
X258690Y163829D03*
X273523Y163829D03*
D20*
X291291Y163829D03*
D22*
X328540Y163829D03*
D12*
X258690Y164252D03*
X273523Y164252D03*
D23*
X291075Y164252D03*
D24*
X328336Y164252D03*
D11*
X258690Y164675D03*
X273523Y164675D03*
D17*
X290871Y164675D03*
D25*
X328540Y164675D03*
D11*
X258690Y165099D03*
X273523Y165099D03*
D20*
X290452Y165099D03*
D26*
X328552Y165099D03*
D12*
X258690Y165522D03*
X273523Y165522D03*
D13*
X290452Y165522D03*
D27*
X328336Y165522D03*
D11*
X258690Y165945D03*
X273523Y165945D03*
D20*
X290021Y165945D03*
D28*
X328336Y165945D03*
D11*
X258690Y166369D03*
X273523Y166369D03*
D29*
X289817Y166369D03*
D30*
X321771Y166369D03*
D16*
X335321Y166369D03*
D12*
X258690Y166792D03*
X273523Y166792D03*
D31*
X289601Y166792D03*
D32*
X320285Y166792D03*
D33*
X336376Y166792D03*
D11*
X258690Y167215D03*
X273523Y167215D03*
D29*
X289386Y167215D03*
D34*
X319650Y167215D03*
D35*
X337011Y167215D03*
D11*
X258690Y167639D03*
X273523Y167639D03*
D20*
X289182Y167639D03*
D36*
X319027Y167639D03*
D11*
X337023Y167639D03*
D12*
X258690Y168062D03*
X273523Y168062D03*
D13*
X288751Y168062D03*
D37*
X318596Y168062D03*
D38*
X337226Y168062D03*
D11*
X258690Y168485D03*
X273523Y168485D03*
D29*
X288547Y168485D03*
D35*
X317961Y168485D03*
D39*
X337023Y168485D03*
D11*
X258690Y168909D03*
X273523Y168909D03*
D17*
X288331Y168909D03*
D15*
X317745Y168909D03*
D40*
X337011Y168909D03*
D12*
X258690Y169332D03*
X273523Y169332D03*
D41*
X288116Y169332D03*
D23*
X317338Y169332D03*
D42*
X336807Y169332D03*
D11*
X258690Y169755D03*
X273523Y169755D03*
D20*
X287912Y169755D03*
X317122Y169755D03*
D43*
X336807Y169755D03*
D11*
X258690Y170179D03*
X273523Y170179D03*
D44*
X287696Y170179D03*
D20*
X316691Y170179D03*
D12*
X258690Y170602D03*
X273523Y170602D03*
D41*
X287277Y170602D03*
X316487Y170602D03*
D11*
X258690Y171025D03*
X273523Y171025D03*
D29*
X287277Y171025D03*
D17*
X316271Y171025D03*
D11*
X258690Y171449D03*
X273523Y171449D03*
D29*
X286846Y171449D03*
X316056Y171449D03*
D12*
X258690Y171872D03*
X273523Y171872D03*
D45*
X286426Y171872D03*
X315636Y171872D03*
D11*
X258690Y172295D03*
X273523Y172295D03*
D44*
X286426Y172295D03*
X315636Y172295D03*
D11*
X258690Y172719D03*
X273523Y172719D03*
D29*
X286007Y172719D03*
D11*
X315433Y172719D03*
D12*
X258690Y173142D03*
X273523Y173142D03*
D41*
X286007Y173142D03*
X315217Y173142D03*
D11*
X258690Y173565D03*
X273523Y173565D03*
D29*
X285576Y173565D03*
X315217Y173565D03*
D11*
X258690Y173989D03*
X273523Y173989D03*
X285360Y173989D03*
X315001Y173989D03*
D12*
X258690Y174412D03*
X273523Y174412D03*
D45*
X285156Y174412D03*
D12*
X315001Y174412D03*
D11*
X258690Y174835D03*
X273523Y174835D03*
D29*
X284737Y174835D03*
D11*
X315001Y174835D03*
X258690Y175259D03*
X273523Y175259D03*
D29*
X284737Y175259D03*
D11*
X314570Y175259D03*
D46*
X261026Y175682D03*
D47*
X299330Y175682D03*
D48*
X281550Y176105D03*
X281550Y176529D03*
D49*
X281550Y176952D03*
D48*
X281550Y177375D03*
X281550Y177799D03*
D49*
X281550Y178222D03*
D48*
X281550Y178645D03*
X281550Y179069D03*
D49*
X281550Y179492D03*
D48*
X281550Y179915D03*
X281550Y180339D03*
D12*
X273523Y180762D03*
D50*
X300816Y180762D03*
D11*
X273523Y181185D03*
D51*
X290452Y181185D03*
D29*
X314786Y181185D03*
D43*
X252987Y181609D03*
D11*
X273523Y181609D03*
D36*
X290656Y181609D03*
D11*
X315001Y181609D03*
D42*
X252556Y182032D03*
D12*
X273523Y182032D03*
D23*
X291075Y182032D03*
D12*
X315001Y182032D03*
D40*
X252352Y182455D03*
D11*
X273523Y182455D03*
D20*
X291291Y182455D03*
D29*
X315217Y182455D03*
D39*
X251933Y182879D03*
D11*
X273523Y182879D03*
D44*
X291506Y182879D03*
D29*
X315217Y182879D03*
D38*
X251705Y183302D03*
D12*
X273523Y183302D03*
X291710Y183302D03*
X315433Y183302D03*
D52*
X251082Y183725D03*
D11*
X273523Y183725D03*
X291710Y183725D03*
D44*
X315636Y183725D03*
D53*
X250231Y184149D03*
D11*
X273523Y184149D03*
D54*
X291926Y184149D03*
D44*
X315636Y184149D03*
D55*
X249177Y184572D03*
D12*
X273523Y184572D03*
D55*
X291926Y184572D03*
D41*
X316056Y184572D03*
D56*
X248326Y184995D03*
D11*
X273523Y184995D03*
D54*
X291926Y184995D03*
D29*
X316056Y184995D03*
D52*
X247272Y185419D03*
D11*
X273523Y185419D03*
D54*
X291926Y185419D03*
D17*
X316271Y185419D03*
D57*
X246421Y185842D03*
D12*
X273523Y185842D03*
D55*
X291926Y185842D03*
D13*
X316691Y185842D03*
D52*
X245571Y186265D03*
D11*
X273523Y186265D03*
D54*
X291926Y186265D03*
D15*
X316906Y186265D03*
D52*
X244732Y186689D03*
D11*
X273523Y186689D03*
D54*
X291926Y186689D03*
D15*
X317338Y186689D03*
D58*
X336591Y186689D03*
D12*
X243881Y187112D03*
X273523Y187112D03*
X291710Y187112D03*
D59*
X317541Y187112D03*
D60*
X336591Y187112D03*
D20*
X243462Y187535D03*
D11*
X273523Y187535D03*
X291710Y187535D03*
D35*
X317961Y187535D03*
D61*
X336591Y187535D03*
D15*
X243678Y187959D03*
D11*
X273523Y187959D03*
D44*
X291506Y187959D03*
D35*
X318392Y187959D03*
D62*
X336591Y187959D03*
D31*
X243881Y188382D03*
D12*
X273523Y188382D03*
D13*
X291291Y188382D03*
D37*
X319027Y188382D03*
D63*
X336591Y188382D03*
D17*
X243881Y188805D03*
D11*
X273523Y188805D03*
D15*
X291075Y188805D03*
D64*
X319446Y188805D03*
D53*
X336591Y188805D03*
D29*
X244097Y189229D03*
D11*
X273523Y189229D03*
D65*
X290871Y189229D03*
D66*
X320081Y189229D03*
D20*
X336172Y189229D03*
D67*
X240922Y189652D03*
D68*
X244732Y189652D03*
D12*
X273523Y189652D03*
D69*
X290452Y189652D03*
D70*
X321136Y189652D03*
D71*
X335956Y189652D03*
D72*
X244732Y190075D03*
D11*
X273523Y190075D03*
D73*
X289386Y190075D03*
D28*
X328336Y190075D03*
D72*
X244732Y190499D03*
D74*
X290668Y190499D03*
D75*
X328540Y190499D03*
D76*
X245367Y190922D03*
D77*
X290668Y190922D03*
D78*
X328552Y190922D03*
D79*
X245786Y191345D03*
D74*
X290668Y191345D03*
D80*
X328756Y191345D03*
D39*
X245990Y191769D03*
D74*
X290668Y191769D03*
D81*
X328552Y191769D03*
D82*
X244516Y192192D03*
D83*
X246625Y192192D03*
D77*
X290668Y192192D03*
D84*
X328756Y192192D03*
D85*
X244732Y192615D03*
D40*
X246841Y192615D03*
D74*
X290668Y192615D03*
D86*
X328552Y192615D03*
D43*
X244936Y193039D03*
D87*
X247056Y193039D03*
D74*
X290668Y193039D03*
D88*
X328540Y193039D03*
D89*
X244936Y193462D03*
D90*
X247272Y193462D03*
D77*
X290668Y193462D03*
D91*
X328756Y193462D03*
D43*
X244936Y193885D03*
D87*
X247488Y193885D03*
D74*
X290668Y193885D03*
D92*
X328756Y193885D03*
D43*
X244936Y194309D03*
D87*
X247895Y194309D03*
D93*
X279441Y194309D03*
D80*
X299977Y194309D03*
D94*
X328756Y194309D03*
D89*
X245367Y194732D03*
D90*
X248111Y194732D03*
D95*
X278387Y194732D03*
D96*
X299977Y194732D03*
D97*
X329187Y194732D03*
D43*
X245367Y195155D03*
D87*
X248326Y195155D03*
D80*
X299977Y195155D03*
D43*
X245367Y195579D03*
D40*
X248542Y195579D03*
D11*
X292141Y195579D03*
D89*
X245367Y196002D03*
D83*
X248758Y196002D03*
D55*
X291926Y196002D03*
D43*
X245367Y196425D03*
D62*
X248961Y196425D03*
D98*
X273726Y196425D03*
D54*
X291926Y196425D03*
D99*
X245786Y196849D03*
D87*
X249165Y196849D03*
D98*
X273726Y196849D03*
D54*
X291926Y196849D03*
D82*
X245786Y197272D03*
D90*
X249381Y197272D03*
D100*
X273726Y197272D03*
D55*
X291926Y197272D03*
D99*
X245786Y197695D03*
D87*
X249596Y197695D03*
D98*
X273726Y197695D03*
D54*
X291926Y197695D03*
D99*
X245786Y198119D03*
D40*
X249812Y198119D03*
D98*
X273726Y198119D03*
D54*
X291926Y198119D03*
D82*
X245786Y198542D03*
D83*
X250028Y198542D03*
D57*
X270551Y198542D03*
D55*
X291926Y198542D03*
D85*
X246002Y198965D03*
D62*
X250231Y198965D03*
D53*
X270551Y198965D03*
D54*
X291926Y198965D03*
D43*
X246206Y199389D03*
D87*
X250435Y199389D03*
D53*
X270551Y199389D03*
D54*
X291926Y199389D03*
D89*
X246206Y199812D03*
D83*
X250866Y199812D03*
D57*
X270551Y199812D03*
D55*
X291926Y199812D03*
D43*
X246206Y200235D03*
D40*
X251082Y200235D03*
D101*
X270551Y200235D03*
D54*
X291926Y200235D03*
D43*
X246206Y200659D03*
D87*
X251298Y200659D03*
D102*
X270767Y200659D03*
D54*
X291926Y200659D03*
D103*
X246421Y201082D03*
D104*
X251501Y201082D03*
X270551Y201082D03*
D55*
X291926Y201082D03*
D43*
X246637Y201505D03*
D87*
X251705Y201505D03*
D105*
X270767Y201505D03*
D54*
X291926Y201505D03*
D43*
X246637Y201929D03*
D40*
X251921Y201929D03*
D105*
X270767Y201929D03*
D54*
X291926Y201929D03*
D89*
X246637Y202352D03*
D83*
X252136Y202352D03*
D106*
X270983Y202352D03*
D55*
X291926Y202352D03*
D43*
X246637Y202775D03*
D40*
X252352Y202775D03*
D43*
X269497Y202775D03*
D87*
X271618Y202775D03*
D54*
X291926Y202775D03*
D85*
X246841Y203199D03*
D87*
X252568Y203199D03*
D43*
X269497Y203199D03*
D87*
X272025Y203199D03*
D54*
X291926Y203199D03*
D82*
X247056Y203622D03*
D104*
X252771Y203622D03*
D82*
X269916Y203622D03*
D83*
X272025Y203622D03*
D55*
X291926Y203622D03*
D107*
X247260Y204045D03*
D87*
X252975Y204045D03*
D99*
X269916Y204045D03*
D87*
X272456Y204045D03*
D108*
X300396Y204045D03*
D109*
X247907Y204469D03*
D40*
X253191Y204469D03*
D99*
X269916Y204469D03*
D87*
X272456Y204469D03*
D108*
X300396Y204469D03*
D42*
X248746Y204892D03*
D76*
X254257Y204892D03*
D82*
X269916Y204892D03*
D90*
X272672Y204892D03*
D110*
X300396Y204892D03*
D111*
X249596Y205315D03*
D112*
X254676Y205315D03*
D99*
X269916Y205315D03*
D87*
X272888Y205315D03*
D108*
X300396Y205315D03*
D109*
X250447Y205739D03*
D113*
X255108Y205739D03*
D99*
X269916Y205739D03*
D62*
X273091Y205739D03*
D108*
X300396Y205739D03*
D31*
X254041Y206162D03*
D67*
X270132Y206162D03*
D83*
X273295Y206162D03*
D110*
X300396Y206162D03*
D44*
X254676Y206585D03*
D43*
X270336Y206585D03*
D87*
X273726Y206585D03*
D108*
X300396Y206585D03*
D11*
X254880Y207009D03*
D43*
X270336Y207009D03*
D87*
X273726Y207009D03*
D108*
X300396Y207009D03*
D12*
X254880Y207432D03*
D89*
X270336Y207432D03*
D90*
X273942Y207432D03*
D110*
X300396Y207432D03*
D11*
X254880Y207855D03*
D43*
X270336Y207855D03*
D87*
X274158Y207855D03*
D108*
X300396Y207855D03*
D11*
X254880Y208279D03*
D43*
X270336Y208279D03*
D62*
X274361Y208279D03*
D108*
X300396Y208279D03*
D55*
X255096Y208702D03*
D89*
X270336Y208702D03*
D83*
X274565Y208702D03*
D110*
X300396Y208702D03*
D52*
X254892Y209125D03*
D43*
X270767Y209125D03*
D40*
X274781Y209125D03*
D108*
X300396Y209125D03*
D113*
X255108Y209549D03*
D43*
X270767Y209549D03*
D87*
X274996Y209549D03*
D114*
X254892Y209972D03*
D89*
X270767Y209972D03*
D90*
X275212Y209972D03*
D112*
X254676Y210395D03*
D43*
X270767Y210395D03*
D87*
X275428Y210395D03*
D43*
X252987Y210819D03*
D87*
X255515Y210819D03*
D43*
X270767Y210819D03*
D62*
X275631Y210819D03*
D89*
X252987Y211242D03*
D83*
X255515Y211242D03*
D89*
X270767Y211242D03*
D83*
X275835Y211242D03*
D43*
X252987Y211665D03*
D87*
X255515Y211665D03*
D99*
X271186Y211665D03*
D40*
X276051Y211665D03*
D58*
X252771Y212089D03*
D115*
X255731Y212089D03*
D99*
X271186Y212089D03*
D87*
X276266Y212089D03*
D89*
X252556Y212512D03*
D116*
X255731Y212512D03*
D82*
X271186Y212512D03*
D90*
X276482Y212512D03*
D43*
X252556Y212935D03*
D87*
X255946Y212935D03*
D99*
X271186Y212935D03*
D87*
X276698Y212935D03*
D43*
X252556Y213359D03*
D87*
X255946Y213359D03*
D99*
X271186Y213359D03*
D87*
X276698Y213359D03*
D89*
X252556Y213782D03*
D83*
X255946Y213782D03*
D82*
X271186Y213782D03*
D83*
X277105Y213782D03*
D99*
X252136Y214205D03*
D115*
X256162Y214205D03*
D43*
X271606Y214205D03*
D87*
X277105Y214205D03*
D99*
X252136Y214629D03*
D115*
X256162Y214629D03*
D109*
X272037Y214629D03*
D87*
X277536Y214629D03*
D82*
X252136Y215052D03*
D116*
X256162Y215052D03*
D42*
X272876Y215052D03*
D83*
X277536Y215052D03*
D99*
X252136Y215475D03*
D87*
X256378Y215475D03*
D115*
X273511Y215475D03*
D62*
X278171Y215475D03*
D43*
X251717Y215899D03*
D87*
X256378Y215899D03*
D109*
X274146Y215899D03*
D112*
X278806Y215899D03*
D89*
X251717Y216322D03*
D83*
X256378Y216322D03*
D117*
X274996Y216322D03*
D114*
X279022Y216322D03*
D43*
X251717Y216745D03*
D61*
X256581Y216745D03*
D29*
X278387Y216745D03*
D43*
X251717Y217169D03*
D61*
X256581Y217169D03*
D11*
X278603Y217169D03*
D89*
X251717Y217592D03*
D83*
X256785Y217592D03*
D23*
X277968Y217592D03*
D43*
X251286Y218015D03*
D87*
X256785Y218015D03*
D16*
X276470Y218015D03*
D43*
X251286Y218439D03*
D87*
X256785Y218439D03*
D53*
X270551Y218439D03*
D11*
X279010Y218439D03*
D89*
X251286Y218862D03*
D116*
X257001Y218862D03*
D68*
X267592Y218862D03*
D45*
X278806Y218862D03*
D43*
X251286Y219285D03*
D115*
X257001Y219285D03*
D72*
X265052Y219285D03*
D29*
X278387Y219285D03*
D99*
X250866Y219709D03*
D87*
X257216Y219709D03*
D109*
X263147Y219709D03*
D15*
X277968Y219709D03*
D82*
X250866Y220132D03*
D83*
X257216Y220132D03*
D60*
X262500Y220132D03*
D23*
X277536Y220132D03*
D99*
X250866Y220555D03*
D87*
X257216Y220555D03*
D99*
X262296Y220555D03*
D36*
X277117Y220555D03*
D99*
X250866Y220979D03*
D87*
X257216Y220979D03*
D99*
X262296Y220979D03*
D101*
X274361Y220979D03*
D39*
X279010Y220979D03*
D82*
X250866Y221402D03*
D116*
X257432Y221402D03*
D89*
X261877Y221402D03*
D38*
X273726Y221402D03*
D60*
X279010Y221402D03*
D43*
X250447Y221825D03*
D115*
X257432Y221825D03*
D43*
X261877Y221825D03*
D101*
X273091Y221825D03*
D43*
X250447Y222249D03*
D87*
X257648Y222249D03*
D43*
X261446Y222249D03*
D72*
X272241Y222249D03*
D89*
X250447Y222672D03*
D83*
X257648Y222672D03*
D89*
X261446Y222672D03*
D114*
X271402Y222672D03*
D107*
X250663Y223095D03*
D87*
X257648Y223095D03*
D99*
X261026Y223095D03*
D113*
X270755Y223095D03*
D107*
X251070Y223519D03*
D87*
X257648Y223519D03*
D99*
X261026Y223519D03*
D113*
X269916Y223519D03*
D60*
X251501Y223942D03*
D118*
X257851Y223942D03*
D60*
X260823Y223942D03*
D63*
X269281Y223942D03*
D107*
X251933Y224365D03*
D61*
X257851Y224365D03*
D43*
X260607Y224365D03*
D72*
X268431Y224365D03*
D107*
X252340Y224789D03*
D87*
X258055Y224789D03*
D107*
X260391Y224789D03*
D113*
X267808Y224789D03*
D60*
X252771Y225212D03*
D83*
X258055Y225212D03*
D89*
X260176Y225212D03*
D38*
X266945Y225212D03*
D107*
X253203Y225635D03*
D39*
X258690Y225635D03*
D72*
X266322Y225635D03*
D107*
X253610Y226059D03*
D40*
X258702Y226059D03*
D101*
X265471Y226059D03*
D60*
X254041Y226482D03*
D97*
X258906Y226482D03*
D38*
X264836Y226482D03*
D111*
X254676Y226905D03*
D101*
X259121Y226905D03*
X264201Y226905D03*
D107*
X254880Y227329D03*
D64*
X261026Y227329D03*
D32*
X259756Y227752D03*
D64*
X259756Y228175D03*
D35*
X259541Y228599D03*
D31*
X259121Y229022D03*
D17*
X259121Y229445D03*
X259121Y229869D03*
D31*
X259121Y230292D03*
D17*
X259121Y230715D03*
D29*
X258906Y231139D03*
D12*
X259121Y231562D03*
D54*
X258906Y231985D03*
D113*
X258918Y232409D03*
D106*
X259121Y232832D03*
D109*
X258906Y233255D03*
D119*
X246888Y140462D02*
X246888Y128778D01*
X250783Y133971D02*
X246888Y140462D01*
X250783Y133971D02*
X254677Y140462D01*
X254677Y128778D01*
X262210Y133322D02*
X265131Y133322D01*
X262210Y133322D02*
X262116Y133320D01*
X262022Y133314D01*
X261929Y133305D01*
X261836Y133291D01*
X261744Y133274D01*
X261652Y133252D01*
X261562Y133228D01*
X261472Y133199D01*
X261384Y133167D01*
X261297Y133131D01*
X261212Y133091D01*
X261129Y133048D01*
X261047Y133002D01*
X260967Y132952D01*
X260890Y132899D01*
X260815Y132843D01*
X260742Y132784D01*
X260671Y132722D01*
X260603Y132657D01*
X260538Y132589D01*
X260476Y132518D01*
X260417Y132445D01*
X260361Y132370D01*
X260308Y132293D01*
X260258Y132213D01*
X260212Y132131D01*
X260169Y132048D01*
X260129Y131963D01*
X260093Y131876D01*
X260061Y131788D01*
X260032Y131698D01*
X260008Y131608D01*
X259986Y131516D01*
X259969Y131424D01*
X259955Y131331D01*
X259946Y131238D01*
X259940Y131144D01*
X259938Y131050D01*
X259940Y130956D01*
X259946Y130862D01*
X259955Y130769D01*
X259969Y130676D01*
X259986Y130584D01*
X260008Y130492D01*
X260032Y130402D01*
X260061Y130312D01*
X260093Y130224D01*
X260129Y130137D01*
X260169Y130052D01*
X260212Y129969D01*
X260258Y129887D01*
X260308Y129807D01*
X260361Y129730D01*
X260417Y129655D01*
X260476Y129582D01*
X260538Y129511D01*
X260603Y129443D01*
X260671Y129378D01*
X260742Y129316D01*
X260815Y129257D01*
X260890Y129201D01*
X260967Y129148D01*
X261047Y129098D01*
X261129Y129052D01*
X261212Y129009D01*
X261297Y128969D01*
X261384Y128933D01*
X261472Y128901D01*
X261562Y128872D01*
X261652Y128848D01*
X261744Y128826D01*
X261836Y128809D01*
X261929Y128795D01*
X262022Y128786D01*
X262116Y128780D01*
X262210Y128778D01*
X265131Y128778D01*
X265131Y134620D01*
X265129Y134707D01*
X265123Y134795D01*
X265113Y134881D01*
X265100Y134968D01*
X265082Y135053D01*
X265061Y135138D01*
X265036Y135222D01*
X265007Y135304D01*
X264974Y135385D01*
X264938Y135465D01*
X264899Y135543D01*
X264855Y135619D01*
X264809Y135693D01*
X264759Y135764D01*
X264706Y135834D01*
X264650Y135901D01*
X264591Y135965D01*
X264529Y136027D01*
X264465Y136086D01*
X264398Y136142D01*
X264328Y136195D01*
X264257Y136245D01*
X264183Y136291D01*
X264107Y136335D01*
X264029Y136374D01*
X263949Y136410D01*
X263868Y136443D01*
X263786Y136472D01*
X263702Y136497D01*
X263617Y136518D01*
X263532Y136536D01*
X263445Y136549D01*
X263359Y136559D01*
X263271Y136565D01*
X263184Y136567D01*
X260587Y136567D01*
X275418Y140462D02*
X275418Y128778D01*
X272173Y128778D01*
X272086Y128780D01*
X271998Y128786D01*
X271912Y128796D01*
X271825Y128809D01*
X271740Y128827D01*
X271655Y128848D01*
X271571Y128873D01*
X271489Y128902D01*
X271408Y128935D01*
X271328Y128971D01*
X271250Y129010D01*
X271174Y129054D01*
X271100Y129100D01*
X271029Y129150D01*
X270959Y129203D01*
X270892Y129259D01*
X270828Y129318D01*
X270766Y129380D01*
X270707Y129444D01*
X270651Y129511D01*
X270598Y129581D01*
X270548Y129652D01*
X270502Y129726D01*
X270458Y129802D01*
X270419Y129880D01*
X270383Y129960D01*
X270350Y130041D01*
X270321Y130123D01*
X270296Y130207D01*
X270275Y130292D01*
X270257Y130377D01*
X270244Y130464D01*
X270234Y130550D01*
X270228Y130638D01*
X270226Y130725D01*
X270225Y130725D02*
X270225Y134620D01*
X270226Y134620D02*
X270228Y134707D01*
X270234Y134795D01*
X270244Y134881D01*
X270257Y134968D01*
X270275Y135053D01*
X270296Y135138D01*
X270321Y135222D01*
X270350Y135304D01*
X270383Y135385D01*
X270419Y135465D01*
X270458Y135543D01*
X270502Y135619D01*
X270548Y135693D01*
X270598Y135764D01*
X270651Y135834D01*
X270707Y135901D01*
X270766Y135965D01*
X270828Y136027D01*
X270892Y136086D01*
X270959Y136142D01*
X271029Y136195D01*
X271100Y136245D01*
X271174Y136291D01*
X271250Y136335D01*
X271328Y136374D01*
X271408Y136410D01*
X271489Y136443D01*
X271571Y136472D01*
X271655Y136497D01*
X271740Y136518D01*
X271825Y136536D01*
X271912Y136549D01*
X271998Y136559D01*
X272086Y136565D01*
X272173Y136567D01*
X275418Y136567D01*
X285705Y140462D02*
X285705Y128778D01*
X282460Y128778D01*
X282373Y128780D01*
X282285Y128786D01*
X282199Y128796D01*
X282112Y128809D01*
X282027Y128827D01*
X281942Y128848D01*
X281858Y128873D01*
X281776Y128902D01*
X281695Y128935D01*
X281615Y128971D01*
X281537Y129010D01*
X281461Y129054D01*
X281387Y129100D01*
X281316Y129150D01*
X281246Y129203D01*
X281179Y129259D01*
X281115Y129318D01*
X281053Y129380D01*
X280994Y129444D01*
X280938Y129511D01*
X280885Y129581D01*
X280835Y129652D01*
X280789Y129726D01*
X280745Y129802D01*
X280706Y129880D01*
X280670Y129960D01*
X280637Y130041D01*
X280608Y130123D01*
X280583Y130207D01*
X280562Y130292D01*
X280544Y130377D01*
X280531Y130464D01*
X280521Y130550D01*
X280515Y130638D01*
X280513Y130725D01*
X280512Y130725D02*
X280512Y134620D01*
X280513Y134620D02*
X280515Y134707D01*
X280521Y134795D01*
X280531Y134881D01*
X280544Y134968D01*
X280562Y135053D01*
X280583Y135138D01*
X280608Y135222D01*
X280637Y135304D01*
X280670Y135385D01*
X280706Y135465D01*
X280745Y135543D01*
X280789Y135619D01*
X280835Y135693D01*
X280885Y135764D01*
X280938Y135834D01*
X280994Y135901D01*
X281053Y135965D01*
X281115Y136027D01*
X281179Y136086D01*
X281246Y136142D01*
X281316Y136195D01*
X281387Y136245D01*
X281461Y136291D01*
X281537Y136335D01*
X281615Y136374D01*
X281695Y136410D01*
X281776Y136443D01*
X281858Y136472D01*
X281942Y136497D01*
X282027Y136518D01*
X282112Y136536D01*
X282199Y136549D01*
X282285Y136559D01*
X282373Y136565D01*
X282460Y136567D01*
X285705Y136567D01*
X290788Y136567D02*
X290788Y128778D01*
X290463Y139813D02*
X290463Y140462D01*
X291112Y140462D01*
X291112Y139813D01*
X290463Y139813D01*
X297377Y128778D02*
X300623Y128778D01*
X297377Y128778D02*
X297290Y128780D01*
X297202Y128786D01*
X297116Y128796D01*
X297029Y128809D01*
X296944Y128827D01*
X296859Y128848D01*
X296775Y128873D01*
X296693Y128902D01*
X296612Y128935D01*
X296532Y128971D01*
X296454Y129010D01*
X296378Y129054D01*
X296304Y129100D01*
X296233Y129150D01*
X296163Y129203D01*
X296096Y129259D01*
X296032Y129318D01*
X295970Y129380D01*
X295911Y129444D01*
X295855Y129511D01*
X295802Y129581D01*
X295752Y129652D01*
X295706Y129726D01*
X295662Y129802D01*
X295623Y129880D01*
X295587Y129960D01*
X295554Y130041D01*
X295525Y130123D01*
X295500Y130207D01*
X295479Y130292D01*
X295461Y130377D01*
X295448Y130464D01*
X295438Y130550D01*
X295432Y130638D01*
X295430Y130725D01*
X295430Y133971D01*
X295431Y133971D02*
X295433Y134072D01*
X295439Y134172D01*
X295449Y134272D01*
X295462Y134372D01*
X295480Y134471D01*
X295501Y134570D01*
X295526Y134667D01*
X295555Y134764D01*
X295588Y134859D01*
X295624Y134953D01*
X295664Y135045D01*
X295707Y135136D01*
X295754Y135225D01*
X295804Y135312D01*
X295858Y135398D01*
X295915Y135481D01*
X295975Y135561D01*
X296038Y135640D01*
X296105Y135716D01*
X296174Y135789D01*
X296246Y135859D01*
X296320Y135927D01*
X296397Y135992D01*
X296477Y136053D01*
X296559Y136112D01*
X296643Y136167D01*
X296729Y136219D01*
X296817Y136268D01*
X296907Y136313D01*
X296999Y136355D01*
X297092Y136393D01*
X297187Y136427D01*
X297282Y136458D01*
X297379Y136485D01*
X297477Y136508D01*
X297576Y136528D01*
X297676Y136543D01*
X297776Y136555D01*
X297876Y136563D01*
X297977Y136567D01*
X298077Y136567D01*
X298178Y136563D01*
X298278Y136555D01*
X298378Y136543D01*
X298478Y136528D01*
X298577Y136508D01*
X298675Y136485D01*
X298772Y136458D01*
X298867Y136427D01*
X298962Y136393D01*
X299055Y136355D01*
X299147Y136313D01*
X299237Y136268D01*
X299325Y136219D01*
X299411Y136167D01*
X299495Y136112D01*
X299577Y136053D01*
X299657Y135992D01*
X299734Y135927D01*
X299808Y135859D01*
X299880Y135789D01*
X299949Y135716D01*
X300016Y135640D01*
X300079Y135561D01*
X300139Y135481D01*
X300196Y135398D01*
X300250Y135312D01*
X300300Y135225D01*
X300347Y135136D01*
X300390Y135045D01*
X300430Y134953D01*
X300466Y134859D01*
X300499Y134764D01*
X300528Y134667D01*
X300553Y134570D01*
X300574Y134471D01*
X300592Y134372D01*
X300605Y134272D01*
X300615Y134172D01*
X300621Y134072D01*
X300623Y133971D01*
X300623Y132673D01*
X295430Y132673D01*
X312095Y128778D02*
X312095Y140462D01*
X318586Y140462D02*
X312095Y133322D01*
X314692Y135918D02*
X318586Y128778D01*
X322862Y131374D02*
X322862Y133971D01*
X322863Y133971D02*
X322865Y134072D01*
X322871Y134172D01*
X322881Y134272D01*
X322894Y134372D01*
X322912Y134471D01*
X322933Y134570D01*
X322958Y134667D01*
X322987Y134764D01*
X323020Y134859D01*
X323056Y134953D01*
X323096Y135045D01*
X323139Y135136D01*
X323186Y135225D01*
X323236Y135312D01*
X323290Y135398D01*
X323347Y135481D01*
X323407Y135561D01*
X323470Y135640D01*
X323537Y135716D01*
X323606Y135789D01*
X323678Y135859D01*
X323752Y135927D01*
X323829Y135992D01*
X323909Y136053D01*
X323991Y136112D01*
X324075Y136167D01*
X324161Y136219D01*
X324249Y136268D01*
X324339Y136313D01*
X324431Y136355D01*
X324524Y136393D01*
X324619Y136427D01*
X324714Y136458D01*
X324811Y136485D01*
X324909Y136508D01*
X325008Y136528D01*
X325108Y136543D01*
X325208Y136555D01*
X325308Y136563D01*
X325409Y136567D01*
X325509Y136567D01*
X325610Y136563D01*
X325710Y136555D01*
X325810Y136543D01*
X325910Y136528D01*
X326009Y136508D01*
X326107Y136485D01*
X326204Y136458D01*
X326299Y136427D01*
X326394Y136393D01*
X326487Y136355D01*
X326579Y136313D01*
X326669Y136268D01*
X326757Y136219D01*
X326843Y136167D01*
X326927Y136112D01*
X327009Y136053D01*
X327089Y135992D01*
X327166Y135927D01*
X327240Y135859D01*
X327312Y135789D01*
X327381Y135716D01*
X327448Y135640D01*
X327511Y135561D01*
X327571Y135481D01*
X327628Y135398D01*
X327682Y135312D01*
X327732Y135225D01*
X327779Y135136D01*
X327822Y135045D01*
X327862Y134953D01*
X327898Y134859D01*
X327931Y134764D01*
X327960Y134667D01*
X327985Y134570D01*
X328006Y134471D01*
X328024Y134372D01*
X328037Y134272D01*
X328047Y134172D01*
X328053Y134072D01*
X328055Y133971D01*
X328055Y131374D01*
X328053Y131273D01*
X328047Y131173D01*
X328037Y131073D01*
X328024Y130973D01*
X328006Y130874D01*
X327985Y130775D01*
X327960Y130678D01*
X327931Y130581D01*
X327898Y130486D01*
X327862Y130392D01*
X327822Y130300D01*
X327779Y130209D01*
X327732Y130120D01*
X327682Y130033D01*
X327628Y129947D01*
X327571Y129864D01*
X327511Y129784D01*
X327448Y129705D01*
X327381Y129629D01*
X327312Y129556D01*
X327240Y129486D01*
X327166Y129418D01*
X327089Y129353D01*
X327009Y129292D01*
X326927Y129233D01*
X326843Y129178D01*
X326757Y129126D01*
X326669Y129077D01*
X326579Y129032D01*
X326487Y128990D01*
X326394Y128952D01*
X326299Y128918D01*
X326204Y128887D01*
X326107Y128860D01*
X326009Y128837D01*
X325910Y128817D01*
X325810Y128802D01*
X325710Y128790D01*
X325610Y128782D01*
X325509Y128778D01*
X325409Y128778D01*
X325308Y128782D01*
X325208Y128790D01*
X325108Y128802D01*
X325008Y128817D01*
X324909Y128837D01*
X324811Y128860D01*
X324714Y128887D01*
X324619Y128918D01*
X324524Y128952D01*
X324431Y128990D01*
X324339Y129032D01*
X324249Y129077D01*
X324161Y129126D01*
X324075Y129178D01*
X323991Y129233D01*
X323909Y129292D01*
X323829Y129353D01*
X323752Y129418D01*
X323678Y129486D01*
X323606Y129556D01*
X323537Y129629D01*
X323470Y129705D01*
X323407Y129784D01*
X323347Y129864D01*
X323290Y129947D01*
X323236Y130033D01*
X323186Y130120D01*
X323139Y130209D01*
X323096Y130300D01*
X323056Y130392D01*
X323020Y130486D01*
X322987Y130581D01*
X322958Y130678D01*
X322933Y130775D01*
X322912Y130874D01*
X322894Y130973D01*
X322881Y131073D01*
X322871Y131173D01*
X322865Y131273D01*
X322863Y131374D01*
X334656Y128778D02*
X337902Y128778D01*
X334656Y128778D02*
X334569Y128780D01*
X334481Y128786D01*
X334395Y128796D01*
X334308Y128809D01*
X334223Y128827D01*
X334138Y128848D01*
X334054Y128873D01*
X333972Y128902D01*
X333891Y128935D01*
X333811Y128971D01*
X333733Y129010D01*
X333657Y129054D01*
X333583Y129100D01*
X333512Y129150D01*
X333442Y129203D01*
X333375Y129259D01*
X333311Y129318D01*
X333249Y129380D01*
X333190Y129444D01*
X333134Y129511D01*
X333081Y129581D01*
X333031Y129652D01*
X332985Y129726D01*
X332941Y129802D01*
X332902Y129880D01*
X332866Y129960D01*
X332833Y130041D01*
X332804Y130123D01*
X332779Y130207D01*
X332758Y130292D01*
X332740Y130377D01*
X332727Y130464D01*
X332717Y130550D01*
X332711Y130638D01*
X332709Y130725D01*
X332709Y134620D01*
X332711Y134707D01*
X332717Y134795D01*
X332727Y134881D01*
X332740Y134968D01*
X332758Y135053D01*
X332779Y135138D01*
X332804Y135222D01*
X332833Y135304D01*
X332866Y135385D01*
X332902Y135465D01*
X332941Y135543D01*
X332985Y135619D01*
X333031Y135693D01*
X333081Y135764D01*
X333134Y135834D01*
X333190Y135901D01*
X333249Y135965D01*
X333311Y136027D01*
X333375Y136086D01*
X333442Y136142D01*
X333512Y136195D01*
X333583Y136245D01*
X333657Y136291D01*
X333733Y136335D01*
X333811Y136374D01*
X333891Y136410D01*
X333972Y136443D01*
X334054Y136472D01*
X334138Y136497D01*
X334223Y136518D01*
X334308Y136536D01*
X334395Y136549D01*
X334481Y136559D01*
X334569Y136565D01*
X334656Y136567D01*
X337902Y136567D01*
X337902Y126831D01*
X337900Y126744D01*
X337894Y126656D01*
X337884Y126570D01*
X337871Y126483D01*
X337853Y126398D01*
X337832Y126313D01*
X337807Y126229D01*
X337778Y126147D01*
X337745Y126066D01*
X337709Y125986D01*
X337670Y125908D01*
X337626Y125832D01*
X337580Y125758D01*
X337530Y125687D01*
X337477Y125617D01*
X337421Y125550D01*
X337362Y125486D01*
X337301Y125424D01*
X337236Y125365D01*
X337169Y125309D01*
X337099Y125256D01*
X337028Y125206D01*
X336954Y125160D01*
X336878Y125116D01*
X336800Y125077D01*
X336720Y125041D01*
X336639Y125008D01*
X336557Y124979D01*
X336473Y124954D01*
X336388Y124933D01*
X336303Y124915D01*
X336216Y124902D01*
X336130Y124892D01*
X336042Y124886D01*
X335955Y124884D01*
X335955Y124883D02*
X333358Y124883D01*
X345002Y128778D02*
X348248Y128778D01*
X345002Y128778D02*
X344915Y128780D01*
X344827Y128786D01*
X344741Y128796D01*
X344654Y128809D01*
X344569Y128827D01*
X344484Y128848D01*
X344400Y128873D01*
X344318Y128902D01*
X344237Y128935D01*
X344157Y128971D01*
X344079Y129010D01*
X344003Y129054D01*
X343929Y129100D01*
X343858Y129150D01*
X343788Y129203D01*
X343721Y129259D01*
X343657Y129318D01*
X343595Y129380D01*
X343536Y129444D01*
X343480Y129511D01*
X343427Y129581D01*
X343377Y129652D01*
X343331Y129726D01*
X343287Y129802D01*
X343248Y129880D01*
X343212Y129960D01*
X343179Y130041D01*
X343150Y130123D01*
X343125Y130207D01*
X343104Y130292D01*
X343086Y130377D01*
X343073Y130464D01*
X343063Y130550D01*
X343057Y130638D01*
X343055Y130725D01*
X343055Y133971D01*
X343057Y134072D01*
X343063Y134172D01*
X343073Y134272D01*
X343086Y134372D01*
X343104Y134471D01*
X343125Y134570D01*
X343150Y134667D01*
X343179Y134764D01*
X343212Y134859D01*
X343248Y134953D01*
X343288Y135045D01*
X343331Y135136D01*
X343378Y135225D01*
X343428Y135312D01*
X343482Y135398D01*
X343539Y135481D01*
X343599Y135561D01*
X343662Y135640D01*
X343729Y135716D01*
X343798Y135789D01*
X343870Y135859D01*
X343944Y135927D01*
X344021Y135992D01*
X344101Y136053D01*
X344183Y136112D01*
X344267Y136167D01*
X344353Y136219D01*
X344441Y136268D01*
X344531Y136313D01*
X344623Y136355D01*
X344716Y136393D01*
X344811Y136427D01*
X344906Y136458D01*
X345003Y136485D01*
X345101Y136508D01*
X345200Y136528D01*
X345300Y136543D01*
X345400Y136555D01*
X345500Y136563D01*
X345601Y136567D01*
X345701Y136567D01*
X345802Y136563D01*
X345902Y136555D01*
X346002Y136543D01*
X346102Y136528D01*
X346201Y136508D01*
X346299Y136485D01*
X346396Y136458D01*
X346491Y136427D01*
X346586Y136393D01*
X346679Y136355D01*
X346771Y136313D01*
X346861Y136268D01*
X346949Y136219D01*
X347035Y136167D01*
X347119Y136112D01*
X347201Y136053D01*
X347281Y135992D01*
X347358Y135927D01*
X347432Y135859D01*
X347504Y135789D01*
X347573Y135716D01*
X347640Y135640D01*
X347703Y135561D01*
X347763Y135481D01*
X347820Y135398D01*
X347874Y135312D01*
X347924Y135225D01*
X347971Y135136D01*
X348014Y135045D01*
X348054Y134953D01*
X348090Y134859D01*
X348123Y134764D01*
X348152Y134667D01*
X348177Y134570D01*
X348198Y134471D01*
X348216Y134372D01*
X348229Y134272D01*
X348239Y134172D01*
X348245Y134072D01*
X348247Y133971D01*
X348248Y133971D02*
X348248Y132673D01*
X343055Y132673D01*
X353111Y130725D02*
X353111Y140462D01*
X353111Y130725D02*
X353113Y130638D01*
X353119Y130550D01*
X353129Y130464D01*
X353142Y130377D01*
X353160Y130292D01*
X353181Y130207D01*
X353206Y130123D01*
X353235Y130041D01*
X353268Y129960D01*
X353304Y129880D01*
X353343Y129802D01*
X353387Y129726D01*
X353433Y129652D01*
X353483Y129581D01*
X353536Y129511D01*
X353592Y129444D01*
X353651Y129380D01*
X353713Y129318D01*
X353777Y129259D01*
X353844Y129203D01*
X353914Y129150D01*
X353985Y129100D01*
X354059Y129054D01*
X354135Y129010D01*
X354213Y128971D01*
X354293Y128935D01*
X354374Y128902D01*
X354456Y128873D01*
X354540Y128848D01*
X354625Y128827D01*
X354710Y128809D01*
X354797Y128796D01*
X354883Y128786D01*
X354971Y128780D01*
X355058Y128778D01*
X358986Y128778D02*
X358986Y136567D01*
X358662Y139813D02*
X358662Y140462D01*
X359311Y140462D01*
X359311Y139813D01*
X358662Y139813D01*
X364603Y133322D02*
X367848Y132024D01*
X364603Y133321D02*
X364528Y133354D01*
X364454Y133390D01*
X364382Y133429D01*
X364312Y133472D01*
X364245Y133518D01*
X364179Y133568D01*
X364117Y133620D01*
X364056Y133676D01*
X363999Y133734D01*
X363944Y133795D01*
X363893Y133859D01*
X363845Y133925D01*
X363800Y133994D01*
X363758Y134064D01*
X363720Y134137D01*
X363685Y134211D01*
X363654Y134287D01*
X363627Y134364D01*
X363604Y134443D01*
X363584Y134522D01*
X363569Y134603D01*
X363557Y134684D01*
X363549Y134766D01*
X363545Y134847D01*
X363546Y134929D01*
X363550Y135011D01*
X363558Y135093D01*
X363570Y135174D01*
X363586Y135254D01*
X363606Y135334D01*
X363630Y135412D01*
X363658Y135489D01*
X363689Y135565D01*
X363724Y135639D01*
X363762Y135711D01*
X363804Y135782D01*
X363850Y135850D01*
X363898Y135916D01*
X363950Y135979D01*
X364005Y136040D01*
X364063Y136098D01*
X364123Y136154D01*
X364186Y136206D01*
X364252Y136255D01*
X364320Y136301D01*
X364390Y136343D01*
X364462Y136383D01*
X364536Y136418D01*
X364611Y136450D01*
X364688Y136478D01*
X364766Y136502D01*
X364846Y136523D01*
X364926Y136540D01*
X365007Y136552D01*
X365088Y136561D01*
X365170Y136566D01*
X365252Y136567D01*
X365251Y136567D02*
X365428Y136563D01*
X365605Y136554D01*
X365782Y136540D01*
X365959Y136523D01*
X366134Y136501D01*
X366310Y136476D01*
X366484Y136445D01*
X366658Y136411D01*
X366831Y136373D01*
X367003Y136330D01*
X367174Y136283D01*
X367344Y136233D01*
X367513Y136178D01*
X367680Y136119D01*
X367845Y136056D01*
X368010Y135989D01*
X368172Y135918D01*
X367848Y132024D02*
X367923Y131991D01*
X367997Y131955D01*
X368069Y131916D01*
X368139Y131873D01*
X368206Y131827D01*
X368272Y131777D01*
X368334Y131725D01*
X368395Y131669D01*
X368452Y131611D01*
X368507Y131550D01*
X368558Y131486D01*
X368606Y131420D01*
X368651Y131351D01*
X368693Y131281D01*
X368731Y131208D01*
X368766Y131134D01*
X368797Y131058D01*
X368824Y130981D01*
X368847Y130902D01*
X368867Y130823D01*
X368882Y130742D01*
X368894Y130661D01*
X368902Y130579D01*
X368906Y130498D01*
X368905Y130416D01*
X368901Y130334D01*
X368893Y130252D01*
X368881Y130171D01*
X368865Y130091D01*
X368845Y130011D01*
X368821Y129933D01*
X368793Y129856D01*
X368762Y129780D01*
X368727Y129706D01*
X368689Y129634D01*
X368647Y129563D01*
X368601Y129495D01*
X368553Y129429D01*
X368501Y129366D01*
X368446Y129305D01*
X368388Y129247D01*
X368328Y129191D01*
X368265Y129139D01*
X368199Y129090D01*
X368131Y129044D01*
X368061Y129002D01*
X367989Y128962D01*
X367915Y128927D01*
X367840Y128895D01*
X367763Y128867D01*
X367685Y128843D01*
X367605Y128822D01*
X367525Y128805D01*
X367444Y128793D01*
X367363Y128784D01*
X367281Y128779D01*
X367199Y128778D01*
X366939Y128785D01*
X366679Y128798D01*
X366419Y128817D01*
X366160Y128842D01*
X365901Y128874D01*
X365644Y128911D01*
X365387Y128955D01*
X365131Y129004D01*
X364877Y129060D01*
X364624Y129121D01*
X364373Y129189D01*
X364123Y129263D01*
X363875Y129342D01*
X363629Y129427D01*
X250783Y109728D02*
X246888Y121412D01*
X254677Y121412D02*
X250783Y109728D01*
X258967Y118816D02*
X262213Y121412D01*
X262213Y109728D01*
X265458Y109728D02*
X258967Y109728D01*
X269889Y109728D02*
X269889Y110377D01*
X270538Y110377D01*
X270538Y109728D01*
X269889Y109728D01*
X274970Y115570D02*
X274973Y115800D01*
X274981Y116030D01*
X274995Y116259D01*
X275014Y116488D01*
X275039Y116717D01*
X275069Y116944D01*
X275104Y117172D01*
X275145Y117398D01*
X275191Y117623D01*
X275243Y117847D01*
X275300Y118069D01*
X275362Y118291D01*
X275430Y118510D01*
X275503Y118728D01*
X275581Y118945D01*
X275664Y119159D01*
X275752Y119371D01*
X275845Y119581D01*
X275944Y119789D01*
X275943Y119789D02*
X275976Y119879D01*
X276012Y119968D01*
X276052Y120056D01*
X276096Y120141D01*
X276143Y120225D01*
X276193Y120307D01*
X276247Y120387D01*
X276303Y120464D01*
X276363Y120540D01*
X276426Y120613D01*
X276491Y120683D01*
X276560Y120751D01*
X276631Y120815D01*
X276704Y120877D01*
X276780Y120936D01*
X276858Y120992D01*
X276939Y121045D01*
X277021Y121094D01*
X277105Y121140D01*
X277192Y121183D01*
X277279Y121222D01*
X277369Y121258D01*
X277459Y121290D01*
X277551Y121318D01*
X277644Y121343D01*
X277738Y121364D01*
X277832Y121381D01*
X277927Y121395D01*
X278023Y121404D01*
X278119Y121410D01*
X278215Y121412D01*
X278311Y121410D01*
X278407Y121404D01*
X278503Y121395D01*
X278598Y121381D01*
X278692Y121364D01*
X278786Y121343D01*
X278879Y121318D01*
X278971Y121290D01*
X279061Y121258D01*
X279151Y121222D01*
X279238Y121183D01*
X279325Y121140D01*
X279409Y121094D01*
X279491Y121045D01*
X279572Y120992D01*
X279650Y120936D01*
X279726Y120877D01*
X279799Y120815D01*
X279870Y120751D01*
X279939Y120683D01*
X280004Y120613D01*
X280067Y120540D01*
X280127Y120464D01*
X280183Y120387D01*
X280237Y120307D01*
X280287Y120225D01*
X280334Y120141D01*
X280378Y120056D01*
X280418Y119968D01*
X280454Y119879D01*
X280487Y119789D01*
X280586Y119582D01*
X280679Y119372D01*
X280767Y119159D01*
X280850Y118945D01*
X280928Y118729D01*
X281001Y118511D01*
X281069Y118291D01*
X281131Y118070D01*
X281188Y117847D01*
X281240Y117623D01*
X281286Y117398D01*
X281327Y117172D01*
X281362Y116945D01*
X281392Y116717D01*
X281417Y116488D01*
X281436Y116259D01*
X281450Y116030D01*
X281458Y115800D01*
X281461Y115570D01*
X274969Y115570D02*
X274972Y115340D01*
X274980Y115110D01*
X274994Y114881D01*
X275013Y114652D01*
X275038Y114423D01*
X275068Y114195D01*
X275103Y113968D01*
X275144Y113742D01*
X275190Y113517D01*
X275242Y113293D01*
X275299Y113070D01*
X275361Y112849D01*
X275429Y112629D01*
X275502Y112411D01*
X275580Y112195D01*
X275663Y111981D01*
X275751Y111769D01*
X275844Y111558D01*
X275943Y111351D01*
X275976Y111261D01*
X276012Y111172D01*
X276053Y111084D01*
X276096Y110999D01*
X276143Y110915D01*
X276193Y110833D01*
X276247Y110753D01*
X276303Y110676D01*
X276363Y110600D01*
X276426Y110527D01*
X276491Y110457D01*
X276560Y110389D01*
X276631Y110325D01*
X276704Y110263D01*
X276780Y110204D01*
X276858Y110148D01*
X276939Y110095D01*
X277021Y110046D01*
X277105Y110000D01*
X277192Y109957D01*
X277279Y109918D01*
X277369Y109882D01*
X277459Y109850D01*
X277551Y109822D01*
X277644Y109797D01*
X277738Y109776D01*
X277832Y109759D01*
X277927Y109745D01*
X278023Y109736D01*
X278119Y109730D01*
X278215Y109728D01*
X280486Y111351D02*
X280585Y111558D01*
X280678Y111769D01*
X280766Y111981D01*
X280849Y112195D01*
X280927Y112411D01*
X281000Y112629D01*
X281068Y112849D01*
X281130Y113070D01*
X281187Y113293D01*
X281239Y113517D01*
X281285Y113742D01*
X281326Y113968D01*
X281361Y114195D01*
X281391Y114423D01*
X281416Y114652D01*
X281435Y114881D01*
X281449Y115110D01*
X281457Y115340D01*
X281460Y115570D01*
X280487Y111351D02*
X280454Y111261D01*
X280418Y111172D01*
X280378Y111084D01*
X280334Y110999D01*
X280287Y110915D01*
X280237Y110833D01*
X280183Y110753D01*
X280127Y110676D01*
X280067Y110600D01*
X280004Y110527D01*
X279939Y110457D01*
X279870Y110389D01*
X279799Y110325D01*
X279726Y110263D01*
X279650Y110204D01*
X279572Y110148D01*
X279491Y110095D01*
X279409Y110046D01*
X279325Y110000D01*
X279238Y109957D01*
X279151Y109918D01*
X279061Y109882D01*
X278971Y109850D01*
X278879Y109822D01*
X278786Y109797D01*
X278692Y109776D01*
X278598Y109759D01*
X278503Y109745D01*
X278407Y109736D01*
X278311Y109730D01*
X278215Y109728D01*
X275618Y112324D02*
X280811Y118816D01*
D10*
X27940Y68580D02*
X25400Y68580D01*
X25400Y66040D01*
X25400Y55880D02*
X25400Y53340D01*
X27940Y53340D01*
X38100Y53340D02*
X40640Y53340D01*
X40640Y55880D01*
X40640Y66040D02*
X40640Y68580D01*
X38100Y68580D01*
X27940Y93980D02*
X25400Y93980D01*
X25400Y91440D01*
X25400Y81280D02*
X25400Y78740D01*
X27940Y78740D01*
X38100Y78740D02*
X40640Y78740D01*
X40640Y81280D01*
X40640Y91440D02*
X40640Y93980D01*
X38100Y93980D01*
X27940Y119380D02*
X25400Y119380D01*
X25400Y116840D01*
X25400Y106680D02*
X25400Y104140D01*
X27940Y104140D01*
X38100Y104140D02*
X40640Y104140D01*
X40640Y106680D01*
X40640Y116840D02*
X40640Y119380D01*
X38100Y119380D01*
X27940Y144780D02*
X25400Y144780D01*
X25400Y142240D01*
X25400Y132080D02*
X25400Y129540D01*
X27940Y129540D01*
X38100Y129540D02*
X40640Y129540D01*
X40640Y132080D01*
X40640Y142240D02*
X40640Y144780D01*
X38100Y144780D01*
X27940Y170180D02*
X25400Y170180D01*
X25400Y167640D01*
X25400Y157480D02*
X25400Y154940D01*
X27940Y154940D01*
X38100Y154940D02*
X40640Y154940D01*
X40640Y157480D01*
X40640Y167640D02*
X40640Y170180D01*
X38100Y170180D01*
X27940Y195580D02*
X25400Y195580D01*
X25400Y193040D01*
X25400Y182880D02*
X25400Y180340D01*
X27940Y180340D01*
X38100Y180340D02*
X40640Y180340D01*
X40640Y182880D01*
X40640Y193040D02*
X40640Y195580D01*
X38100Y195580D01*
X27940Y220980D02*
X25400Y220980D01*
X25400Y218440D01*
X25400Y208280D02*
X25400Y205740D01*
X27940Y205740D01*
X38100Y205740D02*
X40640Y205740D01*
X40640Y208280D01*
X40640Y218440D02*
X40640Y220980D01*
X38100Y220980D01*
X27940Y246380D02*
X25400Y246380D01*
X25400Y243840D01*
X25400Y233680D02*
X25400Y231140D01*
X27940Y231140D01*
X38100Y231140D02*
X40640Y231140D01*
X40640Y233680D01*
X40640Y243840D02*
X40640Y246380D01*
X38100Y246380D01*
X27940Y271780D02*
X25400Y271780D01*
X25400Y269240D01*
X25400Y259080D02*
X25400Y256540D01*
X27940Y256540D01*
X38100Y256540D02*
X40640Y256540D01*
X40640Y259080D01*
X40640Y269240D02*
X40640Y271780D01*
X38100Y271780D01*
X27940Y297180D02*
X25400Y297180D01*
X25400Y294640D01*
X25400Y284480D02*
X25400Y281940D01*
X27940Y281940D01*
X38100Y281940D02*
X40640Y281940D01*
X40640Y284480D01*
X40640Y294640D02*
X40640Y297180D01*
X38100Y297180D01*
X27940Y322580D02*
X25400Y322580D01*
X25400Y320040D01*
X25400Y309880D02*
X25400Y307340D01*
X27940Y307340D01*
X38100Y307340D02*
X40640Y307340D01*
X40640Y309880D01*
X40640Y320040D02*
X40640Y322580D01*
X38100Y322580D01*
X27940Y347980D02*
X25400Y347980D01*
X25400Y345440D01*
X25400Y335280D02*
X25400Y332740D01*
X27940Y332740D01*
X38100Y332740D02*
X40640Y332740D01*
X40640Y335280D01*
X40640Y345440D02*
X40640Y347980D01*
X38100Y347980D01*
X27940Y373380D02*
X25400Y373380D01*
X25400Y370840D01*
X25400Y360680D02*
X25400Y358140D01*
X27940Y358140D01*
X38100Y358140D02*
X40640Y358140D01*
X40640Y360680D01*
X40640Y370840D02*
X40640Y373380D01*
X38100Y373380D01*
X27940Y398780D02*
X25400Y398780D01*
X25400Y396240D01*
X25400Y386080D02*
X25400Y383540D01*
X27940Y383540D01*
X38100Y383540D02*
X40640Y383540D01*
X40640Y386080D01*
X40640Y396240D02*
X40640Y398780D01*
X38100Y398780D01*
X27940Y424180D02*
X25400Y424180D01*
X25400Y421640D01*
X25400Y411480D02*
X25400Y408940D01*
X27940Y408940D01*
X38100Y408940D02*
X40640Y408940D01*
X40640Y411480D01*
X40640Y421640D02*
X40640Y424180D01*
X38100Y424180D01*
X27940Y449580D02*
X25400Y449580D01*
X25400Y447040D01*
X25400Y436880D02*
X25400Y434340D01*
X27940Y434340D01*
X38100Y434340D02*
X40640Y434340D01*
X40640Y436880D01*
X40640Y447040D02*
X40640Y449580D01*
X38100Y449580D01*
X596900Y68580D02*
X599440Y68580D01*
X596900Y68580D02*
X596900Y66040D01*
X596900Y55880D02*
X596900Y53340D01*
X599440Y53340D01*
X609600Y53340D02*
X612140Y53340D01*
X612140Y55880D01*
X612140Y66040D02*
X612140Y68580D01*
X609600Y68580D01*
X599440Y93980D02*
X596900Y93980D01*
X596900Y91440D01*
X596900Y81280D02*
X596900Y78740D01*
X599440Y78740D01*
X609600Y78740D02*
X612140Y78740D01*
X612140Y81280D01*
X612140Y91440D02*
X612140Y93980D01*
X609600Y93980D01*
X599440Y119380D02*
X596900Y119380D01*
X596900Y116840D01*
X596900Y106680D02*
X596900Y104140D01*
X599440Y104140D01*
X609600Y104140D02*
X612140Y104140D01*
X612140Y106680D01*
X612140Y116840D02*
X612140Y119380D01*
X609600Y119380D01*
X599440Y144780D02*
X596900Y144780D01*
X596900Y142240D01*
X596900Y132080D02*
X596900Y129540D01*
X599440Y129540D01*
X609600Y129540D02*
X612140Y129540D01*
X612140Y132080D01*
X612140Y142240D02*
X612140Y144780D01*
X609600Y144780D01*
X599440Y170180D02*
X596900Y170180D01*
X596900Y167640D01*
X596900Y157480D02*
X596900Y154940D01*
X599440Y154940D01*
X609600Y154940D02*
X612140Y154940D01*
X612140Y157480D01*
X612140Y167640D02*
X612140Y170180D01*
X609600Y170180D01*
X599440Y195580D02*
X596900Y195580D01*
X596900Y193040D01*
X596900Y182880D02*
X596900Y180340D01*
X599440Y180340D01*
X609600Y180340D02*
X612140Y180340D01*
X612140Y182880D01*
X612140Y193040D02*
X612140Y195580D01*
X609600Y195580D01*
X599440Y220980D02*
X596900Y220980D01*
X596900Y218440D01*
X596900Y208280D02*
X596900Y205740D01*
X599440Y205740D01*
X609600Y205740D02*
X612140Y205740D01*
X612140Y208280D01*
X612140Y218440D02*
X612140Y220980D01*
X609600Y220980D01*
X599440Y246380D02*
X596900Y246380D01*
X596900Y243840D01*
X596900Y233680D02*
X596900Y231140D01*
X599440Y231140D01*
X609600Y231140D02*
X612140Y231140D01*
X612140Y233680D01*
X612140Y243840D02*
X612140Y246380D01*
X609600Y246380D01*
X599440Y271780D02*
X596900Y271780D01*
X596900Y269240D01*
X596900Y259080D02*
X596900Y256540D01*
X599440Y256540D01*
X609600Y256540D02*
X612140Y256540D01*
X612140Y259080D01*
X612140Y269240D02*
X612140Y271780D01*
X609600Y271780D01*
X599440Y297180D02*
X596900Y297180D01*
X596900Y294640D01*
X596900Y284480D02*
X596900Y281940D01*
X599440Y281940D01*
X609600Y281940D02*
X612140Y281940D01*
X612140Y284480D01*
X612140Y294640D02*
X612140Y297180D01*
X609600Y297180D01*
X599440Y322580D02*
X596900Y322580D01*
X596900Y320040D01*
X596900Y309880D02*
X596900Y307340D01*
X599440Y307340D01*
X609600Y307340D02*
X612140Y307340D01*
X612140Y309880D01*
X612140Y320040D02*
X612140Y322580D01*
X609600Y322580D01*
D119*
X295335Y323088D02*
X295335Y334772D01*
X298580Y334772D01*
X298693Y334770D01*
X298806Y334764D01*
X298919Y334754D01*
X299032Y334740D01*
X299144Y334723D01*
X299255Y334701D01*
X299365Y334676D01*
X299475Y334646D01*
X299583Y334613D01*
X299690Y334576D01*
X299796Y334536D01*
X299900Y334491D01*
X300003Y334443D01*
X300104Y334392D01*
X300203Y334337D01*
X300300Y334279D01*
X300395Y334217D01*
X300488Y334152D01*
X300578Y334084D01*
X300666Y334013D01*
X300752Y333938D01*
X300835Y333861D01*
X300915Y333781D01*
X300992Y333698D01*
X301067Y333612D01*
X301138Y333524D01*
X301206Y333434D01*
X301271Y333341D01*
X301333Y333246D01*
X301391Y333149D01*
X301446Y333050D01*
X301497Y332949D01*
X301545Y332846D01*
X301590Y332742D01*
X301630Y332636D01*
X301667Y332529D01*
X301700Y332421D01*
X301730Y332311D01*
X301755Y332201D01*
X301777Y332090D01*
X301794Y331978D01*
X301808Y331865D01*
X301818Y331752D01*
X301824Y331639D01*
X301826Y331526D01*
X301824Y331413D01*
X301818Y331300D01*
X301808Y331187D01*
X301794Y331074D01*
X301777Y330962D01*
X301755Y330851D01*
X301730Y330741D01*
X301700Y330631D01*
X301667Y330523D01*
X301630Y330416D01*
X301590Y330310D01*
X301545Y330206D01*
X301497Y330103D01*
X301446Y330002D01*
X301391Y329903D01*
X301333Y329806D01*
X301271Y329711D01*
X301206Y329618D01*
X301138Y329528D01*
X301067Y329440D01*
X300992Y329354D01*
X300915Y329271D01*
X300835Y329191D01*
X300752Y329114D01*
X300666Y329039D01*
X300578Y328968D01*
X300488Y328900D01*
X300395Y328835D01*
X300300Y328773D01*
X300203Y328715D01*
X300104Y328660D01*
X300003Y328609D01*
X299900Y328561D01*
X299796Y328516D01*
X299690Y328476D01*
X299583Y328439D01*
X299475Y328406D01*
X299365Y328376D01*
X299255Y328351D01*
X299144Y328329D01*
X299032Y328312D01*
X298919Y328298D01*
X298806Y328288D01*
X298693Y328282D01*
X298580Y328280D01*
X298580Y328281D02*
X295335Y328281D01*
X299229Y328281D02*
X301826Y323088D01*
X306691Y332176D02*
X309936Y334772D01*
X309936Y323088D01*
X306691Y323088D02*
X313182Y323088D01*
X295335Y373888D02*
X295335Y385572D01*
X298580Y385572D01*
X298693Y385570D01*
X298806Y385564D01*
X298919Y385554D01*
X299032Y385540D01*
X299144Y385523D01*
X299255Y385501D01*
X299365Y385476D01*
X299475Y385446D01*
X299583Y385413D01*
X299690Y385376D01*
X299796Y385336D01*
X299900Y385291D01*
X300003Y385243D01*
X300104Y385192D01*
X300203Y385137D01*
X300300Y385079D01*
X300395Y385017D01*
X300488Y384952D01*
X300578Y384884D01*
X300666Y384813D01*
X300752Y384738D01*
X300835Y384661D01*
X300915Y384581D01*
X300992Y384498D01*
X301067Y384412D01*
X301138Y384324D01*
X301206Y384234D01*
X301271Y384141D01*
X301333Y384046D01*
X301391Y383949D01*
X301446Y383850D01*
X301497Y383749D01*
X301545Y383646D01*
X301590Y383542D01*
X301630Y383436D01*
X301667Y383329D01*
X301700Y383221D01*
X301730Y383111D01*
X301755Y383001D01*
X301777Y382890D01*
X301794Y382778D01*
X301808Y382665D01*
X301818Y382552D01*
X301824Y382439D01*
X301826Y382326D01*
X301824Y382213D01*
X301818Y382100D01*
X301808Y381987D01*
X301794Y381874D01*
X301777Y381762D01*
X301755Y381651D01*
X301730Y381541D01*
X301700Y381431D01*
X301667Y381323D01*
X301630Y381216D01*
X301590Y381110D01*
X301545Y381006D01*
X301497Y380903D01*
X301446Y380802D01*
X301391Y380703D01*
X301333Y380606D01*
X301271Y380511D01*
X301206Y380418D01*
X301138Y380328D01*
X301067Y380240D01*
X300992Y380154D01*
X300915Y380071D01*
X300835Y379991D01*
X300752Y379914D01*
X300666Y379839D01*
X300578Y379768D01*
X300488Y379700D01*
X300395Y379635D01*
X300300Y379573D01*
X300203Y379515D01*
X300104Y379460D01*
X300003Y379409D01*
X299900Y379361D01*
X299796Y379316D01*
X299690Y379276D01*
X299583Y379239D01*
X299475Y379206D01*
X299365Y379176D01*
X299255Y379151D01*
X299144Y379129D01*
X299032Y379112D01*
X298919Y379098D01*
X298806Y379088D01*
X298693Y379082D01*
X298580Y379080D01*
X298580Y379081D02*
X295335Y379081D01*
X299229Y379081D02*
X301826Y373888D01*
X313182Y382651D02*
X313180Y382758D01*
X313174Y382864D01*
X313164Y382970D01*
X313151Y383076D01*
X313133Y383182D01*
X313112Y383286D01*
X313087Y383390D01*
X313058Y383493D01*
X313026Y383594D01*
X312989Y383694D01*
X312949Y383793D01*
X312906Y383891D01*
X312859Y383987D01*
X312808Y384081D01*
X312754Y384173D01*
X312697Y384263D01*
X312637Y384351D01*
X312573Y384436D01*
X312506Y384519D01*
X312436Y384600D01*
X312364Y384678D01*
X312288Y384754D01*
X312210Y384826D01*
X312129Y384896D01*
X312046Y384963D01*
X311961Y385027D01*
X311873Y385087D01*
X311783Y385144D01*
X311691Y385198D01*
X311597Y385249D01*
X311501Y385296D01*
X311403Y385339D01*
X311304Y385379D01*
X311204Y385416D01*
X311103Y385448D01*
X311000Y385477D01*
X310896Y385502D01*
X310792Y385523D01*
X310686Y385541D01*
X310580Y385554D01*
X310474Y385564D01*
X310368Y385570D01*
X310261Y385572D01*
X310140Y385570D01*
X310019Y385564D01*
X309899Y385554D01*
X309778Y385541D01*
X309659Y385523D01*
X309539Y385502D01*
X309421Y385477D01*
X309304Y385448D01*
X309187Y385415D01*
X309072Y385379D01*
X308958Y385338D01*
X308845Y385295D01*
X308733Y385247D01*
X308624Y385196D01*
X308516Y385141D01*
X308409Y385083D01*
X308305Y385022D01*
X308203Y384957D01*
X308103Y384889D01*
X308005Y384818D01*
X307909Y384744D01*
X307816Y384667D01*
X307726Y384586D01*
X307638Y384503D01*
X307553Y384417D01*
X307470Y384328D01*
X307391Y384237D01*
X307314Y384143D01*
X307241Y384047D01*
X307171Y383949D01*
X307104Y383848D01*
X307040Y383745D01*
X306980Y383640D01*
X306923Y383533D01*
X306869Y383425D01*
X306819Y383315D01*
X306773Y383203D01*
X306730Y383090D01*
X306691Y382975D01*
X312209Y380379D02*
X312288Y380456D01*
X312364Y380537D01*
X312437Y380620D01*
X312507Y380705D01*
X312574Y380793D01*
X312638Y380883D01*
X312698Y380975D01*
X312755Y381070D01*
X312809Y381166D01*
X312860Y381264D01*
X312907Y381364D01*
X312951Y381466D01*
X312991Y381569D01*
X313027Y381673D01*
X313059Y381779D01*
X313088Y381885D01*
X313113Y381993D01*
X313135Y382101D01*
X313152Y382211D01*
X313166Y382320D01*
X313175Y382430D01*
X313181Y382541D01*
X313183Y382651D01*
X312208Y380379D02*
X306691Y373888D01*
X313182Y373888D01*
X547878Y462788D02*
X547878Y474472D01*
X551124Y474472D01*
X551237Y474470D01*
X551350Y474464D01*
X551463Y474454D01*
X551576Y474440D01*
X551688Y474423D01*
X551799Y474401D01*
X551909Y474376D01*
X552019Y474346D01*
X552127Y474313D01*
X552234Y474276D01*
X552340Y474236D01*
X552444Y474191D01*
X552547Y474143D01*
X552648Y474092D01*
X552747Y474037D01*
X552844Y473979D01*
X552939Y473917D01*
X553032Y473852D01*
X553122Y473784D01*
X553210Y473713D01*
X553296Y473638D01*
X553379Y473561D01*
X553459Y473481D01*
X553536Y473398D01*
X553611Y473312D01*
X553682Y473224D01*
X553750Y473134D01*
X553815Y473041D01*
X553877Y472946D01*
X553935Y472849D01*
X553990Y472750D01*
X554041Y472649D01*
X554089Y472546D01*
X554134Y472442D01*
X554174Y472336D01*
X554211Y472229D01*
X554244Y472121D01*
X554274Y472011D01*
X554299Y471901D01*
X554321Y471790D01*
X554338Y471678D01*
X554352Y471565D01*
X554362Y471452D01*
X554368Y471339D01*
X554370Y471226D01*
X554368Y471113D01*
X554362Y471000D01*
X554352Y470887D01*
X554338Y470774D01*
X554321Y470662D01*
X554299Y470551D01*
X554274Y470441D01*
X554244Y470331D01*
X554211Y470223D01*
X554174Y470116D01*
X554134Y470010D01*
X554089Y469906D01*
X554041Y469803D01*
X553990Y469702D01*
X553935Y469603D01*
X553877Y469506D01*
X553815Y469411D01*
X553750Y469318D01*
X553682Y469228D01*
X553611Y469140D01*
X553536Y469054D01*
X553459Y468971D01*
X553379Y468891D01*
X553296Y468814D01*
X553210Y468739D01*
X553122Y468668D01*
X553032Y468600D01*
X552939Y468535D01*
X552844Y468473D01*
X552747Y468415D01*
X552648Y468360D01*
X552547Y468309D01*
X552444Y468261D01*
X552340Y468216D01*
X552234Y468176D01*
X552127Y468139D01*
X552019Y468106D01*
X551909Y468076D01*
X551799Y468051D01*
X551688Y468029D01*
X551576Y468012D01*
X551463Y467998D01*
X551350Y467988D01*
X551237Y467982D01*
X551124Y467980D01*
X551124Y467981D02*
X547878Y467981D01*
X551773Y467981D02*
X554369Y462788D01*
X559234Y462788D02*
X562480Y462788D01*
X562593Y462790D01*
X562706Y462796D01*
X562819Y462806D01*
X562932Y462820D01*
X563044Y462837D01*
X563155Y462859D01*
X563265Y462884D01*
X563375Y462914D01*
X563483Y462947D01*
X563590Y462984D01*
X563696Y463024D01*
X563800Y463069D01*
X563903Y463117D01*
X564004Y463168D01*
X564103Y463223D01*
X564200Y463281D01*
X564295Y463343D01*
X564388Y463408D01*
X564478Y463476D01*
X564566Y463547D01*
X564652Y463622D01*
X564735Y463699D01*
X564815Y463779D01*
X564892Y463862D01*
X564967Y463948D01*
X565038Y464036D01*
X565106Y464126D01*
X565171Y464219D01*
X565233Y464314D01*
X565291Y464411D01*
X565346Y464510D01*
X565397Y464611D01*
X565445Y464714D01*
X565490Y464818D01*
X565530Y464924D01*
X565567Y465031D01*
X565600Y465139D01*
X565630Y465249D01*
X565655Y465359D01*
X565677Y465470D01*
X565694Y465582D01*
X565708Y465695D01*
X565718Y465808D01*
X565724Y465921D01*
X565726Y466034D01*
X565724Y466147D01*
X565718Y466260D01*
X565708Y466373D01*
X565694Y466486D01*
X565677Y466598D01*
X565655Y466709D01*
X565630Y466819D01*
X565600Y466929D01*
X565567Y467037D01*
X565530Y467144D01*
X565490Y467250D01*
X565445Y467354D01*
X565397Y467457D01*
X565346Y467558D01*
X565291Y467657D01*
X565233Y467754D01*
X565171Y467849D01*
X565106Y467942D01*
X565038Y468032D01*
X564967Y468120D01*
X564892Y468206D01*
X564815Y468289D01*
X564735Y468369D01*
X564652Y468446D01*
X564566Y468521D01*
X564478Y468592D01*
X564388Y468660D01*
X564295Y468725D01*
X564200Y468787D01*
X564103Y468845D01*
X564004Y468900D01*
X563903Y468951D01*
X563800Y468999D01*
X563696Y469044D01*
X563590Y469084D01*
X563483Y469121D01*
X563375Y469154D01*
X563265Y469184D01*
X563155Y469209D01*
X563044Y469231D01*
X562932Y469248D01*
X562819Y469262D01*
X562706Y469272D01*
X562593Y469278D01*
X562480Y469280D01*
X563129Y474472D02*
X559234Y474472D01*
X563129Y474472D02*
X563230Y474470D01*
X563330Y474464D01*
X563430Y474454D01*
X563530Y474441D01*
X563629Y474423D01*
X563728Y474402D01*
X563825Y474377D01*
X563922Y474348D01*
X564017Y474315D01*
X564111Y474279D01*
X564203Y474239D01*
X564294Y474196D01*
X564383Y474149D01*
X564470Y474099D01*
X564556Y474045D01*
X564639Y473988D01*
X564719Y473928D01*
X564798Y473865D01*
X564874Y473798D01*
X564947Y473729D01*
X565017Y473657D01*
X565085Y473583D01*
X565150Y473506D01*
X565211Y473426D01*
X565270Y473344D01*
X565325Y473260D01*
X565377Y473174D01*
X565426Y473086D01*
X565471Y472996D01*
X565513Y472904D01*
X565551Y472811D01*
X565585Y472716D01*
X565616Y472621D01*
X565643Y472524D01*
X565666Y472426D01*
X565686Y472327D01*
X565701Y472227D01*
X565713Y472127D01*
X565721Y472027D01*
X565725Y471926D01*
X565725Y471826D01*
X565721Y471725D01*
X565713Y471625D01*
X565701Y471525D01*
X565686Y471425D01*
X565666Y471326D01*
X565643Y471228D01*
X565616Y471131D01*
X565585Y471036D01*
X565551Y470941D01*
X565513Y470848D01*
X565471Y470756D01*
X565426Y470666D01*
X565377Y470578D01*
X565325Y470492D01*
X565270Y470408D01*
X565211Y470326D01*
X565150Y470246D01*
X565085Y470169D01*
X565017Y470095D01*
X564947Y470023D01*
X564874Y469954D01*
X564798Y469887D01*
X564719Y469824D01*
X564639Y469764D01*
X564556Y469707D01*
X564470Y469653D01*
X564383Y469603D01*
X564294Y469556D01*
X564203Y469513D01*
X564111Y469473D01*
X564017Y469437D01*
X563922Y469404D01*
X563825Y469375D01*
X563728Y469350D01*
X563629Y469329D01*
X563530Y469311D01*
X563430Y469298D01*
X563330Y469288D01*
X563230Y469282D01*
X563129Y469280D01*
X563129Y469279D02*
X560533Y469279D01*
X547878Y449072D02*
X547878Y437388D01*
X547878Y449072D02*
X551124Y449072D01*
X551237Y449070D01*
X551350Y449064D01*
X551463Y449054D01*
X551576Y449040D01*
X551688Y449023D01*
X551799Y449001D01*
X551909Y448976D01*
X552019Y448946D01*
X552127Y448913D01*
X552234Y448876D01*
X552340Y448836D01*
X552444Y448791D01*
X552547Y448743D01*
X552648Y448692D01*
X552747Y448637D01*
X552844Y448579D01*
X552939Y448517D01*
X553032Y448452D01*
X553122Y448384D01*
X553210Y448313D01*
X553296Y448238D01*
X553379Y448161D01*
X553459Y448081D01*
X553536Y447998D01*
X553611Y447912D01*
X553682Y447824D01*
X553750Y447734D01*
X553815Y447641D01*
X553877Y447546D01*
X553935Y447449D01*
X553990Y447350D01*
X554041Y447249D01*
X554089Y447146D01*
X554134Y447042D01*
X554174Y446936D01*
X554211Y446829D01*
X554244Y446721D01*
X554274Y446611D01*
X554299Y446501D01*
X554321Y446390D01*
X554338Y446278D01*
X554352Y446165D01*
X554362Y446052D01*
X554368Y445939D01*
X554370Y445826D01*
X554368Y445713D01*
X554362Y445600D01*
X554352Y445487D01*
X554338Y445374D01*
X554321Y445262D01*
X554299Y445151D01*
X554274Y445041D01*
X554244Y444931D01*
X554211Y444823D01*
X554174Y444716D01*
X554134Y444610D01*
X554089Y444506D01*
X554041Y444403D01*
X553990Y444302D01*
X553935Y444203D01*
X553877Y444106D01*
X553815Y444011D01*
X553750Y443918D01*
X553682Y443828D01*
X553611Y443740D01*
X553536Y443654D01*
X553459Y443571D01*
X553379Y443491D01*
X553296Y443414D01*
X553210Y443339D01*
X553122Y443268D01*
X553032Y443200D01*
X552939Y443135D01*
X552844Y443073D01*
X552747Y443015D01*
X552648Y442960D01*
X552547Y442909D01*
X552444Y442861D01*
X552340Y442816D01*
X552234Y442776D01*
X552127Y442739D01*
X552019Y442706D01*
X551909Y442676D01*
X551799Y442651D01*
X551688Y442629D01*
X551576Y442612D01*
X551463Y442598D01*
X551350Y442588D01*
X551237Y442582D01*
X551124Y442580D01*
X551124Y442581D02*
X547878Y442581D01*
X551773Y442581D02*
X554369Y437388D01*
X559234Y439984D02*
X561831Y449072D01*
X559234Y439984D02*
X565725Y439984D01*
X563778Y442581D02*
X563778Y437388D01*
X547878Y400812D02*
X547878Y389128D01*
X547878Y400812D02*
X551124Y400812D01*
X551237Y400810D01*
X551350Y400804D01*
X551463Y400794D01*
X551576Y400780D01*
X551688Y400763D01*
X551799Y400741D01*
X551909Y400716D01*
X552019Y400686D01*
X552127Y400653D01*
X552234Y400616D01*
X552340Y400576D01*
X552444Y400531D01*
X552547Y400483D01*
X552648Y400432D01*
X552747Y400377D01*
X552844Y400319D01*
X552939Y400257D01*
X553032Y400192D01*
X553122Y400124D01*
X553210Y400053D01*
X553296Y399978D01*
X553379Y399901D01*
X553459Y399821D01*
X553536Y399738D01*
X553611Y399652D01*
X553682Y399564D01*
X553750Y399474D01*
X553815Y399381D01*
X553877Y399286D01*
X553935Y399189D01*
X553990Y399090D01*
X554041Y398989D01*
X554089Y398886D01*
X554134Y398782D01*
X554174Y398676D01*
X554211Y398569D01*
X554244Y398461D01*
X554274Y398351D01*
X554299Y398241D01*
X554321Y398130D01*
X554338Y398018D01*
X554352Y397905D01*
X554362Y397792D01*
X554368Y397679D01*
X554370Y397566D01*
X554368Y397453D01*
X554362Y397340D01*
X554352Y397227D01*
X554338Y397114D01*
X554321Y397002D01*
X554299Y396891D01*
X554274Y396781D01*
X554244Y396671D01*
X554211Y396563D01*
X554174Y396456D01*
X554134Y396350D01*
X554089Y396246D01*
X554041Y396143D01*
X553990Y396042D01*
X553935Y395943D01*
X553877Y395846D01*
X553815Y395751D01*
X553750Y395658D01*
X553682Y395568D01*
X553611Y395480D01*
X553536Y395394D01*
X553459Y395311D01*
X553379Y395231D01*
X553296Y395154D01*
X553210Y395079D01*
X553122Y395008D01*
X553032Y394940D01*
X552939Y394875D01*
X552844Y394813D01*
X552747Y394755D01*
X552648Y394700D01*
X552547Y394649D01*
X552444Y394601D01*
X552340Y394556D01*
X552234Y394516D01*
X552127Y394479D01*
X552019Y394446D01*
X551909Y394416D01*
X551799Y394391D01*
X551688Y394369D01*
X551576Y394352D01*
X551463Y394338D01*
X551350Y394328D01*
X551237Y394322D01*
X551124Y394320D01*
X551124Y394321D02*
X547878Y394321D01*
X551773Y394321D02*
X554369Y389128D01*
X559234Y389128D02*
X563129Y389128D01*
X563228Y389130D01*
X563328Y389136D01*
X563427Y389145D01*
X563525Y389158D01*
X563623Y389175D01*
X563721Y389196D01*
X563817Y389221D01*
X563912Y389249D01*
X564006Y389281D01*
X564099Y389316D01*
X564191Y389355D01*
X564281Y389398D01*
X564369Y389443D01*
X564456Y389493D01*
X564540Y389545D01*
X564623Y389601D01*
X564703Y389659D01*
X564781Y389721D01*
X564856Y389786D01*
X564929Y389854D01*
X564999Y389924D01*
X565067Y389997D01*
X565132Y390072D01*
X565194Y390150D01*
X565252Y390230D01*
X565308Y390313D01*
X565360Y390397D01*
X565410Y390484D01*
X565455Y390572D01*
X565498Y390662D01*
X565537Y390754D01*
X565572Y390847D01*
X565604Y390941D01*
X565632Y391036D01*
X565657Y391132D01*
X565678Y391230D01*
X565695Y391328D01*
X565708Y391426D01*
X565717Y391525D01*
X565723Y391625D01*
X565725Y391724D01*
X565725Y393023D01*
X565723Y393122D01*
X565717Y393222D01*
X565708Y393321D01*
X565695Y393419D01*
X565678Y393517D01*
X565657Y393615D01*
X565632Y393711D01*
X565604Y393806D01*
X565572Y393900D01*
X565537Y393993D01*
X565498Y394085D01*
X565455Y394175D01*
X565410Y394263D01*
X565360Y394350D01*
X565308Y394434D01*
X565252Y394517D01*
X565194Y394597D01*
X565132Y394675D01*
X565067Y394750D01*
X564999Y394823D01*
X564929Y394893D01*
X564856Y394961D01*
X564781Y395026D01*
X564703Y395088D01*
X564623Y395146D01*
X564540Y395202D01*
X564456Y395254D01*
X564369Y395304D01*
X564281Y395349D01*
X564191Y395392D01*
X564099Y395431D01*
X564006Y395466D01*
X563912Y395498D01*
X563817Y395526D01*
X563721Y395551D01*
X563623Y395572D01*
X563525Y395589D01*
X563427Y395602D01*
X563328Y395611D01*
X563228Y395617D01*
X563129Y395619D01*
X559234Y395619D01*
X559234Y400812D01*
X565725Y400812D01*
X547878Y411988D02*
X547878Y423672D01*
X551124Y423672D01*
X551237Y423670D01*
X551350Y423664D01*
X551463Y423654D01*
X551576Y423640D01*
X551688Y423623D01*
X551799Y423601D01*
X551909Y423576D01*
X552019Y423546D01*
X552127Y423513D01*
X552234Y423476D01*
X552340Y423436D01*
X552444Y423391D01*
X552547Y423343D01*
X552648Y423292D01*
X552747Y423237D01*
X552844Y423179D01*
X552939Y423117D01*
X553032Y423052D01*
X553122Y422984D01*
X553210Y422913D01*
X553296Y422838D01*
X553379Y422761D01*
X553459Y422681D01*
X553536Y422598D01*
X553611Y422512D01*
X553682Y422424D01*
X553750Y422334D01*
X553815Y422241D01*
X553877Y422146D01*
X553935Y422049D01*
X553990Y421950D01*
X554041Y421849D01*
X554089Y421746D01*
X554134Y421642D01*
X554174Y421536D01*
X554211Y421429D01*
X554244Y421321D01*
X554274Y421211D01*
X554299Y421101D01*
X554321Y420990D01*
X554338Y420878D01*
X554352Y420765D01*
X554362Y420652D01*
X554368Y420539D01*
X554370Y420426D01*
X554368Y420313D01*
X554362Y420200D01*
X554352Y420087D01*
X554338Y419974D01*
X554321Y419862D01*
X554299Y419751D01*
X554274Y419641D01*
X554244Y419531D01*
X554211Y419423D01*
X554174Y419316D01*
X554134Y419210D01*
X554089Y419106D01*
X554041Y419003D01*
X553990Y418902D01*
X553935Y418803D01*
X553877Y418706D01*
X553815Y418611D01*
X553750Y418518D01*
X553682Y418428D01*
X553611Y418340D01*
X553536Y418254D01*
X553459Y418171D01*
X553379Y418091D01*
X553296Y418014D01*
X553210Y417939D01*
X553122Y417868D01*
X553032Y417800D01*
X552939Y417735D01*
X552844Y417673D01*
X552747Y417615D01*
X552648Y417560D01*
X552547Y417509D01*
X552444Y417461D01*
X552340Y417416D01*
X552234Y417376D01*
X552127Y417339D01*
X552019Y417306D01*
X551909Y417276D01*
X551799Y417251D01*
X551688Y417229D01*
X551576Y417212D01*
X551463Y417198D01*
X551350Y417188D01*
X551237Y417182D01*
X551124Y417180D01*
X551124Y417181D02*
X547878Y417181D01*
X551773Y417181D02*
X554369Y411988D01*
X559234Y418479D02*
X563129Y418479D01*
X563228Y418477D01*
X563328Y418471D01*
X563427Y418462D01*
X563525Y418449D01*
X563623Y418432D01*
X563721Y418411D01*
X563817Y418386D01*
X563912Y418358D01*
X564006Y418326D01*
X564099Y418291D01*
X564191Y418252D01*
X564281Y418209D01*
X564369Y418164D01*
X564456Y418114D01*
X564540Y418062D01*
X564623Y418006D01*
X564703Y417948D01*
X564781Y417886D01*
X564856Y417821D01*
X564929Y417753D01*
X564999Y417683D01*
X565067Y417610D01*
X565132Y417535D01*
X565194Y417457D01*
X565252Y417377D01*
X565308Y417294D01*
X565360Y417210D01*
X565410Y417123D01*
X565455Y417035D01*
X565498Y416945D01*
X565537Y416853D01*
X565572Y416760D01*
X565604Y416666D01*
X565632Y416571D01*
X565657Y416475D01*
X565678Y416377D01*
X565695Y416279D01*
X565708Y416181D01*
X565717Y416082D01*
X565723Y415982D01*
X565725Y415883D01*
X565725Y415234D01*
X565726Y415234D02*
X565724Y415121D01*
X565718Y415008D01*
X565708Y414895D01*
X565694Y414782D01*
X565677Y414670D01*
X565655Y414559D01*
X565630Y414449D01*
X565600Y414339D01*
X565567Y414231D01*
X565530Y414124D01*
X565490Y414018D01*
X565445Y413914D01*
X565397Y413811D01*
X565346Y413710D01*
X565291Y413611D01*
X565233Y413514D01*
X565171Y413419D01*
X565106Y413326D01*
X565038Y413236D01*
X564967Y413148D01*
X564892Y413062D01*
X564815Y412979D01*
X564735Y412899D01*
X564652Y412822D01*
X564566Y412747D01*
X564478Y412676D01*
X564388Y412608D01*
X564295Y412543D01*
X564200Y412481D01*
X564103Y412423D01*
X564004Y412368D01*
X563903Y412317D01*
X563800Y412269D01*
X563696Y412224D01*
X563590Y412184D01*
X563483Y412147D01*
X563375Y412114D01*
X563265Y412084D01*
X563155Y412059D01*
X563044Y412037D01*
X562932Y412020D01*
X562819Y412006D01*
X562706Y411996D01*
X562593Y411990D01*
X562480Y411988D01*
X562367Y411990D01*
X562254Y411996D01*
X562141Y412006D01*
X562028Y412020D01*
X561916Y412037D01*
X561805Y412059D01*
X561695Y412084D01*
X561585Y412114D01*
X561477Y412147D01*
X561370Y412184D01*
X561264Y412224D01*
X561160Y412269D01*
X561057Y412317D01*
X560956Y412368D01*
X560857Y412423D01*
X560760Y412481D01*
X560665Y412543D01*
X560572Y412608D01*
X560482Y412676D01*
X560394Y412747D01*
X560308Y412822D01*
X560225Y412899D01*
X560145Y412979D01*
X560068Y413062D01*
X559993Y413148D01*
X559922Y413236D01*
X559854Y413326D01*
X559789Y413419D01*
X559727Y413514D01*
X559669Y413611D01*
X559614Y413710D01*
X559563Y413811D01*
X559515Y413914D01*
X559470Y414018D01*
X559430Y414124D01*
X559393Y414231D01*
X559360Y414339D01*
X559330Y414449D01*
X559305Y414559D01*
X559283Y414670D01*
X559266Y414782D01*
X559252Y414895D01*
X559242Y415008D01*
X559236Y415121D01*
X559234Y415234D01*
X559234Y418479D01*
X559236Y418622D01*
X559242Y418765D01*
X559252Y418908D01*
X559266Y419050D01*
X559283Y419192D01*
X559305Y419334D01*
X559330Y419475D01*
X559360Y419615D01*
X559393Y419754D01*
X559430Y419892D01*
X559471Y420029D01*
X559515Y420165D01*
X559564Y420300D01*
X559616Y420433D01*
X559671Y420565D01*
X559731Y420695D01*
X559794Y420824D01*
X559860Y420951D01*
X559930Y421075D01*
X560003Y421198D01*
X560080Y421319D01*
X560160Y421438D01*
X560243Y421554D01*
X560329Y421669D01*
X560418Y421780D01*
X560511Y421890D01*
X560606Y421996D01*
X560705Y422100D01*
X560806Y422201D01*
X560910Y422300D01*
X561016Y422395D01*
X561126Y422488D01*
X561237Y422577D01*
X561352Y422663D01*
X561468Y422746D01*
X561587Y422826D01*
X561708Y422903D01*
X561830Y422976D01*
X561955Y423046D01*
X562082Y423112D01*
X562211Y423175D01*
X562341Y423235D01*
X562473Y423290D01*
X562606Y423342D01*
X562741Y423391D01*
X562877Y423435D01*
X563014Y423476D01*
X563152Y423513D01*
X563291Y423546D01*
X563431Y423576D01*
X563572Y423601D01*
X563714Y423623D01*
X563856Y423640D01*
X563998Y423654D01*
X564141Y423664D01*
X564284Y423670D01*
X564427Y423672D01*
X297875Y437388D02*
X297875Y449072D01*
X301120Y449072D01*
X301233Y449070D01*
X301346Y449064D01*
X301459Y449054D01*
X301572Y449040D01*
X301684Y449023D01*
X301795Y449001D01*
X301905Y448976D01*
X302015Y448946D01*
X302123Y448913D01*
X302230Y448876D01*
X302336Y448836D01*
X302440Y448791D01*
X302543Y448743D01*
X302644Y448692D01*
X302743Y448637D01*
X302840Y448579D01*
X302935Y448517D01*
X303028Y448452D01*
X303118Y448384D01*
X303206Y448313D01*
X303292Y448238D01*
X303375Y448161D01*
X303455Y448081D01*
X303532Y447998D01*
X303607Y447912D01*
X303678Y447824D01*
X303746Y447734D01*
X303811Y447641D01*
X303873Y447546D01*
X303931Y447449D01*
X303986Y447350D01*
X304037Y447249D01*
X304085Y447146D01*
X304130Y447042D01*
X304170Y446936D01*
X304207Y446829D01*
X304240Y446721D01*
X304270Y446611D01*
X304295Y446501D01*
X304317Y446390D01*
X304334Y446278D01*
X304348Y446165D01*
X304358Y446052D01*
X304364Y445939D01*
X304366Y445826D01*
X304364Y445713D01*
X304358Y445600D01*
X304348Y445487D01*
X304334Y445374D01*
X304317Y445262D01*
X304295Y445151D01*
X304270Y445041D01*
X304240Y444931D01*
X304207Y444823D01*
X304170Y444716D01*
X304130Y444610D01*
X304085Y444506D01*
X304037Y444403D01*
X303986Y444302D01*
X303931Y444203D01*
X303873Y444106D01*
X303811Y444011D01*
X303746Y443918D01*
X303678Y443828D01*
X303607Y443740D01*
X303532Y443654D01*
X303455Y443571D01*
X303375Y443491D01*
X303292Y443414D01*
X303206Y443339D01*
X303118Y443268D01*
X303028Y443200D01*
X302935Y443135D01*
X302840Y443073D01*
X302743Y443015D01*
X302644Y442960D01*
X302543Y442909D01*
X302440Y442861D01*
X302336Y442816D01*
X302230Y442776D01*
X302123Y442739D01*
X302015Y442706D01*
X301905Y442676D01*
X301795Y442651D01*
X301684Y442629D01*
X301572Y442612D01*
X301459Y442598D01*
X301346Y442588D01*
X301233Y442582D01*
X301120Y442580D01*
X301120Y442581D02*
X297875Y442581D01*
X301769Y442581D02*
X304366Y437388D01*
X309231Y447774D02*
X309231Y449072D01*
X315722Y449072D01*
X312476Y437388D01*
X297875Y462788D02*
X297875Y474472D01*
X301120Y474472D01*
X301233Y474470D01*
X301346Y474464D01*
X301459Y474454D01*
X301572Y474440D01*
X301684Y474423D01*
X301795Y474401D01*
X301905Y474376D01*
X302015Y474346D01*
X302123Y474313D01*
X302230Y474276D01*
X302336Y474236D01*
X302440Y474191D01*
X302543Y474143D01*
X302644Y474092D01*
X302743Y474037D01*
X302840Y473979D01*
X302935Y473917D01*
X303028Y473852D01*
X303118Y473784D01*
X303206Y473713D01*
X303292Y473638D01*
X303375Y473561D01*
X303455Y473481D01*
X303532Y473398D01*
X303607Y473312D01*
X303678Y473224D01*
X303746Y473134D01*
X303811Y473041D01*
X303873Y472946D01*
X303931Y472849D01*
X303986Y472750D01*
X304037Y472649D01*
X304085Y472546D01*
X304130Y472442D01*
X304170Y472336D01*
X304207Y472229D01*
X304240Y472121D01*
X304270Y472011D01*
X304295Y471901D01*
X304317Y471790D01*
X304334Y471678D01*
X304348Y471565D01*
X304358Y471452D01*
X304364Y471339D01*
X304366Y471226D01*
X304364Y471113D01*
X304358Y471000D01*
X304348Y470887D01*
X304334Y470774D01*
X304317Y470662D01*
X304295Y470551D01*
X304270Y470441D01*
X304240Y470331D01*
X304207Y470223D01*
X304170Y470116D01*
X304130Y470010D01*
X304085Y469906D01*
X304037Y469803D01*
X303986Y469702D01*
X303931Y469603D01*
X303873Y469506D01*
X303811Y469411D01*
X303746Y469318D01*
X303678Y469228D01*
X303607Y469140D01*
X303532Y469054D01*
X303455Y468971D01*
X303375Y468891D01*
X303292Y468814D01*
X303206Y468739D01*
X303118Y468668D01*
X303028Y468600D01*
X302935Y468535D01*
X302840Y468473D01*
X302743Y468415D01*
X302644Y468360D01*
X302543Y468309D01*
X302440Y468261D01*
X302336Y468216D01*
X302230Y468176D01*
X302123Y468139D01*
X302015Y468106D01*
X301905Y468076D01*
X301795Y468051D01*
X301684Y468029D01*
X301572Y468012D01*
X301459Y467998D01*
X301346Y467988D01*
X301233Y467982D01*
X301120Y467980D01*
X301120Y467981D02*
X297875Y467981D01*
X301769Y467981D02*
X304366Y462788D01*
X309230Y466034D02*
X309232Y466147D01*
X309238Y466260D01*
X309248Y466373D01*
X309262Y466486D01*
X309279Y466598D01*
X309301Y466709D01*
X309326Y466819D01*
X309356Y466929D01*
X309389Y467037D01*
X309426Y467144D01*
X309466Y467250D01*
X309511Y467354D01*
X309559Y467457D01*
X309610Y467558D01*
X309665Y467657D01*
X309723Y467754D01*
X309785Y467849D01*
X309850Y467942D01*
X309918Y468032D01*
X309989Y468120D01*
X310064Y468206D01*
X310141Y468289D01*
X310221Y468369D01*
X310304Y468446D01*
X310390Y468521D01*
X310478Y468592D01*
X310568Y468660D01*
X310661Y468725D01*
X310756Y468787D01*
X310853Y468845D01*
X310952Y468900D01*
X311053Y468951D01*
X311156Y468999D01*
X311260Y469044D01*
X311366Y469084D01*
X311473Y469121D01*
X311581Y469154D01*
X311691Y469184D01*
X311801Y469209D01*
X311912Y469231D01*
X312024Y469248D01*
X312137Y469262D01*
X312250Y469272D01*
X312363Y469278D01*
X312476Y469280D01*
X312589Y469278D01*
X312702Y469272D01*
X312815Y469262D01*
X312928Y469248D01*
X313040Y469231D01*
X313151Y469209D01*
X313261Y469184D01*
X313371Y469154D01*
X313479Y469121D01*
X313586Y469084D01*
X313692Y469044D01*
X313796Y468999D01*
X313899Y468951D01*
X314000Y468900D01*
X314099Y468845D01*
X314196Y468787D01*
X314291Y468725D01*
X314384Y468660D01*
X314474Y468592D01*
X314562Y468521D01*
X314648Y468446D01*
X314731Y468369D01*
X314811Y468289D01*
X314888Y468206D01*
X314963Y468120D01*
X315034Y468032D01*
X315102Y467942D01*
X315167Y467849D01*
X315229Y467754D01*
X315287Y467657D01*
X315342Y467558D01*
X315393Y467457D01*
X315441Y467354D01*
X315486Y467250D01*
X315526Y467144D01*
X315563Y467037D01*
X315596Y466929D01*
X315626Y466819D01*
X315651Y466709D01*
X315673Y466598D01*
X315690Y466486D01*
X315704Y466373D01*
X315714Y466260D01*
X315720Y466147D01*
X315722Y466034D01*
X315720Y465921D01*
X315714Y465808D01*
X315704Y465695D01*
X315690Y465582D01*
X315673Y465470D01*
X315651Y465359D01*
X315626Y465249D01*
X315596Y465139D01*
X315563Y465031D01*
X315526Y464924D01*
X315486Y464818D01*
X315441Y464714D01*
X315393Y464611D01*
X315342Y464510D01*
X315287Y464411D01*
X315229Y464314D01*
X315167Y464219D01*
X315102Y464126D01*
X315034Y464036D01*
X314963Y463948D01*
X314888Y463862D01*
X314811Y463779D01*
X314731Y463699D01*
X314648Y463622D01*
X314562Y463547D01*
X314474Y463476D01*
X314384Y463408D01*
X314291Y463343D01*
X314196Y463281D01*
X314099Y463223D01*
X314000Y463168D01*
X313899Y463117D01*
X313796Y463069D01*
X313692Y463024D01*
X313586Y462984D01*
X313479Y462947D01*
X313371Y462914D01*
X313261Y462884D01*
X313151Y462859D01*
X313040Y462837D01*
X312928Y462820D01*
X312815Y462806D01*
X312702Y462796D01*
X312589Y462790D01*
X312476Y462788D01*
X312363Y462790D01*
X312250Y462796D01*
X312137Y462806D01*
X312024Y462820D01*
X311912Y462837D01*
X311801Y462859D01*
X311691Y462884D01*
X311581Y462914D01*
X311473Y462947D01*
X311366Y462984D01*
X311260Y463024D01*
X311156Y463069D01*
X311053Y463117D01*
X310952Y463168D01*
X310853Y463223D01*
X310756Y463281D01*
X310661Y463343D01*
X310568Y463408D01*
X310478Y463476D01*
X310390Y463547D01*
X310304Y463622D01*
X310221Y463699D01*
X310141Y463779D01*
X310064Y463862D01*
X309989Y463948D01*
X309918Y464036D01*
X309850Y464126D01*
X309785Y464219D01*
X309723Y464314D01*
X309665Y464411D01*
X309610Y464510D01*
X309559Y464611D01*
X309511Y464714D01*
X309466Y464818D01*
X309426Y464924D01*
X309389Y465031D01*
X309356Y465139D01*
X309326Y465249D01*
X309301Y465359D01*
X309279Y465470D01*
X309262Y465582D01*
X309248Y465695D01*
X309238Y465808D01*
X309232Y465921D01*
X309230Y466034D01*
X309880Y471876D02*
X309882Y471977D01*
X309888Y472077D01*
X309898Y472177D01*
X309911Y472277D01*
X309929Y472376D01*
X309950Y472475D01*
X309975Y472572D01*
X310004Y472669D01*
X310037Y472764D01*
X310073Y472858D01*
X310113Y472950D01*
X310156Y473041D01*
X310203Y473130D01*
X310253Y473217D01*
X310307Y473303D01*
X310364Y473386D01*
X310424Y473466D01*
X310487Y473545D01*
X310554Y473621D01*
X310623Y473694D01*
X310695Y473764D01*
X310769Y473832D01*
X310846Y473897D01*
X310926Y473958D01*
X311008Y474017D01*
X311092Y474072D01*
X311178Y474124D01*
X311266Y474173D01*
X311356Y474218D01*
X311448Y474260D01*
X311541Y474298D01*
X311636Y474332D01*
X311731Y474363D01*
X311828Y474390D01*
X311926Y474413D01*
X312025Y474433D01*
X312125Y474448D01*
X312225Y474460D01*
X312325Y474468D01*
X312426Y474472D01*
X312526Y474472D01*
X312627Y474468D01*
X312727Y474460D01*
X312827Y474448D01*
X312927Y474433D01*
X313026Y474413D01*
X313124Y474390D01*
X313221Y474363D01*
X313316Y474332D01*
X313411Y474298D01*
X313504Y474260D01*
X313596Y474218D01*
X313686Y474173D01*
X313774Y474124D01*
X313860Y474072D01*
X313944Y474017D01*
X314026Y473958D01*
X314106Y473897D01*
X314183Y473832D01*
X314257Y473764D01*
X314329Y473694D01*
X314398Y473621D01*
X314465Y473545D01*
X314528Y473466D01*
X314588Y473386D01*
X314645Y473303D01*
X314699Y473217D01*
X314749Y473130D01*
X314796Y473041D01*
X314839Y472950D01*
X314879Y472858D01*
X314915Y472764D01*
X314948Y472669D01*
X314977Y472572D01*
X315002Y472475D01*
X315023Y472376D01*
X315041Y472277D01*
X315054Y472177D01*
X315064Y472077D01*
X315070Y471977D01*
X315072Y471876D01*
X315070Y471775D01*
X315064Y471675D01*
X315054Y471575D01*
X315041Y471475D01*
X315023Y471376D01*
X315002Y471277D01*
X314977Y471180D01*
X314948Y471083D01*
X314915Y470988D01*
X314879Y470894D01*
X314839Y470802D01*
X314796Y470711D01*
X314749Y470622D01*
X314699Y470535D01*
X314645Y470449D01*
X314588Y470366D01*
X314528Y470286D01*
X314465Y470207D01*
X314398Y470131D01*
X314329Y470058D01*
X314257Y469988D01*
X314183Y469920D01*
X314106Y469855D01*
X314026Y469794D01*
X313944Y469735D01*
X313860Y469680D01*
X313774Y469628D01*
X313686Y469579D01*
X313596Y469534D01*
X313504Y469492D01*
X313411Y469454D01*
X313316Y469420D01*
X313221Y469389D01*
X313124Y469362D01*
X313026Y469339D01*
X312927Y469319D01*
X312827Y469304D01*
X312727Y469292D01*
X312627Y469284D01*
X312526Y469280D01*
X312426Y469280D01*
X312325Y469284D01*
X312225Y469292D01*
X312125Y469304D01*
X312025Y469319D01*
X311926Y469339D01*
X311828Y469362D01*
X311731Y469389D01*
X311636Y469420D01*
X311541Y469454D01*
X311448Y469492D01*
X311356Y469534D01*
X311266Y469579D01*
X311178Y469628D01*
X311092Y469680D01*
X311008Y469735D01*
X310926Y469794D01*
X310846Y469855D01*
X310769Y469920D01*
X310695Y469988D01*
X310623Y470058D01*
X310554Y470131D01*
X310487Y470207D01*
X310424Y470286D01*
X310364Y470366D01*
X310307Y470449D01*
X310253Y470535D01*
X310203Y470622D01*
X310156Y470711D01*
X310113Y470802D01*
X310073Y470894D01*
X310037Y470988D01*
X310004Y471083D01*
X309975Y471180D01*
X309950Y471277D01*
X309929Y471376D01*
X309911Y471475D01*
X309898Y471575D01*
X309888Y471675D01*
X309882Y471775D01*
X309880Y471876D01*
X301056Y399288D02*
X298459Y399288D01*
X298360Y399290D01*
X298260Y399296D01*
X298161Y399305D01*
X298063Y399318D01*
X297965Y399335D01*
X297867Y399356D01*
X297771Y399381D01*
X297676Y399409D01*
X297582Y399441D01*
X297489Y399476D01*
X297397Y399515D01*
X297307Y399558D01*
X297219Y399603D01*
X297132Y399653D01*
X297048Y399705D01*
X296965Y399761D01*
X296885Y399819D01*
X296807Y399881D01*
X296732Y399946D01*
X296659Y400014D01*
X296589Y400084D01*
X296521Y400157D01*
X296456Y400232D01*
X296394Y400310D01*
X296336Y400390D01*
X296280Y400473D01*
X296228Y400557D01*
X296178Y400644D01*
X296133Y400732D01*
X296090Y400822D01*
X296051Y400914D01*
X296016Y401007D01*
X295984Y401101D01*
X295956Y401196D01*
X295931Y401292D01*
X295910Y401390D01*
X295893Y401488D01*
X295880Y401586D01*
X295871Y401685D01*
X295865Y401785D01*
X295863Y401884D01*
X295863Y408376D01*
X295865Y408475D01*
X295871Y408575D01*
X295880Y408674D01*
X295893Y408772D01*
X295910Y408870D01*
X295931Y408968D01*
X295956Y409064D01*
X295984Y409159D01*
X296016Y409253D01*
X296051Y409346D01*
X296090Y409438D01*
X296133Y409528D01*
X296178Y409616D01*
X296228Y409703D01*
X296280Y409787D01*
X296336Y409870D01*
X296394Y409950D01*
X296456Y410028D01*
X296521Y410103D01*
X296589Y410176D01*
X296659Y410246D01*
X296732Y410314D01*
X296807Y410379D01*
X296885Y410441D01*
X296965Y410499D01*
X297048Y410555D01*
X297132Y410607D01*
X297219Y410657D01*
X297307Y410702D01*
X297397Y410745D01*
X297489Y410784D01*
X297581Y410819D01*
X297676Y410851D01*
X297771Y410879D01*
X297867Y410904D01*
X297965Y410925D01*
X298063Y410942D01*
X298161Y410955D01*
X298260Y410964D01*
X298360Y410970D01*
X298459Y410972D01*
X301056Y410972D01*
X305421Y408376D02*
X308666Y410972D01*
X308666Y399288D01*
X305421Y399288D02*
X311912Y399288D01*
X301056Y348488D02*
X298459Y348488D01*
X298360Y348490D01*
X298260Y348496D01*
X298161Y348505D01*
X298063Y348518D01*
X297965Y348535D01*
X297867Y348556D01*
X297771Y348581D01*
X297676Y348609D01*
X297582Y348641D01*
X297489Y348676D01*
X297397Y348715D01*
X297307Y348758D01*
X297219Y348803D01*
X297132Y348853D01*
X297048Y348905D01*
X296965Y348961D01*
X296885Y349019D01*
X296807Y349081D01*
X296732Y349146D01*
X296659Y349214D01*
X296589Y349284D01*
X296521Y349357D01*
X296456Y349432D01*
X296394Y349510D01*
X296336Y349590D01*
X296280Y349673D01*
X296228Y349757D01*
X296178Y349844D01*
X296133Y349932D01*
X296090Y350022D01*
X296051Y350114D01*
X296016Y350207D01*
X295984Y350301D01*
X295956Y350396D01*
X295931Y350492D01*
X295910Y350590D01*
X295893Y350688D01*
X295880Y350786D01*
X295871Y350885D01*
X295865Y350985D01*
X295863Y351084D01*
X295863Y357576D01*
X295865Y357675D01*
X295871Y357775D01*
X295880Y357874D01*
X295893Y357972D01*
X295910Y358070D01*
X295931Y358168D01*
X295956Y358264D01*
X295984Y358359D01*
X296016Y358453D01*
X296051Y358546D01*
X296090Y358638D01*
X296133Y358728D01*
X296178Y358816D01*
X296228Y358903D01*
X296280Y358987D01*
X296336Y359070D01*
X296394Y359150D01*
X296456Y359228D01*
X296521Y359303D01*
X296589Y359376D01*
X296659Y359446D01*
X296732Y359514D01*
X296807Y359579D01*
X296885Y359641D01*
X296965Y359699D01*
X297048Y359755D01*
X297132Y359807D01*
X297219Y359857D01*
X297307Y359902D01*
X297397Y359945D01*
X297489Y359984D01*
X297581Y360019D01*
X297676Y360051D01*
X297771Y360079D01*
X297867Y360104D01*
X297965Y360125D01*
X298063Y360142D01*
X298161Y360155D01*
X298260Y360164D01*
X298360Y360170D01*
X298459Y360172D01*
X301056Y360172D01*
X308991Y360172D02*
X309098Y360170D01*
X309204Y360164D01*
X309310Y360154D01*
X309416Y360141D01*
X309522Y360123D01*
X309626Y360102D01*
X309730Y360077D01*
X309833Y360048D01*
X309934Y360016D01*
X310034Y359979D01*
X310133Y359939D01*
X310231Y359896D01*
X310327Y359849D01*
X310421Y359798D01*
X310513Y359744D01*
X310603Y359687D01*
X310691Y359627D01*
X310776Y359563D01*
X310859Y359496D01*
X310940Y359426D01*
X311018Y359354D01*
X311094Y359278D01*
X311166Y359200D01*
X311236Y359119D01*
X311303Y359036D01*
X311367Y358951D01*
X311427Y358863D01*
X311484Y358773D01*
X311538Y358681D01*
X311589Y358587D01*
X311636Y358491D01*
X311679Y358393D01*
X311719Y358294D01*
X311756Y358194D01*
X311788Y358093D01*
X311817Y357990D01*
X311842Y357886D01*
X311863Y357782D01*
X311881Y357676D01*
X311894Y357570D01*
X311904Y357464D01*
X311910Y357358D01*
X311912Y357251D01*
X308991Y360172D02*
X308870Y360170D01*
X308749Y360164D01*
X308629Y360154D01*
X308508Y360141D01*
X308389Y360123D01*
X308269Y360102D01*
X308151Y360077D01*
X308034Y360048D01*
X307917Y360015D01*
X307802Y359979D01*
X307688Y359938D01*
X307575Y359895D01*
X307463Y359847D01*
X307354Y359796D01*
X307246Y359741D01*
X307139Y359683D01*
X307035Y359622D01*
X306933Y359557D01*
X306833Y359489D01*
X306735Y359418D01*
X306639Y359344D01*
X306546Y359267D01*
X306456Y359186D01*
X306368Y359103D01*
X306283Y359017D01*
X306200Y358928D01*
X306121Y358837D01*
X306044Y358743D01*
X305971Y358647D01*
X305901Y358549D01*
X305834Y358448D01*
X305770Y358345D01*
X305710Y358240D01*
X305653Y358133D01*
X305599Y358025D01*
X305549Y357915D01*
X305503Y357803D01*
X305460Y357690D01*
X305421Y357575D01*
X310939Y354979D02*
X311018Y355056D01*
X311094Y355137D01*
X311167Y355220D01*
X311237Y355305D01*
X311304Y355393D01*
X311368Y355483D01*
X311428Y355575D01*
X311485Y355670D01*
X311539Y355766D01*
X311590Y355864D01*
X311637Y355964D01*
X311681Y356066D01*
X311721Y356169D01*
X311757Y356273D01*
X311789Y356379D01*
X311818Y356485D01*
X311843Y356593D01*
X311865Y356701D01*
X311882Y356811D01*
X311896Y356920D01*
X311905Y357030D01*
X311911Y357141D01*
X311913Y357251D01*
X310938Y354979D02*
X305421Y348488D01*
X311912Y348488D01*
D10*
X417068Y442468D02*
X451612Y442468D01*
X451612Y444500D01*
X451612Y477012D02*
X417068Y477012D01*
X417068Y474980D01*
X417068Y444500D02*
X417068Y442468D01*
X451612Y474980D02*
X451612Y477012D01*
D120*
X409667Y477464D02*
X409667Y481443D01*
X409667Y477464D02*
X411988Y474479D01*
X409667Y477464D02*
X407345Y474479D01*
X409667Y477464D02*
X413314Y478790D01*
X409667Y477464D02*
X406019Y478790D01*
X422275Y485027D02*
X422275Y493649D01*
X422275Y485027D02*
X422277Y484913D01*
X422283Y484798D01*
X422293Y484684D01*
X422307Y484571D01*
X422324Y484457D01*
X422346Y484345D01*
X422371Y484233D01*
X422401Y484123D01*
X422434Y484013D01*
X422471Y483905D01*
X422511Y483798D01*
X422556Y483692D01*
X422603Y483588D01*
X422655Y483486D01*
X422710Y483386D01*
X422768Y483287D01*
X422830Y483191D01*
X422895Y483096D01*
X422963Y483005D01*
X423035Y482915D01*
X423109Y482828D01*
X423186Y482744D01*
X423267Y482662D01*
X423350Y482583D01*
X423435Y482507D01*
X423524Y482434D01*
X423614Y482365D01*
X423707Y482298D01*
X423803Y482235D01*
X423900Y482175D01*
X424000Y482118D01*
X424101Y482065D01*
X424204Y482015D01*
X424309Y481969D01*
X424415Y481926D01*
X424523Y481888D01*
X424632Y481853D01*
X424742Y481822D01*
X424853Y481794D01*
X424965Y481771D01*
X425078Y481751D01*
X425191Y481735D01*
X425305Y481723D01*
X425419Y481715D01*
X425534Y481711D01*
X425648Y481711D01*
X425763Y481715D01*
X425877Y481723D01*
X425991Y481735D01*
X426104Y481751D01*
X426217Y481771D01*
X426329Y481794D01*
X426440Y481822D01*
X426550Y481853D01*
X426659Y481888D01*
X426767Y481926D01*
X426873Y481969D01*
X426978Y482015D01*
X427081Y482065D01*
X427182Y482118D01*
X427282Y482175D01*
X427379Y482235D01*
X427475Y482298D01*
X427568Y482365D01*
X427658Y482434D01*
X427747Y482507D01*
X427832Y482583D01*
X427915Y482662D01*
X427996Y482744D01*
X428073Y482828D01*
X428147Y482915D01*
X428219Y483005D01*
X428287Y483096D01*
X428352Y483191D01*
X428414Y483287D01*
X428472Y483386D01*
X428527Y483486D01*
X428579Y483588D01*
X428626Y483692D01*
X428671Y483798D01*
X428711Y483905D01*
X428748Y484013D01*
X428781Y484123D01*
X428811Y484233D01*
X428836Y484345D01*
X428858Y484457D01*
X428875Y484571D01*
X428889Y484684D01*
X428899Y484798D01*
X428905Y484913D01*
X428907Y485027D01*
X428907Y493649D01*
X434086Y490996D02*
X437402Y493649D01*
X437402Y481711D01*
X434086Y481711D02*
X440718Y481711D01*
D10*
X451612Y378968D02*
X417068Y378968D01*
X451612Y378968D02*
X451612Y381000D01*
X451612Y413512D02*
X417068Y413512D01*
X417068Y411480D01*
X417068Y381000D02*
X417068Y378968D01*
X451612Y411480D02*
X451612Y413512D01*
D120*
X409667Y413964D02*
X409667Y417943D01*
X409667Y413964D02*
X411988Y410979D01*
X409667Y413964D02*
X407345Y410979D01*
X409667Y413964D02*
X413314Y415290D01*
X409667Y413964D02*
X406019Y415290D01*
X422275Y421527D02*
X422275Y430149D01*
X422275Y421527D02*
X422277Y421413D01*
X422283Y421298D01*
X422293Y421184D01*
X422307Y421071D01*
X422324Y420957D01*
X422346Y420845D01*
X422371Y420733D01*
X422401Y420623D01*
X422434Y420513D01*
X422471Y420405D01*
X422511Y420298D01*
X422556Y420192D01*
X422603Y420088D01*
X422655Y419986D01*
X422710Y419886D01*
X422768Y419787D01*
X422830Y419691D01*
X422895Y419596D01*
X422963Y419505D01*
X423035Y419415D01*
X423109Y419328D01*
X423186Y419244D01*
X423267Y419162D01*
X423350Y419083D01*
X423435Y419007D01*
X423524Y418934D01*
X423614Y418865D01*
X423707Y418798D01*
X423803Y418735D01*
X423900Y418675D01*
X424000Y418618D01*
X424101Y418565D01*
X424204Y418515D01*
X424309Y418469D01*
X424415Y418426D01*
X424523Y418388D01*
X424632Y418353D01*
X424742Y418322D01*
X424853Y418294D01*
X424965Y418271D01*
X425078Y418251D01*
X425191Y418235D01*
X425305Y418223D01*
X425419Y418215D01*
X425534Y418211D01*
X425648Y418211D01*
X425763Y418215D01*
X425877Y418223D01*
X425991Y418235D01*
X426104Y418251D01*
X426217Y418271D01*
X426329Y418294D01*
X426440Y418322D01*
X426550Y418353D01*
X426659Y418388D01*
X426767Y418426D01*
X426873Y418469D01*
X426978Y418515D01*
X427081Y418565D01*
X427182Y418618D01*
X427282Y418675D01*
X427379Y418735D01*
X427475Y418798D01*
X427568Y418865D01*
X427658Y418934D01*
X427747Y419007D01*
X427832Y419083D01*
X427915Y419162D01*
X427996Y419244D01*
X428073Y419328D01*
X428147Y419415D01*
X428219Y419505D01*
X428287Y419596D01*
X428352Y419691D01*
X428414Y419787D01*
X428472Y419886D01*
X428527Y419986D01*
X428579Y420088D01*
X428626Y420192D01*
X428671Y420298D01*
X428711Y420405D01*
X428748Y420513D01*
X428781Y420623D01*
X428811Y420733D01*
X428836Y420845D01*
X428858Y420957D01*
X428875Y421071D01*
X428889Y421184D01*
X428899Y421298D01*
X428905Y421413D01*
X428907Y421527D01*
X428907Y430149D01*
X437734Y430150D02*
X437841Y430148D01*
X437947Y430142D01*
X438053Y430133D01*
X438159Y430120D01*
X438264Y430103D01*
X438369Y430082D01*
X438472Y430057D01*
X438575Y430029D01*
X438677Y429997D01*
X438777Y429962D01*
X438876Y429923D01*
X438974Y429880D01*
X439070Y429834D01*
X439165Y429785D01*
X439257Y429732D01*
X439348Y429676D01*
X439436Y429617D01*
X439523Y429555D01*
X439607Y429489D01*
X439689Y429421D01*
X439768Y429350D01*
X439845Y429276D01*
X439919Y429199D01*
X439990Y429120D01*
X440058Y429038D01*
X440124Y428954D01*
X440186Y428867D01*
X440245Y428779D01*
X440301Y428688D01*
X440354Y428596D01*
X440403Y428501D01*
X440449Y428405D01*
X440492Y428307D01*
X440531Y428208D01*
X440566Y428108D01*
X440598Y428006D01*
X440626Y427903D01*
X440651Y427800D01*
X440672Y427695D01*
X440689Y427590D01*
X440702Y427484D01*
X440711Y427378D01*
X440717Y427272D01*
X440719Y427165D01*
X437734Y430149D02*
X437613Y430147D01*
X437493Y430141D01*
X437373Y430132D01*
X437253Y430119D01*
X437134Y430102D01*
X437015Y430081D01*
X436897Y430057D01*
X436780Y430028D01*
X436664Y429997D01*
X436548Y429961D01*
X436434Y429922D01*
X436322Y429879D01*
X436210Y429833D01*
X436100Y429784D01*
X435992Y429730D01*
X435886Y429674D01*
X435781Y429614D01*
X435678Y429551D01*
X435578Y429485D01*
X435479Y429416D01*
X435383Y429343D01*
X435289Y429268D01*
X435197Y429190D01*
X435108Y429108D01*
X435021Y429024D01*
X434938Y428938D01*
X434856Y428849D01*
X434778Y428757D01*
X434703Y428663D01*
X434631Y428566D01*
X434561Y428468D01*
X434495Y428367D01*
X434432Y428264D01*
X434373Y428159D01*
X434316Y428053D01*
X434263Y427944D01*
X434214Y427835D01*
X434168Y427723D01*
X434125Y427610D01*
X434087Y427496D01*
X439724Y424843D02*
X439804Y424923D01*
X439882Y425005D01*
X439956Y425089D01*
X440028Y425177D01*
X440096Y425267D01*
X440162Y425359D01*
X440224Y425453D01*
X440282Y425549D01*
X440337Y425648D01*
X440389Y425748D01*
X440437Y425850D01*
X440482Y425954D01*
X440522Y426059D01*
X440559Y426166D01*
X440593Y426274D01*
X440622Y426383D01*
X440648Y426493D01*
X440669Y426604D01*
X440687Y426715D01*
X440701Y426827D01*
X440711Y426939D01*
X440717Y427052D01*
X440719Y427165D01*
X439723Y424843D02*
X434086Y418211D01*
X440718Y418211D01*
D121*
X304200Y12715D02*
X229200Y12715D01*
X313575Y43965D02*
X313575Y56466D01*
X297950Y56466D01*
X235450Y56466D02*
X219825Y56466D01*
X219825Y43965D01*
D122*
X296565Y67729D02*
X296565Y76111D01*
X296565Y72386D02*
X301221Y72386D01*
X301221Y76111D02*
X301221Y67729D01*
X305548Y67729D02*
X308342Y76111D01*
X311136Y67729D01*
X310437Y69825D02*
X306246Y69825D01*
X315491Y67729D02*
X315491Y76111D01*
X315491Y67729D02*
X319216Y67729D01*
X323416Y67729D02*
X323416Y76111D01*
X323416Y67729D02*
X327141Y67729D01*
D123*
X466940Y138860D02*
X474940Y138860D01*
X466940Y138860D02*
X466940Y10860D01*
X562940Y10860D01*
X562940Y138860D01*
X554940Y138860D01*
X519940Y138860D02*
X509940Y138860D01*
D124*
X554440Y150860D03*
D125*
X554378Y150858D01*
X554317Y150852D01*
X554256Y150843D01*
X554196Y150830D01*
X554137Y150813D01*
X554079Y150792D01*
X554022Y150768D01*
X553967Y150741D01*
X553914Y150710D01*
X553862Y150676D01*
X553813Y150639D01*
X553766Y150599D01*
X553722Y150556D01*
X553681Y150511D01*
X553642Y150463D01*
X553606Y150412D01*
X553574Y150360D01*
X553545Y150306D01*
X553519Y150250D01*
X553497Y150192D01*
X553478Y150134D01*
X553463Y150074D01*
X553452Y150013D01*
X553444Y149952D01*
X553440Y149891D01*
X553440Y149829D01*
X553444Y149768D01*
X553452Y149707D01*
X553463Y149646D01*
X553478Y149586D01*
X553497Y149528D01*
X553519Y149470D01*
X553545Y149414D01*
X553574Y149360D01*
X553606Y149308D01*
X553642Y149257D01*
X553681Y149209D01*
X553722Y149164D01*
X553766Y149121D01*
X553813Y149081D01*
X553862Y149044D01*
X553914Y149010D01*
X553967Y148979D01*
X554022Y148952D01*
X554079Y148928D01*
X554137Y148907D01*
X554196Y148890D01*
X554256Y148877D01*
X554317Y148868D01*
X554378Y148862D01*
X554440Y148860D01*
D124*
X554440Y148860D03*
D125*
X554502Y148862D01*
X554563Y148868D01*
X554624Y148877D01*
X554684Y148890D01*
X554743Y148907D01*
X554801Y148928D01*
X554858Y148952D01*
X554913Y148979D01*
X554966Y149010D01*
X555018Y149044D01*
X555067Y149081D01*
X555114Y149121D01*
X555158Y149164D01*
X555199Y149209D01*
X555238Y149257D01*
X555274Y149308D01*
X555306Y149360D01*
X555335Y149414D01*
X555361Y149470D01*
X555383Y149528D01*
X555402Y149586D01*
X555417Y149646D01*
X555428Y149707D01*
X555436Y149768D01*
X555440Y149829D01*
X555440Y149891D01*
X555436Y149952D01*
X555428Y150013D01*
X555417Y150074D01*
X555402Y150134D01*
X555383Y150192D01*
X555361Y150250D01*
X555335Y150306D01*
X555306Y150360D01*
X555274Y150412D01*
X555238Y150463D01*
X555199Y150511D01*
X555158Y150556D01*
X555114Y150599D01*
X555067Y150639D01*
X555018Y150676D01*
X554966Y150710D01*
X554913Y150741D01*
X554858Y150768D01*
X554801Y150792D01*
X554743Y150813D01*
X554684Y150830D01*
X554624Y150843D01*
X554563Y150852D01*
X554502Y150858D01*
X554440Y150860D01*
D121*
X159420Y12715D02*
X84420Y12715D01*
X168795Y43965D02*
X168795Y56466D01*
X153170Y56466D01*
X90670Y56466D02*
X75045Y56466D01*
X75045Y43965D01*
D122*
X152702Y70269D02*
X152702Y78651D01*
X151771Y70269D02*
X153634Y70269D01*
X153634Y78651D02*
X151771Y78651D01*
X160966Y79582D02*
X157240Y69338D01*
X165004Y72597D02*
X165004Y76323D01*
X165005Y76323D02*
X165007Y76418D01*
X165013Y76513D01*
X165022Y76607D01*
X165036Y76701D01*
X165053Y76795D01*
X165074Y76887D01*
X165099Y76979D01*
X165128Y77069D01*
X165160Y77159D01*
X165196Y77247D01*
X165236Y77333D01*
X165278Y77418D01*
X165325Y77501D01*
X165375Y77582D01*
X165428Y77660D01*
X165484Y77737D01*
X165543Y77811D01*
X165605Y77883D01*
X165670Y77952D01*
X165738Y78019D01*
X165808Y78082D01*
X165882Y78143D01*
X165957Y78201D01*
X166035Y78255D01*
X166115Y78307D01*
X166197Y78355D01*
X166280Y78399D01*
X166366Y78441D01*
X166453Y78478D01*
X166542Y78512D01*
X166632Y78543D01*
X166723Y78570D01*
X166815Y78593D01*
X166908Y78612D01*
X167002Y78627D01*
X167096Y78639D01*
X167191Y78647D01*
X167286Y78651D01*
X167380Y78651D01*
X167475Y78647D01*
X167570Y78639D01*
X167664Y78627D01*
X167758Y78612D01*
X167851Y78593D01*
X167943Y78570D01*
X168034Y78543D01*
X168124Y78512D01*
X168213Y78478D01*
X168300Y78441D01*
X168386Y78399D01*
X168469Y78355D01*
X168551Y78307D01*
X168631Y78255D01*
X168709Y78201D01*
X168784Y78143D01*
X168858Y78082D01*
X168928Y78019D01*
X168996Y77952D01*
X169061Y77883D01*
X169123Y77811D01*
X169182Y77737D01*
X169238Y77660D01*
X169291Y77582D01*
X169341Y77501D01*
X169388Y77418D01*
X169430Y77333D01*
X169470Y77247D01*
X169506Y77159D01*
X169538Y77069D01*
X169567Y76979D01*
X169592Y76887D01*
X169613Y76795D01*
X169630Y76701D01*
X169644Y76607D01*
X169653Y76513D01*
X169659Y76418D01*
X169661Y76323D01*
X169661Y72597D01*
X169659Y72502D01*
X169653Y72407D01*
X169644Y72313D01*
X169630Y72219D01*
X169613Y72125D01*
X169592Y72033D01*
X169567Y71941D01*
X169538Y71851D01*
X169506Y71761D01*
X169470Y71673D01*
X169430Y71587D01*
X169388Y71502D01*
X169341Y71419D01*
X169291Y71338D01*
X169238Y71260D01*
X169182Y71183D01*
X169123Y71109D01*
X169061Y71037D01*
X168996Y70968D01*
X168928Y70901D01*
X168858Y70838D01*
X168784Y70777D01*
X168709Y70719D01*
X168631Y70665D01*
X168551Y70613D01*
X168469Y70565D01*
X168386Y70521D01*
X168300Y70479D01*
X168213Y70442D01*
X168124Y70408D01*
X168034Y70377D01*
X167943Y70350D01*
X167851Y70327D01*
X167758Y70308D01*
X167664Y70293D01*
X167570Y70281D01*
X167475Y70273D01*
X167380Y70269D01*
X167286Y70269D01*
X167191Y70273D01*
X167096Y70281D01*
X167002Y70293D01*
X166908Y70308D01*
X166815Y70327D01*
X166723Y70350D01*
X166632Y70377D01*
X166542Y70408D01*
X166453Y70442D01*
X166366Y70479D01*
X166280Y70521D01*
X166197Y70565D01*
X166115Y70613D01*
X166035Y70665D01*
X165957Y70719D01*
X165882Y70777D01*
X165808Y70838D01*
X165738Y70901D01*
X165670Y70968D01*
X165605Y71037D01*
X165543Y71109D01*
X165484Y71183D01*
X165428Y71260D01*
X165375Y71338D01*
X165325Y71419D01*
X165278Y71502D01*
X165236Y71587D01*
X165196Y71673D01*
X165160Y71761D01*
X165128Y71851D01*
X165099Y71941D01*
X165074Y72033D01*
X165053Y72125D01*
X165036Y72219D01*
X165022Y72313D01*
X165013Y72407D01*
X165007Y72502D01*
X165005Y72597D01*
D125*
X157720Y274080D02*
X143470Y274080D01*
D119*
X139552Y231902D02*
X139552Y220218D01*
X138254Y220218D02*
X140850Y220218D01*
X140850Y231902D02*
X138254Y231902D01*
X148014Y220218D02*
X150610Y220218D01*
X148014Y220218D02*
X147915Y220220D01*
X147815Y220226D01*
X147716Y220235D01*
X147618Y220248D01*
X147520Y220265D01*
X147422Y220286D01*
X147326Y220311D01*
X147231Y220339D01*
X147137Y220371D01*
X147044Y220406D01*
X146952Y220445D01*
X146862Y220488D01*
X146774Y220533D01*
X146687Y220583D01*
X146603Y220635D01*
X146520Y220691D01*
X146440Y220749D01*
X146362Y220811D01*
X146287Y220876D01*
X146214Y220944D01*
X146144Y221014D01*
X146076Y221087D01*
X146011Y221162D01*
X145949Y221240D01*
X145891Y221320D01*
X145835Y221403D01*
X145783Y221487D01*
X145733Y221574D01*
X145688Y221662D01*
X145645Y221752D01*
X145606Y221844D01*
X145571Y221937D01*
X145539Y222031D01*
X145511Y222126D01*
X145486Y222222D01*
X145465Y222320D01*
X145448Y222418D01*
X145435Y222516D01*
X145426Y222615D01*
X145420Y222715D01*
X145418Y222814D01*
X145417Y222814D02*
X145417Y229306D01*
X145418Y229306D02*
X145420Y229405D01*
X145426Y229505D01*
X145435Y229604D01*
X145448Y229702D01*
X145465Y229800D01*
X145486Y229898D01*
X145511Y229994D01*
X145539Y230089D01*
X145571Y230183D01*
X145606Y230276D01*
X145645Y230368D01*
X145688Y230458D01*
X145733Y230546D01*
X145783Y230633D01*
X145835Y230717D01*
X145891Y230800D01*
X145949Y230880D01*
X146011Y230958D01*
X146076Y231033D01*
X146144Y231106D01*
X146214Y231176D01*
X146287Y231244D01*
X146362Y231309D01*
X146440Y231371D01*
X146520Y231429D01*
X146603Y231485D01*
X146687Y231537D01*
X146774Y231587D01*
X146862Y231632D01*
X146952Y231675D01*
X147044Y231714D01*
X147136Y231749D01*
X147231Y231781D01*
X147326Y231809D01*
X147422Y231834D01*
X147520Y231855D01*
X147618Y231872D01*
X147716Y231885D01*
X147815Y231894D01*
X147915Y231900D01*
X148014Y231902D01*
X150610Y231902D01*
X154975Y229306D02*
X158221Y231902D01*
X158221Y220218D01*
X161466Y220218D02*
X154975Y220218D01*
D125*
X190260Y444740D02*
X204510Y444740D01*
D119*
X167492Y481838D02*
X167492Y493522D01*
X166194Y481838D02*
X168790Y481838D01*
X168790Y493522D02*
X166194Y493522D01*
X175954Y481838D02*
X178550Y481838D01*
X175954Y481838D02*
X175855Y481840D01*
X175755Y481846D01*
X175656Y481855D01*
X175558Y481868D01*
X175460Y481885D01*
X175362Y481906D01*
X175266Y481931D01*
X175171Y481959D01*
X175077Y481991D01*
X174984Y482026D01*
X174892Y482065D01*
X174802Y482108D01*
X174714Y482153D01*
X174627Y482203D01*
X174543Y482255D01*
X174460Y482311D01*
X174380Y482369D01*
X174302Y482431D01*
X174227Y482496D01*
X174154Y482564D01*
X174084Y482634D01*
X174016Y482707D01*
X173951Y482782D01*
X173889Y482860D01*
X173831Y482940D01*
X173775Y483023D01*
X173723Y483107D01*
X173673Y483194D01*
X173628Y483282D01*
X173585Y483372D01*
X173546Y483464D01*
X173511Y483557D01*
X173479Y483651D01*
X173451Y483746D01*
X173426Y483842D01*
X173405Y483940D01*
X173388Y484038D01*
X173375Y484136D01*
X173366Y484235D01*
X173360Y484335D01*
X173358Y484434D01*
X173357Y484434D02*
X173357Y490926D01*
X173358Y490926D02*
X173360Y491025D01*
X173366Y491125D01*
X173375Y491224D01*
X173388Y491322D01*
X173405Y491420D01*
X173426Y491518D01*
X173451Y491614D01*
X173479Y491709D01*
X173511Y491803D01*
X173546Y491896D01*
X173585Y491988D01*
X173628Y492078D01*
X173673Y492166D01*
X173723Y492253D01*
X173775Y492337D01*
X173831Y492420D01*
X173889Y492500D01*
X173951Y492578D01*
X174016Y492653D01*
X174084Y492726D01*
X174154Y492796D01*
X174227Y492864D01*
X174302Y492929D01*
X174380Y492991D01*
X174460Y493049D01*
X174543Y493105D01*
X174627Y493157D01*
X174714Y493207D01*
X174802Y493252D01*
X174892Y493295D01*
X174984Y493334D01*
X175076Y493369D01*
X175171Y493401D01*
X175266Y493429D01*
X175362Y493454D01*
X175460Y493475D01*
X175558Y493492D01*
X175656Y493505D01*
X175755Y493514D01*
X175855Y493520D01*
X175954Y493522D01*
X178550Y493522D01*
X186485Y493522D02*
X186592Y493520D01*
X186698Y493514D01*
X186804Y493504D01*
X186910Y493491D01*
X187016Y493473D01*
X187120Y493452D01*
X187224Y493427D01*
X187327Y493398D01*
X187428Y493366D01*
X187528Y493329D01*
X187627Y493289D01*
X187725Y493246D01*
X187821Y493199D01*
X187915Y493148D01*
X188007Y493094D01*
X188097Y493037D01*
X188185Y492977D01*
X188270Y492913D01*
X188353Y492846D01*
X188434Y492776D01*
X188512Y492704D01*
X188588Y492628D01*
X188660Y492550D01*
X188730Y492469D01*
X188797Y492386D01*
X188861Y492301D01*
X188921Y492213D01*
X188978Y492123D01*
X189032Y492031D01*
X189083Y491937D01*
X189130Y491841D01*
X189173Y491743D01*
X189213Y491644D01*
X189250Y491544D01*
X189282Y491443D01*
X189311Y491340D01*
X189336Y491236D01*
X189357Y491132D01*
X189375Y491026D01*
X189388Y490920D01*
X189398Y490814D01*
X189404Y490708D01*
X189406Y490601D01*
X186485Y493522D02*
X186364Y493520D01*
X186243Y493514D01*
X186123Y493504D01*
X186002Y493491D01*
X185883Y493473D01*
X185763Y493452D01*
X185645Y493427D01*
X185528Y493398D01*
X185411Y493365D01*
X185296Y493329D01*
X185182Y493288D01*
X185069Y493245D01*
X184957Y493197D01*
X184848Y493146D01*
X184740Y493091D01*
X184633Y493033D01*
X184529Y492972D01*
X184427Y492907D01*
X184327Y492839D01*
X184229Y492768D01*
X184133Y492694D01*
X184040Y492617D01*
X183950Y492536D01*
X183862Y492453D01*
X183777Y492367D01*
X183694Y492278D01*
X183615Y492187D01*
X183538Y492093D01*
X183465Y491997D01*
X183395Y491899D01*
X183328Y491798D01*
X183264Y491695D01*
X183204Y491590D01*
X183147Y491483D01*
X183093Y491375D01*
X183043Y491265D01*
X182997Y491153D01*
X182954Y491040D01*
X182915Y490925D01*
X188433Y488329D02*
X188512Y488406D01*
X188588Y488487D01*
X188661Y488570D01*
X188731Y488655D01*
X188798Y488743D01*
X188862Y488833D01*
X188922Y488925D01*
X188979Y489020D01*
X189033Y489116D01*
X189084Y489214D01*
X189131Y489314D01*
X189175Y489416D01*
X189215Y489519D01*
X189251Y489623D01*
X189283Y489729D01*
X189312Y489835D01*
X189337Y489943D01*
X189359Y490051D01*
X189376Y490161D01*
X189390Y490270D01*
X189399Y490380D01*
X189405Y490491D01*
X189407Y490601D01*
X188433Y488329D02*
X182915Y481838D01*
X189406Y481838D01*
X165721Y343408D02*
X163124Y343408D01*
X163025Y343410D01*
X162925Y343416D01*
X162826Y343425D01*
X162728Y343438D01*
X162630Y343455D01*
X162532Y343476D01*
X162436Y343501D01*
X162341Y343529D01*
X162247Y343561D01*
X162154Y343596D01*
X162062Y343635D01*
X161972Y343678D01*
X161884Y343723D01*
X161797Y343773D01*
X161713Y343825D01*
X161630Y343881D01*
X161550Y343939D01*
X161472Y344001D01*
X161397Y344066D01*
X161324Y344134D01*
X161254Y344204D01*
X161186Y344277D01*
X161121Y344352D01*
X161059Y344430D01*
X161001Y344510D01*
X160945Y344593D01*
X160893Y344677D01*
X160843Y344764D01*
X160798Y344852D01*
X160755Y344942D01*
X160716Y345034D01*
X160681Y345127D01*
X160649Y345221D01*
X160621Y345316D01*
X160596Y345412D01*
X160575Y345510D01*
X160558Y345608D01*
X160545Y345706D01*
X160536Y345805D01*
X160530Y345905D01*
X160528Y346004D01*
X160528Y352496D01*
X160530Y352595D01*
X160536Y352695D01*
X160545Y352794D01*
X160558Y352892D01*
X160575Y352990D01*
X160596Y353088D01*
X160621Y353184D01*
X160649Y353279D01*
X160681Y353373D01*
X160716Y353466D01*
X160755Y353558D01*
X160798Y353648D01*
X160843Y353736D01*
X160893Y353823D01*
X160945Y353907D01*
X161001Y353990D01*
X161059Y354070D01*
X161121Y354148D01*
X161186Y354223D01*
X161254Y354296D01*
X161324Y354366D01*
X161397Y354434D01*
X161472Y354499D01*
X161550Y354561D01*
X161630Y354619D01*
X161713Y354675D01*
X161797Y354727D01*
X161884Y354777D01*
X161972Y354822D01*
X162062Y354865D01*
X162154Y354904D01*
X162246Y354939D01*
X162341Y354971D01*
X162436Y354999D01*
X162532Y355024D01*
X162630Y355045D01*
X162728Y355062D01*
X162826Y355075D01*
X162925Y355084D01*
X163025Y355090D01*
X163124Y355092D01*
X165721Y355092D01*
X170086Y343408D02*
X173332Y343408D01*
X173445Y343410D01*
X173558Y343416D01*
X173671Y343426D01*
X173784Y343440D01*
X173896Y343457D01*
X174007Y343479D01*
X174117Y343504D01*
X174227Y343534D01*
X174335Y343567D01*
X174442Y343604D01*
X174548Y343644D01*
X174652Y343689D01*
X174755Y343737D01*
X174856Y343788D01*
X174955Y343843D01*
X175052Y343901D01*
X175147Y343963D01*
X175240Y344028D01*
X175330Y344096D01*
X175418Y344167D01*
X175504Y344242D01*
X175587Y344319D01*
X175667Y344399D01*
X175744Y344482D01*
X175819Y344568D01*
X175890Y344656D01*
X175958Y344746D01*
X176023Y344839D01*
X176085Y344934D01*
X176143Y345031D01*
X176198Y345130D01*
X176249Y345231D01*
X176297Y345334D01*
X176342Y345438D01*
X176382Y345544D01*
X176419Y345651D01*
X176452Y345759D01*
X176482Y345869D01*
X176507Y345979D01*
X176529Y346090D01*
X176546Y346202D01*
X176560Y346315D01*
X176570Y346428D01*
X176576Y346541D01*
X176578Y346654D01*
X176576Y346767D01*
X176570Y346880D01*
X176560Y346993D01*
X176546Y347106D01*
X176529Y347218D01*
X176507Y347329D01*
X176482Y347439D01*
X176452Y347549D01*
X176419Y347657D01*
X176382Y347764D01*
X176342Y347870D01*
X176297Y347974D01*
X176249Y348077D01*
X176198Y348178D01*
X176143Y348277D01*
X176085Y348374D01*
X176023Y348469D01*
X175958Y348562D01*
X175890Y348652D01*
X175819Y348740D01*
X175744Y348826D01*
X175667Y348909D01*
X175587Y348989D01*
X175504Y349066D01*
X175418Y349141D01*
X175330Y349212D01*
X175240Y349280D01*
X175147Y349345D01*
X175052Y349407D01*
X174955Y349465D01*
X174856Y349520D01*
X174755Y349571D01*
X174652Y349619D01*
X174548Y349664D01*
X174442Y349704D01*
X174335Y349741D01*
X174227Y349774D01*
X174117Y349804D01*
X174007Y349829D01*
X173896Y349851D01*
X173784Y349868D01*
X173671Y349882D01*
X173558Y349892D01*
X173445Y349898D01*
X173332Y349900D01*
X173981Y355092D02*
X170086Y355092D01*
X173981Y355092D02*
X174082Y355090D01*
X174182Y355084D01*
X174282Y355074D01*
X174382Y355061D01*
X174481Y355043D01*
X174580Y355022D01*
X174677Y354997D01*
X174774Y354968D01*
X174869Y354935D01*
X174963Y354899D01*
X175055Y354859D01*
X175146Y354816D01*
X175235Y354769D01*
X175322Y354719D01*
X175408Y354665D01*
X175491Y354608D01*
X175571Y354548D01*
X175650Y354485D01*
X175726Y354418D01*
X175799Y354349D01*
X175869Y354277D01*
X175937Y354203D01*
X176002Y354126D01*
X176063Y354046D01*
X176122Y353964D01*
X176177Y353880D01*
X176229Y353794D01*
X176278Y353706D01*
X176323Y353616D01*
X176365Y353524D01*
X176403Y353431D01*
X176437Y353336D01*
X176468Y353241D01*
X176495Y353144D01*
X176518Y353046D01*
X176538Y352947D01*
X176553Y352847D01*
X176565Y352747D01*
X176573Y352647D01*
X176577Y352546D01*
X176577Y352446D01*
X176573Y352345D01*
X176565Y352245D01*
X176553Y352145D01*
X176538Y352045D01*
X176518Y351946D01*
X176495Y351848D01*
X176468Y351751D01*
X176437Y351656D01*
X176403Y351561D01*
X176365Y351468D01*
X176323Y351376D01*
X176278Y351286D01*
X176229Y351198D01*
X176177Y351112D01*
X176122Y351028D01*
X176063Y350946D01*
X176002Y350866D01*
X175937Y350789D01*
X175869Y350715D01*
X175799Y350643D01*
X175726Y350574D01*
X175650Y350507D01*
X175571Y350444D01*
X175491Y350384D01*
X175408Y350327D01*
X175322Y350273D01*
X175235Y350223D01*
X175146Y350176D01*
X175055Y350133D01*
X174963Y350093D01*
X174869Y350057D01*
X174774Y350024D01*
X174677Y349995D01*
X174580Y349970D01*
X174481Y349949D01*
X174382Y349931D01*
X174282Y349918D01*
X174182Y349908D01*
X174082Y349902D01*
X173981Y349900D01*
X173981Y349899D02*
X171384Y349899D01*
X132701Y366268D02*
X130104Y366268D01*
X130005Y366270D01*
X129905Y366276D01*
X129806Y366285D01*
X129708Y366298D01*
X129610Y366315D01*
X129512Y366336D01*
X129416Y366361D01*
X129321Y366389D01*
X129227Y366421D01*
X129134Y366456D01*
X129042Y366495D01*
X128952Y366538D01*
X128864Y366583D01*
X128777Y366633D01*
X128693Y366685D01*
X128610Y366741D01*
X128530Y366799D01*
X128452Y366861D01*
X128377Y366926D01*
X128304Y366994D01*
X128234Y367064D01*
X128166Y367137D01*
X128101Y367212D01*
X128039Y367290D01*
X127981Y367370D01*
X127925Y367453D01*
X127873Y367537D01*
X127823Y367624D01*
X127778Y367712D01*
X127735Y367802D01*
X127696Y367894D01*
X127661Y367987D01*
X127629Y368081D01*
X127601Y368176D01*
X127576Y368272D01*
X127555Y368370D01*
X127538Y368468D01*
X127525Y368566D01*
X127516Y368665D01*
X127510Y368765D01*
X127508Y368864D01*
X127508Y375356D01*
X127510Y375455D01*
X127516Y375555D01*
X127525Y375654D01*
X127538Y375752D01*
X127555Y375850D01*
X127576Y375948D01*
X127601Y376044D01*
X127629Y376139D01*
X127661Y376233D01*
X127696Y376326D01*
X127735Y376418D01*
X127778Y376508D01*
X127823Y376596D01*
X127873Y376683D01*
X127925Y376767D01*
X127981Y376850D01*
X128039Y376930D01*
X128101Y377008D01*
X128166Y377083D01*
X128234Y377156D01*
X128304Y377226D01*
X128377Y377294D01*
X128452Y377359D01*
X128530Y377421D01*
X128610Y377479D01*
X128693Y377535D01*
X128777Y377587D01*
X128864Y377637D01*
X128952Y377682D01*
X129042Y377725D01*
X129134Y377764D01*
X129226Y377799D01*
X129321Y377831D01*
X129416Y377859D01*
X129512Y377884D01*
X129610Y377905D01*
X129708Y377922D01*
X129806Y377935D01*
X129905Y377944D01*
X130005Y377950D01*
X130104Y377952D01*
X132701Y377952D01*
X139663Y377952D02*
X137066Y368864D01*
X143557Y368864D01*
X141610Y371461D02*
X141610Y366268D01*
X234244Y343408D02*
X236841Y343408D01*
X234244Y343408D02*
X234145Y343410D01*
X234045Y343416D01*
X233946Y343425D01*
X233848Y343438D01*
X233750Y343455D01*
X233652Y343476D01*
X233556Y343501D01*
X233461Y343529D01*
X233367Y343561D01*
X233274Y343596D01*
X233182Y343635D01*
X233092Y343678D01*
X233004Y343723D01*
X232917Y343773D01*
X232833Y343825D01*
X232750Y343881D01*
X232670Y343939D01*
X232592Y344001D01*
X232517Y344066D01*
X232444Y344134D01*
X232374Y344204D01*
X232306Y344277D01*
X232241Y344352D01*
X232179Y344430D01*
X232121Y344510D01*
X232065Y344593D01*
X232013Y344677D01*
X231963Y344764D01*
X231918Y344852D01*
X231875Y344942D01*
X231836Y345034D01*
X231801Y345127D01*
X231769Y345221D01*
X231741Y345316D01*
X231716Y345412D01*
X231695Y345510D01*
X231678Y345608D01*
X231665Y345706D01*
X231656Y345805D01*
X231650Y345905D01*
X231648Y346004D01*
X231648Y352496D01*
X231650Y352595D01*
X231656Y352695D01*
X231665Y352794D01*
X231678Y352892D01*
X231695Y352990D01*
X231716Y353088D01*
X231741Y353184D01*
X231769Y353279D01*
X231801Y353373D01*
X231836Y353466D01*
X231875Y353558D01*
X231918Y353648D01*
X231963Y353736D01*
X232013Y353823D01*
X232065Y353907D01*
X232121Y353990D01*
X232179Y354070D01*
X232241Y354148D01*
X232306Y354223D01*
X232374Y354296D01*
X232444Y354366D01*
X232517Y354434D01*
X232592Y354499D01*
X232670Y354561D01*
X232750Y354619D01*
X232833Y354675D01*
X232917Y354727D01*
X233004Y354777D01*
X233092Y354822D01*
X233182Y354865D01*
X233274Y354904D01*
X233366Y354939D01*
X233461Y354971D01*
X233556Y354999D01*
X233652Y355024D01*
X233750Y355045D01*
X233848Y355062D01*
X233946Y355075D01*
X234045Y355084D01*
X234145Y355090D01*
X234244Y355092D01*
X236841Y355092D01*
X241206Y343408D02*
X245101Y343408D01*
X245200Y343410D01*
X245300Y343416D01*
X245399Y343425D01*
X245497Y343438D01*
X245595Y343455D01*
X245693Y343476D01*
X245789Y343501D01*
X245884Y343529D01*
X245978Y343561D01*
X246071Y343596D01*
X246163Y343635D01*
X246253Y343678D01*
X246341Y343723D01*
X246428Y343773D01*
X246512Y343825D01*
X246595Y343881D01*
X246675Y343939D01*
X246753Y344001D01*
X246828Y344066D01*
X246901Y344134D01*
X246971Y344204D01*
X247039Y344277D01*
X247104Y344352D01*
X247166Y344430D01*
X247224Y344510D01*
X247280Y344593D01*
X247332Y344677D01*
X247382Y344764D01*
X247427Y344852D01*
X247470Y344942D01*
X247509Y345034D01*
X247544Y345127D01*
X247576Y345221D01*
X247604Y345316D01*
X247629Y345412D01*
X247650Y345510D01*
X247667Y345608D01*
X247680Y345706D01*
X247689Y345805D01*
X247695Y345905D01*
X247697Y346004D01*
X247697Y347303D01*
X247695Y347402D01*
X247689Y347502D01*
X247680Y347601D01*
X247667Y347699D01*
X247650Y347797D01*
X247629Y347895D01*
X247604Y347991D01*
X247576Y348086D01*
X247544Y348180D01*
X247509Y348273D01*
X247470Y348365D01*
X247427Y348455D01*
X247382Y348543D01*
X247332Y348630D01*
X247280Y348714D01*
X247224Y348797D01*
X247166Y348877D01*
X247104Y348955D01*
X247039Y349030D01*
X246971Y349103D01*
X246901Y349173D01*
X246828Y349241D01*
X246753Y349306D01*
X246675Y349368D01*
X246595Y349426D01*
X246512Y349482D01*
X246428Y349534D01*
X246341Y349584D01*
X246253Y349629D01*
X246163Y349672D01*
X246071Y349711D01*
X245978Y349746D01*
X245884Y349778D01*
X245789Y349806D01*
X245693Y349831D01*
X245595Y349852D01*
X245497Y349869D01*
X245399Y349882D01*
X245300Y349891D01*
X245200Y349897D01*
X245101Y349899D01*
X241206Y349899D01*
X241206Y355092D01*
X247697Y355092D01*
X168261Y366268D02*
X165664Y366268D01*
X165565Y366270D01*
X165465Y366276D01*
X165366Y366285D01*
X165268Y366298D01*
X165170Y366315D01*
X165072Y366336D01*
X164976Y366361D01*
X164881Y366389D01*
X164787Y366421D01*
X164694Y366456D01*
X164602Y366495D01*
X164512Y366538D01*
X164424Y366583D01*
X164337Y366633D01*
X164253Y366685D01*
X164170Y366741D01*
X164090Y366799D01*
X164012Y366861D01*
X163937Y366926D01*
X163864Y366994D01*
X163794Y367064D01*
X163726Y367137D01*
X163661Y367212D01*
X163599Y367290D01*
X163541Y367370D01*
X163485Y367453D01*
X163433Y367537D01*
X163383Y367624D01*
X163338Y367712D01*
X163295Y367802D01*
X163256Y367894D01*
X163221Y367987D01*
X163189Y368081D01*
X163161Y368176D01*
X163136Y368272D01*
X163115Y368370D01*
X163098Y368468D01*
X163085Y368566D01*
X163076Y368665D01*
X163070Y368765D01*
X163068Y368864D01*
X163068Y375356D01*
X163070Y375455D01*
X163076Y375555D01*
X163085Y375654D01*
X163098Y375752D01*
X163115Y375850D01*
X163136Y375948D01*
X163161Y376044D01*
X163189Y376139D01*
X163221Y376233D01*
X163256Y376326D01*
X163295Y376418D01*
X163338Y376508D01*
X163383Y376596D01*
X163433Y376683D01*
X163485Y376767D01*
X163541Y376850D01*
X163599Y376930D01*
X163661Y377008D01*
X163726Y377083D01*
X163794Y377156D01*
X163864Y377226D01*
X163937Y377294D01*
X164012Y377359D01*
X164090Y377421D01*
X164170Y377479D01*
X164253Y377535D01*
X164337Y377587D01*
X164424Y377637D01*
X164512Y377682D01*
X164602Y377725D01*
X164694Y377764D01*
X164786Y377799D01*
X164881Y377831D01*
X164976Y377859D01*
X165072Y377884D01*
X165170Y377905D01*
X165268Y377922D01*
X165366Y377935D01*
X165465Y377944D01*
X165565Y377950D01*
X165664Y377952D01*
X168261Y377952D01*
X172626Y372759D02*
X176521Y372759D01*
X176620Y372757D01*
X176720Y372751D01*
X176819Y372742D01*
X176917Y372729D01*
X177015Y372712D01*
X177113Y372691D01*
X177209Y372666D01*
X177304Y372638D01*
X177398Y372606D01*
X177491Y372571D01*
X177583Y372532D01*
X177673Y372489D01*
X177761Y372444D01*
X177848Y372394D01*
X177932Y372342D01*
X178015Y372286D01*
X178095Y372228D01*
X178173Y372166D01*
X178248Y372101D01*
X178321Y372033D01*
X178391Y371963D01*
X178459Y371890D01*
X178524Y371815D01*
X178586Y371737D01*
X178644Y371657D01*
X178700Y371574D01*
X178752Y371490D01*
X178802Y371403D01*
X178847Y371315D01*
X178890Y371225D01*
X178929Y371133D01*
X178964Y371040D01*
X178996Y370946D01*
X179024Y370851D01*
X179049Y370755D01*
X179070Y370657D01*
X179087Y370559D01*
X179100Y370461D01*
X179109Y370362D01*
X179115Y370262D01*
X179117Y370163D01*
X179117Y369514D01*
X179118Y369514D02*
X179116Y369401D01*
X179110Y369288D01*
X179100Y369175D01*
X179086Y369062D01*
X179069Y368950D01*
X179047Y368839D01*
X179022Y368729D01*
X178992Y368619D01*
X178959Y368511D01*
X178922Y368404D01*
X178882Y368298D01*
X178837Y368194D01*
X178789Y368091D01*
X178738Y367990D01*
X178683Y367891D01*
X178625Y367794D01*
X178563Y367699D01*
X178498Y367606D01*
X178430Y367516D01*
X178359Y367428D01*
X178284Y367342D01*
X178207Y367259D01*
X178127Y367179D01*
X178044Y367102D01*
X177958Y367027D01*
X177870Y366956D01*
X177780Y366888D01*
X177687Y366823D01*
X177592Y366761D01*
X177495Y366703D01*
X177396Y366648D01*
X177295Y366597D01*
X177192Y366549D01*
X177088Y366504D01*
X176982Y366464D01*
X176875Y366427D01*
X176767Y366394D01*
X176657Y366364D01*
X176547Y366339D01*
X176436Y366317D01*
X176324Y366300D01*
X176211Y366286D01*
X176098Y366276D01*
X175985Y366270D01*
X175872Y366268D01*
X175759Y366270D01*
X175646Y366276D01*
X175533Y366286D01*
X175420Y366300D01*
X175308Y366317D01*
X175197Y366339D01*
X175087Y366364D01*
X174977Y366394D01*
X174869Y366427D01*
X174762Y366464D01*
X174656Y366504D01*
X174552Y366549D01*
X174449Y366597D01*
X174348Y366648D01*
X174249Y366703D01*
X174152Y366761D01*
X174057Y366823D01*
X173964Y366888D01*
X173874Y366956D01*
X173786Y367027D01*
X173700Y367102D01*
X173617Y367179D01*
X173537Y367259D01*
X173460Y367342D01*
X173385Y367428D01*
X173314Y367516D01*
X173246Y367606D01*
X173181Y367699D01*
X173119Y367794D01*
X173061Y367891D01*
X173006Y367990D01*
X172955Y368091D01*
X172907Y368194D01*
X172862Y368298D01*
X172822Y368404D01*
X172785Y368511D01*
X172752Y368619D01*
X172722Y368729D01*
X172697Y368839D01*
X172675Y368950D01*
X172658Y369062D01*
X172644Y369175D01*
X172634Y369288D01*
X172628Y369401D01*
X172626Y369514D01*
X172626Y372759D01*
X172628Y372902D01*
X172634Y373045D01*
X172644Y373188D01*
X172658Y373330D01*
X172675Y373472D01*
X172697Y373614D01*
X172722Y373755D01*
X172752Y373895D01*
X172785Y374034D01*
X172822Y374172D01*
X172863Y374309D01*
X172907Y374445D01*
X172956Y374580D01*
X173008Y374713D01*
X173063Y374845D01*
X173123Y374975D01*
X173186Y375104D01*
X173252Y375231D01*
X173322Y375355D01*
X173395Y375478D01*
X173472Y375599D01*
X173552Y375718D01*
X173635Y375834D01*
X173721Y375949D01*
X173810Y376060D01*
X173903Y376170D01*
X173998Y376276D01*
X174097Y376380D01*
X174198Y376481D01*
X174302Y376580D01*
X174408Y376675D01*
X174518Y376768D01*
X174629Y376857D01*
X174744Y376943D01*
X174860Y377026D01*
X174979Y377106D01*
X175100Y377183D01*
X175222Y377256D01*
X175347Y377326D01*
X175474Y377392D01*
X175603Y377455D01*
X175733Y377515D01*
X175865Y377570D01*
X175998Y377622D01*
X176133Y377671D01*
X176269Y377715D01*
X176406Y377756D01*
X176544Y377793D01*
X176683Y377826D01*
X176823Y377856D01*
X176964Y377881D01*
X177106Y377903D01*
X177248Y377920D01*
X177390Y377934D01*
X177533Y377944D01*
X177676Y377950D01*
X177819Y377952D01*
X99681Y366268D02*
X97084Y366268D01*
X96985Y366270D01*
X96885Y366276D01*
X96786Y366285D01*
X96688Y366298D01*
X96590Y366315D01*
X96492Y366336D01*
X96396Y366361D01*
X96301Y366389D01*
X96207Y366421D01*
X96114Y366456D01*
X96022Y366495D01*
X95932Y366538D01*
X95844Y366583D01*
X95757Y366633D01*
X95673Y366685D01*
X95590Y366741D01*
X95510Y366799D01*
X95432Y366861D01*
X95357Y366926D01*
X95284Y366994D01*
X95214Y367064D01*
X95146Y367137D01*
X95081Y367212D01*
X95019Y367290D01*
X94961Y367370D01*
X94905Y367453D01*
X94853Y367537D01*
X94803Y367624D01*
X94758Y367712D01*
X94715Y367802D01*
X94676Y367894D01*
X94641Y367987D01*
X94609Y368081D01*
X94581Y368176D01*
X94556Y368272D01*
X94535Y368370D01*
X94518Y368468D01*
X94505Y368566D01*
X94496Y368665D01*
X94490Y368765D01*
X94488Y368864D01*
X94488Y375356D01*
X94490Y375455D01*
X94496Y375555D01*
X94505Y375654D01*
X94518Y375752D01*
X94535Y375850D01*
X94556Y375948D01*
X94581Y376044D01*
X94609Y376139D01*
X94641Y376233D01*
X94676Y376326D01*
X94715Y376418D01*
X94758Y376508D01*
X94803Y376596D01*
X94853Y376683D01*
X94905Y376767D01*
X94961Y376850D01*
X95019Y376930D01*
X95081Y377008D01*
X95146Y377083D01*
X95214Y377156D01*
X95284Y377226D01*
X95357Y377294D01*
X95432Y377359D01*
X95510Y377421D01*
X95590Y377479D01*
X95673Y377535D01*
X95757Y377587D01*
X95844Y377637D01*
X95932Y377682D01*
X96022Y377725D01*
X96114Y377764D01*
X96206Y377799D01*
X96301Y377831D01*
X96396Y377859D01*
X96492Y377884D01*
X96590Y377905D01*
X96688Y377922D01*
X96786Y377935D01*
X96885Y377944D01*
X96985Y377950D01*
X97084Y377952D01*
X99681Y377952D01*
X104046Y377952D02*
X104046Y376654D01*
X104046Y377952D02*
X110537Y377952D01*
X107292Y366268D01*
X99681Y343408D02*
X97084Y343408D01*
X96985Y343410D01*
X96885Y343416D01*
X96786Y343425D01*
X96688Y343438D01*
X96590Y343455D01*
X96492Y343476D01*
X96396Y343501D01*
X96301Y343529D01*
X96207Y343561D01*
X96114Y343596D01*
X96022Y343635D01*
X95932Y343678D01*
X95844Y343723D01*
X95757Y343773D01*
X95673Y343825D01*
X95590Y343881D01*
X95510Y343939D01*
X95432Y344001D01*
X95357Y344066D01*
X95284Y344134D01*
X95214Y344204D01*
X95146Y344277D01*
X95081Y344352D01*
X95019Y344430D01*
X94961Y344510D01*
X94905Y344593D01*
X94853Y344677D01*
X94803Y344764D01*
X94758Y344852D01*
X94715Y344942D01*
X94676Y345034D01*
X94641Y345127D01*
X94609Y345221D01*
X94581Y345316D01*
X94556Y345412D01*
X94535Y345510D01*
X94518Y345608D01*
X94505Y345706D01*
X94496Y345805D01*
X94490Y345905D01*
X94488Y346004D01*
X94488Y352496D01*
X94490Y352595D01*
X94496Y352695D01*
X94505Y352794D01*
X94518Y352892D01*
X94535Y352990D01*
X94556Y353088D01*
X94581Y353184D01*
X94609Y353279D01*
X94641Y353373D01*
X94676Y353466D01*
X94715Y353558D01*
X94758Y353648D01*
X94803Y353736D01*
X94853Y353823D01*
X94905Y353907D01*
X94961Y353990D01*
X95019Y354070D01*
X95081Y354148D01*
X95146Y354223D01*
X95214Y354296D01*
X95284Y354366D01*
X95357Y354434D01*
X95432Y354499D01*
X95510Y354561D01*
X95590Y354619D01*
X95673Y354675D01*
X95757Y354727D01*
X95844Y354777D01*
X95932Y354822D01*
X96022Y354865D01*
X96114Y354904D01*
X96206Y354939D01*
X96301Y354971D01*
X96396Y354999D01*
X96492Y355024D01*
X96590Y355045D01*
X96688Y355062D01*
X96786Y355075D01*
X96885Y355084D01*
X96985Y355090D01*
X97084Y355092D01*
X99681Y355092D01*
X104046Y346654D02*
X104048Y346767D01*
X104054Y346880D01*
X104064Y346993D01*
X104078Y347106D01*
X104095Y347218D01*
X104117Y347329D01*
X104142Y347439D01*
X104172Y347549D01*
X104205Y347657D01*
X104242Y347764D01*
X104282Y347870D01*
X104327Y347974D01*
X104375Y348077D01*
X104426Y348178D01*
X104481Y348277D01*
X104539Y348374D01*
X104601Y348469D01*
X104666Y348562D01*
X104734Y348652D01*
X104805Y348740D01*
X104880Y348826D01*
X104957Y348909D01*
X105037Y348989D01*
X105120Y349066D01*
X105206Y349141D01*
X105294Y349212D01*
X105384Y349280D01*
X105477Y349345D01*
X105572Y349407D01*
X105669Y349465D01*
X105768Y349520D01*
X105869Y349571D01*
X105972Y349619D01*
X106076Y349664D01*
X106182Y349704D01*
X106289Y349741D01*
X106397Y349774D01*
X106507Y349804D01*
X106617Y349829D01*
X106728Y349851D01*
X106840Y349868D01*
X106953Y349882D01*
X107066Y349892D01*
X107179Y349898D01*
X107292Y349900D01*
X107405Y349898D01*
X107518Y349892D01*
X107631Y349882D01*
X107744Y349868D01*
X107856Y349851D01*
X107967Y349829D01*
X108077Y349804D01*
X108187Y349774D01*
X108295Y349741D01*
X108402Y349704D01*
X108508Y349664D01*
X108612Y349619D01*
X108715Y349571D01*
X108816Y349520D01*
X108915Y349465D01*
X109012Y349407D01*
X109107Y349345D01*
X109200Y349280D01*
X109290Y349212D01*
X109378Y349141D01*
X109464Y349066D01*
X109547Y348989D01*
X109627Y348909D01*
X109704Y348826D01*
X109779Y348740D01*
X109850Y348652D01*
X109918Y348562D01*
X109983Y348469D01*
X110045Y348374D01*
X110103Y348277D01*
X110158Y348178D01*
X110209Y348077D01*
X110257Y347974D01*
X110302Y347870D01*
X110342Y347764D01*
X110379Y347657D01*
X110412Y347549D01*
X110442Y347439D01*
X110467Y347329D01*
X110489Y347218D01*
X110506Y347106D01*
X110520Y346993D01*
X110530Y346880D01*
X110536Y346767D01*
X110538Y346654D01*
X110536Y346541D01*
X110530Y346428D01*
X110520Y346315D01*
X110506Y346202D01*
X110489Y346090D01*
X110467Y345979D01*
X110442Y345869D01*
X110412Y345759D01*
X110379Y345651D01*
X110342Y345544D01*
X110302Y345438D01*
X110257Y345334D01*
X110209Y345231D01*
X110158Y345130D01*
X110103Y345031D01*
X110045Y344934D01*
X109983Y344839D01*
X109918Y344746D01*
X109850Y344656D01*
X109779Y344568D01*
X109704Y344482D01*
X109627Y344399D01*
X109547Y344319D01*
X109464Y344242D01*
X109378Y344167D01*
X109290Y344096D01*
X109200Y344028D01*
X109107Y343963D01*
X109012Y343901D01*
X108915Y343843D01*
X108816Y343788D01*
X108715Y343737D01*
X108612Y343689D01*
X108508Y343644D01*
X108402Y343604D01*
X108295Y343567D01*
X108187Y343534D01*
X108077Y343504D01*
X107967Y343479D01*
X107856Y343457D01*
X107744Y343440D01*
X107631Y343426D01*
X107518Y343416D01*
X107405Y343410D01*
X107292Y343408D01*
X107179Y343410D01*
X107066Y343416D01*
X106953Y343426D01*
X106840Y343440D01*
X106728Y343457D01*
X106617Y343479D01*
X106507Y343504D01*
X106397Y343534D01*
X106289Y343567D01*
X106182Y343604D01*
X106076Y343644D01*
X105972Y343689D01*
X105869Y343737D01*
X105768Y343788D01*
X105669Y343843D01*
X105572Y343901D01*
X105477Y343963D01*
X105384Y344028D01*
X105294Y344096D01*
X105206Y344167D01*
X105120Y344242D01*
X105037Y344319D01*
X104957Y344399D01*
X104880Y344482D01*
X104805Y344568D01*
X104734Y344656D01*
X104666Y344746D01*
X104601Y344839D01*
X104539Y344934D01*
X104481Y345031D01*
X104426Y345130D01*
X104375Y345231D01*
X104327Y345334D01*
X104282Y345438D01*
X104242Y345544D01*
X104205Y345651D01*
X104172Y345759D01*
X104142Y345869D01*
X104117Y345979D01*
X104095Y346090D01*
X104078Y346202D01*
X104064Y346315D01*
X104054Y346428D01*
X104048Y346541D01*
X104046Y346654D01*
X104696Y352496D02*
X104698Y352597D01*
X104704Y352697D01*
X104714Y352797D01*
X104727Y352897D01*
X104745Y352996D01*
X104766Y353095D01*
X104791Y353192D01*
X104820Y353289D01*
X104853Y353384D01*
X104889Y353478D01*
X104929Y353570D01*
X104972Y353661D01*
X105019Y353750D01*
X105069Y353837D01*
X105123Y353923D01*
X105180Y354006D01*
X105240Y354086D01*
X105303Y354165D01*
X105370Y354241D01*
X105439Y354314D01*
X105511Y354384D01*
X105585Y354452D01*
X105662Y354517D01*
X105742Y354578D01*
X105824Y354637D01*
X105908Y354692D01*
X105994Y354744D01*
X106082Y354793D01*
X106172Y354838D01*
X106264Y354880D01*
X106357Y354918D01*
X106452Y354952D01*
X106547Y354983D01*
X106644Y355010D01*
X106742Y355033D01*
X106841Y355053D01*
X106941Y355068D01*
X107041Y355080D01*
X107141Y355088D01*
X107242Y355092D01*
X107342Y355092D01*
X107443Y355088D01*
X107543Y355080D01*
X107643Y355068D01*
X107743Y355053D01*
X107842Y355033D01*
X107940Y355010D01*
X108037Y354983D01*
X108132Y354952D01*
X108227Y354918D01*
X108320Y354880D01*
X108412Y354838D01*
X108502Y354793D01*
X108590Y354744D01*
X108676Y354692D01*
X108760Y354637D01*
X108842Y354578D01*
X108922Y354517D01*
X108999Y354452D01*
X109073Y354384D01*
X109145Y354314D01*
X109214Y354241D01*
X109281Y354165D01*
X109344Y354086D01*
X109404Y354006D01*
X109461Y353923D01*
X109515Y353837D01*
X109565Y353750D01*
X109612Y353661D01*
X109655Y353570D01*
X109695Y353478D01*
X109731Y353384D01*
X109764Y353289D01*
X109793Y353192D01*
X109818Y353095D01*
X109839Y352996D01*
X109857Y352897D01*
X109870Y352797D01*
X109880Y352697D01*
X109886Y352597D01*
X109888Y352496D01*
X109886Y352395D01*
X109880Y352295D01*
X109870Y352195D01*
X109857Y352095D01*
X109839Y351996D01*
X109818Y351897D01*
X109793Y351800D01*
X109764Y351703D01*
X109731Y351608D01*
X109695Y351514D01*
X109655Y351422D01*
X109612Y351331D01*
X109565Y351242D01*
X109515Y351155D01*
X109461Y351069D01*
X109404Y350986D01*
X109344Y350906D01*
X109281Y350827D01*
X109214Y350751D01*
X109145Y350678D01*
X109073Y350608D01*
X108999Y350540D01*
X108922Y350475D01*
X108842Y350414D01*
X108760Y350355D01*
X108676Y350300D01*
X108590Y350248D01*
X108502Y350199D01*
X108412Y350154D01*
X108320Y350112D01*
X108227Y350074D01*
X108132Y350040D01*
X108037Y350009D01*
X107940Y349982D01*
X107842Y349959D01*
X107743Y349939D01*
X107643Y349924D01*
X107543Y349912D01*
X107443Y349904D01*
X107342Y349900D01*
X107242Y349900D01*
X107141Y349904D01*
X107041Y349912D01*
X106941Y349924D01*
X106841Y349939D01*
X106742Y349959D01*
X106644Y349982D01*
X106547Y350009D01*
X106452Y350040D01*
X106357Y350074D01*
X106264Y350112D01*
X106172Y350154D01*
X106082Y350199D01*
X105994Y350248D01*
X105908Y350300D01*
X105824Y350355D01*
X105742Y350414D01*
X105662Y350475D01*
X105585Y350540D01*
X105511Y350608D01*
X105439Y350678D01*
X105370Y350751D01*
X105303Y350827D01*
X105240Y350906D01*
X105180Y350986D01*
X105123Y351069D01*
X105069Y351155D01*
X105019Y351242D01*
X104972Y351331D01*
X104929Y351422D01*
X104889Y351514D01*
X104853Y351608D01*
X104820Y351703D01*
X104791Y351800D01*
X104766Y351897D01*
X104745Y351996D01*
X104727Y352095D01*
X104714Y352195D01*
X104704Y352295D01*
X104698Y352395D01*
X104696Y352496D01*
X201224Y343408D02*
X203821Y343408D01*
X201224Y343408D02*
X201125Y343410D01*
X201025Y343416D01*
X200926Y343425D01*
X200828Y343438D01*
X200730Y343455D01*
X200632Y343476D01*
X200536Y343501D01*
X200441Y343529D01*
X200347Y343561D01*
X200254Y343596D01*
X200162Y343635D01*
X200072Y343678D01*
X199984Y343723D01*
X199897Y343773D01*
X199813Y343825D01*
X199730Y343881D01*
X199650Y343939D01*
X199572Y344001D01*
X199497Y344066D01*
X199424Y344134D01*
X199354Y344204D01*
X199286Y344277D01*
X199221Y344352D01*
X199159Y344430D01*
X199101Y344510D01*
X199045Y344593D01*
X198993Y344677D01*
X198943Y344764D01*
X198898Y344852D01*
X198855Y344942D01*
X198816Y345034D01*
X198781Y345127D01*
X198749Y345221D01*
X198721Y345316D01*
X198696Y345412D01*
X198675Y345510D01*
X198658Y345608D01*
X198645Y345706D01*
X198636Y345805D01*
X198630Y345905D01*
X198628Y346004D01*
X198628Y352496D01*
X198630Y352595D01*
X198636Y352695D01*
X198645Y352794D01*
X198658Y352892D01*
X198675Y352990D01*
X198696Y353088D01*
X198721Y353184D01*
X198749Y353279D01*
X198781Y353373D01*
X198816Y353466D01*
X198855Y353558D01*
X198898Y353648D01*
X198943Y353736D01*
X198993Y353823D01*
X199045Y353907D01*
X199101Y353990D01*
X199159Y354070D01*
X199221Y354148D01*
X199286Y354223D01*
X199354Y354296D01*
X199424Y354366D01*
X199497Y354434D01*
X199572Y354499D01*
X199650Y354561D01*
X199730Y354619D01*
X199813Y354675D01*
X199897Y354727D01*
X199984Y354777D01*
X200072Y354822D01*
X200162Y354865D01*
X200254Y354904D01*
X200346Y354939D01*
X200441Y354971D01*
X200536Y354999D01*
X200632Y355024D01*
X200730Y355045D01*
X200828Y355062D01*
X200926Y355075D01*
X201025Y355084D01*
X201125Y355090D01*
X201224Y355092D01*
X203821Y355092D01*
X210783Y348601D02*
X214677Y348601D01*
X210783Y348601D02*
X210684Y348603D01*
X210584Y348609D01*
X210485Y348618D01*
X210387Y348631D01*
X210289Y348648D01*
X210191Y348669D01*
X210095Y348694D01*
X210000Y348722D01*
X209906Y348754D01*
X209813Y348789D01*
X209721Y348828D01*
X209631Y348871D01*
X209543Y348916D01*
X209456Y348966D01*
X209372Y349018D01*
X209289Y349074D01*
X209209Y349132D01*
X209131Y349194D01*
X209056Y349259D01*
X208983Y349327D01*
X208913Y349397D01*
X208845Y349470D01*
X208780Y349545D01*
X208718Y349623D01*
X208660Y349703D01*
X208604Y349786D01*
X208552Y349870D01*
X208502Y349957D01*
X208457Y350045D01*
X208414Y350135D01*
X208375Y350227D01*
X208340Y350320D01*
X208308Y350414D01*
X208280Y350509D01*
X208255Y350605D01*
X208234Y350703D01*
X208217Y350801D01*
X208204Y350899D01*
X208195Y350998D01*
X208189Y351098D01*
X208187Y351197D01*
X208186Y351197D02*
X208186Y351846D01*
X208188Y351959D01*
X208194Y352072D01*
X208204Y352185D01*
X208218Y352298D01*
X208235Y352410D01*
X208257Y352521D01*
X208282Y352631D01*
X208312Y352741D01*
X208345Y352849D01*
X208382Y352956D01*
X208422Y353062D01*
X208467Y353166D01*
X208515Y353269D01*
X208566Y353370D01*
X208621Y353469D01*
X208679Y353566D01*
X208741Y353661D01*
X208806Y353754D01*
X208874Y353844D01*
X208945Y353932D01*
X209020Y354018D01*
X209097Y354101D01*
X209177Y354181D01*
X209260Y354258D01*
X209346Y354333D01*
X209434Y354404D01*
X209524Y354472D01*
X209617Y354537D01*
X209712Y354599D01*
X209809Y354657D01*
X209908Y354712D01*
X210009Y354763D01*
X210112Y354811D01*
X210216Y354856D01*
X210322Y354896D01*
X210429Y354933D01*
X210537Y354966D01*
X210647Y354996D01*
X210757Y355021D01*
X210868Y355043D01*
X210980Y355060D01*
X211093Y355074D01*
X211206Y355084D01*
X211319Y355090D01*
X211432Y355092D01*
X211545Y355090D01*
X211658Y355084D01*
X211771Y355074D01*
X211884Y355060D01*
X211996Y355043D01*
X212107Y355021D01*
X212217Y354996D01*
X212327Y354966D01*
X212435Y354933D01*
X212542Y354896D01*
X212648Y354856D01*
X212752Y354811D01*
X212855Y354763D01*
X212956Y354712D01*
X213055Y354657D01*
X213152Y354599D01*
X213247Y354537D01*
X213340Y354472D01*
X213430Y354404D01*
X213518Y354333D01*
X213604Y354258D01*
X213687Y354181D01*
X213767Y354101D01*
X213844Y354018D01*
X213919Y353932D01*
X213990Y353844D01*
X214058Y353754D01*
X214123Y353661D01*
X214185Y353566D01*
X214243Y353469D01*
X214298Y353370D01*
X214349Y353269D01*
X214397Y353166D01*
X214442Y353062D01*
X214482Y352956D01*
X214519Y352849D01*
X214552Y352741D01*
X214582Y352631D01*
X214607Y352521D01*
X214629Y352410D01*
X214646Y352298D01*
X214660Y352185D01*
X214670Y352072D01*
X214676Y351959D01*
X214678Y351846D01*
X214677Y351846D02*
X214677Y348601D01*
X214675Y348458D01*
X214669Y348315D01*
X214659Y348172D01*
X214645Y348030D01*
X214628Y347888D01*
X214606Y347746D01*
X214581Y347605D01*
X214551Y347465D01*
X214518Y347326D01*
X214481Y347188D01*
X214440Y347051D01*
X214396Y346915D01*
X214347Y346780D01*
X214295Y346647D01*
X214240Y346515D01*
X214180Y346385D01*
X214117Y346256D01*
X214051Y346129D01*
X213981Y346004D01*
X213908Y345882D01*
X213831Y345761D01*
X213751Y345642D01*
X213668Y345526D01*
X213582Y345411D01*
X213493Y345300D01*
X213400Y345190D01*
X213305Y345084D01*
X213206Y344980D01*
X213105Y344879D01*
X213001Y344780D01*
X212895Y344685D01*
X212785Y344592D01*
X212674Y344503D01*
X212559Y344417D01*
X212443Y344334D01*
X212324Y344254D01*
X212203Y344177D01*
X212080Y344104D01*
X211956Y344034D01*
X211829Y343968D01*
X211700Y343905D01*
X211570Y343845D01*
X211438Y343790D01*
X211305Y343738D01*
X211170Y343689D01*
X211034Y343645D01*
X210897Y343604D01*
X210759Y343567D01*
X210620Y343534D01*
X210480Y343504D01*
X210339Y343479D01*
X210197Y343457D01*
X210055Y343440D01*
X209913Y343426D01*
X209770Y343416D01*
X209627Y343410D01*
X209484Y343408D01*
X198741Y366268D02*
X196144Y366268D01*
X196045Y366270D01*
X195945Y366276D01*
X195846Y366285D01*
X195748Y366298D01*
X195650Y366315D01*
X195552Y366336D01*
X195456Y366361D01*
X195361Y366389D01*
X195267Y366421D01*
X195174Y366456D01*
X195082Y366495D01*
X194992Y366538D01*
X194904Y366583D01*
X194817Y366633D01*
X194733Y366685D01*
X194650Y366741D01*
X194570Y366799D01*
X194492Y366861D01*
X194417Y366926D01*
X194344Y366994D01*
X194274Y367064D01*
X194206Y367137D01*
X194141Y367212D01*
X194079Y367290D01*
X194021Y367370D01*
X193965Y367453D01*
X193913Y367537D01*
X193863Y367624D01*
X193818Y367712D01*
X193775Y367802D01*
X193736Y367894D01*
X193701Y367987D01*
X193669Y368081D01*
X193641Y368176D01*
X193616Y368272D01*
X193595Y368370D01*
X193578Y368468D01*
X193565Y368566D01*
X193556Y368665D01*
X193550Y368765D01*
X193548Y368864D01*
X193548Y375356D01*
X193550Y375455D01*
X193556Y375555D01*
X193565Y375654D01*
X193578Y375752D01*
X193595Y375850D01*
X193616Y375948D01*
X193641Y376044D01*
X193669Y376139D01*
X193701Y376233D01*
X193736Y376326D01*
X193775Y376418D01*
X193818Y376508D01*
X193863Y376596D01*
X193913Y376683D01*
X193965Y376767D01*
X194021Y376850D01*
X194079Y376930D01*
X194141Y377008D01*
X194206Y377083D01*
X194274Y377156D01*
X194344Y377226D01*
X194417Y377294D01*
X194492Y377359D01*
X194570Y377421D01*
X194650Y377479D01*
X194733Y377535D01*
X194817Y377587D01*
X194904Y377637D01*
X194992Y377682D01*
X195082Y377725D01*
X195174Y377764D01*
X195266Y377799D01*
X195361Y377831D01*
X195456Y377859D01*
X195552Y377884D01*
X195650Y377905D01*
X195748Y377922D01*
X195846Y377935D01*
X195945Y377944D01*
X196045Y377950D01*
X196144Y377952D01*
X198741Y377952D01*
X203106Y375356D02*
X206352Y377952D01*
X206352Y366268D01*
X209597Y366268D02*
X203106Y366268D01*
X214537Y372110D02*
X214540Y372340D01*
X214548Y372570D01*
X214562Y372799D01*
X214581Y373028D01*
X214606Y373257D01*
X214636Y373484D01*
X214671Y373712D01*
X214712Y373938D01*
X214758Y374163D01*
X214810Y374387D01*
X214867Y374609D01*
X214929Y374831D01*
X214997Y375050D01*
X215070Y375268D01*
X215148Y375485D01*
X215231Y375699D01*
X215319Y375911D01*
X215412Y376121D01*
X215511Y376329D01*
X215510Y376329D02*
X215543Y376419D01*
X215579Y376508D01*
X215619Y376596D01*
X215663Y376681D01*
X215710Y376765D01*
X215760Y376847D01*
X215814Y376927D01*
X215870Y377004D01*
X215930Y377080D01*
X215993Y377153D01*
X216058Y377223D01*
X216127Y377291D01*
X216198Y377355D01*
X216271Y377417D01*
X216347Y377476D01*
X216425Y377532D01*
X216506Y377585D01*
X216588Y377634D01*
X216672Y377680D01*
X216759Y377723D01*
X216846Y377762D01*
X216936Y377798D01*
X217026Y377830D01*
X217118Y377858D01*
X217211Y377883D01*
X217305Y377904D01*
X217399Y377921D01*
X217494Y377935D01*
X217590Y377944D01*
X217686Y377950D01*
X217782Y377952D01*
X217878Y377950D01*
X217974Y377944D01*
X218070Y377935D01*
X218165Y377921D01*
X218259Y377904D01*
X218353Y377883D01*
X218446Y377858D01*
X218538Y377830D01*
X218628Y377798D01*
X218718Y377762D01*
X218805Y377723D01*
X218892Y377680D01*
X218976Y377634D01*
X219058Y377585D01*
X219139Y377532D01*
X219217Y377476D01*
X219293Y377417D01*
X219366Y377355D01*
X219437Y377291D01*
X219506Y377223D01*
X219571Y377153D01*
X219634Y377080D01*
X219694Y377004D01*
X219750Y376927D01*
X219804Y376847D01*
X219854Y376765D01*
X219901Y376681D01*
X219945Y376596D01*
X219985Y376508D01*
X220021Y376419D01*
X220054Y376329D01*
X220153Y376122D01*
X220246Y375912D01*
X220334Y375699D01*
X220417Y375485D01*
X220495Y375269D01*
X220568Y375051D01*
X220636Y374831D01*
X220698Y374610D01*
X220755Y374387D01*
X220807Y374163D01*
X220853Y373938D01*
X220894Y373712D01*
X220929Y373485D01*
X220959Y373257D01*
X220984Y373028D01*
X221003Y372799D01*
X221017Y372570D01*
X221025Y372340D01*
X221028Y372110D01*
X214536Y372110D02*
X214539Y371880D01*
X214547Y371650D01*
X214561Y371421D01*
X214580Y371192D01*
X214605Y370963D01*
X214635Y370735D01*
X214670Y370508D01*
X214711Y370282D01*
X214757Y370057D01*
X214809Y369833D01*
X214866Y369610D01*
X214928Y369389D01*
X214996Y369169D01*
X215069Y368951D01*
X215147Y368735D01*
X215230Y368521D01*
X215318Y368309D01*
X215411Y368098D01*
X215510Y367891D01*
X215543Y367801D01*
X215579Y367712D01*
X215620Y367624D01*
X215663Y367539D01*
X215710Y367455D01*
X215760Y367373D01*
X215814Y367293D01*
X215870Y367216D01*
X215930Y367140D01*
X215993Y367067D01*
X216058Y366997D01*
X216127Y366929D01*
X216198Y366865D01*
X216271Y366803D01*
X216347Y366744D01*
X216425Y366688D01*
X216506Y366635D01*
X216588Y366586D01*
X216672Y366540D01*
X216759Y366497D01*
X216846Y366458D01*
X216936Y366422D01*
X217026Y366390D01*
X217118Y366362D01*
X217211Y366337D01*
X217305Y366316D01*
X217399Y366299D01*
X217494Y366285D01*
X217590Y366276D01*
X217686Y366270D01*
X217782Y366268D01*
X220054Y367891D02*
X220153Y368098D01*
X220246Y368309D01*
X220334Y368521D01*
X220417Y368735D01*
X220495Y368951D01*
X220568Y369169D01*
X220636Y369389D01*
X220698Y369610D01*
X220755Y369833D01*
X220807Y370057D01*
X220853Y370282D01*
X220894Y370508D01*
X220929Y370735D01*
X220959Y370963D01*
X220984Y371192D01*
X221003Y371421D01*
X221017Y371650D01*
X221025Y371880D01*
X221028Y372110D01*
X220054Y367891D02*
X220021Y367801D01*
X219985Y367712D01*
X219945Y367624D01*
X219901Y367539D01*
X219854Y367455D01*
X219804Y367373D01*
X219750Y367293D01*
X219694Y367216D01*
X219634Y367140D01*
X219571Y367067D01*
X219506Y366997D01*
X219437Y366929D01*
X219366Y366865D01*
X219293Y366803D01*
X219217Y366744D01*
X219139Y366688D01*
X219058Y366635D01*
X218976Y366586D01*
X218892Y366540D01*
X218805Y366497D01*
X218718Y366458D01*
X218628Y366422D01*
X218538Y366390D01*
X218446Y366362D01*
X218353Y366337D01*
X218259Y366316D01*
X218165Y366299D01*
X218070Y366285D01*
X217974Y366276D01*
X217878Y366270D01*
X217782Y366268D01*
X215185Y368864D02*
X220378Y375356D01*
X128778Y355092D02*
X128778Y343408D01*
X133971Y343408D01*
X138280Y352496D02*
X141526Y355092D01*
X141526Y343408D01*
X138280Y343408D02*
X144772Y343408D01*
X235458Y366268D02*
X235458Y377952D01*
X235458Y366268D02*
X240651Y366268D01*
X251452Y375031D02*
X251450Y375138D01*
X251444Y375244D01*
X251434Y375350D01*
X251421Y375456D01*
X251403Y375562D01*
X251382Y375666D01*
X251357Y375770D01*
X251328Y375873D01*
X251296Y375974D01*
X251259Y376074D01*
X251219Y376173D01*
X251176Y376271D01*
X251129Y376367D01*
X251078Y376461D01*
X251024Y376553D01*
X250967Y376643D01*
X250907Y376731D01*
X250843Y376816D01*
X250776Y376899D01*
X250706Y376980D01*
X250634Y377058D01*
X250558Y377134D01*
X250480Y377206D01*
X250399Y377276D01*
X250316Y377343D01*
X250231Y377407D01*
X250143Y377467D01*
X250053Y377524D01*
X249961Y377578D01*
X249867Y377629D01*
X249771Y377676D01*
X249673Y377719D01*
X249574Y377759D01*
X249474Y377796D01*
X249373Y377828D01*
X249270Y377857D01*
X249166Y377882D01*
X249062Y377903D01*
X248956Y377921D01*
X248850Y377934D01*
X248744Y377944D01*
X248638Y377950D01*
X248531Y377952D01*
X248410Y377950D01*
X248289Y377944D01*
X248169Y377934D01*
X248048Y377921D01*
X247929Y377903D01*
X247809Y377882D01*
X247691Y377857D01*
X247574Y377828D01*
X247457Y377795D01*
X247342Y377759D01*
X247228Y377718D01*
X247115Y377675D01*
X247003Y377627D01*
X246894Y377576D01*
X246786Y377521D01*
X246679Y377463D01*
X246575Y377402D01*
X246473Y377337D01*
X246373Y377269D01*
X246275Y377198D01*
X246179Y377124D01*
X246086Y377047D01*
X245996Y376966D01*
X245908Y376883D01*
X245823Y376797D01*
X245740Y376708D01*
X245661Y376617D01*
X245584Y376523D01*
X245511Y376427D01*
X245441Y376329D01*
X245374Y376228D01*
X245310Y376125D01*
X245250Y376020D01*
X245193Y375913D01*
X245139Y375805D01*
X245089Y375695D01*
X245043Y375583D01*
X245000Y375470D01*
X244961Y375355D01*
X250478Y372759D02*
X250557Y372836D01*
X250633Y372917D01*
X250706Y373000D01*
X250776Y373085D01*
X250843Y373173D01*
X250907Y373263D01*
X250967Y373355D01*
X251024Y373450D01*
X251078Y373546D01*
X251129Y373644D01*
X251176Y373744D01*
X251220Y373846D01*
X251260Y373949D01*
X251296Y374053D01*
X251328Y374159D01*
X251357Y374265D01*
X251382Y374373D01*
X251404Y374481D01*
X251421Y374591D01*
X251435Y374700D01*
X251444Y374810D01*
X251450Y374921D01*
X251452Y375031D01*
X250478Y372759D02*
X244960Y366268D01*
X251452Y366268D01*
D10*
X395338Y138608D02*
X395338Y11608D01*
X395338Y138608D02*
X448678Y138608D01*
X448678Y11608D01*
X395338Y11608D01*
D126*
X459370Y282340D02*
X459387Y283720D01*
X459438Y285100D01*
X459522Y286478D01*
X459641Y287853D01*
X459793Y289226D01*
X459979Y290594D01*
X460198Y291957D01*
X460451Y293314D01*
X460737Y294664D01*
X461056Y296008D01*
X461408Y297343D01*
X461792Y298669D01*
X462209Y299985D01*
X462658Y301290D01*
X463139Y302584D01*
X463652Y303866D01*
X464196Y305135D01*
X464771Y306390D01*
X465376Y307631D01*
X466012Y308856D01*
X466678Y310066D01*
X467373Y311258D01*
X468097Y312434D01*
X468850Y313591D01*
X469631Y314729D01*
X470440Y315848D01*
X471276Y316947D01*
X472138Y318025D01*
X473027Y319081D01*
X473941Y320115D01*
X474881Y321127D01*
X475845Y322115D01*
X476833Y323079D01*
X477845Y324019D01*
X478879Y324933D01*
X479935Y325822D01*
X481013Y326684D01*
X482112Y327520D01*
X483231Y328329D01*
X484369Y329110D01*
X485526Y329863D01*
X486702Y330587D01*
X487894Y331282D01*
X489104Y331948D01*
X490329Y332584D01*
X491570Y333189D01*
X492825Y333764D01*
X494094Y334308D01*
X495376Y334821D01*
X496670Y335302D01*
X497975Y335751D01*
X499291Y336168D01*
X500617Y336552D01*
X501952Y336904D01*
X503296Y337223D01*
X504646Y337509D01*
X506003Y337762D01*
X507366Y337981D01*
X508734Y338167D01*
X510107Y338319D01*
X511482Y338438D01*
X512860Y338522D01*
X514240Y338573D01*
X515620Y338590D01*
X517000Y338573D01*
X518380Y338522D01*
X519758Y338438D01*
X521133Y338319D01*
X522506Y338167D01*
X523874Y337981D01*
X525237Y337762D01*
X526594Y337509D01*
X527944Y337223D01*
X529288Y336904D01*
X530623Y336552D01*
X531949Y336168D01*
X533265Y335751D01*
X534570Y335302D01*
X535864Y334821D01*
X537146Y334308D01*
X538415Y333764D01*
X539670Y333189D01*
X540911Y332584D01*
X542136Y331948D01*
X543346Y331282D01*
X544538Y330587D01*
X545714Y329863D01*
X546871Y329110D01*
X548009Y328329D01*
X549128Y327520D01*
X550227Y326684D01*
X551305Y325822D01*
X552361Y324933D01*
X553395Y324019D01*
X554407Y323079D01*
X555395Y322115D01*
X556359Y321127D01*
X557299Y320115D01*
X558213Y319081D01*
X559102Y318025D01*
X559964Y316947D01*
X560800Y315848D01*
X561609Y314729D01*
X562390Y313591D01*
X563143Y312434D01*
X563867Y311258D01*
X564562Y310066D01*
X565228Y308856D01*
X565864Y307631D01*
X566469Y306390D01*
X567044Y305135D01*
X567588Y303866D01*
X568101Y302584D01*
X568582Y301290D01*
X569031Y299985D01*
X569448Y298669D01*
X569832Y297343D01*
X570184Y296008D01*
X570503Y294664D01*
X570789Y293314D01*
X571042Y291957D01*
X571261Y290594D01*
X571447Y289226D01*
X571599Y287853D01*
X571718Y286478D01*
X571802Y285100D01*
X571853Y283720D01*
X571870Y282340D01*
X571853Y280960D01*
X571802Y279580D01*
X571718Y278202D01*
X571599Y276827D01*
X571447Y275454D01*
X571261Y274086D01*
X571042Y272723D01*
X570789Y271366D01*
X570503Y270016D01*
X570184Y268672D01*
X569832Y267337D01*
X569448Y266011D01*
X569031Y264695D01*
X568582Y263390D01*
X568101Y262096D01*
X567588Y260814D01*
X567044Y259545D01*
X566469Y258290D01*
X565864Y257049D01*
X565228Y255824D01*
X564562Y254614D01*
X563867Y253422D01*
X563143Y252246D01*
X562390Y251089D01*
X561609Y249951D01*
X560800Y248832D01*
X559964Y247733D01*
X559102Y246655D01*
X558213Y245599D01*
X557299Y244565D01*
X556359Y243553D01*
X555395Y242565D01*
X554407Y241601D01*
X553395Y240661D01*
X552361Y239747D01*
X551305Y238858D01*
X550227Y237996D01*
X549128Y237160D01*
X548009Y236351D01*
X546871Y235570D01*
X545714Y234817D01*
X544538Y234093D01*
X543346Y233398D01*
X542136Y232732D01*
X540911Y232096D01*
X539670Y231491D01*
X538415Y230916D01*
X537146Y230372D01*
X535864Y229859D01*
X534570Y229378D01*
X533265Y228929D01*
X531949Y228512D01*
X530623Y228128D01*
X529288Y227776D01*
X527944Y227457D01*
X526594Y227171D01*
X525237Y226918D01*
X523874Y226699D01*
X522506Y226513D01*
X521133Y226361D01*
X519758Y226242D01*
X518380Y226158D01*
X517000Y226107D01*
X515620Y226090D01*
X514240Y226107D01*
X512860Y226158D01*
X511482Y226242D01*
X510107Y226361D01*
X508734Y226513D01*
X507366Y226699D01*
X506003Y226918D01*
X504646Y227171D01*
X503296Y227457D01*
X501952Y227776D01*
X500617Y228128D01*
X499291Y228512D01*
X497975Y228929D01*
X496670Y229378D01*
X495376Y229859D01*
X494094Y230372D01*
X492825Y230916D01*
X491570Y231491D01*
X490329Y232096D01*
X489104Y232732D01*
X487894Y233398D01*
X486702Y234093D01*
X485526Y234817D01*
X484369Y235570D01*
X483231Y236351D01*
X482112Y237160D01*
X481013Y237996D01*
X479935Y238858D01*
X478879Y239747D01*
X477845Y240661D01*
X476833Y241601D01*
X475845Y242565D01*
X474881Y243553D01*
X473941Y244565D01*
X473027Y245599D01*
X472138Y246655D01*
X471276Y247733D01*
X470440Y248832D01*
X469631Y249951D01*
X468850Y251089D01*
X468097Y252246D01*
X467373Y253422D01*
X466678Y254614D01*
X466012Y255824D01*
X465376Y257049D01*
X464771Y258290D01*
X464196Y259545D01*
X463652Y260814D01*
X463139Y262096D01*
X462658Y263390D01*
X462209Y264695D01*
X461792Y266011D01*
X461408Y267337D01*
X461056Y268672D01*
X460737Y270016D01*
X460451Y271366D01*
X460198Y272723D01*
X459979Y274086D01*
X459793Y275454D01*
X459641Y276827D01*
X459522Y278202D01*
X459438Y279580D01*
X459387Y280960D01*
X459370Y282340D01*
D125*
X464370Y282340D02*
X464385Y283598D01*
X464432Y284855D01*
X464509Y286110D01*
X464617Y287363D01*
X464755Y288614D01*
X464925Y289860D01*
X465125Y291102D01*
X465355Y292338D01*
X465615Y293569D01*
X465906Y294793D01*
X466226Y296009D01*
X466577Y297217D01*
X466957Y298416D01*
X467366Y299606D01*
X467804Y300785D01*
X468271Y301953D01*
X468767Y303109D01*
X469291Y304252D01*
X469842Y305383D01*
X470422Y306499D01*
X471028Y307601D01*
X471661Y308688D01*
X472321Y309759D01*
X473007Y310813D01*
X473719Y311850D01*
X474456Y312870D01*
X475217Y313871D01*
X476003Y314853D01*
X476813Y315815D01*
X477646Y316757D01*
X478502Y317679D01*
X479381Y318579D01*
X480281Y319458D01*
X481203Y320314D01*
X482145Y321147D01*
X483107Y321957D01*
X484089Y322743D01*
X485090Y323504D01*
X486110Y324241D01*
X487147Y324953D01*
X488201Y325639D01*
X489272Y326299D01*
X490359Y326932D01*
X491461Y327538D01*
X492577Y328118D01*
X493708Y328669D01*
X494851Y329193D01*
X496007Y329689D01*
X497175Y330156D01*
X498354Y330594D01*
X499544Y331003D01*
X500743Y331383D01*
X501951Y331734D01*
X503167Y332054D01*
X504391Y332345D01*
X505622Y332605D01*
X506858Y332835D01*
X508100Y333035D01*
X509346Y333205D01*
X510597Y333343D01*
X511850Y333451D01*
X513105Y333528D01*
X514362Y333575D01*
X515620Y333590D01*
X516878Y333575D01*
X518135Y333528D01*
X519390Y333451D01*
X520643Y333343D01*
X521894Y333205D01*
X523140Y333035D01*
X524382Y332835D01*
X525618Y332605D01*
X526849Y332345D01*
X528073Y332054D01*
X529289Y331734D01*
X530497Y331383D01*
X531696Y331003D01*
X532886Y330594D01*
X534065Y330156D01*
X535233Y329689D01*
X536389Y329193D01*
X537532Y328669D01*
X538663Y328118D01*
X539779Y327538D01*
X540881Y326932D01*
X541968Y326299D01*
X543039Y325639D01*
X544093Y324953D01*
X545130Y324241D01*
X546150Y323504D01*
X547151Y322743D01*
X548133Y321957D01*
X549095Y321147D01*
X550037Y320314D01*
X550959Y319458D01*
X551859Y318579D01*
X552738Y317679D01*
X553594Y316757D01*
X554427Y315815D01*
X555237Y314853D01*
X556023Y313871D01*
X556784Y312870D01*
X557521Y311850D01*
X558233Y310813D01*
X558919Y309759D01*
X559579Y308688D01*
X560212Y307601D01*
X560818Y306499D01*
X561398Y305383D01*
X561949Y304252D01*
X562473Y303109D01*
X562969Y301953D01*
X563436Y300785D01*
X563874Y299606D01*
X564283Y298416D01*
X564663Y297217D01*
X565014Y296009D01*
X565334Y294793D01*
X565625Y293569D01*
X565885Y292338D01*
X566115Y291102D01*
X566315Y289860D01*
X566485Y288614D01*
X566623Y287363D01*
X566731Y286110D01*
X566808Y284855D01*
X566855Y283598D01*
X566870Y282340D01*
X566855Y281082D01*
X566808Y279825D01*
X566731Y278570D01*
X566623Y277317D01*
X566485Y276066D01*
X566315Y274820D01*
X566115Y273578D01*
X565885Y272342D01*
X565625Y271111D01*
X565334Y269887D01*
X565014Y268671D01*
X564663Y267463D01*
X564283Y266264D01*
X563874Y265074D01*
X563436Y263895D01*
X562969Y262727D01*
X562473Y261571D01*
X561949Y260428D01*
X561398Y259297D01*
X560818Y258181D01*
X560212Y257079D01*
X559579Y255992D01*
X558919Y254921D01*
X558233Y253867D01*
X557521Y252830D01*
X556784Y251810D01*
X556023Y250809D01*
X555237Y249827D01*
X554427Y248865D01*
X553594Y247923D01*
X552738Y247001D01*
X551859Y246101D01*
X550959Y245222D01*
X550037Y244366D01*
X549095Y243533D01*
X548133Y242723D01*
X547151Y241937D01*
X546150Y241176D01*
X545130Y240439D01*
X544093Y239727D01*
X543039Y239041D01*
X541968Y238381D01*
X540881Y237748D01*
X539779Y237142D01*
X538663Y236562D01*
X537532Y236011D01*
X536389Y235487D01*
X535233Y234991D01*
X534065Y234524D01*
X532886Y234086D01*
X531696Y233677D01*
X530497Y233297D01*
X529289Y232946D01*
X528073Y232626D01*
X526849Y232335D01*
X525618Y232075D01*
X524382Y231845D01*
X523140Y231645D01*
X521894Y231475D01*
X520643Y231337D01*
X519390Y231229D01*
X518135Y231152D01*
X516878Y231105D01*
X515620Y231090D01*
X514362Y231105D01*
X513105Y231152D01*
X511850Y231229D01*
X510597Y231337D01*
X509346Y231475D01*
X508100Y231645D01*
X506858Y231845D01*
X505622Y232075D01*
X504391Y232335D01*
X503167Y232626D01*
X501951Y232946D01*
X500743Y233297D01*
X499544Y233677D01*
X498354Y234086D01*
X497175Y234524D01*
X496007Y234991D01*
X494851Y235487D01*
X493708Y236011D01*
X492577Y236562D01*
X491461Y237142D01*
X490359Y237748D01*
X489272Y238381D01*
X488201Y239041D01*
X487147Y239727D01*
X486110Y240439D01*
X485090Y241176D01*
X484089Y241937D01*
X483107Y242723D01*
X482145Y243533D01*
X481203Y244366D01*
X480281Y245222D01*
X479381Y246101D01*
X478502Y247001D01*
X477646Y247923D01*
X476813Y248865D01*
X476003Y249827D01*
X475217Y250809D01*
X474456Y251810D01*
X473719Y252830D01*
X473007Y253867D01*
X472321Y254921D01*
X471661Y255992D01*
X471028Y257079D01*
X470422Y258181D01*
X469842Y259297D01*
X469291Y260428D01*
X468767Y261571D01*
X468271Y262727D01*
X467804Y263895D01*
X467366Y265074D01*
X466957Y266264D01*
X466577Y267463D01*
X466226Y268671D01*
X465906Y269887D01*
X465615Y271111D01*
X465355Y272342D01*
X465125Y273578D01*
X464925Y274820D01*
X464755Y276066D01*
X464617Y277317D01*
X464509Y278570D01*
X464432Y279825D01*
X464385Y281082D01*
X464370Y282340D01*
M02*
